<svg width="41" height="46" viewBox="0 0 41 46" fill="none" xmlns="http://www.w3.org/2000/svg">
<path d="M15.575 26.3338C15.6466 25.4911 15.9429 24.8039 16.4636 24.2723C17.0092 23.7321 17.6673 23.4882 18.4381 23.5408C18.5871 21.9187 18.9878 21.0786 19.6401 21.0204C19.894 21.0042 20.113 21.0613 20.297 21.1917C20.4804 21.3158 20.5401 21.4477 20.4759 21.5875C20.3696 21.8268 20.2481 22.326 20.1115 23.0851C19.9911 23.8109 19.9168 24.5166 19.8886 25.2022C19.8243 26.772 19.9568 27.5422 20.2862 27.5128C20.4698 27.4964 20.6497 27.3304 20.8259 27.0146C20.9962 26.7058 21.1077 26.3447 21.1602 25.9314C21.1928 25.7242 21.3383 25.6379 21.5967 25.6723C21.8488 25.7072 22.0377 25.8213 22.1635 26.0143C22.2376 26.129 22.2612 26.2514 22.2345 26.3815C21.9025 27.956 21.2108 28.7902 20.1595 28.8839C19.6401 28.9302 19.2292 28.6892 18.9267 28.1607C18.5451 28.7502 18.0757 29.0698 17.5183 29.1195C16.999 29.1658 16.5299 28.9523 16.111 28.4789C15.6979 27.9986 15.5192 27.2836 15.575 26.3338ZM18.3797 25.3559C18.3764 25.2476 18.3741 25.0787 18.3728 24.849C17.6285 24.8068 17.1746 25.2654 17.0112 26.2248C16.9379 26.691 16.9588 27.069 17.074 27.3588C17.1887 27.6422 17.36 27.7738 17.588 27.7534C17.835 27.7314 18.0268 27.5547 18.1632 27.2234C18.2991 26.8857 18.3741 26.4385 18.3883 25.8818C18.3843 25.8375 18.3815 25.6622 18.3797 25.3559Z" fill="#F8407C"/>
<path d="M24.9399 24.7325C24.8871 25.2863 24.6532 25.7412 24.238 26.0975C23.8414 26.4456 23.362 26.6895 22.7999 26.829C23.0422 27.184 23.4325 27.3376 23.9709 27.2896C24.3889 27.2523 24.7263 27.0626 24.9831 26.7205C25.2399 26.3784 25.3977 26.0004 25.4565 25.5866C25.4833 25.3863 25.6254 25.297 25.8827 25.3188C26.1279 25.348 26.3194 25.4554 26.4573 25.641C26.5382 25.7614 26.5657 25.8899 26.5395 26.0263C26.3857 26.7358 26.0727 27.3415 25.6003 27.8433C25.1389 28.3249 24.5567 28.5971 23.8537 28.6598C23.385 28.7016 22.9453 28.6387 22.5345 28.471C22.1163 28.2913 21.7771 27.9959 21.5171 27.585C21.2633 27.1735 21.1401 26.6865 21.1474 26.1241C21.1726 25.1898 21.3952 24.4645 21.8152 23.9483C22.2352 23.432 22.7808 23.1439 23.4522 23.0841C23.998 23.0481 24.3944 23.1979 24.6414 23.5334C24.901 23.8678 25.0005 24.2675 24.9399 24.7325ZM23.2548 24.4136C23.0774 24.4294 22.9235 24.5644 22.7929 24.8187C22.6682 25.066 22.5968 25.4107 22.5787 25.8528C22.8609 25.7957 23.1003 25.6882 23.2969 25.5302C23.4935 25.3722 23.6155 25.2018 23.663 25.0188C23.7054 24.849 23.6829 24.7042 23.5956 24.5843C23.5077 24.4581 23.3941 24.4012 23.2548 24.4136Z" fill="#F8407C"/>
<path fill-rule="evenodd" clip-rule="evenodd" d="M14.5774 26.2621L14.5785 26.249C14.6671 25.2082 15.0438 24.2927 15.7493 23.5725L15.7546 23.5671L15.76 23.5617C16.2763 23.0504 16.8818 22.7267 17.5528 22.5977C17.6411 22.0923 17.768 21.6407 17.9477 21.2637C18.2294 20.6732 18.7351 20.0972 19.5513 20.0244L19.5637 20.0233L19.5762 20.0225C20.0243 19.9938 20.4737 20.0945 20.8663 20.3696C21.0353 20.4852 21.2567 20.6757 21.3905 20.9718C21.5462 21.3162 21.5294 21.6834 21.3888 21.9958C21.3393 22.109 21.2363 22.4841 21.0986 23.2463C21.6847 22.5615 22.4579 22.1688 23.3634 22.088L23.375 22.087L23.3866 22.0862C24.1492 22.036 24.9274 22.2439 25.4388 22.9299C25.7602 23.3478 25.9247 23.8224 25.9527 24.3212C25.9575 24.3215 25.9622 24.3219 25.9669 24.3223L25.984 24.3238L26.001 24.3258C26.4984 24.385 26.9462 24.6222 27.2601 25.0448L27.2741 25.0636L27.2872 25.0831C27.5079 25.4115 27.5999 25.8064 27.5216 26.2145L27.5194 26.2263L27.5168 26.2381C27.3267 27.1153 26.9321 27.8874 26.3284 28.5287L26.3225 28.5351L26.3225 28.535C25.6834 29.2021 24.8712 29.573 23.9425 29.6558C23.3248 29.7109 22.7241 29.6285 22.1566 29.3969L22.1481 29.3934L22.1396 29.3897C22.0322 29.3436 21.9286 29.2922 21.8288 29.2358C21.3838 29.6052 20.8504 29.8263 20.2483 29.88C19.8019 29.9198 19.3578 29.8363 18.9558 29.6004C18.9542 29.5995 18.9526 29.5986 18.9511 29.5977C18.5691 29.8836 18.1217 30.0696 17.6072 30.1155C16.7029 30.1961 15.9412 29.796 15.3621 29.1416L15.3528 29.1311L15.3529 29.131C14.7022 28.3746 14.5132 27.3563 14.5767 26.2752L14.5774 26.2621ZM18.2083 28.8939C18.475 28.733 18.7144 28.4887 18.9267 28.1607C19.1287 28.5137 19.3791 28.7384 19.6779 28.835C19.8265 28.883 19.987 28.8993 20.1595 28.8839C20.482 28.8552 20.7707 28.7567 21.0256 28.5885C21.2883 28.4152 21.5151 28.1678 21.7058 27.8463C21.9275 28.1149 22.1935 28.3187 22.5039 28.4576C22.5141 28.4621 22.5243 28.4666 22.5345 28.471C22.9453 28.6387 23.385 28.7016 23.8537 28.6598C24.5567 28.5971 25.1389 28.3249 25.6003 27.8433C26.0727 27.3415 26.3857 26.7358 26.5395 26.0263C26.5657 25.8899 26.5382 25.7614 26.4573 25.641C26.3194 25.4554 26.1279 25.348 25.8827 25.3188C25.872 25.3179 25.8616 25.3172 25.8513 25.3166C25.6138 25.3046 25.4822 25.3946 25.4565 25.5866C25.3977 26.0004 25.2399 26.3784 24.9831 26.7205C24.9523 26.7615 24.9203 26.8004 24.8872 26.837C24.8847 26.8398 24.8822 26.8425 24.8797 26.8452C24.638 27.109 24.335 27.2571 23.9709 27.2896C23.6081 27.3219 23.3124 27.2627 23.0841 27.112C22.9736 27.0391 22.8789 26.9448 22.7999 26.829C22.8066 26.8273 22.8133 26.8257 22.82 26.824C22.9461 26.792 23.0681 26.7547 23.1858 26.7121C23.315 26.6654 23.4392 26.6124 23.5583 26.5529C23.673 26.4957 23.783 26.4325 23.8883 26.3635C23.9967 26.2924 24.1001 26.2151 24.1985 26.1316C24.2118 26.1203 24.225 26.1089 24.238 26.0975C24.4457 25.9192 24.6081 25.7163 24.7251 25.4886C24.726 25.4867 24.727 25.4849 24.7279 25.483C24.8431 25.2571 24.9137 25.0069 24.9399 24.7325C24.9461 24.6845 24.9507 24.6371 24.9535 24.5905C24.9783 24.1856 24.8742 23.8332 24.6414 23.5334C24.3944 23.1979 23.998 23.0481 23.4522 23.0841C22.7808 23.1439 22.2352 23.432 21.8152 23.9483C21.6473 24.1546 21.511 24.3943 21.4062 24.6673C21.2672 25.0297 21.1836 25.4508 21.1556 25.9307C21.1556 25.9308 21.1556 25.9308 21.1556 25.9309C21.1544 25.9501 21.1534 25.9694 21.1525 25.9888C21.146 26.0344 21.1388 26.0794 21.1308 26.1237C21.1308 26.1237 21.1308 26.1238 21.1308 26.1239C21.0864 26.3716 21.0189 26.599 20.9285 26.806C20.9237 26.8171 20.9188 26.8282 20.9138 26.8392C20.8865 26.8994 20.8572 26.9579 20.8259 27.0146C20.6762 27.2829 20.5239 27.4431 20.3688 27.4953C20.3414 27.5045 20.3138 27.5104 20.2862 27.5128C20.0798 27.5312 19.9507 27.2356 19.8989 26.6259C19.8986 26.6227 19.8983 26.6194 19.898 26.6162C19.8679 26.2543 19.8648 25.783 19.8886 25.2022C19.9168 24.5166 19.9911 23.8109 20.1115 23.0851C20.2481 22.326 20.3696 21.8268 20.4759 21.5875C20.5401 21.4477 20.4804 21.3158 20.297 21.1917C20.113 21.0613 19.894 21.0042 19.6401 21.0204C18.9878 21.0786 18.5871 21.9187 18.4381 23.5408C17.6673 23.4882 17.0092 23.7321 16.4636 24.2723C15.9429 24.8039 15.6466 25.4911 15.575 26.3338C15.5192 27.2836 15.6979 27.9986 16.111 28.4789C16.5299 28.9523 16.999 29.1658 17.5183 29.1195C17.7656 29.0974 17.9956 29.0222 18.2083 28.8939ZM22.5915 25.8502C22.5872 25.8511 22.583 25.852 22.5787 25.8528C22.5803 25.8153 22.5822 25.7785 22.5845 25.7425C22.5845 25.7417 22.5846 25.7409 22.5846 25.7401C22.6003 25.4954 22.6337 25.283 22.6847 25.1029C22.6927 25.0747 22.7011 25.0473 22.7099 25.0207C22.7275 24.9679 22.7467 24.9182 22.7677 24.8717C22.7758 24.8535 22.7843 24.8359 22.7929 24.8187C22.7955 24.8137 22.7981 24.8087 22.8007 24.8038C22.8021 24.8011 22.8035 24.7985 22.8049 24.7959C22.9328 24.5564 23.0828 24.4289 23.2548 24.4136C23.3941 24.4012 23.5077 24.4581 23.5956 24.5843C23.6829 24.7042 23.7054 24.849 23.663 25.0188C23.6455 25.0861 23.6179 25.1518 23.5802 25.2158C23.5792 25.2176 23.5781 25.2194 23.577 25.2213C23.5422 25.2793 23.4991 25.336 23.4476 25.3913C23.4035 25.4386 23.3532 25.4849 23.2969 25.5302C23.2376 25.5779 23.1743 25.621 23.1072 25.6595C23.103 25.6619 23.0987 25.6643 23.0943 25.6668C22.9456 25.7501 22.778 25.8113 22.5915 25.8502ZM17.0112 26.2248C17.0807 25.8167 17.2028 25.4993 17.3774 25.2724C17.5753 25.0152 17.8408 24.8745 18.1737 24.8501C18.2376 24.8455 18.304 24.8451 18.3728 24.849C18.3741 25.0787 18.3764 25.2476 18.3797 25.3559C18.3815 25.6622 18.3843 25.8375 18.3883 25.8818C18.3741 26.4385 18.2991 26.8857 18.1632 27.2234C18.0268 27.5547 17.835 27.7314 17.588 27.7534C17.36 27.7738 17.1887 27.6422 17.074 27.3588C16.9588 27.069 16.9379 26.691 17.0112 26.2248ZM18.0066 26.9962C18.0066 26.9962 18.006 26.9952 18.005 26.9929C18.0061 26.995 18.0066 26.9962 18.0066 26.9962Z" fill="#00A4DA"/>
<path d="M6.39581 17.9991C7.1448 18.382 7.69812 18.8226 8.05579 19.3208C8.41346 19.819 8.62462 20.4307 8.68929 21.1558C8.74472 21.7773 8.64918 22.3722 8.40268 22.9403C8.1482 23.5092 7.74611 23.9988 7.19639 24.4093C6.64668 24.8197 5.99333 25.0587 5.23633 25.1262C3.99326 25.2371 3.00437 24.9558 2.26965 24.2824C1.53564 23.617 1.1132 22.6627 1.00234 21.4197C0.979604 21.1647 1.14881 20.9006 1.50998 20.6275C1.87911 20.3536 2.23101 20.2017 2.56568 20.1719C2.70115 20.1598 2.77207 20.1896 2.77847 20.2613C2.78273 20.3091 2.78294 20.4015 2.77908 20.5384C2.78319 20.6745 2.78667 20.7586 2.78951 20.7904C2.85916 21.5713 3.11628 22.203 3.56089 22.6854C4.0055 23.1678 4.50272 23.3845 5.05253 23.3355C5.54657 23.2914 5.95539 23.1024 6.279 22.7683C6.60189 22.4263 6.74131 22.0082 6.69725 21.5142C6.65106 20.9962 6.50184 20.5839 6.24959 20.2771C5.99592 19.9543 5.56694 19.6472 4.96266 19.3557C3.48632 18.6521 2.69201 17.6708 2.57973 16.4118C2.49161 15.4237 2.75707 14.5727 3.37611 13.8589C4.00241 13.1364 4.82554 12.7297 5.84549 12.6388C6.72201 12.5606 7.5206 12.7343 8.24126 13.16C8.96192 13.5857 9.3489 14.0973 9.4022 14.6949C9.42423 14.942 9.25423 15.2423 8.8922 15.5958C8.54612 15.9479 8.27347 16.1329 8.07426 16.1507C8.01848 16.1556 7.98846 16.1342 7.98419 16.0864C7.90471 15.5554 7.66172 15.1273 7.25523 14.8021C6.86396 14.4675 6.40139 14.324 5.86751 14.3716C5.42925 14.4107 5.07841 14.5745 4.815 14.8631C4.55956 15.1509 4.45138 15.514 4.49046 15.9522C4.52528 16.3427 4.68547 16.6978 4.97101 17.0177C5.25656 17.3376 5.73149 17.6648 6.39581 17.9991Z" fill="#F8407C"/>
<path d="M16.6703 18.9054C16.2527 20.8863 15.3824 21.9358 14.0597 22.0538C13.3664 22.1156 12.8215 21.859 12.4248 21.2839C11.9529 21.9364 11.3903 22.2918 10.7369 22.3501C10.442 22.3764 10.1491 22.3342 9.85816 22.2237C9.56648 22.1051 9.28398 21.9094 9.01067 21.6366C8.74532 21.3631 8.54821 20.9992 8.41934 20.5448C8.28251 20.0912 8.23312 19.5374 8.27118 18.8834C8.35481 17.8399 8.63834 17.0114 9.12177 16.398C9.61245 15.776 10.2522 15.4298 11.0411 15.3594C11.5358 15.3233 12.0183 15.465 12.4886 15.7845C12.758 15.383 13.1139 15.1866 13.5565 15.1954C13.8469 15.2096 14.0604 15.307 14.197 15.4876C14.3408 15.6595 14.3691 15.8417 14.2818 16.0342C14.1466 16.3194 13.9978 16.7664 13.8352 17.3752C13.6916 17.9261 13.6129 18.395 13.5992 18.7817C13.5861 19.2648 13.6365 19.6499 13.7504 19.9369C13.8716 20.2152 14.0278 20.3458 14.2191 20.3288C14.4502 20.3082 14.6729 20.1036 14.8872 19.715C15.1022 19.3344 15.2464 18.8798 15.3198 18.3512C15.3608 18.0905 15.5399 17.9822 15.857 18.0262C16.1728 18.0542 16.4101 18.1937 16.569 18.4446C16.6709 18.5961 16.7046 18.7498 16.6703 18.9054ZM11.8457 18.1671C11.8666 17.7716 11.9059 17.4469 11.9636 17.1927C11.7487 17.0352 11.4979 16.9692 11.211 16.9948C10.9242 17.0204 10.6776 17.1829 10.4714 17.4824C10.2725 17.7733 10.1403 18.1826 10.0749 18.7105C10.0073 19.3029 10.0456 19.7773 10.1898 20.1339C10.3341 20.4905 10.5457 20.6564 10.8246 20.6315C11.4461 20.5761 11.7846 19.7789 11.8401 18.2398C11.8394 18.2319 11.8383 18.2199 11.8369 18.204C11.8435 18.1873 11.8464 18.175 11.8457 18.1671Z" fill="#F8407C"/>
<path d="M19.8541 12.8546C20.5275 12.9311 20.8584 13.6244 20.8467 14.9347C21.5949 13.2375 22.4832 12.4354 23.5115 12.5284C24.0706 12.583 24.3993 12.891 24.4975 13.4525C24.5988 13.9575 24.5733 14.6626 24.4211 15.5677C24.3115 16.1397 24.2788 16.5843 24.3232 16.9016C24.3755 17.2182 24.4509 17.4324 24.5492 17.5441C24.6555 17.6551 24.7803 17.7042 24.9237 17.6914C25.1548 17.6708 25.3775 17.4662 25.5919 17.0776C25.8069 16.697 25.9511 16.2424 26.0244 15.7138C26.0582 15.4618 26.2293 15.3542 26.5378 15.3909C26.8542 15.427 27.0988 15.5578 27.2715 15.7833C27.3814 15.9341 27.4159 16.0957 27.375 16.268C27.1837 17.1846 26.826 17.9474 26.302 18.5564C25.7933 19.1559 25.1851 19.4511 24.4775 19.442C23.0716 19.4388 22.4436 18.4306 22.5934 16.4174C22.5912 16.3935 22.5931 16.3692 22.5989 16.3446C22.6012 16.2801 22.6053 16.1914 22.6113 16.0784C22.6246 15.9568 22.6334 15.8757 22.6378 15.8351C22.6653 15.423 22.6713 15.1294 22.6556 14.9541C22.618 14.5317 22.5075 14.3287 22.3242 14.3451C22.0055 14.3735 21.6661 15.0262 21.3061 16.3033C20.9614 17.5709 20.7796 18.6393 20.7607 19.5084C20.7517 19.6779 20.6827 19.8045 20.5536 19.8883C20.3702 19.993 20.1626 20.0517 19.9308 20.0643C19.6831 20.0784 19.4489 20.0189 19.2282 19.886C19.0148 19.7444 18.8988 19.57 18.8803 19.3628C18.8135 18.6138 18.832 17.7407 18.9359 16.7435C18.9943 16.0476 19.0165 15.5758 19.0024 15.328C19.0017 14.8703 18.8898 14.6514 18.6667 14.6713C18.34 14.7004 18.0249 15.1743 17.7213 16.0929C17.4322 16.9941 17.2358 17.8991 17.1321 18.8079C17.1335 18.8239 17.1306 18.8362 17.1234 18.8449L17.1173 19.8574C17.1147 20.0986 16.9609 20.2649 16.6558 20.3564C16.358 20.4392 16.0466 20.4147 15.7216 20.2831C15.4132 20.158 15.247 19.9599 15.2228 19.689C15.139 18.7488 15.1677 17.4049 15.3091 15.6574C15.3683 14.8811 15.491 14.2758 15.6772 13.8415C15.8706 13.3986 16.1706 13.1148 16.5771 12.9902C16.9677 12.8671 17.2538 12.8777 17.4354 13.0221C17.6162 13.1586 17.6724 13.3383 17.6039 13.5613C17.4918 13.9247 17.411 14.3254 17.3618 14.7635C18.0826 13.3901 18.9134 12.7538 19.8541 12.8546Z" fill="#F8407C"/>
<path d="M26.0644 14.4295C26.1172 12.7703 26.2447 11.4979 26.4468 10.6125C26.6753 9.57208 27.0804 9.02593 27.6621 8.97406C27.9735 8.95431 28.245 9.02648 28.4765 9.19057C28.6993 9.34739 28.7784 9.51303 28.7136 9.68747C28.5115 10.1231 28.3076 11.1694 28.102 12.8262C28.7277 12.0074 29.4023 11.646 30.1257 11.7422C30.6717 11.83 31.0556 12.2174 31.2775 12.9044C31.4994 13.5914 31.5285 14.3679 31.3648 15.2339C31.1935 16.2853 30.8092 17.1548 30.2119 17.8426C29.6219 18.5217 28.9738 18.8646 28.2676 18.8714C27.5216 18.8817 26.954 18.5066 26.565 17.7462C26.1831 16.9771 26.0163 15.8715 26.0644 14.4295ZM27.9124 15.6984C27.9051 15.7071 27.9026 15.7234 27.9047 15.7473C27.8993 16.7678 28.064 17.2631 28.3986 17.2333C28.6616 17.2098 28.9017 17.0198 29.1188 16.6631C29.3353 16.2984 29.4838 15.8474 29.5644 15.3101C29.6399 14.8054 29.6261 14.381 29.5231 14.0368C29.4281 13.6918 29.2651 13.5297 29.034 13.5503C28.7631 13.5744 28.5284 13.7801 28.33 14.1673C28.1309 14.5464 27.9917 15.0568 27.9124 15.6984Z" fill="#F8407C"/>
<path d="M39.1862 15.0358C38.7685 17.0167 37.8983 18.0662 36.5755 18.1842C35.8823 18.246 35.3373 17.9894 34.9407 17.4143C34.4688 18.0668 33.9061 18.4222 33.2527 18.4805C32.9579 18.5068 32.665 18.4646 32.374 18.354C32.0823 18.2355 31.7998 18.0398 31.5265 17.767C31.2612 17.4935 31.0641 17.1296 30.9352 16.6752C30.7984 16.2216 30.749 15.6678 30.787 15.0138C30.8707 13.9703 31.1542 13.1418 31.6376 12.5284C32.1283 11.9064 32.7681 11.5602 33.5569 11.4898C34.0517 11.4537 34.5342 11.5954 35.0044 11.9149C35.2738 11.5134 35.6298 11.317 36.0723 11.3257C36.3627 11.34 36.5762 11.4374 36.7128 11.618C36.8566 11.7899 36.8849 11.9721 36.7977 12.1646C36.6625 12.4498 36.5136 12.8968 36.351 13.5056C36.2074 14.0565 36.1287 14.5254 36.115 14.9121C36.1019 15.3952 36.1523 15.7803 36.2663 16.0673C36.3875 16.3456 36.5437 16.4762 36.7349 16.4592C36.966 16.4386 37.1887 16.234 37.403 15.8454C37.6181 15.4648 37.7623 15.0102 37.8356 14.4816C37.8766 14.2209 38.0557 14.1126 38.3729 14.1566C38.6886 14.1846 38.9259 14.3241 39.0848 14.575C39.1867 14.7265 39.2205 14.8801 39.1862 15.0358ZM34.3615 14.2975C34.3825 13.902 34.4218 13.5773 34.4794 13.3231C34.2646 13.1656 34.0137 13.0996 33.7269 13.1252C33.44 13.1508 33.1935 13.3133 32.9873 13.6128C32.7883 13.9037 32.6562 14.313 32.5908 14.8409C32.5231 15.4333 32.5614 15.9077 32.7057 16.2643C32.8499 16.6209 33.0615 16.7868 33.3404 16.7619C33.9619 16.7065 34.3004 15.9093 34.356 14.3702C34.3552 14.3623 34.3542 14.3503 34.3528 14.3344C34.3593 14.3177 34.3622 14.3054 34.3615 14.2975Z" fill="#F8407C"/>
<path d="M9.92654 37.3747C10.0022 38.0672 9.82645 38.6057 9.3992 38.9903C8.97196 39.3749 8.41392 39.536 7.72508 39.4736C7.37757 39.4428 7.06838 39.3045 6.7975 39.0588C6.53213 38.8062 6.36028 38.4934 6.28195 38.1203C6.19745 37.7478 6.23356 37.334 6.3903 36.8789C6.49795 36.6044 6.70877 36.4437 7.02276 36.3968C7.26941 36.3636 7.4448 36.4227 7.54894 36.574C7.58796 36.6448 7.5995 36.7217 7.58356 36.8048C7.40969 37.6185 7.51192 38.0672 7.89024 38.151C8.06327 38.1884 8.20621 38.1509 8.31906 38.0384C8.43191 37.926 8.47719 37.7677 8.45489 37.5637C8.43191 37.3534 8.34676 37.1469 8.19944 36.944C8.05145 36.7349 7.88587 36.5653 7.70271 36.4351C7.25407 36.1088 7.00947 35.7601 6.96892 35.3891C6.91756 34.9192 7.03913 34.543 7.33362 34.2605C7.62811 33.978 8.01651 33.8104 8.49879 33.7577C8.89519 33.7206 9.21652 33.7981 9.46277 33.9902C9.7152 34.1816 9.83662 34.4624 9.82702 34.8327C9.81608 35.1905 9.6638 35.4574 9.37018 35.6334C9.14739 35.7704 8.97493 35.7955 8.85282 35.7088C8.78491 35.6599 8.75791 35.5846 8.77183 35.483C8.80846 35.3601 8.8018 35.2419 8.75186 35.1285C8.70125 35.0089 8.6172 34.9555 8.49972 34.9683C8.30804 34.9893 8.22571 35.1234 8.25275 35.3708C8.26424 35.4759 8.32553 35.5787 8.43662 35.6792C8.54772 35.7796 8.68079 35.8809 8.83585 35.9828C8.99023 36.0785 9.14286 36.187 9.29376 36.3082C9.45017 36.4225 9.58865 36.5731 9.70921 36.7602C9.82909 36.9411 9.90153 37.1459 9.92654 37.3747Z" fill="#F8407C"/>
<path d="M16.6396 35.737C16.3456 37.2833 15.6854 38.1126 14.659 38.2248C14.1211 38.2836 13.6935 38.0925 13.3762 37.6517C13.0195 38.1662 12.5876 38.4512 12.0806 38.5066C11.8518 38.5316 11.6235 38.5033 11.3956 38.4219C11.167 38.3342 10.9444 38.1865 10.7277 37.9787C10.5172 37.7702 10.3584 37.4903 10.2511 37.1391C10.1378 36.7886 10.0908 36.3589 10.1102 35.8499C10.1591 35.0374 10.3667 34.389 10.733 33.9048C11.1048 33.4136 11.5967 33.1346 12.2089 33.0677C12.5929 33.032 12.9701 33.1346 13.3406 33.3757C13.5438 33.0594 13.8175 32.9013 14.1616 32.9012C14.3876 32.9078 14.5551 32.9802 14.664 33.1185C14.7785 33.2499 14.8033 33.3911 14.7385 33.5421C14.6378 33.7658 14.529 34.1156 14.4121 34.5914C14.3089 35.0219 14.2551 35.3875 14.2504 35.6884C14.2477 36.0641 14.2928 36.3626 14.3858 36.584C14.4844 36.7985 14.6078 36.8976 14.7562 36.8814C14.9355 36.8618 15.1055 36.6993 15.2661 36.3939C15.4273 36.0947 15.5324 35.7391 15.5812 35.3271C15.609 35.1238 15.7466 35.0368 15.9938 35.0661C16.2397 35.083 16.4263 35.1878 16.5537 35.3803C16.6353 35.4965 16.6639 35.6154 16.6396 35.737ZM12.8778 35.2377C12.8879 34.93 12.9135 34.677 12.9543 34.4785C12.7849 34.3594 12.5889 34.312 12.3663 34.3363C12.1437 34.3606 11.9546 34.4908 11.7989 34.7268C11.6488 34.956 11.5524 35.2762 11.5097 35.6876C11.4663 36.1491 11.5034 36.5173 11.6211 36.7923C11.7387 37.0673 11.9058 37.1929 12.1222 37.1693C12.6045 37.1166 12.8553 36.4916 12.8746 35.2944C12.8739 35.2882 12.8729 35.2789 12.8715 35.2666C12.8764 35.2535 12.8784 35.2439 12.8778 35.2377Z" fill="#F8407C"/>
<path d="M19.5219 33.2371C19.3774 33.4031 19.2444 33.646 19.1229 33.9659C19.0131 34.2782 18.9401 34.5834 18.9039 34.8814C18.866 35.2798 18.8864 35.6092 18.9649 35.8696C19.0496 36.1294 19.1693 36.2509 19.3239 36.234C19.5155 36.213 19.6604 36.0783 19.7584 35.8298C19.8618 35.5745 19.9453 35.1931 20.0087 34.6856C20.0366 34.4823 20.1741 34.3953 20.4213 34.4246C20.6685 34.4539 20.8586 34.5614 20.9915 34.7471C21.0662 34.8578 21.0918 34.9771 21.0682 35.1048C20.9267 35.8711 20.7003 36.4621 20.3891 36.8778C20.0779 37.2935 19.6595 37.5301 19.1339 37.5875C18.6393 37.6416 18.2223 37.4619 17.883 37.0485C17.5431 36.6288 17.3959 35.9973 17.4413 35.1539C17.4739 34.5935 17.5919 34.0988 17.7953 33.6698C17.4971 33.7462 17.2168 33.7863 16.9544 33.7899C16.886 34.3668 16.7891 34.9687 16.6637 35.5956C16.6296 35.7995 16.4811 35.8721 16.2182 35.8132C15.9937 35.7627 15.818 35.6442 15.6913 35.4578C15.6303 35.3581 15.6041 35.2609 15.6125 35.1661C15.6985 34.2932 15.7407 33.7349 15.7391 33.491C15.4949 33.3175 15.34 33.1029 15.2746 32.8473C15.2029 32.5923 15.2081 32.3539 15.2903 32.1322C15.3717 31.9043 15.5125 31.7044 15.7127 31.5323C15.9184 31.3534 16.1511 31.2498 16.4108 31.2214C16.6643 31.1937 16.8274 31.2541 16.8999 31.4026C16.9793 31.5566 17.0241 31.8802 17.0342 32.3734L17.0379 32.5794C17.3209 32.5923 17.6115 32.5605 17.9098 32.4841C18.2135 32.4009 18.4668 32.2856 18.6697 32.1383C18.7915 32.0499 18.9425 32.0866 19.1229 32.2483C19.3026 32.4039 19.4283 32.581 19.5001 32.7796C19.5718 32.9782 19.5791 33.1307 19.5219 33.2371Z" fill="#F8407C"/>
<path d="M19.1106 37.8449C19.7413 37.776 20.146 36.5554 20.3247 34.1832C20.3934 33.3811 20.4136 32.8501 20.3852 32.5904C20.3841 32.4654 20.3887 32.3648 20.3992 32.2886C20.4199 32.1925 20.4441 32.1272 20.4716 32.0929C20.4985 32.0525 20.5653 31.9763 20.6719 31.8646C21.0112 31.5334 21.3063 31.4855 21.5572 31.7209C21.8069 31.9439 21.9349 32.3428 21.9415 32.9178C21.9568 34.7181 21.7027 36.2007 21.1793 37.3654C20.6572 38.5425 20.0248 39.1685 19.2822 39.2434C18.9785 39.2703 18.6967 39.2104 18.4366 39.0636C18.1704 38.9175 17.9952 38.7177 17.9112 38.464C17.8122 38.1307 17.8357 37.8309 17.9818 37.5647C18.0845 37.3595 18.2035 37.3027 18.3386 37.3943C18.3455 37.3998 18.3746 37.4373 18.426 37.5068C18.4897 37.6312 18.5682 37.7196 18.6615 37.772C18.7486 37.825 18.8983 37.8493 19.1106 37.8449ZM20.5082 30.1086C20.4832 29.8798 20.5732 29.6729 20.7782 29.4878C20.9887 29.2958 21.2898 29.1879 21.6813 29.1638C21.8861 29.1477 22.0683 29.2123 22.2281 29.3575C22.3879 29.5027 22.4253 29.702 22.3404 29.9553C22.2741 30.1502 22.1449 30.3427 21.953 30.5326C21.7541 30.717 21.531 30.8227 21.2837 30.8498C21.0982 30.87 20.9297 30.8165 20.7781 30.6892C20.6258 30.5556 20.5359 30.3621 20.5082 30.1086Z" fill="#F8407C"/>
<path d="M25.6349 32.8487C25.5941 33.3913 25.3742 33.8408 24.9752 34.1973C24.594 34.5455 24.1299 34.7933 23.5829 34.9407C23.8268 35.2832 24.2115 35.4258 24.7371 35.3683C25.1452 35.3237 25.4715 35.1316 25.7159 34.7921C25.9604 34.4525 26.1074 34.0798 26.1569 33.6739C26.1792 33.4775 26.3164 33.3874 26.5684 33.4037C26.8088 33.4275 26.9982 33.5288 27.1366 33.7076C27.2182 33.8238 27.2475 33.9489 27.2246 34.0828C27.088 34.7798 26.7936 35.3782 26.3415 35.8781C25.8996 36.3581 25.3355 36.6357 24.6492 36.7107C24.1916 36.7607 23.7604 36.7077 23.3554 36.5518C22.9429 36.3841 22.6054 36.1019 22.3431 35.7051C22.0869 35.3076 21.9569 34.8338 21.9531 34.2836C21.9595 33.3693 22.1631 32.6557 22.5638 32.1426C22.9644 31.6295 23.4925 31.3372 24.1479 31.2655C24.681 31.2198 25.0716 31.3585 25.3197 31.6818C25.5801 32.0037 25.6852 32.3927 25.6349 32.8487ZM23.9807 32.5696C23.8076 32.5885 23.6597 32.7236 23.537 32.9748C23.4197 33.2191 23.3566 33.5576 23.3476 33.9903C23.6225 33.929 23.8545 33.8192 24.0437 33.6609C24.2329 33.5025 24.3489 33.3334 24.3918 33.1535C24.4299 32.9867 24.4051 32.8455 24.3173 32.7299C24.229 32.6082 24.1167 32.5548 23.9807 32.5696Z" fill="#F8407C"/>
<path d="M28.3095 30.1223L28.8103 30.0675C29.0329 30.0432 29.1388 30.1818 29.128 30.4833C29.1171 30.7849 29.0064 31.0598 28.7957 31.308C28.6732 31.4466 28.5563 31.5219 28.445 31.5341C28.1853 31.5625 28.0211 31.5773 27.9525 31.5785C27.8671 32.0571 27.8155 32.4726 27.7977 32.8249C27.7759 33.1402 27.7664 33.4259 27.7694 33.6821C27.7786 33.9377 27.7957 34.1517 27.8208 34.3241C27.8521 34.4959 27.8896 34.6388 27.9334 34.7529C27.9771 34.867 28.0237 34.9495 28.0731 35.0005C28.1286 35.0507 28.1873 35.0725 28.2491 35.0657C28.4408 35.0447 28.6077 34.8826 28.7497 34.5792C28.9089 34.2615 29.0075 33.9035 29.0453 33.5051C29.0731 33.3019 29.2106 33.2149 29.4579 33.2442C29.7051 33.2735 29.8952 33.381 30.0281 33.5667C30.1028 33.6774 30.1283 33.7966 30.1047 33.9243C29.8107 35.4707 29.1505 36.2999 28.1241 36.4121C27.5305 36.477 27.0756 36.2076 26.7593 35.6039C26.4431 35.0003 26.2925 34.1095 26.3077 32.9315C26.3106 32.4431 26.3441 31.9483 26.4082 31.447C26.238 31.378 26.0621 31.2283 25.8805 30.9978C25.6865 30.7687 25.6157 30.5794 25.6682 30.4297C25.7138 30.2746 25.8599 30.2086 26.1065 30.2317C26.296 30.2485 26.4687 30.2546 26.6247 30.2501C26.7236 29.8388 26.8376 29.5073 26.9665 29.2554C27.1016 29.0029 27.2189 28.8743 27.3185 28.8697C27.5665 28.8488 27.8542 28.905 28.1816 29.0381C28.4891 29.161 28.6184 29.2845 28.5694 29.4087C28.497 29.548 28.4104 29.7859 28.3095 30.1223Z" fill="#F8407C"/>
<path d="M35.6181 33.6824C35.3241 35.2287 34.6638 36.058 33.6374 36.1702C33.0995 36.229 32.6719 36.0379 32.3547 35.5971C31.9979 36.1116 31.5661 36.3966 31.059 36.452C30.8303 36.477 30.6019 36.4487 30.374 36.3673C30.1454 36.2796 29.9228 36.1319 29.7061 35.9241C29.4956 35.7156 29.3368 35.4357 29.2296 35.0845C29.1162 34.734 29.0692 34.3043 29.0887 33.7953C29.1375 32.9828 29.3451 32.3345 29.7114 31.8502C30.0832 31.359 30.5751 31.08 31.1873 31.0131C31.5713 30.9774 31.9486 31.0801 32.319 31.3211C32.5222 31.0048 32.7959 30.8467 33.14 30.8466C33.366 30.8532 33.5335 30.9256 33.6425 31.0639C33.7569 31.1953 33.7818 31.3365 33.7169 31.4875C33.6162 31.7112 33.5074 32.061 33.3905 32.5368C33.2874 32.9673 33.2335 33.3329 33.2288 33.6338C33.2261 34.0095 33.2712 34.308 33.3642 34.5294C33.4628 34.7439 33.5862 34.843 33.7346 34.8268C33.9139 34.8072 34.0839 34.6447 34.2445 34.3393C34.4058 34.0401 34.5108 33.6845 34.5596 33.2725C34.5875 33.0692 34.725 32.9822 34.9722 33.0115C35.2181 33.0284 35.4047 33.1332 35.5322 33.3257C35.6137 33.442 35.6423 33.5608 35.6181 33.6824ZM31.8562 33.1831C31.8664 32.8754 31.8919 32.6224 31.9328 32.4239C31.7633 32.3048 31.5673 32.2574 31.3447 32.2817C31.1221 32.306 30.933 32.4362 30.7773 32.6722C30.6272 32.9014 30.5308 33.2216 30.4881 33.633C30.4447 34.0945 30.4818 34.4627 30.5995 34.7377C30.7171 35.0127 30.8842 35.1383 31.1006 35.1147C31.5829 35.062 31.8337 34.437 31.853 33.2398C31.8523 33.2336 31.8513 33.2243 31.85 33.212C31.8548 33.1989 31.8569 33.1893 31.8562 33.1831Z" fill="#F8407C"/>
<path fill-rule="evenodd" clip-rule="evenodd" d="M6.85109 17.1087C7.07841 17.2249 7.29528 17.3487 7.50019 17.4805C7.53927 17.3392 7.58312 17.201 7.63194 17.066C7.56516 17.0378 7.49686 17.0007 7.42913 16.9524C7.13304 16.7411 7.02411 16.4443 6.99394 16.2261C6.94947 15.9402 6.83148 15.7437 6.63055 15.583L6.61777 15.5727L6.60534 15.5621C6.42777 15.4103 6.2346 15.3429 5.95634 15.3677C5.73837 15.3871 5.63147 15.4541 5.55847 15.532C5.51407 15.5836 5.46865 15.6631 5.48651 15.8634C5.50041 16.0193 5.56053 16.1765 5.71704 16.3518C5.879 16.5333 6.22312 16.7927 6.84534 17.1058L6.85109 17.1087ZM4.815 14.8631C4.55956 15.1509 4.45138 15.514 4.49046 15.9522C4.52529 16.3427 4.68547 16.6978 4.97101 17.0177C5.25656 17.3376 5.73149 17.6647 6.39582 17.9991C6.73704 18.1735 7.03765 18.36 7.29766 18.5584C7.41379 18.647 7.52182 18.738 7.62175 18.8314C7.62716 18.8364 7.63255 18.8415 7.63791 18.8466C7.7985 18.9984 7.93779 19.1565 8.05579 19.3208C8.13432 19.4302 8.20579 19.5451 8.2702 19.6654C8.26016 19.5093 8.25673 19.3456 8.25989 19.1743C8.26164 19.0796 8.2654 18.9827 8.27118 18.8834C8.2915 18.6298 8.32364 18.3889 8.36757 18.1607C8.45394 17.7121 8.58593 17.3126 8.76353 16.9622C8.86736 16.7574 8.98677 16.5693 9.12177 16.398C9.20584 16.2914 9.29429 16.193 9.38712 16.1026C9.39059 16.0992 9.39407 16.0958 9.39755 16.0925C9.62983 15.8686 9.88931 15.6951 10.176 15.5719C10.4411 15.4581 10.7295 15.3872 11.0411 15.3594C11.5252 15.3241 11.9977 15.4591 12.4583 15.7642C12.4684 15.7709 12.4785 15.7777 12.4886 15.7845C12.4926 15.7785 12.4967 15.7725 12.5008 15.7665C12.7687 15.3771 13.1206 15.1868 13.5565 15.1953C13.8469 15.2096 14.0604 15.307 14.197 15.4876C14.2468 15.5472 14.2828 15.6079 14.3048 15.67C14.3465 15.787 14.3389 15.9084 14.2818 16.0342C14.28 16.0381 14.2782 16.042 14.2763 16.0459C14.1426 16.3316 13.9956 16.7746 13.8352 17.3752C13.6916 17.9261 13.6129 18.395 13.5992 18.7817C13.5861 19.2648 13.6365 19.6498 13.7504 19.9369C13.8716 20.2152 14.0278 20.3458 14.2191 20.3288C14.2652 20.3247 14.3111 20.3132 14.3566 20.2944C14.538 20.2194 14.7141 20.0277 14.8849 19.7192L14.8872 19.715C15.0085 19.5002 15.1073 19.2619 15.1835 19C15.1773 18.7912 15.1749 18.5682 15.1765 18.3313L15.1765 18.3286C15.179 17.9547 15.1912 17.5458 15.2132 17.1021C15.2265 16.8343 15.2433 16.5539 15.2636 16.2607C15.2772 16.0652 15.2923 15.8642 15.3091 15.6574C15.3106 15.6372 15.3122 15.6171 15.3138 15.5972C15.3748 14.8497 15.4959 14.2645 15.6772 13.8415C15.8706 13.3986 16.1706 13.1148 16.5771 12.9902C16.923 12.8811 17.1869 12.877 17.3689 12.9778C17.3924 12.9908 17.4146 13.0056 17.4354 13.0221C17.6162 13.1586 17.6724 13.3383 17.6039 13.5613C17.5224 13.8255 17.4575 14.1094 17.4092 14.413C17.391 14.5271 17.3752 14.6439 17.3618 14.7635C17.5253 14.452 17.6945 14.1783 17.8693 13.9426C17.9324 13.8576 17.9962 13.7775 18.0608 13.7023C18.2408 13.4928 18.4271 13.321 18.6186 13.1883C19.0069 12.9192 19.4187 12.8079 19.8541 12.8546C20.1606 12.8894 20.3961 13.052 20.5607 13.3424C20.726 13.6339 20.8197 14.0542 20.8419 14.6033C20.8461 14.709 20.8478 14.8194 20.8467 14.9347C21.0866 14.3906 21.3409 13.9385 21.6095 13.5783C21.6349 13.5443 21.6604 13.5112 21.686 13.4788C22.2355 12.7848 22.844 12.468 23.5115 12.5284C24.0706 12.583 24.3993 12.891 24.4975 13.4525C24.5988 13.9575 24.5733 14.6625 24.4211 15.5676C24.3115 16.1396 24.2789 16.5843 24.3232 16.9016C24.3755 17.2182 24.4509 17.4324 24.5492 17.5441C24.6555 17.6551 24.7803 17.7042 24.9237 17.6914C25.0751 17.6779 25.2229 17.5854 25.3671 17.414C25.443 17.3238 25.5179 17.2116 25.5919 17.0776C25.8069 16.697 25.9511 16.2424 26.0244 15.7138C26.0327 15.652 26.0493 15.5988 26.0741 15.5544C26.0542 15.2054 26.051 14.8305 26.0644 14.4295L26.0645 14.4241C26.1175 12.7675 26.2449 11.497 26.4468 10.6125C26.6753 9.57207 27.0804 9.02593 27.6621 8.97405C27.9735 8.95431 28.245 9.02648 28.4765 9.19056C28.6993 9.34739 28.7784 9.51303 28.7136 9.68747C28.587 9.96042 28.4597 10.473 28.3317 11.2253C28.2554 11.6737 28.1788 12.2074 28.102 12.8262C28.4656 12.3503 28.8458 12.029 29.2424 11.8621C29.5283 11.7419 29.8227 11.7019 30.1257 11.7422C30.3678 11.7811 30.5781 11.879 30.7564 12.0358C30.9803 12.2326 31.154 12.5221 31.2775 12.9044C31.2904 12.9445 31.3027 12.9848 31.3143 13.0254C31.3439 12.9699 31.3747 12.9157 31.4067 12.8627C31.4778 12.745 31.5548 12.6335 31.6376 12.5284C31.7605 12.3727 31.8927 12.2342 32.0342 12.1131C32.458 11.7503 32.9656 11.5426 33.5569 11.4898C34.0411 11.4545 34.5135 11.5895 34.9742 11.8946C34.9843 11.9013 34.9943 11.9081 35.0044 11.9149C35.0085 11.9089 35.0125 11.9029 35.0166 11.8969C35.2846 11.5075 35.6364 11.3172 36.0723 11.3257C36.3627 11.34 36.5762 11.4374 36.7128 11.618C36.8566 11.7899 36.8849 11.9721 36.7977 12.1646C36.6625 12.4498 36.5136 12.8968 36.351 13.5056C36.2074 14.0565 36.1287 14.5254 36.115 14.9121C36.1019 15.3952 36.1523 15.7802 36.2663 16.0673C36.3875 16.3456 36.5437 16.4762 36.7349 16.4592C36.966 16.4386 37.1887 16.234 37.403 15.8454C37.6181 15.4648 37.7623 15.0102 37.8356 14.4816C37.8766 14.2209 38.0557 14.1126 38.3729 14.1566C38.6886 14.1846 38.9259 14.3241 39.0848 14.575C39.1867 14.7265 39.2205 14.8801 39.1862 15.0358C38.7685 17.0167 37.8983 18.0662 36.5755 18.1842C36.253 18.2129 35.9626 18.1728 35.7043 18.0637C35.4074 17.9383 35.1528 17.7219 34.9407 17.4143C34.7219 17.7168 34.4836 17.9555 34.2258 18.1303C33.9276 18.3325 33.6032 18.4492 33.2527 18.4805C32.9579 18.5068 32.665 18.4646 32.374 18.354C32.0823 18.2355 31.7998 18.0398 31.5265 17.767C31.5216 17.762 31.5167 17.7569 31.5119 17.7518C31.2573 17.4836 31.0667 17.1305 30.9401 16.6925C30.7667 17.081 30.5504 17.433 30.2914 17.7485C30.2653 17.7802 30.2389 17.8116 30.2119 17.8426C29.6219 18.5217 28.9738 18.8646 28.2676 18.8714C27.966 18.8756 27.6936 18.8167 27.4504 18.695C27.1626 18.5509 26.9156 18.3186 26.7095 17.9983C26.5872 18.1968 26.4514 18.3828 26.302 18.5564C26.2242 18.6481 26.144 18.7327 26.0615 18.8102C25.6049 19.2391 25.0768 19.4497 24.4775 19.442C23.0716 19.4388 22.4436 18.4306 22.5934 16.4174C22.5912 16.3935 22.5931 16.3692 22.5989 16.3446C22.6012 16.2801 22.6053 16.1914 22.6113 16.0784L22.6378 15.8351C22.6476 15.6878 22.6547 15.5556 22.659 15.4386C22.6612 15.3794 22.6627 15.3241 22.6635 15.2726C22.6655 15.1412 22.6628 15.035 22.6556 14.954C22.618 14.5317 22.5075 14.3287 22.3242 14.3451C22.3112 14.3462 22.2982 14.3484 22.2851 14.3517C22.1431 14.3868 21.9971 14.5446 21.8469 14.8251C21.827 14.8622 21.8071 14.9015 21.787 14.943C21.7727 14.9727 21.7583 15.0035 21.7439 15.0354C21.7401 15.0437 21.7364 15.0521 21.7326 15.0606C21.7098 15.1118 21.687 15.1658 21.664 15.2225C21.6559 15.2427 21.6477 15.2632 21.6395 15.2841C21.6362 15.2926 21.6329 15.301 21.6295 15.3096C21.5237 15.5828 21.4159 15.914 21.3061 16.3033C20.9614 17.5709 20.7796 18.6393 20.7607 19.5084C20.7517 19.6778 20.6827 19.8045 20.5536 19.8883C20.3702 19.993 20.1626 20.0517 19.9308 20.0643C19.6831 20.0784 19.4489 20.0189 19.2282 19.886C19.0148 19.7444 18.8988 19.57 18.8803 19.3628C18.8135 18.6138 18.832 17.7407 18.9359 16.7435C18.9762 16.2629 18.9993 15.8891 19.005 15.6223C19.0053 15.6106 19.0055 15.599 19.0057 15.5877C19.0074 15.4837 19.0063 15.3972 19.0024 15.328C19.0017 14.8703 18.8898 14.6514 18.6667 14.6713C18.6308 14.6745 18.5949 14.6831 18.5592 14.6971C18.4925 14.7232 18.4262 14.7682 18.3605 14.8321C18.3477 14.8445 18.3349 14.8577 18.3221 14.8716C18.253 14.9466 18.1844 15.0426 18.1164 15.1596C18.1117 15.1676 18.1071 15.1757 18.1025 15.1839C18.0817 15.2204 18.061 15.2589 18.0404 15.2994C18.0354 15.3093 18.0303 15.3193 18.0253 15.3295C18.018 15.3441 18.0107 15.359 18.0034 15.3741C17.9083 15.572 17.8142 15.8116 17.7213 16.0929C17.5453 16.6416 17.4036 17.1917 17.2963 17.7432C17.2806 17.8241 17.2656 17.905 17.2514 17.9859C17.2496 17.9958 17.2479 18.0058 17.2462 18.0157C17.2003 18.2794 17.1623 18.5435 17.1321 18.8079C17.1335 18.8239 17.1306 18.8362 17.1234 18.8449L17.1173 19.8574C17.1147 20.0986 16.9609 20.2649 16.6558 20.3564C16.5041 20.3985 16.3489 20.4129 16.1901 20.3994C16.0209 20.7566 15.8238 21.0564 15.5987 21.2987C15.1816 21.7478 14.6686 21.9995 14.0597 22.0538C13.7372 22.0825 13.4468 22.0424 13.1885 21.9333C12.8915 21.8079 12.637 21.5915 12.4248 21.2839C12.2061 21.5864 11.9678 21.8251 11.71 21.9999C11.4117 22.2021 11.0874 22.3188 10.7369 22.3501C10.442 22.3764 10.1491 22.3342 9.85816 22.2236C9.79193 22.1967 9.72617 22.1658 9.66089 22.131C9.43866 22.0122 9.22192 21.8475 9.01067 21.6366C8.89127 21.5135 8.7857 21.3722 8.69394 21.2125C8.71292 21.4671 8.70645 21.7171 8.67452 21.9627C8.67399 21.9668 8.67345 21.9709 8.6729 21.975C8.64622 22.1747 8.60267 22.3715 8.54226 22.5653C8.5029 22.6916 8.45637 22.8166 8.40268 22.9403C8.1482 23.5092 7.74611 23.9988 7.19639 24.4093C6.64668 24.8197 5.99333 25.0587 5.23633 25.1262C3.99327 25.2371 3.00437 24.9558 2.26965 24.2824C1.53564 23.617 1.1132 22.6627 1.00234 21.4197C0.979604 21.1647 1.14882 20.9006 1.50998 20.6275C1.60138 20.5596 1.69173 20.4993 1.78102 20.4465C1.78561 20.4437 1.7902 20.441 1.79479 20.4384C1.86391 20.398 1.9324 20.3621 2.00026 20.3307C2.1939 20.2412 2.38238 20.1882 2.56568 20.1719C2.70115 20.1598 2.77208 20.1896 2.77847 20.2613C2.78273 20.3091 2.78294 20.4015 2.77908 20.5384C2.7832 20.6745 2.78667 20.7586 2.78951 20.7904C2.85916 21.5713 3.11628 22.203 3.56089 22.6854C4.0055 23.1678 4.50272 23.3845 5.05253 23.3355C5.54657 23.2914 5.9554 23.1024 6.279 22.7683C6.60189 22.4263 6.74131 22.0082 6.69725 21.5142C6.65106 20.9962 6.50184 20.5839 6.24959 20.2771C5.99592 19.9543 5.56694 19.6472 4.96266 19.3557C3.48632 18.6521 2.69201 17.6708 2.57973 16.4118C2.49161 15.4237 2.75707 14.5727 3.37611 13.8589C4.00241 13.1364 4.82554 12.7297 5.84549 12.6388C6.72201 12.5606 7.5206 12.7343 8.24126 13.16C8.96192 13.5857 9.3489 14.0973 9.4022 14.6949C9.4066 14.7443 9.40334 14.7957 9.39241 14.8493C9.3491 15.0618 9.18533 15.3078 8.9011 15.5871C8.89815 15.59 8.89518 15.5929 8.89221 15.5958C8.8824 15.6058 8.87265 15.6156 8.86296 15.6253C8.74121 15.7473 8.62877 15.8482 8.52563 15.9278C8.47711 15.9652 8.43038 15.9982 8.38598 16.0263C8.36997 16.0364 8.35424 16.0459 8.33877 16.0548C8.23974 16.1117 8.15169 16.1437 8.07462 16.1506C8.01884 16.1556 7.98846 16.1342 7.98419 16.0864C7.90471 15.5554 7.66172 15.1273 7.25523 14.8021C6.86396 14.4675 6.40139 14.324 5.86751 14.3716C5.42925 14.4107 5.07841 14.5745 4.815 14.8631ZM10.3804 14.4556C10.5649 14.4117 10.7557 14.3809 10.9523 14.3634L10.9603 14.3627L10.9683 14.3621C11.4353 14.328 11.8833 14.4013 12.3062 14.5641C12.6659 14.3193 13.0937 14.186 13.5762 14.1955L13.5908 14.1958L13.6055 14.1965C13.8934 14.2107 14.1929 14.2783 14.4646 14.4268C14.5373 14.0671 14.6334 13.7384 14.7581 13.4475L14.7608 13.4413C15.0526 12.7731 15.5569 12.2584 16.2801 12.0354C16.7466 11.8888 17.461 11.7727 18.0477 12.2314C18.078 12.2547 18.1081 12.2794 18.1375 12.3055C18.6647 11.9613 19.2699 11.7863 19.9606 11.8603L19.9669 11.861C20.4857 11.9199 20.8995 12.1634 21.1998 12.5178C21.8428 11.8444 22.6329 11.4449 23.6016 11.5325L23.6087 11.5331C24.0524 11.5764 24.4996 11.7319 24.8612 12.0707C24.9857 12.1874 25.0893 12.3158 25.1746 12.4518C25.2444 11.648 25.3421 10.9597 25.4709 10.394C25.6002 9.80724 25.7987 9.25835 26.1188 8.82683C26.4606 8.36597 26.9504 8.03356 27.5732 7.97801L27.586 7.97687L27.5988 7.97606C28.1138 7.94341 28.6166 8.06461 29.0534 8.37377C29.2419 8.5066 29.465 8.70743 29.6054 9.0018C29.7632 9.33257 29.7761 9.69868 29.6511 10.0355L29.6373 10.0725L29.6207 10.1083C29.5819 10.192 29.5164 10.3949 29.4365 10.7662C29.6974 10.7201 29.9712 10.7128 30.2574 10.7509L30.271 10.7527L30.2846 10.7549C30.7528 10.8302 31.1352 11.0273 31.4409 11.3057C32.0104 10.8376 32.6938 10.5628 33.4681 10.4938L33.4761 10.4931L33.4842 10.4925C33.9511 10.4584 34.3991 10.5317 34.8221 10.6945C35.1818 10.4497 35.6096 10.3164 36.092 10.3259L36.1067 10.3262L36.1213 10.3269C36.6102 10.3509 37.1324 10.5292 37.4954 10.9953C37.6521 11.1879 37.784 11.4338 37.8301 11.7301C37.8782 12.0405 37.8204 12.3306 37.7085 12.5774L37.705 12.5853L37.7013 12.5931C37.6282 12.7471 37.5341 13.0052 37.4218 13.3885C37.4416 13.375 37.462 13.3619 37.4831 13.3492C37.8384 13.1343 38.2158 13.1286 38.4856 13.1628C39.073 13.2215 39.5887 13.5092 39.9225 14.0287C40.1466 14.3677 40.2625 14.7905 40.164 15.2454C39.9366 16.3222 39.5662 17.252 38.99 17.9469C38.3898 18.6708 37.5991 19.0968 36.6643 19.1802C36.0374 19.2361 35.4676 19.1095 34.9823 18.8146C34.5139 19.1845 33.9669 19.4208 33.3415 19.4765C32.8882 19.517 32.4437 19.4503 32.0187 19.2888L32.008 19.2847L31.9975 19.2804C31.5955 19.1171 31.2344 18.8684 30.9103 18.5624C30.1979 19.3569 29.3176 19.8607 28.2793 19.8713C27.7564 19.8782 27.2549 19.755 26.8071 19.4805C26.1705 20.1044 25.3817 20.4523 24.47 20.4419C23.4985 20.4384 22.6344 20.0648 22.1033 19.2122C21.9944 19.0373 21.9046 18.8501 21.8319 18.6525C21.7896 18.973 21.7662 19.2652 21.7605 19.5301L21.7601 19.5457L21.7593 19.5613C21.7354 20.0122 21.526 20.4492 21.0982 20.727L21.0742 20.7426L21.0494 20.7567C20.7183 20.9457 20.3573 21.0424 19.9863 21.0628C19.5302 21.0884 19.0979 20.9749 18.7122 20.7426L18.6935 20.7313L18.6753 20.7193C18.4475 20.5681 18.2404 20.3672 18.0943 20.116C18.0478 20.3791 17.9301 20.6302 17.7341 20.842C17.4963 21.0992 17.2007 21.237 16.9429 21.3142L16.9333 21.3171L16.9236 21.3198C16.886 21.3303 16.8483 21.3398 16.8107 21.3482C16.7072 21.5141 16.5953 21.6705 16.4742 21.8165C15.8739 22.5404 15.0833 22.9664 14.1485 23.0498C13.5216 23.1057 12.9517 22.9791 12.4665 22.6842C11.9981 23.0541 11.4511 23.2904 10.8257 23.3461C10.3723 23.3866 9.92785 23.3199 9.50289 23.1584L9.4922 23.1543L9.48162 23.15C9.45718 23.1401 9.4329 23.1299 9.40877 23.1193C9.38113 23.1927 9.35156 23.2657 9.32005 23.3384L9.31556 23.3487C8.9846 24.0885 8.46692 24.7086 7.79468 25.2106C7.0808 25.7436 6.24622 26.0401 5.32516 26.1223C3.87878 26.2513 2.58759 25.9292 1.59594 25.0214C0.632161 24.1466 0.133361 22.9333 0.0062977 21.5085C-0.0648252 20.711 0.481066 20.1518 0.906748 19.8299L0.914106 19.8243C1.37879 19.4796 1.90295 19.227 2.47685 19.1758C2.57302 19.1673 2.74489 19.1586 2.93981 19.2074C2.16529 18.4911 1.68108 17.5927 1.58368 16.5006C1.47281 15.2573 1.81402 14.1339 2.6205 13.2039M3.65668 19.7666C3.72709 19.9024 3.76293 20.0426 3.77452 20.1725C3.784 20.2788 3.78263 20.4145 3.7795 20.5365C3.78115 20.5892 3.78262 20.6308 3.78392 20.6622L3.78578 20.7023C3.78589 20.7043 3.78605 20.707 3.78605 20.707C3.84069 21.3095 4.02943 21.7182 4.29622 22.0077C4.57494 22.3101 4.78315 22.3555 4.96371 22.3394C5.23303 22.3154 5.41194 22.2241 5.55611 22.0773C5.66786 21.9571 5.72116 21.8268 5.7012 21.603C5.66742 21.2242 5.56743 21.0219 5.47715 20.9121L5.47017 20.9036L5.46338 20.895C5.34545 20.745 5.07278 20.5193 4.53014 20.2574C4.21838 20.1086 3.92644 19.9452 3.65668 19.7666ZM25.1832 16.7814C25.1963 16.7897 25.2083 16.7981 25.2192 16.8063ZM25.1542 16.7643C25.1344 16.7534 25.1125 16.743 25.0885 16.7335C25.0276 16.7096 24.9678 16.6978 24.9137 16.6945C24.9076 16.6941 24.9016 16.6938 24.8957 16.6936C24.8743 16.693 24.854 16.6936 24.8349 16.6953C24.758 16.7022 24.6953 16.7237 24.6509 16.7457C24.6087 16.7666 24.5876 16.7861 24.5876 16.7861C24.5876 16.7861 24.6013 16.7728 24.6245 16.7414C24.6486 16.7086 24.6796 16.661 24.7162 16.5946L24.7212 16.5857C24.8505 16.3567 24.9553 16.0614 25.0179 15.682C25.0186 15.6775 25.0194 15.6729 25.0201 15.6684C25.025 15.6382 25.0296 15.6076 25.0339 15.5764L25.074 15.582M25.2192 16.8063C25.2236 16.8292 25.2282 16.852 25.2328 16.8748L25.2339 16.8802C25.2344 16.8825 25.2349 16.8848 25.2354 16.8871M10.3804 14.4556C10.239 13.4985 9.58681 12.7933 8.74983 12.299C7.83947 11.7613 6.83015 11.547 5.75666 11.6427C4.49889 11.7549 3.42928 12.271 2.6205 13.2039M11.8457 18.1671C11.8666 17.7716 11.9059 17.4469 11.9636 17.1927C11.7488 17.0352 11.4979 16.9692 11.211 16.9948C11.1855 16.9971 11.1604 17.0004 11.1355 17.0049C11.079 17.015 11.0242 17.0306 10.971 17.0519C10.7842 17.1265 10.6177 17.27 10.4714 17.4824C10.2725 17.7733 10.1403 18.1826 10.0749 18.7105C10.0073 19.3029 10.0456 19.7773 10.1898 20.1339C10.3341 20.4905 10.5457 20.6564 10.8246 20.6315C11.4461 20.5761 11.7846 19.7789 11.8401 18.2398L11.8369 18.204C11.8435 18.1873 11.8464 18.175 11.8457 18.1671ZM28.7089 13.6789C28.5706 13.7815 28.4443 13.9443 28.33 14.1673C28.326 14.175 28.3219 14.1827 28.318 14.1905C28.1901 14.4404 28.0876 14.7457 28.0104 15.1065C28.0012 15.1495 27.9923 15.1933 27.9839 15.2378C27.9819 15.2481 27.9799 15.2585 27.978 15.2689C27.9529 15.4048 27.931 15.548 27.9124 15.6984C27.9051 15.7071 27.9026 15.7234 27.9047 15.7473C27.9034 15.9889 27.9117 16.201 27.9295 16.3838C27.93 16.3892 27.9305 16.3945 27.9311 16.3999C27.9701 16.7845 28.0521 17.0362 28.1771 17.155C28.2401 17.2147 28.3139 17.2408 28.3986 17.2333C28.6616 17.2098 28.9017 17.0197 29.1188 16.663C29.3353 16.2984 29.4838 15.8474 29.5644 15.3101C29.6399 14.8054 29.6261 14.381 29.5231 14.0368C29.4281 13.6918 29.2651 13.5297 29.034 13.5503C28.9191 13.5605 28.8108 13.6034 28.7089 13.6789ZM34.3615 14.2975C34.3825 13.902 34.4218 13.5773 34.4794 13.3231C34.2646 13.1656 34.0137 13.0996 33.7269 13.1252C33.7014 13.1275 33.6762 13.1308 33.6514 13.1353C33.5949 13.1453 33.54 13.161 33.4868 13.1823C33.3 13.2569 33.1335 13.4004 32.9873 13.6128C32.7883 13.9037 32.6562 14.313 32.5908 14.8409C32.5231 15.4333 32.5614 15.9077 32.7057 16.2643C32.8499 16.6209 33.0615 16.7868 33.3404 16.7619C33.9619 16.7065 34.3004 15.9093 34.356 14.3702L34.3528 14.3344C34.3593 14.3177 34.3622 14.3054 34.3615 14.2975Z" fill="#00A4DA"/>
<path fill-rule="evenodd" clip-rule="evenodd" d="M7.58354 36.8048C7.53145 37.0486 7.50414 37.2596 7.50162 37.4379C7.50156 37.4422 7.50151 37.4465 7.50148 37.4507C7.50138 37.4645 7.50142 37.478 7.50162 37.4913C7.50254 37.5541 7.50678 37.6125 7.51434 37.6665C7.55297 37.9425 7.67826 38.104 7.89023 38.151C8.06326 38.1884 8.2062 38.1508 8.31905 38.0384C8.4319 37.926 8.47717 37.7677 8.45487 37.5637C8.44762 37.4973 8.43418 37.4313 8.41454 37.3657C8.37196 37.2234 8.30025 37.0828 8.19943 36.944C8.19732 36.941 8.19521 36.938 8.19309 36.9351C8.18942 36.9299 8.18573 36.9248 8.18203 36.9197C8.05003 36.7376 7.90429 36.5864 7.74482 36.466C7.73859 36.4613 7.73234 36.4566 7.72607 36.452C7.71831 36.4463 7.71052 36.4407 7.70269 36.4351C7.25712 36.111 7.01281 35.7648 6.96977 35.3967C6.96947 35.3941 6.96919 35.3916 6.96891 35.3891C6.91755 34.9191 7.03912 34.543 7.33361 34.2605C7.6281 33.978 8.01649 33.8104 8.49878 33.7577C8.89518 33.7206 9.21651 33.7981 9.46275 33.9902C9.47897 34.0025 9.49465 34.0152 9.50979 34.0282C9.73025 34.2181 9.83599 34.4862 9.82701 34.8327C9.8238 34.9377 9.80841 35.0349 9.78083 35.1243C9.76486 35.1761 9.74479 35.2252 9.72064 35.2718C9.70769 35.2967 9.69356 35.3209 9.67825 35.3444C9.62071 35.4325 9.54654 35.5099 9.45575 35.5766C9.4287 35.5965 9.40017 35.6155 9.37017 35.6334C9.35969 35.6399 9.34932 35.6461 9.33906 35.652C9.25719 35.6995 9.18242 35.7312 9.11474 35.7471C9.08318 35.7546 9.05317 35.7586 9.0247 35.7592C9.01074 35.7594 8.99715 35.7589 8.98393 35.7575C8.98131 35.7573 8.97871 35.757 8.97612 35.7566C8.9305 35.7507 8.8894 35.7348 8.85281 35.7088C8.7849 35.6599 8.7579 35.5846 8.77182 35.483C8.78917 35.4248 8.79681 35.3676 8.79473 35.3115C8.79441 35.3027 8.79384 35.2939 8.79303 35.2851C8.78813 35.2319 8.77441 35.1797 8.75185 35.1285C8.70123 35.0089 8.61718 34.9555 8.4997 34.9683C8.31961 34.988 8.23605 35.1076 8.24903 35.3272C8.2493 35.3317 8.24961 35.3363 8.24996 35.3409C8.25017 35.3436 8.25039 35.3464 8.25063 35.3492C8.25124 35.3563 8.25194 35.3635 8.25273 35.3708C8.25427 35.3848 8.25671 35.3989 8.26003 35.4129C8.28154 35.5034 8.3404 35.5921 8.43661 35.6792C8.48422 35.7222 8.53587 35.7654 8.59156 35.8088C8.63069 35.8392 8.67181 35.8697 8.71492 35.9003L8.71611 35.9011C8.72877 35.9101 8.7416 35.9191 8.75461 35.9281C8.78098 35.9463 8.80805 35.9645 8.83584 35.9828C8.92673 36.0392 9.01702 36.1 9.1067 36.1651C9.16934 36.2107 9.23169 36.2583 9.29375 36.3082C9.41159 36.3943 9.51925 36.5011 9.61674 36.6285C9.64865 36.6702 9.67947 36.7141 9.70919 36.7602C9.80583 36.906 9.87165 37.0674 9.90663 37.2443C9.90702 37.2463 9.90741 37.2482 9.90779 37.2502C9.91565 37.2909 9.9219 37.3324 9.92652 37.3747C9.97097 37.7813 9.9287 38.1349 9.7997 38.4354C9.70904 38.6466 9.57553 38.8316 9.39919 38.9903C8.97195 39.3749 8.4139 39.536 7.72507 39.4736C7.37756 39.4428 7.06837 39.3045 6.79749 39.0588C6.53211 38.8062 6.36027 38.4934 6.28194 38.1203C6.19743 37.7478 6.23355 37.334 6.39029 36.8789C6.4195 36.8044 6.45632 36.7383 6.50073 36.6805C6.61996 36.5255 6.79397 36.431 7.02274 36.3968C7.2694 36.3636 7.44479 36.4227 7.54893 36.574C7.55692 36.5885 7.56377 36.6032 7.56946 36.6183L7.57053 36.6211C7.59168 36.6786 7.59601 36.7398 7.58354 36.8048ZM6.02058 35.759C6.00007 35.6745 5.98464 35.5874 5.97483 35.4977C5.89578 34.7745 6.08551 34.072 6.64139 33.5388C7.12358 33.0763 7.73146 32.8356 8.39013 32.7636L8.3979 32.7628L8.40567 32.7621C8.96825 32.7094 9.54844 32.8078 10.0385 33.1718C10.5663 32.5397 11.2696 32.1644 12.1002 32.0736L12.1082 32.0727L12.1162 32.072C12.4747 32.0386 12.8202 32.0804 13.1479 32.1841C13.4387 32.0032 13.7797 31.9013 14.1614 31.9012L14.1761 31.9012L14.1908 31.9016C14.2304 31.9028 14.2706 31.9051 14.311 31.9087C14.3229 31.8692 14.336 31.8297 14.3505 31.7904C14.4955 31.3877 14.7417 31.0488 15.0588 30.7757C15.4108 30.4704 15.8316 30.2787 16.3022 30.2273C16.7072 30.183 17.4396 30.2415 17.7939 30.9545C17.8695 31.1041 17.9162 31.2636 17.9468 31.4092C18.0025 31.3819 18.047 31.3546 18.0822 31.3291C18.3893 31.1061 18.7605 31.0428 19.1103 31.1277C19.364 31.1893 19.5658 31.318 19.7133 31.4379C19.7749 31.3603 19.8454 31.2832 19.9065 31.2184C19.6676 30.9175 19.5518 30.5626 19.5141 30.2172C19.4471 29.6042 19.7179 29.0986 20.1062 28.7472C20.5368 28.3556 21.0813 28.1999 21.6125 28.1662C22.104 28.1301 22.5508 28.2994 22.9007 28.6174C23.1305 28.8264 23.2972 29.1033 23.3588 29.4313C23.4175 29.7436 23.3685 30.0345 23.2885 30.2732L23.2871 30.2772C23.2655 30.3409 23.2409 30.4029 23.2138 30.4632C23.4732 30.3673 23.749 30.3032 24.0392 30.2714L24.0508 30.2702L24.0624 30.2692C24.2667 30.2516 24.4729 30.253 24.6752 30.2777C24.6855 30.2265 24.6992 30.1746 24.7166 30.1221C24.8249 29.7797 25.0672 29.5031 25.4001 29.3526C25.5678 29.2768 25.7354 29.2432 25.8875 29.2319C25.9448 29.0789 26.0074 28.9344 26.0763 28.7998L26.0804 28.7918L26.0847 28.7838C26.1697 28.6248 26.2783 28.4476 26.4171 28.2955C26.529 28.1729 26.808 27.902 27.2473 27.8722C27.6987 27.8369 28.1441 27.9437 28.5554 28.1106C28.7439 28.1861 28.9957 28.3046 29.2001 28.5C29.3097 28.6047 29.4474 28.771 29.524 29.0075C29.5535 29.0984 29.5709 29.1907 29.577 29.2828C29.6751 29.3507 29.7681 29.4372 29.8513 29.5462C30.0367 29.7888 30.1018 30.0563 30.1214 30.2736C30.4167 30.1419 30.7369 30.0564 31.0786 30.019L31.0866 30.0181L31.0947 30.0174C31.4532 29.984 31.7986 30.0258 32.1263 30.1295C32.4171 29.9486 32.7581 29.8467 33.1398 29.8466L33.1545 29.8466L33.1692 29.847C33.594 29.8594 34.0715 30.0066 34.4124 30.4256C34.5569 30.5967 34.6835 30.8203 34.7318 31.0952C34.7826 31.3843 34.7334 31.6546 34.6358 31.882L34.6324 31.8899L34.6288 31.8978C34.6124 31.9344 34.5938 31.9807 34.5733 32.0379C34.7577 31.9986 34.9298 32.0015 35.0651 32.0157C35.5836 32.0579 36.0513 32.3053 36.3589 32.7631C36.5664 33.0645 36.6823 33.4508 36.5998 33.8727C36.4359 34.7325 36.1525 35.4994 35.6847 36.0869C35.1935 36.704 34.5321 37.0783 33.7461 37.1642C33.2672 37.2166 32.8222 37.1417 32.4313 36.9492C32.0694 37.2165 31.6484 37.3935 31.1677 37.4461C30.7807 37.4884 30.4003 37.4386 30.0374 37.3089L30.0267 37.3051L30.016 37.301C29.8097 37.2219 29.6169 37.1172 29.4369 36.993C29.0807 37.2172 28.6766 37.3577 28.2327 37.4062C27.75 37.4589 27.2656 37.3782 26.8282 37.1192C26.7544 37.0755 26.6841 37.028 26.6173 36.9773C26.0847 37.387 25.4564 37.6284 24.7578 37.7048C24.1515 37.771 23.5589 37.7017 22.996 37.4849L22.9874 37.4816L22.9789 37.4782C22.7515 37.3858 22.5407 37.2698 22.3468 37.1322C22.2699 37.3528 22.1852 37.5665 22.0924 37.773C21.5328 39.0337 20.6853 40.1069 19.3825 40.2383L19.3705 40.2395C18.8716 40.2838 18.3885 40.1835 17.9496 39.937C17.4972 39.6872 17.1356 39.3028 16.9619 38.7786L16.957 38.7637L16.9526 38.7488C16.8737 38.4834 16.8382 38.2105 16.8557 37.9389C16.8081 38.0086 16.7583 38.0762 16.7063 38.1415C16.2151 38.7585 15.5537 39.1329 14.7677 39.2188C14.2888 39.2712 13.8438 39.1963 13.4529 39.0038C13.091 39.2711 12.67 39.4481 12.1893 39.5006C11.8022 39.5429 11.4219 39.4932 11.059 39.3635L11.0482 39.3597L11.0376 39.3556C10.8738 39.2928 10.7185 39.2139 10.5713 39.1218C10.4411 39.3424 10.2745 39.5478 10.0682 39.7335C9.3926 40.3417 8.53996 40.5515 7.6349 40.4695C7.06003 40.4181 6.54919 40.1837 6.12564 39.7995L6.11676 39.7914L6.10808 39.7832C5.69167 39.3869 5.42391 38.8932 5.30492 38.3335C5.17221 37.7404 5.244 37.1363 5.44479 36.5533L5.45162 36.5335L5.45929 36.5139C5.58392 36.196 5.77831 35.9438 6.02058 35.759ZM10.9106 38.1387C11.0692 38.2643 11.2308 38.3587 11.3956 38.4219C11.6235 38.5033 11.8518 38.5316 12.0806 38.5066C12.2787 38.4849 12.4654 38.4282 12.6405 38.3365C12.9137 38.1934 13.1589 37.9651 13.3762 37.6517C13.591 37.9501 13.8563 38.1341 14.1722 38.2035C14.323 38.2367 14.4852 38.2437 14.659 38.2248C15.4085 38.1428 15.9627 37.6786 16.3217 36.8319C16.3903 36.6702 16.4517 36.4945 16.5061 36.3049C16.5568 36.1277 16.6013 35.9384 16.6396 35.737C16.6448 35.7109 16.6476 35.6849 16.6479 35.659C16.6546 35.6395 16.6598 35.6184 16.6637 35.5956C16.6858 35.4847 16.7071 35.3746 16.7275 35.2653C16.728 35.2627 16.7285 35.26 16.729 35.2574C16.7378 35.2104 16.7463 35.1636 16.7548 35.1169L16.7553 35.114C16.8032 34.8481 16.8458 34.5868 16.883 34.3302C16.9095 34.1478 16.9333 33.9677 16.9543 33.7899C17.2167 33.7863 17.4971 33.7462 17.7953 33.6698C17.7631 33.7379 17.733 33.8075 17.705 33.8789C17.6002 34.1461 17.5256 34.4365 17.4812 34.7501C17.4722 34.8132 17.4645 34.8772 17.458 34.9421C17.4511 35.0116 17.4455 35.0822 17.4413 35.1539C17.4304 35.3567 17.4306 35.5472 17.4419 35.7254C17.4425 35.7342 17.4431 35.7429 17.4437 35.7517C17.447 35.7994 17.4512 35.8463 17.4562 35.8922C17.4565 35.8949 17.4567 35.8975 17.457 35.9001C17.4682 36.001 17.4832 36.0976 17.5022 36.1898C17.5119 36.237 17.5226 36.283 17.5344 36.3279C17.5529 36.3986 17.5739 36.4664 17.5975 36.5315C17.6692 36.7297 17.7644 36.902 17.883 37.0485C17.9828 37.1701 18.0894 37.2715 18.2026 37.3527C18.1222 37.3606 18.0486 37.4313 17.9818 37.5647C17.9438 37.6341 17.914 37.7057 17.8926 37.7796C17.8789 37.8269 17.8686 37.8751 17.8617 37.9242C17.8583 37.9486 17.8557 37.9731 17.8539 37.9979C17.8513 38.0357 17.8505 38.0739 17.8518 38.1127C17.8534 38.1653 17.8586 38.2189 17.8673 38.2735C17.8701 38.2907 17.8732 38.3081 17.8767 38.3255C17.8852 38.3681 17.8958 38.4112 17.9085 38.455C17.9094 38.458 17.9103 38.461 17.9112 38.464C17.9952 38.7177 18.1703 38.9175 18.4366 39.0636C18.6967 39.2104 18.9785 39.2703 19.2822 39.2434C19.9598 39.175 20.5457 38.6478 21.0397 37.6618C21.075 37.5913 21.1099 37.5184 21.1443 37.4432C21.156 37.4175 21.1677 37.3916 21.1793 37.3654C21.3246 37.042 21.4492 36.6941 21.553 36.3217C21.5636 36.2837 21.574 36.2454 21.5841 36.2069C21.5855 36.2018 21.5868 36.1967 21.5881 36.1916C21.6673 35.8892 21.7332 35.5711 21.7859 35.2373C21.8327 34.9404 21.8689 34.6312 21.8947 34.3095C21.8954 34.301 21.8961 34.2925 21.8967 34.2839C21.9306 33.8512 21.9455 33.3953 21.9415 32.9178C21.9357 32.4074 21.8341 32.0357 21.6367 31.8026C21.6263 31.7904 21.6157 31.7785 21.6048 31.767C21.5894 31.7509 21.5736 31.7355 21.5572 31.7209C21.496 31.6634 21.4321 31.6229 21.3656 31.5992C21.1817 31.5336 20.9777 31.5971 20.7536 31.7895C20.7267 31.8127 20.6994 31.8377 20.6719 31.8646C20.5652 31.9763 20.4985 32.0525 20.4716 32.0929C20.4441 32.1272 20.4199 32.1925 20.3991 32.2886C20.3976 32.2999 20.3962 32.3117 20.3949 32.324C20.3908 32.3637 20.3879 32.4088 20.3864 32.4594C20.3852 32.4996 20.3848 32.5433 20.3852 32.5904C20.4033 32.7563 20.4017 33.0328 20.3802 33.4198C20.3755 33.5045 20.3698 33.5944 20.3632 33.6896C20.3608 33.7251 20.3582 33.7614 20.3555 33.7984C20.3466 33.9189 20.3363 34.0472 20.3247 34.1832C20.3186 34.2634 20.3123 34.3422 20.3058 34.4197C20.1309 34.4279 20.0319 34.5165 20.0087 34.6856C19.975 34.9556 19.9355 35.19 19.8904 35.3887C19.8823 35.4244 19.874 35.459 19.8656 35.4924C19.8576 35.5239 19.8494 35.5545 19.8411 35.584C19.8388 35.5919 19.8366 35.5998 19.8343 35.6075C19.8103 35.69 19.785 35.7641 19.7583 35.8298C19.6604 36.0783 19.5155 36.213 19.3239 36.234C19.2228 36.245 19.1368 36.197 19.0656 36.0899C19.0278 36.0331 18.9943 35.9597 18.9649 35.8696C18.9307 35.756 18.9075 35.6293 18.8954 35.4895C18.8951 35.4863 18.8948 35.483 18.8945 35.4797C18.8921 35.4507 18.8902 35.4212 18.8888 35.3911C18.8871 35.3572 18.8861 35.3226 18.8857 35.2873C18.8841 35.1611 18.8901 35.0258 18.9038 34.8814C18.9401 34.5834 19.0131 34.2782 19.1229 33.9659C19.2028 33.7555 19.2877 33.5784 19.3775 33.4346C19.4243 33.3597 19.4724 33.2939 19.5219 33.2371C19.5791 33.1307 19.5718 32.9782 19.5 32.7796C19.4892 32.7496 19.4772 32.7201 19.4639 32.6911C19.4496 32.66 19.4339 32.6294 19.4168 32.5993C19.4155 32.5971 19.4142 32.5948 19.4129 32.5926C19.404 32.5772 19.3947 32.562 19.385 32.5469C19.3259 32.4545 19.2527 32.3677 19.1655 32.2866C19.1517 32.2737 19.1374 32.2609 19.1229 32.2483C18.9425 32.0866 18.7915 32.0499 18.6697 32.1383C18.4955 32.2648 18.2842 32.3676 18.0357 32.4469C17.9947 32.4599 17.9527 32.4724 17.9097 32.4841C17.7323 32.5296 17.5576 32.5592 17.3855 32.5731C17.2684 32.5825 17.1525 32.5846 17.0379 32.5794L17.0342 32.3734C17.0241 31.8802 16.9793 31.5566 16.8999 31.4025C16.8274 31.254 16.6643 31.1937 16.4108 31.2214C16.1511 31.2497 15.9184 31.3534 15.7127 31.5323C15.5125 31.7044 15.3717 31.9043 15.2902 32.1322C15.2715 32.1828 15.2568 32.2343 15.246 32.2866C15.2237 32.3955 15.2187 32.5081 15.231 32.6245C15.2325 32.6387 15.2343 32.653 15.2363 32.6674C15.2447 32.7264 15.2574 32.7863 15.2745 32.8472C15.34 33.1029 15.4949 33.3175 15.7391 33.491C15.7395 33.5476 15.7375 33.6211 15.7331 33.7115C15.7284 33.8114 15.7207 33.9318 15.7101 34.0729C15.6891 34.3549 15.6565 34.7193 15.6125 35.1661C15.6109 35.1835 15.6105 35.2009 15.6113 35.2185C15.5968 35.2499 15.5868 35.2861 15.5812 35.3271C15.5724 35.4014 15.5617 35.4739 15.5493 35.5446C15.5486 35.5483 15.5479 35.552 15.5473 35.5557C15.4904 35.8722 15.3967 36.1515 15.2661 36.3939C15.2592 36.407 15.2523 36.4198 15.2454 36.4323C15.0909 36.7129 14.9278 36.8626 14.7562 36.8814C14.6078 36.8976 14.4843 36.7985 14.3858 36.584C14.2928 36.3626 14.2476 36.0641 14.2504 35.6884C14.255 35.3875 14.3089 35.0219 14.412 34.5914C14.4912 34.2692 14.5667 34.0048 14.6384 33.7982C14.6726 33.6997 14.706 33.6143 14.7385 33.542C14.7448 33.5274 14.7505 33.512 14.7551 33.4976C14.7975 33.3632 14.7672 33.2369 14.664 33.1184C14.6412 33.0895 14.6158 33.0634 14.5879 33.0403C14.5826 33.0358 14.5771 33.0315 14.5716 33.0273C14.4894 32.9646 14.3865 32.9252 14.263 32.909C14.2306 32.9048 14.1968 32.9022 14.1616 32.9012C13.8227 32.9012 13.5521 33.0547 13.3499 33.3615C13.3468 33.3662 13.3437 33.371 13.3406 33.3757C13.3327 33.3706 13.3248 33.3655 13.3168 33.3604C12.954 33.1303 12.5847 33.0327 12.2088 33.0677C11.5967 33.1346 11.1047 33.4136 10.7329 33.9048C10.7135 33.9305 10.6945 33.9566 10.676 33.9833C10.5038 34.2304 10.3702 34.5174 10.2751 34.8443L10.2745 34.8463C10.1992 35.1054 10.1482 35.3895 10.1213 35.6986C10.117 35.7484 10.1133 35.7988 10.1102 35.8499C10.1037 36.0197 10.1046 36.1806 10.1129 36.3327C10.1158 36.3846 10.1194 36.4354 10.124 36.4853C10.1242 36.4877 10.1244 36.49 10.1246 36.4924C10.1469 36.7317 10.1891 36.9473 10.2511 37.1391C10.2715 37.206 10.2938 37.2702 10.318 37.3319C10.4207 37.5943 10.5573 37.8098 10.7277 37.9787C10.7882 38.0367 10.8492 38.0901 10.9106 38.1387ZM19.0829 37.5923C18.9769 37.6005 18.8746 37.5977 18.7759 37.584C18.7731 37.5836 18.7704 37.5832 18.7676 37.5828C18.6576 37.5668 18.5522 37.5371 18.4514 37.4938L18.4464 37.4916C18.4303 37.4846 18.4142 37.4772 18.3983 37.4695L18.426 37.5068C18.4897 37.6312 18.5681 37.7196 18.6615 37.772C18.7486 37.825 18.8983 37.8493 19.1106 37.8449C19.1276 37.843 19.1445 37.8403 19.1612 37.8368C19.3296 37.8011 19.4814 37.6799 19.6163 37.4732C19.467 37.5306 19.3062 37.5687 19.1339 37.5875C19.1243 37.5885 19.1148 37.5895 19.1052 37.5904C19.0978 37.5911 19.0904 37.5917 19.0829 37.5923ZM12.8778 35.2377C12.8879 34.93 12.9135 34.6769 12.9543 34.4785C12.7849 34.3594 12.5889 34.312 12.3663 34.3363C12.3465 34.3385 12.327 34.3415 12.3077 34.3453C12.1667 34.3734 12.0399 34.4463 11.9272 34.5641C11.8822 34.6111 11.8394 34.6654 11.7989 34.7268C11.6487 34.956 11.5523 35.2762 11.5097 35.6876C11.4663 36.1491 11.5034 36.5173 11.6211 36.7923C11.7387 37.0673 11.9057 37.1929 12.1222 37.1693C12.6044 37.1166 12.8553 36.4916 12.8746 35.2944L12.8715 35.2666C12.8764 35.2535 12.8784 35.2439 12.8778 35.2377ZM21.9575 34.4381C21.9701 34.6808 22.0086 34.9077 22.0729 35.1191C22.1372 35.33 22.2272 35.5254 22.343 35.7051C22.4344 35.8432 22.5348 35.9674 22.6443 36.0777C22.8494 36.2844 23.0864 36.4425 23.3554 36.5518C23.7604 36.7077 24.1916 36.7607 24.6492 36.7107C25.1511 36.6558 25.5877 36.4926 25.9589 36.2211C26.0952 36.1214 26.2227 36.0071 26.3414 35.8781C26.3717 35.8447 26.4013 35.8108 26.4301 35.7764C26.5206 35.6687 26.6041 35.5567 26.6807 35.4403C26.7057 35.497 26.7319 35.5515 26.7593 35.6039C26.9154 35.9019 27.1053 36.1184 27.329 36.2535C27.5585 36.3921 27.8235 36.445 28.1241 36.4121C28.3273 36.3899 28.5162 36.3396 28.6907 36.2611C28.9894 36.1269 29.246 35.9103 29.4606 35.6113C29.5327 35.7291 29.6145 35.8333 29.7061 35.9241C29.8682 36.0795 30.0335 36.2013 30.2022 36.2895C30.2591 36.3193 30.3164 36.3452 30.374 36.3673C30.6019 36.4487 30.8303 36.477 31.059 36.452C31.2571 36.4303 31.4438 36.3736 31.6189 36.2819C31.8921 36.1388 32.1373 35.9105 32.3547 35.5971C32.5694 35.8955 32.8347 36.0795 33.1506 36.1489C33.3014 36.1821 33.4636 36.1891 33.6374 36.1702C34.6638 36.058 35.324 35.2287 35.618 33.6824C35.6423 33.5608 35.6137 33.4419 35.5321 33.3257C35.4047 33.1332 35.2181 33.0284 34.9722 33.0115C34.725 32.9822 34.5874 33.0692 34.5596 33.2725C34.5108 33.6845 34.4057 34.0401 34.2445 34.3393C34.0839 34.6447 33.9139 34.8072 33.7346 34.8268C33.5862 34.843 33.4628 34.7439 33.3642 34.5294C33.2712 34.308 33.2261 34.0095 33.2288 33.6338C33.2335 33.3329 33.2873 32.9673 33.3905 32.5368C33.5074 32.061 33.6162 31.7112 33.7169 31.4874C33.7817 31.3365 33.7569 31.1953 33.6424 31.0639C33.5335 30.9256 33.366 30.8532 33.14 30.8466C32.8011 30.8467 32.5305 31.0001 32.3283 31.3069C32.3252 31.3116 32.3221 31.3164 32.319 31.3211C32.3111 31.3159 32.3031 31.3108 32.2951 31.3058C31.9323 31.0757 31.563 30.9781 31.1873 31.0131C30.5751 31.08 30.0832 31.359 29.7114 31.8502C29.6203 31.9705 29.5391 32.101 29.4677 32.2416C29.3115 32.549 29.2022 32.905 29.1398 33.3093C29.0886 33.3537 29.0571 33.419 29.0453 33.5051C29.036 33.6026 29.0231 33.6977 29.0066 33.7904L29.0063 33.7922C28.9711 33.9887 28.9196 34.1744 28.8517 34.3491C28.8493 34.3552 28.847 34.3612 28.8446 34.3672C28.8389 34.3816 28.833 34.396 28.8271 34.4102C28.8031 34.4678 28.7773 34.5241 28.7497 34.5792C28.6077 34.8826 28.4408 35.0447 28.2491 35.0657C28.2288 35.0679 28.2088 35.0671 28.1892 35.0631C28.149 35.0551 28.1103 35.0342 28.073 35.0005C28.0576 34.9846 28.0425 34.9656 28.0276 34.9435C27.9949 34.8949 27.9635 34.8314 27.9334 34.7529C27.8896 34.6388 27.8521 34.4959 27.8208 34.3241C27.8162 34.2925 27.8119 34.2595 27.8078 34.2251L27.8076 34.2237C27.8066 34.2147 27.8055 34.2056 27.8045 34.1964C27.804 34.1916 27.8034 34.1867 27.8029 34.1817C27.7873 34.038 27.7762 33.8715 27.7694 33.6821C27.7679 33.5493 27.7697 33.4086 27.7748 33.26C27.7753 33.2442 27.7759 33.2283 27.7765 33.2123C27.78 33.1235 27.7846 33.032 27.7904 32.9377C27.7926 32.9006 27.7951 32.863 27.7977 32.8249C27.8155 32.4726 27.8671 32.0571 27.9524 31.5785C28.0211 31.5773 28.1853 31.5625 28.445 31.5341C28.5563 31.5219 28.6732 31.4466 28.7957 31.308C29.0064 31.0597 29.1171 30.7848 29.128 30.4833C29.1295 30.4414 29.1287 30.4027 29.1257 30.3671C29.1071 30.1464 29.002 30.0466 28.8103 30.0675L28.3095 30.1223C28.4104 29.7859 28.497 29.548 28.5694 29.4087C28.6085 29.3095 28.5339 29.2107 28.3456 29.1124C28.2982 29.0876 28.2435 29.0629 28.1816 29.0381C27.8542 28.905 27.5665 28.8488 27.3185 28.8697C27.2189 28.8743 27.1015 29.0029 26.9665 29.2554C26.8376 29.5073 26.7236 29.8388 26.6247 30.2501C26.4687 30.2546 26.296 30.2485 26.1064 30.2317C25.8599 30.2086 25.7138 30.2746 25.6682 30.4297C25.6456 30.4943 25.6459 30.5661 25.669 30.6454C25.6996 30.75 25.7701 30.8675 25.8805 30.9978C25.9193 31.0471 25.9578 31.0927 25.9961 31.1345C26.0012 31.1401 26.0063 31.1456 26.0114 31.151C26.0141 31.1539 26.0168 31.1568 26.0195 31.1596C26.0209 31.1611 26.0223 31.1626 26.0237 31.1641C26.0425 31.1838 26.0612 31.2027 26.0799 31.2207C26.0846 31.2252 26.0893 31.2297 26.094 31.2341C26.178 31.313 26.2607 31.3737 26.3421 31.4163C26.3643 31.4278 26.3863 31.4381 26.4082 31.447C26.4049 31.4729 26.4017 31.4989 26.3985 31.5248C26.3622 31.823 26.3368 32.119 26.3222 32.4126C26.3141 32.5756 26.3093 32.7378 26.3079 32.8993C26.3078 32.9072 26.3078 32.915 26.3077 32.9229C26.3077 32.9258 26.3077 32.9286 26.3077 32.9315C26.3054 33.1072 26.3068 33.2764 26.3119 33.4393C26.2215 33.4817 26.1698 33.5599 26.1568 33.6739C26.1073 34.0798 25.9604 34.4525 25.7159 34.7921C25.6866 34.8328 25.6561 34.8714 25.6244 34.9079C25.622 34.9106 25.6197 34.9133 25.6173 34.9161C25.58 34.9584 25.541 34.9979 25.5005 35.0344C25.2897 35.2244 25.0352 35.3357 24.7371 35.3683C24.2211 35.4247 23.8409 35.2884 23.5964 34.9593C23.5918 34.9531 23.5873 34.947 23.5829 34.9407C23.9779 34.8343 24.3297 34.6755 24.6383 34.4642C24.6441 34.4603 24.6499 34.4563 24.6556 34.4523C24.7539 34.384 24.8477 34.3104 24.9371 34.2314C24.9499 34.2201 24.9626 34.2088 24.9751 34.1973C25.1143 34.073 25.2316 33.9374 25.3272 33.7905C25.3688 33.7266 25.4062 33.6606 25.4396 33.5924C25.4405 33.5905 25.4414 33.5886 25.4423 33.5868C25.5398 33.3856 25.6016 33.1658 25.6277 32.9274L25.6282 32.9227C25.6308 32.8983 25.633 32.8736 25.6349 32.8487C25.6412 32.7918 25.645 32.7359 25.6465 32.681C25.6521 32.4675 25.6209 32.2698 25.5531 32.0879C25.5078 31.9668 25.4464 31.8527 25.3686 31.7456C25.3529 31.724 25.3366 31.7028 25.3197 31.6818C25.2867 31.6389 25.2513 31.5992 25.2133 31.5628C25.2058 31.5556 25.1982 31.5485 25.1905 31.5416C25.1082 31.4674 25.0148 31.4077 24.9101 31.3625C24.7008 31.2722 24.4467 31.2399 24.1479 31.2655C23.6111 31.3242 23.1598 31.5309 22.7939 31.8856C22.713 31.964 22.6363 32.0497 22.5637 32.1426C22.3915 32.3631 22.2557 32.6207 22.1563 32.9153C22.0246 33.3061 21.9567 33.7625 21.953 34.2835C21.9532 34.3038 21.9535 34.3239 21.954 34.3439C21.9543 34.3556 21.9546 34.3672 21.955 34.3787C21.9557 34.3986 21.9565 34.4184 21.9575 34.4381ZM30.8415 35.0579C30.9182 35.1062 31.0045 35.1252 31.1006 35.1147C31.5829 35.062 31.8337 34.437 31.853 33.2398L31.8499 33.212C31.8548 33.1989 31.8569 33.1893 31.8562 33.1831C31.8663 32.8754 31.8919 32.6224 31.9327 32.4239C31.7633 32.3048 31.5673 32.2574 31.3447 32.2817C31.3249 32.2839 31.3054 32.2869 31.2861 32.2907C31.1451 32.3188 31.0183 32.3917 30.9056 32.5095C30.8606 32.5566 30.8178 32.6108 30.7773 32.6722C30.7493 32.7149 30.7232 32.7607 30.699 32.8097C30.6453 32.9183 30.6007 33.0424 30.5653 33.1821C30.5631 33.1909 30.5609 33.1998 30.5587 33.2088C30.5276 33.3374 30.5041 33.4788 30.4881 33.633C30.4762 33.7596 30.4704 33.8793 30.4706 33.9919L30.4706 33.9939C30.4713 34.2907 30.5143 34.5386 30.5995 34.7377C30.6649 34.8906 30.7456 34.9973 30.8415 35.0579ZM23.3481 33.9682C23.3479 33.9756 23.3478 33.9829 23.3476 33.9903C23.6225 33.929 23.8545 33.8192 24.0437 33.6609C24.047 33.658 24.0504 33.6552 24.0537 33.6524C24.0926 33.6193 24.1283 33.5857 24.1609 33.5517C24.2225 33.4872 24.2728 33.4211 24.3116 33.3532C24.3126 33.3514 24.3136 33.3497 24.3146 33.3479C24.3503 33.2845 24.376 33.2198 24.3918 33.1535C24.4299 32.9867 24.4051 32.8455 24.3173 32.7299C24.2289 32.6082 24.1167 32.5548 23.9807 32.5696C23.8128 32.588 23.6686 32.7155 23.5481 32.9523C23.5468 32.9549 23.5455 32.9575 23.5442 32.9601C23.5418 32.9649 23.5394 32.9698 23.5369 32.9748C23.5288 32.9918 23.5209 33.0092 23.5133 33.0271C23.4894 33.0831 23.4681 33.1436 23.4494 33.2085C23.3894 33.4161 23.3557 33.6693 23.3481 33.9682ZM21.7622 30.6806C21.8281 30.6388 21.8917 30.5894 21.9529 30.5326C22.1449 30.3427 22.2741 30.1502 22.3403 29.9553C22.4253 29.702 22.3879 29.5027 22.2281 29.3575C22.0683 29.2123 21.886 29.1477 21.6813 29.1638C21.2898 29.1879 20.9887 29.2958 20.7782 29.4878C20.5731 29.6729 20.4831 29.8798 20.5081 30.1086C20.5335 30.3409 20.6113 30.5229 20.7413 30.6545C20.7531 30.6664 20.7654 30.678 20.7781 30.6892C20.9297 30.8165 21.0982 30.87 21.2837 30.8498C21.4548 30.8311 21.6143 30.7747 21.7622 30.6806Z" fill="#00A4DA"/>
<path d="M8.60752 9.26796C10.4562 7.32134 13.4375 5.06104 16.8196 4.06171C20.2102 3.05989 24.0109 3.30725 27.6768 6.5181C28.1821 6.96073 28.9745 6.94781 29.4425 6.42109C30.1335 5.64354 30.1139 4.41372 29.266 3.7225C24.8341 0.109605 20.0616 -0.0244235 15.9695 1.18467C11.8278 2.40844 8.95932 5.56358 6.97979 7.80757C6.6067 8.2305 6.62005 8.86697 7.00688 9.27479C7.44908 9.74098 8.18035 9.71776 8.60752 9.26796Z" fill="#01FF5E" stroke="#00A4DA"/>
<path d="M14.4605 40.7776C15.6718 41.4515 17.4017 42.2212 19.1913 42.2637C21.4433 42.3172 23.953 42.2677 26.0766 40.3193C26.2869 40.1263 26.5807 40.0284 26.8785 40.0782C27.6234 40.2026 27.9568 41.1526 27.3348 41.6824C24.6175 43.9968 21.5948 44.7355 18.9002 44.6715C16.5808 44.6165 14.5052 43.9703 13.0221 43.2502C12.2059 42.854 12.048 41.8393 12.5523 41.1682C13.0051 40.5655 13.8262 40.4247 14.4605 40.7776L14.2174 41.2146L14.4605 40.7776Z" fill="#01FF5E" stroke="#00A4DA"/>
<path d="M15.575 25.3338C15.6466 24.4911 15.9429 23.8039 16.4636 23.2723C17.0092 22.7321 17.6673 22.4882 18.4381 22.5408C18.5871 20.9187 18.9878 20.0786 19.6401 20.0204C19.894 20.0042 20.113 20.0613 20.297 20.1917C20.4804 20.3158 20.5401 20.4477 20.4759 20.5875C20.3696 20.8268 20.2481 21.326 20.1115 22.0851C19.9911 22.8109 19.9168 23.5166 19.8886 24.2022C19.8243 25.772 19.9568 26.5422 20.2862 26.5128C20.4698 26.4964 20.6497 26.3304 20.8259 26.0146C20.9962 25.7058 21.1077 25.3447 21.1602 24.9314C21.1928 24.7242 21.3383 24.6379 21.5967 24.6723C21.8488 24.7072 22.0377 24.8213 22.1635 25.0143C22.2376 25.129 22.2612 25.2514 22.2345 25.3815C21.9025 26.956 21.2108 27.7902 20.1595 27.8839C19.6401 27.9302 19.2292 27.6892 18.9267 27.1607C18.5451 27.7502 18.0757 28.0698 17.5183 28.1195C16.999 28.1658 16.5299 27.9523 16.111 27.4789C15.6979 26.9986 15.5192 26.2836 15.575 25.3338ZM18.3797 24.3559C18.3764 24.2476 18.3741 24.0787 18.3728 23.849C17.6285 23.8068 17.1746 24.2654 17.0112 25.2248C16.9379 25.691 16.9588 26.069 17.074 26.3588C17.1887 26.6422 17.36 26.7738 17.588 26.7534C17.835 26.7314 18.0268 26.5547 18.1632 26.2234C18.2991 25.8857 18.3741 25.4385 18.3883 24.8818C18.3843 24.8375 18.3815 24.6622 18.3797 24.3559Z" fill="#01FF5E"/>
<path d="M24.9399 23.7325C24.8871 24.2863 24.6532 24.7412 24.238 25.0975C23.8414 25.4456 23.362 25.6895 22.7999 25.829C23.0422 26.184 23.4325 26.3376 23.9709 26.2896C24.3889 26.2523 24.7263 26.0626 24.9831 25.7205C25.2399 25.3784 25.3977 25.0004 25.4565 24.5866C25.4833 24.3863 25.6254 24.297 25.8827 24.3188C26.1279 24.348 26.3194 24.4554 26.4573 24.641C26.5382 24.7614 26.5657 24.8899 26.5395 25.0263C26.3857 25.7358 26.0727 26.3415 25.6003 26.8433C25.1389 27.3249 24.5567 27.5971 23.8537 27.6598C23.385 27.7016 22.9453 27.6387 22.5345 27.471C22.1163 27.2913 21.7771 26.9959 21.5171 26.585C21.2633 26.1735 21.1401 25.6866 21.1474 25.1241C21.1726 24.1898 21.3952 23.4645 21.8152 22.9483C22.2352 22.432 22.7808 22.1439 23.4522 22.0841C23.998 22.0481 24.3944 22.1979 24.6414 22.5334C24.901 22.8678 25.0005 23.2675 24.9399 23.7325ZM23.2548 23.4136C23.0774 23.4294 22.9235 23.5644 22.7929 23.8187C22.6682 24.066 22.5968 24.4107 22.5787 24.8528C22.8609 24.7957 23.1003 24.6882 23.2969 24.5302C23.4935 24.3722 23.6155 24.2018 23.663 24.0188C23.7054 23.849 23.6829 23.7042 23.5956 23.5843C23.5077 23.4581 23.3941 23.4012 23.2548 23.4136Z" fill="#01FF5E"/>
<path d="M6.28427 16.9991C7.03325 17.382 7.58658 17.8226 7.94425 18.3208C8.30192 18.819 8.51308 19.4307 8.57775 20.1558C8.63318 20.7773 8.53764 21.3722 8.29113 21.9403C8.03666 22.5092 7.63457 22.9988 7.08485 23.4093C6.53514 23.8197 5.88179 24.0587 5.12479 24.1262C3.88172 24.2371 2.89283 23.9558 2.15811 23.2824C1.4241 22.617 1.00166 21.6627 0.890802 20.4197C0.868062 20.1647 1.03727 19.9006 1.39844 19.6275C1.76757 19.3536 2.11947 19.2017 2.45414 19.1719C2.5896 19.1598 2.66053 19.1896 2.66693 19.2613C2.67119 19.3091 2.6714 19.4015 2.66754 19.5384C2.67165 19.6745 2.67513 19.7586 2.67797 19.7904C2.74761 20.5713 3.00474 21.203 3.44935 21.6854C3.89396 22.1678 4.39117 22.3845 4.94099 22.3355C5.43503 22.2914 5.84385 22.1024 6.16746 21.7683C6.49035 21.4263 6.62977 21.0082 6.58571 20.5142C6.53952 19.9962 6.3903 19.5839 6.13805 19.2771C5.88438 18.9543 5.4554 18.6472 4.85112 18.3557C3.37478 17.6521 2.58047 16.6708 2.46819 15.4118C2.38007 14.4237 2.64553 13.5727 3.26457 12.8589C3.89087 12.1364 4.71399 11.7297 5.73395 11.6388C6.61047 11.5606 7.40906 11.7343 8.12972 12.16C8.85038 12.5857 9.23736 13.0973 9.29066 13.6949C9.31268 13.942 9.14269 14.2422 8.78066 14.5958C8.43457 14.9479 8.16192 15.1329 7.96272 15.1507C7.90694 15.1556 7.87692 15.1342 7.87265 15.0864C7.79317 14.5554 7.55018 14.1273 7.14368 13.8021C6.75242 13.4675 6.28985 13.324 5.75596 13.3716C5.3177 13.4107 4.96687 13.5745 4.70346 13.8631C4.44802 14.1509 4.33984 14.514 4.37892 14.9522C4.41374 15.3427 4.57393 15.6978 4.85947 16.0177C5.14502 16.3376 5.61995 16.6647 6.28427 16.9991Z" fill="#01FF5E"/>
<path d="M16.5588 17.9054C16.1411 19.8863 15.2709 20.9358 13.9481 21.0538C13.2549 21.1156 12.7099 20.859 12.3133 20.2839C11.8414 20.9364 11.2787 21.2918 10.6253 21.3501C10.3305 21.3764 10.0376 21.3342 9.74662 21.2236C9.45494 21.1051 9.17244 20.9094 8.89912 20.6366C8.63378 20.3631 8.43667 19.9992 8.3078 19.5448C8.17097 19.0912 8.12158 18.5374 8.15964 17.8834C8.24327 16.8399 8.5268 16.0114 9.01022 15.398C9.50091 14.776 10.1407 14.4298 10.9296 14.3594C11.4243 14.3233 11.9068 14.465 12.377 14.7845C12.6464 14.383 13.0024 14.1866 13.4449 14.1953C13.7353 14.2096 13.9488 14.307 14.0854 14.4876C14.2293 14.6595 14.2576 14.8417 14.1703 15.0342C14.0351 15.3194 13.8862 15.7664 13.7237 16.3752C13.58 16.9261 13.5014 17.395 13.4877 17.7817C13.4745 18.2648 13.5249 18.6498 13.6389 18.9369C13.7601 19.2152 13.9163 19.3458 14.1075 19.3288C14.3386 19.3082 14.5613 19.1036 14.7757 18.715C14.9907 18.3344 15.1349 17.8798 15.2082 17.3512C15.2492 17.0905 15.4283 16.9822 15.7455 17.0262C16.0612 17.0542 16.2985 17.1937 16.4575 17.4446C16.5593 17.5961 16.5931 17.7497 16.5588 17.9054ZM11.7341 17.1671C11.7551 16.7716 11.7944 16.4469 11.8521 16.1927C11.6372 16.0352 11.3864 15.9692 11.0995 15.9948C10.8126 16.0204 10.5661 16.1829 10.3599 16.4824C10.1609 16.7733 10.0288 17.1826 9.96341 17.7105C9.89576 18.3029 9.93406 18.7773 10.0783 19.1339C10.2225 19.4905 10.4341 19.6564 10.713 19.6315C11.3345 19.5761 11.6731 18.7789 11.7286 17.2398C11.7279 17.2319 11.7268 17.2199 11.7254 17.204C11.7319 17.1873 11.7348 17.175 11.7341 17.1671Z" fill="#01FF5E"/>
<path d="M19.7425 11.8546C20.416 11.9311 20.7469 12.6244 20.7352 13.9347C21.4834 12.2375 22.3717 11.4354 23.4 11.5284C23.9591 11.583 24.2877 11.891 24.386 12.4525C24.4872 12.9575 24.4618 13.6625 24.3096 14.5676C24.1999 15.1396 24.1673 15.5843 24.2117 15.9016C24.264 16.2182 24.3393 16.4324 24.4376 16.5441C24.5439 16.6551 24.6688 16.7042 24.8122 16.6914C25.0433 16.6708 25.266 16.4662 25.4803 16.0776C25.6954 15.697 25.8395 15.2424 25.9129 14.7138C25.9466 14.4618 26.1177 14.3542 26.4262 14.3909C26.7427 14.427 26.9873 14.5577 27.16 14.7833C27.2698 14.9341 27.3043 15.0957 27.2635 15.268C27.0721 16.1846 26.7145 16.9474 26.1905 17.5564C25.6817 18.1559 25.0736 18.4511 24.3659 18.442C22.9601 18.4388 22.3321 17.4306 22.4818 15.4174C22.4797 15.3935 22.4815 15.3692 22.4874 15.3446C22.4897 15.2801 22.4938 15.1914 22.4998 15.0784C22.513 14.9568 22.5219 14.8757 22.5263 14.8351C22.5538 14.423 22.5597 14.1294 22.5441 13.954C22.5064 13.5317 22.3959 13.3287 22.2127 13.3451C21.8939 13.3735 21.5546 14.0262 21.1946 15.3033C20.8498 16.5709 20.668 17.6393 20.6491 18.5084C20.6402 18.6778 20.5711 18.8045 20.4421 18.8883C20.2586 18.993 20.051 19.0517 19.8192 19.0643C19.5715 19.0784 19.3373 19.0189 19.1166 18.886C18.9032 18.7444 18.7873 18.57 18.7688 18.3628C18.702 17.6138 18.7205 16.7407 18.8243 15.7435C18.8827 15.0476 18.9049 14.5758 18.8909 14.328C18.8902 13.8703 18.7783 13.6514 18.5552 13.6713C18.2285 13.7004 17.9133 14.1743 17.6097 15.0929C17.3206 15.9941 17.1243 16.8991 17.0206 17.8079C17.022 17.8239 17.0191 17.8362 17.0118 17.8449L17.0057 18.8574C17.0032 19.0986 16.8493 19.2649 16.5442 19.3564C16.2464 19.4391 15.935 19.4147 15.61 19.2831C15.3017 19.158 15.1355 18.9599 15.1113 18.689C15.0274 17.7487 15.0562 16.4049 15.1975 14.6574C15.2568 13.8811 15.3795 13.2758 15.5657 12.8415C15.7591 12.3986 16.0591 12.1148 16.4656 11.9902C16.8562 11.867 17.1423 11.8777 17.3238 12.0221C17.5047 12.1586 17.5609 12.3383 17.4924 12.5613C17.3802 12.9247 17.2995 13.3254 17.2502 13.7635C17.9711 12.3901 18.8018 11.7538 19.7425 11.8546Z" fill="#01FF5E"/>
<path d="M25.9528 13.4295C26.0056 11.7703 26.1331 10.4979 26.3353 9.61248C26.5637 8.57207 26.9688 8.02593 27.5505 7.97405C27.862 7.95431 28.1335 8.02648 28.365 8.19056C28.5878 8.34739 28.6668 8.51303 28.6021 8.68747C28.4 9.12314 28.1961 10.1694 27.9904 11.8262C28.6162 11.0074 29.2908 10.646 30.0142 10.7422C30.5601 10.83 30.944 11.2174 31.1659 11.9044C31.3879 12.5914 31.4169 13.3679 31.2532 14.2339C31.0819 15.2853 30.6977 16.1548 30.1004 16.8426C29.5104 17.5217 28.8623 17.8646 28.1561 17.8714C27.4101 17.8817 26.8425 17.5066 26.4534 16.7462C26.0716 15.9771 25.9047 14.8715 25.9528 13.4295ZM27.8008 14.6984C27.7936 14.7071 27.791 14.7234 27.7931 14.7473C27.7878 15.7678 27.9524 16.2631 28.2871 16.2333C28.5501 16.2098 28.7901 16.0197 29.0073 15.663C29.2238 15.2984 29.3723 14.8474 29.4529 14.3101C29.5283 13.8054 29.5146 13.381 29.4116 13.0368C29.3166 12.6918 29.1535 12.5297 28.9224 12.5503C28.6515 12.5744 28.4169 12.7801 28.2185 13.1673C28.0194 13.5464 27.8802 14.0568 27.8008 14.6984Z" fill="#01FF5E"/>
<path d="M39.0746 14.0358C38.6569 16.0167 37.7867 17.0662 36.464 17.1842C35.7707 17.246 35.2258 16.9894 34.8291 16.4143C34.3572 17.0668 33.7946 17.4222 33.1412 17.4805C32.8463 17.5068 32.5534 17.4646 32.2625 17.354C31.9708 17.2355 31.6883 17.0398 31.415 16.767C31.1496 16.4935 30.9525 16.1296 30.8237 15.6752C30.6868 15.2216 30.6374 14.6678 30.6755 14.0138C30.7591 12.9703 31.0426 12.1418 31.5261 11.5284C32.0168 10.9064 32.6565 10.5602 33.4454 10.4898C33.9401 10.4537 34.4226 10.5954 34.8929 10.9149C35.1623 10.5134 35.5182 10.317 35.9608 10.3257C36.2512 10.34 36.4647 10.4374 36.6013 10.618C36.7451 10.7899 36.7734 10.9721 36.6861 11.1646C36.5509 11.4498 36.4021 11.8968 36.2395 12.5056C36.0959 13.0565 36.0172 13.5254 36.0035 13.9121C35.9904 14.3952 36.0408 14.7802 36.1547 15.0673C36.2759 15.3456 36.4321 15.4762 36.6234 15.4592C36.8545 15.4386 37.0772 15.234 37.2915 14.8454C37.5065 14.4648 37.6507 14.0102 37.7241 13.4816C37.7651 13.2209 37.9442 13.1126 38.2613 13.1566C38.5771 13.1846 38.8144 13.3241 38.9733 13.575C39.0752 13.7265 39.1089 13.8801 39.0746 14.0358ZM34.25 13.2975C34.2709 12.902 34.3102 12.5773 34.3679 12.3231C34.153 12.1656 33.9022 12.0996 33.6153 12.1252C33.3285 12.1508 33.0819 12.3133 32.8757 12.6128C32.6768 12.9036 32.5446 13.313 32.4792 13.8409C32.4116 14.4333 32.4499 14.9077 32.5941 15.2643C32.7384 15.6209 32.95 15.7868 33.2288 15.7619C33.8504 15.7065 34.1889 14.9093 34.2444 13.3702C34.2437 13.3623 34.2426 13.3503 34.2412 13.3344C34.2478 13.3177 34.2507 13.3054 34.25 13.2975Z" fill="#01FF5E"/>
<path d="M9.92654 36.3747C10.0022 37.0672 9.82645 37.6057 9.3992 37.9903C8.97196 38.3749 8.41392 38.536 7.72508 38.4736C7.37757 38.4428 7.06838 38.3045 6.7975 38.0588C6.53213 37.8062 6.36028 37.4934 6.28195 37.1203C6.19745 36.7478 6.23356 36.334 6.3903 35.8789C6.49795 35.6044 6.70877 35.4437 7.02276 35.3968C7.26941 35.3636 7.4448 35.4227 7.54894 35.574C7.58796 35.6448 7.5995 35.7217 7.58356 35.8048C7.40969 36.6185 7.51192 37.0672 7.89024 37.151C8.06327 37.1884 8.20621 37.1509 8.31906 37.0384C8.43191 36.926 8.47719 36.7677 8.45489 36.5637C8.43191 36.3534 8.34676 36.1469 8.19944 35.944C8.05145 35.7349 7.88587 35.5653 7.70271 35.4351C7.25407 35.1088 7.00947 34.7601 6.96892 34.3891C6.91756 33.9192 7.03913 33.543 7.33362 33.2605C7.62811 32.978 8.01651 32.8104 8.49879 32.7577C8.89519 32.7206 9.21652 32.7981 9.46277 32.9902C9.7152 33.1816 9.83662 33.4624 9.82702 33.8327C9.81608 34.1905 9.6638 34.4574 9.37018 34.6334C9.14739 34.7704 8.97493 34.7955 8.85282 34.7088C8.78491 34.6599 8.75791 34.5846 8.77183 34.483C8.80846 34.3601 8.8018 34.2419 8.75186 34.1285C8.70125 34.0089 8.6172 33.9555 8.49972 33.9683C8.30804 33.9893 8.22571 34.1234 8.25275 34.3708C8.26424 34.4759 8.32553 34.5787 8.43662 34.6792C8.54772 34.7796 8.68079 34.8809 8.83585 34.9828C8.99023 35.0785 9.14286 35.187 9.29376 35.3082C9.45017 35.4225 9.58865 35.5731 9.70921 35.7602C9.82909 35.9411 9.90153 36.1459 9.92654 36.3747Z" fill="#01FF5E"/>
<path d="M16.6396 34.737C16.3456 36.2833 15.6854 37.1126 14.659 37.2248C14.1211 37.2836 13.6935 37.0925 13.3762 36.6517C13.0195 37.1662 12.5876 37.4512 12.0806 37.5066C11.8518 37.5316 11.6235 37.5033 11.3956 37.4219C11.167 37.3342 10.9444 37.1865 10.7277 36.9787C10.5172 36.7702 10.3584 36.4903 10.2511 36.1391C10.1378 35.7886 10.0908 35.3589 10.1102 34.8499C10.1591 34.0374 10.3667 33.389 10.733 32.9048C11.1048 32.4136 11.5967 32.1346 12.2089 32.0677C12.5929 32.032 12.9701 32.1346 13.3406 32.3757C13.5438 32.0594 13.8175 31.9013 14.1616 31.9012C14.3876 31.9078 14.5551 31.9802 14.664 32.1185C14.7785 32.2499 14.8033 32.3911 14.7385 32.542C14.6378 32.7658 14.529 33.1156 14.4121 33.5914C14.3089 34.0219 14.2551 34.3875 14.2504 34.6884C14.2477 35.0641 14.2928 35.3626 14.3858 35.584C14.4844 35.7985 14.6078 35.8976 14.7562 35.8814C14.9355 35.8618 15.1055 35.6993 15.2661 35.3939C15.4273 35.0947 15.5324 34.7391 15.5812 34.3271C15.609 34.1238 15.7466 34.0368 15.9938 34.0661C16.2397 34.083 16.4263 34.1878 16.5537 34.3803C16.6353 34.4965 16.6639 34.6154 16.6396 34.737ZM12.8778 34.2377C12.8879 33.93 12.9135 33.677 12.9543 33.4785C12.7849 33.3594 12.5889 33.312 12.3663 33.3363C12.1437 33.3606 11.9546 33.4908 11.7989 33.7268C11.6488 33.956 11.5524 34.2762 11.5097 34.6876C11.4663 35.1491 11.5034 35.5173 11.6211 35.7923C11.7387 36.0673 11.9058 36.1929 12.1222 36.1693C12.6045 36.1166 12.8553 35.4916 12.8746 34.2944C12.8739 34.2882 12.8729 34.2789 12.8715 34.2666C12.8764 34.2535 12.8784 34.2439 12.8778 34.2377Z" fill="#01FF5E"/>
<path d="M19.5219 32.2371C19.3774 32.4031 19.2444 32.646 19.1229 32.9659C19.0131 33.2782 18.9401 33.5834 18.9039 33.8814C18.866 34.2798 18.8864 34.6092 18.9649 34.8696C19.0496 35.1294 19.1693 35.2509 19.3239 35.234C19.5155 35.213 19.6604 35.0783 19.7584 34.8298C19.8618 34.5745 19.9453 34.1931 20.0087 33.6856C20.0366 33.4823 20.1741 33.3953 20.4213 33.4246C20.6685 33.4539 20.8586 33.5614 20.9915 33.7471C21.0662 33.8578 21.0918 33.9771 21.0682 34.1048C20.9267 34.8711 20.7003 35.4621 20.3891 35.8778C20.0779 36.2935 19.6595 36.5301 19.1339 36.5875C18.6393 36.6416 18.2223 36.4619 17.883 36.0485C17.5431 35.6288 17.3959 34.9973 17.4413 34.1539C17.4739 33.5935 17.5919 33.0988 17.7953 32.6698C17.4971 32.7462 17.2168 32.7863 16.9544 32.7899C16.886 33.3668 16.7891 33.9687 16.6637 34.5956C16.6296 34.7995 16.4811 34.8721 16.2182 34.8132C15.9937 34.7627 15.818 34.6442 15.6913 34.4578C15.6303 34.3581 15.6041 34.2609 15.6125 34.1661C15.6985 33.2932 15.7407 32.7349 15.7391 32.491C15.4949 32.3175 15.34 32.1029 15.2746 31.8473C15.2029 31.5923 15.2081 31.3539 15.2903 31.1322C15.3717 30.9043 15.5125 30.7044 15.7127 30.5323C15.9184 30.3534 16.1511 30.2498 16.4108 30.2214C16.6643 30.1937 16.8274 30.2541 16.8999 30.4026C16.9793 30.5566 17.0241 30.8802 17.0342 31.3734L17.0379 31.5794C17.3209 31.5923 17.6115 31.5605 17.9098 31.4841C18.2135 31.4009 18.4668 31.2856 18.6697 31.1383C18.7915 31.0499 18.9425 31.0866 19.1229 31.2483C19.3026 31.4039 19.4283 31.581 19.5001 31.7796C19.5718 31.9782 19.5791 32.1307 19.5219 32.2371Z" fill="#01FF5E"/>
<path d="M19.1106 36.8449C19.7413 36.776 20.146 35.5554 20.3247 33.1832C20.3934 32.3811 20.4136 31.8501 20.3852 31.5904C20.3841 31.4654 20.3887 31.3648 20.3992 31.2886C20.4199 31.1925 20.4441 31.1272 20.4716 31.0929C20.4985 31.0525 20.5653 30.9763 20.6719 30.8646C21.0112 30.5334 21.3063 30.4855 21.5572 30.7209C21.8069 30.9439 21.9349 31.3428 21.9415 31.9178C21.9568 33.7181 21.7027 35.2007 21.1793 36.3654C20.6572 37.5425 20.0248 38.1685 19.2822 38.2434C18.9785 38.2703 18.6967 38.2104 18.4366 38.0636C18.1704 37.9175 17.9952 37.7177 17.9112 37.464C17.8122 37.1307 17.8357 36.8309 17.9818 36.5647C18.0845 36.3595 18.2035 36.3027 18.3386 36.3943C18.3455 36.3998 18.3746 36.4373 18.426 36.5068C18.4897 36.6312 18.5682 36.7196 18.6615 36.772C18.7486 36.825 18.8983 36.8493 19.1106 36.8449ZM20.5082 29.1086C20.4832 28.8798 20.5732 28.6729 20.7782 28.4878C20.9887 28.2958 21.2898 28.1879 21.6813 28.1638C21.8861 28.1477 22.0683 28.2123 22.2281 28.3575C22.3879 28.5027 22.4253 28.702 22.3404 28.9553C22.2741 29.1502 22.1449 29.3427 21.953 29.5326C21.7541 29.717 21.531 29.8227 21.2837 29.8498C21.0982 29.87 20.9297 29.8165 20.7781 29.6892C20.6258 29.5556 20.5359 29.3621 20.5082 29.1086Z" fill="#01FF5E"/>
<path d="M25.6349 31.8487C25.5941 32.3913 25.3742 32.8408 24.9752 33.1973C24.594 33.5455 24.1299 33.7933 23.5829 33.9407C23.8268 34.2832 24.2115 34.4258 24.7371 34.3683C25.1452 34.3237 25.4715 34.1316 25.7159 33.7921C25.9604 33.4525 26.1074 33.0798 26.1569 32.6739C26.1792 32.4775 26.3164 32.3874 26.5684 32.4037C26.8088 32.4275 26.9982 32.5288 27.1366 32.7076C27.2182 32.8238 27.2475 32.9489 27.2246 33.0828C27.088 33.7798 26.7936 34.3782 26.3415 34.8781C25.8996 35.3581 25.3355 35.6357 24.6492 35.7107C24.1916 35.7607 23.7604 35.7077 23.3554 35.5518C22.9429 35.3841 22.6054 35.1019 22.3431 34.7051C22.0869 34.3076 21.9569 33.8338 21.9531 33.2836C21.9595 32.3693 22.1631 31.6557 22.5638 31.1426C22.9644 30.6295 23.4925 30.3372 24.1479 30.2655C24.681 30.2198 25.0716 30.3585 25.3197 30.6818C25.5801 31.0037 25.6852 31.3927 25.6349 31.8487ZM23.9807 31.5696C23.8076 31.5885 23.6597 31.7236 23.5369 31.9748C23.4197 32.2191 23.3566 32.5576 23.3476 32.9903C23.6225 32.929 23.8545 32.8192 24.0437 32.6609C24.2329 32.5025 24.3489 32.3334 24.3918 32.1535C24.4299 31.9867 24.4051 31.8455 24.3173 31.7299C24.229 31.6082 24.1167 31.5548 23.9807 31.5696Z" fill="#01FF5E"/>
<path d="M28.3095 29.1223L28.8103 29.0675C29.0329 29.0432 29.1388 29.1818 29.128 29.4833C29.1171 29.7849 29.0064 30.0598 28.7957 30.308C28.6732 30.4466 28.5563 30.5219 28.445 30.5341C28.1853 30.5625 28.0211 30.5773 27.9525 30.5785C27.8671 31.0571 27.8155 31.4726 27.7977 31.8249C27.7759 32.1402 27.7664 32.4259 27.7694 32.6821C27.7786 32.9377 27.7957 33.1517 27.8208 33.3241C27.8521 33.4959 27.8896 33.6388 27.9334 33.7529C27.9771 33.867 28.0237 33.9495 28.0731 34.0005C28.1286 34.0507 28.1873 34.0725 28.2491 34.0657C28.4408 34.0447 28.6077 33.8826 28.7497 33.5792C28.9089 33.2615 29.0075 32.9035 29.0453 32.5051C29.0731 32.3019 29.2106 32.2149 29.4579 32.2442C29.7051 32.2735 29.8952 32.381 30.0281 32.5667C30.1028 32.6774 30.1283 32.7966 30.1047 32.9243C29.8107 34.4707 29.1505 35.2999 28.1241 35.4121C27.5305 35.477 27.0756 35.2076 26.7593 34.6039C26.4431 34.0003 26.2925 33.1095 26.3077 31.9315C26.3106 31.4431 26.3441 30.9483 26.4082 30.447C26.238 30.378 26.0621 30.2283 25.8805 29.9978C25.6865 29.7687 25.6157 29.5794 25.6682 29.4297C25.7138 29.2746 25.8599 29.2086 26.1065 29.2317C26.296 29.2485 26.4687 29.2546 26.6247 29.2501C26.7236 28.8388 26.8376 28.5073 26.9665 28.2554C27.1016 28.0029 27.2189 27.8743 27.3185 27.8697C27.5665 27.8488 27.8542 27.905 28.1816 28.0381C28.4891 28.161 28.6184 28.2845 28.5694 28.4087C28.497 28.548 28.4104 28.7859 28.3095 29.1223Z" fill="#01FF5E"/>
<path d="M35.6181 32.6824C35.3241 34.2287 34.6638 35.058 33.6374 35.1702C33.0995 35.229 32.6719 35.0379 32.3547 34.5971C31.9979 35.1116 31.5661 35.3966 31.059 35.452C30.8303 35.477 30.6019 35.4487 30.374 35.3673C30.1454 35.2796 29.9228 35.1319 29.7061 34.9241C29.4956 34.7156 29.3368 34.4357 29.2296 34.0845C29.1162 33.734 29.0692 33.3043 29.0887 32.7953C29.1375 31.9828 29.3451 31.3345 29.7114 30.8502C30.0832 30.359 30.5751 30.08 31.1873 30.0131C31.5713 29.9774 31.9486 30.0801 32.319 30.3211C32.5222 30.0048 32.7959 29.8467 33.14 29.8466C33.366 29.8532 33.5335 29.9256 33.6425 30.0639C33.7569 30.1953 33.7818 30.3365 33.7169 30.4875C33.6162 30.7112 33.5074 31.061 33.3905 31.5368C33.2874 31.9673 33.2335 32.3329 33.2288 32.6338C33.2261 33.0095 33.2712 33.308 33.3642 33.5294C33.4628 33.7439 33.5862 33.843 33.7346 33.8268C33.9139 33.8072 34.0839 33.6447 34.2445 33.3393C34.4058 33.0401 34.5108 32.6845 34.5596 32.2725C34.5875 32.0692 34.725 31.9822 34.9722 32.0115C35.2181 32.0284 35.4047 32.1332 35.5322 32.3257C35.6137 32.442 35.6423 32.5608 35.6181 32.6824ZM31.8562 32.1831C31.8664 31.8754 31.8919 31.6224 31.9328 31.4239C31.7633 31.3048 31.5673 31.2574 31.3447 31.2817C31.1221 31.306 30.933 31.4362 30.7773 31.6722C30.6272 31.9014 30.5308 32.2216 30.4881 32.633C30.4447 33.0945 30.4818 33.4627 30.5995 33.7377C30.7171 34.0127 30.8842 34.1383 31.1006 34.1147C31.5829 34.062 31.8337 33.437 31.853 32.2398C31.8523 32.2336 31.8513 32.2243 31.85 32.212C31.8548 32.1989 31.8569 32.1893 31.8562 32.1831Z" fill="#01FF5E"/>
</svg>
