<svg width="2614" height="778" viewBox="0 0 2614 778" fill="none" xmlns="http://www.w3.org/2000/svg">
<path d="M1651.27 246.96C1652.56 231.867 1657.86 219.561 1667.19 210.04C1676.96 200.365 1688.75 195.998 1702.55 196.939C1705.22 167.889 1712.39 152.843 1724.08 151.801C1728.63 151.51 1732.55 152.532 1735.84 154.868C1739.13 157.09 1740.2 159.453 1739.05 161.957C1737.14 166.242 1734.97 175.183 1732.52 188.778C1730.36 201.776 1729.03 214.414 1728.53 226.693C1727.38 254.807 1729.75 268.601 1735.65 268.075C1738.94 267.782 1742.16 264.808 1745.31 259.153C1748.37 253.621 1750.36 247.155 1751.3 239.754C1751.89 236.043 1754.49 234.496 1759.12 235.112C1763.63 235.738 1767.02 237.781 1769.27 241.238C1770.6 243.292 1771.02 245.484 1770.54 247.813C1764.6 276.012 1752.21 290.952 1733.38 292.631C1724.08 293.46 1716.72 289.143 1711.3 279.679C1704.47 290.236 1696.06 295.959 1686.08 296.849C1676.78 297.679 1668.38 293.855 1660.87 285.377C1653.48 276.776 1650.28 263.97 1651.27 246.96ZM1701.5 229.446C1701.45 227.507 1701.4 224.481 1701.38 220.367C1688.05 219.612 1679.92 227.826 1677 245.009C1675.68 253.358 1676.06 260.127 1678.12 265.317C1680.17 270.393 1683.24 272.749 1687.33 272.385C1691.75 271.99 1695.18 268.826 1697.63 262.891C1700.06 256.843 1701.4 248.834 1701.66 238.865C1701.59 238.071 1701.54 234.931 1701.5 229.446Z" fill="#F8407C"/>
<path d="M1818.99 218.282C1818.05 228.199 1813.86 236.347 1806.42 242.727C1799.32 248.963 1790.73 253.33 1780.67 255.829C1785.01 262.187 1792 264.937 1801.64 264.077C1809.13 263.409 1815.17 260.012 1819.77 253.885C1824.37 247.758 1827.19 240.989 1828.25 233.578C1828.73 229.991 1831.27 228.392 1835.88 228.781C1840.27 229.304 1843.7 231.228 1846.17 234.552C1847.62 236.709 1848.11 239.009 1847.64 241.452C1844.89 254.16 1839.28 265.007 1830.82 273.994C1822.56 282.62 1812.13 287.494 1799.54 288.617C1791.15 289.366 1783.27 288.238 1775.92 285.236C1768.42 282.017 1762.35 276.727 1757.69 269.368C1753.15 261.999 1750.94 253.277 1751.07 243.204C1751.52 226.471 1755.51 213.482 1763.03 204.236C1770.55 194.99 1780.33 189.831 1792.35 188.759C1802.13 188.116 1809.22 190.798 1813.65 196.807C1818.3 202.795 1820.08 209.953 1818.99 218.282ZM1788.81 212.57C1785.64 212.853 1782.88 215.271 1780.54 219.824C1778.31 224.254 1777.03 230.428 1776.71 238.346C1781.76 237.323 1786.05 235.397 1789.57 232.568C1793.09 229.739 1795.28 226.686 1796.13 223.408C1796.88 220.368 1796.48 217.774 1794.92 215.627C1793.34 213.366 1791.31 212.347 1788.81 212.57Z" fill="#F8407C"/>
<path fill-rule="evenodd" clip-rule="evenodd" d="M1633.76 245.311L1633.78 245.076C1635.37 226.436 1642.11 210.039 1654.75 197.142L1654.84 197.045L1654.94 196.949C1664.19 187.792 1675.03 181.994 1687.05 179.684C1688.63 170.631 1690.9 162.543 1694.12 155.792C1699.17 145.216 1708.22 134.901 1722.84 133.597L1723.06 133.577L1723.29 133.563C1731.31 133.049 1739.36 134.853 1746.39 139.779C1749.42 141.85 1753.38 145.261 1755.78 150.564C1758.57 156.733 1758.27 163.308 1755.75 168.904C1754.86 170.93 1753.02 177.648 1750.55 191.299C1761.05 179.034 1774.89 172.001 1791.11 170.555L1791.32 170.537L1791.53 170.523C1805.18 169.624 1819.12 173.346 1828.28 185.633C1834.04 193.117 1836.98 201.616 1837.48 210.549C1837.57 210.556 1837.66 210.563 1837.74 210.57L1838.05 210.596L1838.35 210.632C1847.26 211.693 1855.28 215.94 1860.9 223.509L1861.15 223.847L1861.39 224.196C1865.34 230.077 1866.98 237.148 1865.58 244.458L1865.54 244.669L1865.5 244.88C1862.09 260.591 1855.03 274.419 1844.21 285.904L1844.11 286.018L1844.11 286.017C1832.66 297.965 1818.12 304.607 1801.48 306.09C1790.42 307.077 1779.66 305.6 1769.5 301.452L1769.35 301.39L1769.2 301.325C1767.27 300.498 1765.42 299.578 1763.63 298.568C1755.66 305.183 1746.11 309.143 1735.32 310.104C1727.33 310.817 1719.37 309.321 1712.17 305.097C1712.15 305.081 1712.12 305.065 1712.09 305.048C1705.25 310.17 1697.24 313.501 1688.02 314.323C1671.83 315.767 1658.19 308.601 1647.81 296.88L1647.65 296.692L1647.65 296.691C1636 283.144 1632.61 264.907 1633.75 245.545L1633.76 245.311ZM1698.79 292.445C1703.56 289.564 1707.85 285.187 1711.65 279.314C1715.27 285.635 1719.76 289.66 1725.11 291.389C1727.77 292.249 1730.64 292.541 1733.73 292.266C1739.51 291.75 1744.68 289.987 1749.24 286.976C1753.95 283.871 1758.01 279.44 1761.43 273.682C1765.4 278.493 1770.16 282.142 1775.72 284.63C1775.9 284.711 1776.08 284.792 1776.27 284.871C1783.62 287.873 1791.5 289 1799.89 288.252C1812.48 287.129 1822.91 282.254 1831.17 273.629C1839.63 264.642 1845.24 253.795 1847.99 241.087C1848.46 238.644 1847.97 236.344 1846.52 234.187C1844.05 230.863 1840.62 228.939 1836.23 228.416C1836.04 228.4 1835.85 228.387 1835.67 228.378C1831.42 228.163 1829.06 229.774 1828.6 233.213C1827.54 240.624 1824.72 247.393 1820.12 253.52C1819.57 254.255 1819 254.95 1818.4 255.607C1818.36 255.656 1818.31 255.705 1818.27 255.754C1813.94 260.477 1808.51 263.13 1801.99 263.711C1795.49 264.291 1790.2 263.231 1786.11 260.532C1784.13 259.226 1782.43 257.536 1781.02 255.463C1781.14 255.433 1781.26 255.403 1781.38 255.373C1783.64 254.8 1785.82 254.133 1787.93 253.37C1790.25 252.534 1792.47 251.584 1794.6 250.519C1796.66 249.494 1798.63 248.363 1800.51 247.126C1802.45 245.854 1804.31 244.469 1806.07 242.973C1806.31 242.771 1806.54 242.568 1806.78 242.362C1810.5 239.17 1813.4 235.535 1815.5 231.458C1815.52 231.424 1815.53 231.391 1815.55 231.357C1817.61 227.311 1818.88 222.831 1819.35 217.917C1819.46 217.056 1819.54 216.208 1819.59 215.372C1820.03 208.121 1818.17 201.811 1814 196.441C1809.58 190.433 1802.48 187.751 1792.7 188.394C1780.68 189.466 1770.91 194.625 1763.38 203.871C1760.38 207.566 1757.94 211.859 1756.06 216.749C1753.57 223.239 1752.07 230.781 1751.57 239.376C1751.57 239.376 1751.57 239.377 1751.57 239.378C1751.55 239.723 1751.53 240.069 1751.52 240.416C1751.4 241.233 1751.27 242.038 1751.13 242.831C1751.13 242.833 1751.13 242.834 1751.13 242.835C1750.33 247.272 1749.12 251.344 1747.51 255.051C1747.42 255.25 1747.33 255.448 1747.24 255.645C1746.75 256.724 1746.23 257.772 1745.67 258.788C1742.99 263.592 1740.26 266.461 1737.48 267.396C1736.99 267.561 1736.5 267.666 1736 267.71C1732.3 268.04 1729.99 262.745 1729.06 251.826C1729.06 251.768 1729.05 251.71 1729.05 251.652C1728.51 245.171 1728.45 236.729 1728.88 226.328C1729.39 214.049 1730.72 201.411 1732.87 188.413C1735.32 174.818 1737.5 165.877 1739.4 161.591C1740.55 159.088 1739.48 156.725 1736.19 154.503C1732.9 152.167 1728.98 151.145 1724.43 151.436C1712.75 152.478 1705.57 167.524 1702.9 196.574C1689.1 195.633 1677.31 199.999 1667.54 209.674C1658.21 219.195 1652.91 231.502 1651.63 246.594C1650.63 263.605 1653.83 276.411 1661.23 285.012C1668.73 293.489 1677.13 297.314 1686.43 296.484C1690.86 296.089 1694.98 294.743 1698.79 292.445ZM1777.29 237.934C1777.21 237.949 1777.14 237.965 1777.06 237.98C1777.09 237.309 1777.12 236.65 1777.16 236.004C1777.16 235.99 1777.16 235.975 1777.16 235.961C1777.45 231.58 1778.04 227.776 1778.96 224.55C1779.1 224.045 1779.25 223.554 1779.41 223.077C1779.72 222.132 1780.07 221.243 1780.44 220.409C1780.59 220.084 1780.74 219.767 1780.9 219.459C1780.94 219.37 1780.99 219.281 1781.03 219.193C1781.06 219.146 1781.08 219.099 1781.11 219.052C1783.4 214.762 1786.09 212.479 1789.17 212.205C1791.66 211.982 1793.7 213.001 1795.27 215.262C1796.83 217.409 1797.24 220.003 1796.48 223.043C1796.17 224.25 1795.67 225.426 1795 226.572C1794.98 226.605 1794.96 226.637 1794.94 226.67C1794.31 227.71 1793.54 228.725 1792.62 229.715C1791.83 230.562 1790.93 231.392 1789.92 232.203C1788.86 233.057 1787.73 233.828 1786.52 234.517C1786.45 234.561 1786.37 234.605 1786.29 234.648C1783.63 236.142 1780.63 237.237 1777.29 237.934ZM1677.35 244.643C1678.59 237.334 1680.78 231.648 1683.91 227.585C1687.45 222.979 1692.21 220.459 1698.17 220.023C1699.31 219.939 1700.5 219.932 1701.73 220.002C1701.76 224.116 1701.8 227.142 1701.86 229.081C1701.89 234.566 1701.94 237.705 1702.01 238.499C1701.76 248.469 1700.41 256.478 1697.98 262.526C1695.54 268.461 1692.1 271.625 1687.68 272.02C1683.6 272.384 1680.53 270.028 1678.47 264.952C1676.41 259.762 1676.04 252.993 1677.35 244.643ZM1695.18 258.458C1695.18 258.459 1695.16 258.44 1695.15 258.399C1695.17 258.437 1695.18 258.457 1695.18 258.458Z" fill="#00A4DA"/>
<path d="M1668.02 227.166C1669.3 212.074 1674.61 199.767 1683.93 190.246C1693.7 180.571 1705.49 176.204 1719.29 177.145C1721.96 148.095 1729.14 133.049 1740.82 132.007C1745.37 131.716 1749.29 132.738 1752.59 135.074C1755.87 137.296 1756.94 139.659 1755.79 142.163C1753.89 146.449 1751.71 155.389 1749.27 168.984C1747.11 181.982 1745.78 194.62 1745.27 206.899C1744.12 235.014 1746.49 248.808 1752.39 248.282C1755.68 247.988 1758.9 245.014 1762.06 239.359C1765.11 233.828 1767.11 227.361 1768.05 219.96C1768.63 216.249 1771.24 214.702 1775.86 215.318C1780.38 215.945 1783.76 217.987 1786.01 221.445C1787.34 223.499 1787.77 225.69 1787.29 228.02C1781.34 256.219 1768.95 271.158 1750.12 272.837C1740.82 273.667 1733.46 269.349 1728.05 259.886C1721.21 270.442 1712.8 276.165 1702.82 277.055C1693.52 277.885 1685.12 274.061 1677.62 265.583C1670.22 256.982 1667.02 244.176 1668.02 227.166ZM1718.25 209.652C1718.19 207.714 1718.15 204.687 1718.13 200.574C1704.8 199.819 1696.67 208.032 1693.74 225.215C1692.43 233.564 1692.8 240.333 1694.87 245.523C1696.92 250.599 1699.99 252.955 1704.07 252.591C1708.49 252.197 1711.93 249.032 1714.37 243.097C1716.81 237.049 1718.15 229.041 1718.4 219.071C1718.33 218.277 1718.28 215.137 1718.25 209.652Z" fill="#01FF5E"/>
<path d="M1835.74 198.488C1834.79 208.405 1830.6 216.554 1823.17 222.933C1816.06 229.169 1807.48 233.536 1797.41 236.035C1801.75 242.393 1808.74 245.143 1818.38 244.283C1825.87 243.615 1831.91 240.218 1836.51 234.091C1841.11 227.965 1843.94 221.195 1844.99 213.784C1845.47 210.197 1848.02 208.598 1852.62 208.987C1857.01 209.51 1860.44 211.434 1862.91 214.758C1864.36 216.916 1864.85 219.216 1864.39 221.658C1861.63 234.366 1856.03 245.214 1847.57 254.2C1839.3 262.826 1828.88 267.7 1816.29 268.823C1807.89 269.572 1800.02 268.445 1792.66 265.442C1785.17 262.223 1779.1 256.934 1774.44 249.574C1769.89 242.205 1767.69 233.484 1767.82 223.411C1768.27 206.678 1772.25 193.688 1779.78 184.442C1787.3 175.197 1797.07 170.038 1809.09 168.965C1818.87 168.322 1825.97 171.005 1830.39 177.013C1835.04 183.001 1836.82 190.159 1835.74 198.488ZM1805.56 192.776C1802.38 193.059 1799.63 195.478 1797.29 200.031C1795.05 204.46 1793.77 210.634 1793.45 218.552C1798.51 217.53 1802.79 215.604 1806.31 212.774C1809.83 209.945 1812.02 206.892 1812.87 203.615C1813.63 200.574 1813.23 197.981 1811.66 195.833C1810.09 193.573 1808.05 192.554 1805.56 192.776Z" fill="#01FF5E"/>
<path d="M259.564 446.377C289.96 461.919 312.415 479.8 326.931 500.018C341.446 520.237 350.016 545.06 352.64 574.488C354.89 599.711 351.013 623.852 341.008 646.909C330.681 669.995 314.363 689.866 292.054 706.524C269.745 723.181 243.229 732.88 212.508 735.62C162.061 740.119 121.928 728.704 92.1109 701.375C62.3224 674.37 45.1786 635.644 40.6796 585.196C39.7568 574.848 46.6239 564.131 61.281 553.045C76.2616 541.931 90.5428 535.768 104.125 534.556C109.622 534.066 112.501 535.276 112.76 538.187C112.933 540.127 112.942 543.875 112.785 549.43C112.952 554.956 113.093 558.366 113.209 559.66C116.035 591.351 126.47 616.986 144.514 636.563C162.557 656.141 182.736 664.935 205.049 662.945C225.099 661.157 241.69 653.484 254.823 639.927C267.927 626.046 273.585 609.081 271.797 589.031C269.922 568.011 263.867 551.276 253.629 538.825C243.335 525.727 225.925 513.263 201.402 501.435C141.487 472.879 109.252 433.053 104.695 381.959C101.119 341.86 111.892 307.326 137.015 278.357C162.432 249.036 195.837 232.53 237.23 228.838C272.802 225.666 305.211 232.717 334.458 249.992C363.704 267.267 379.409 288.031 381.572 312.285C382.466 322.31 375.567 334.497 360.875 348.845C346.83 363.136 335.765 370.642 327.68 371.363C325.417 371.564 324.198 370.695 324.025 368.755C320.799 347.204 310.938 329.83 294.441 316.633C278.563 303.055 259.79 297.233 238.123 299.165C220.337 300.751 206.099 307.399 195.409 319.109C185.043 330.79 180.652 345.523 182.239 363.309C183.652 379.155 190.152 393.569 201.741 406.552C213.329 419.534 232.603 432.809 259.564 446.377Z" fill="#F8407C"/>
<path d="M676.536 483.159C659.585 563.552 624.269 606.142 570.588 610.929C542.453 613.438 520.338 603.024 504.24 579.687C485.089 606.168 462.255 620.59 435.737 622.955C423.772 624.022 411.885 622.312 400.077 617.824C388.239 613.012 376.775 605.071 365.683 594C354.914 582.9 346.915 568.131 341.685 549.692C336.132 531.282 334.127 508.807 335.672 482.267C339.066 439.916 350.572 406.294 370.191 381.402C390.105 356.157 416.069 342.107 448.084 339.252C468.162 337.788 487.744 343.538 506.827 356.504C517.76 340.209 532.206 332.239 550.165 332.593C561.951 333.172 570.616 337.125 576.159 344.454C581.996 351.43 583.144 358.825 579.604 366.638C574.117 378.209 568.075 396.35 561.477 421.059C555.649 443.417 552.456 462.444 551.9 478.14C551.367 497.745 553.412 513.371 558.037 525.019C562.955 536.314 569.295 541.616 577.057 540.924C586.435 540.088 595.473 531.785 604.171 516.015C612.898 500.569 618.75 482.12 621.726 460.667C623.39 450.088 630.658 445.692 643.529 447.477C656.343 448.616 665.974 454.276 672.424 464.458C676.558 470.608 677.929 476.842 676.536 483.159ZM480.736 453.195C481.587 437.147 483.182 423.967 485.522 413.654C476.803 407.26 466.622 404.583 454.981 405.621C443.339 406.659 433.334 413.255 424.965 425.41C416.891 437.213 411.527 453.826 408.875 475.249C406.129 499.289 407.683 518.544 413.537 533.016C419.391 547.488 427.978 554.219 439.296 553.21C464.52 550.96 478.258 518.607 480.511 456.148C480.482 455.825 480.439 455.34 480.381 454.693C480.647 454.018 480.765 453.518 480.736 453.195Z" fill="#F8407C"/>
<path d="M805.742 237.599C833.072 240.702 846.501 268.841 846.028 322.013C876.392 253.137 912.441 220.586 954.174 224.361C976.862 226.575 990.2 239.076 994.188 261.863C998.297 282.357 997.264 310.971 991.087 347.702C986.638 370.916 985.314 388.961 987.114 401.839C989.238 414.688 992.295 423.379 996.284 427.912C1000.6 432.417 1005.66 434.41 1011.49 433.891C1020.86 433.054 1029.9 424.751 1038.6 408.982C1047.33 393.536 1053.18 375.086 1056.15 353.634C1057.52 343.407 1064.47 339.039 1076.99 340.53C1089.83 341.993 1099.76 347.301 1106.77 356.454C1111.22 362.576 1112.62 369.133 1110.97 376.126C1103.2 413.325 1088.69 444.281 1067.42 468.995C1046.77 493.327 1022.09 505.307 993.375 504.934C936.321 504.807 910.834 463.891 916.911 382.186C916.825 381.216 916.9 380.232 917.137 379.233C917.229 376.617 917.397 373.016 917.64 368.431C918.178 363.494 918.536 360.203 918.715 358.557C919.831 341.834 920.072 329.915 919.438 322.801C917.909 305.661 913.426 297.423 905.988 298.087C893.053 299.24 879.281 325.73 864.672 377.556C850.68 429 843.301 472.358 842.536 507.63C842.171 514.507 839.37 519.646 834.132 523.047C826.688 527.296 818.262 529.678 808.856 530.19C798.802 530.761 789.297 528.349 780.341 522.955C771.68 517.208 766.974 510.131 766.224 501.723C763.514 471.325 764.265 435.892 768.479 395.424C770.849 367.18 771.749 348.032 771.179 337.978C771.152 319.401 766.611 310.517 757.556 311.324C744.298 312.507 731.508 331.738 719.187 369.017C707.455 405.593 699.485 442.321 695.277 479.203C695.335 479.85 695.216 480.35 694.922 480.702L694.675 521.794C694.57 531.582 688.327 538.332 675.946 542.044C663.859 545.403 651.221 544.412 638.033 539.069C625.519 533.991 618.773 525.955 617.792 514.96C614.389 476.801 615.555 422.263 621.291 351.345C623.697 319.839 628.677 295.275 636.232 277.651C644.081 259.676 656.256 248.159 672.754 243.103C688.606 238.103 700.216 238.535 707.584 244.397C714.923 249.935 717.203 257.229 714.424 266.278C709.872 281.025 706.597 297.289 704.597 315.069C733.851 259.33 767.566 233.506 805.742 237.599Z" fill="#F8407C"/>
<path d="M1057.78 301.515C1059.92 234.177 1065.09 182.541 1073.3 146.606C1082.57 104.383 1099.01 82.2188 1122.62 80.1135C1135.26 79.3121 1146.27 82.241 1155.67 88.9001C1164.71 95.2647 1167.92 101.987 1165.29 109.066C1157.09 126.747 1148.81 169.207 1140.47 236.446C1165.86 203.216 1193.24 188.551 1222.6 192.452C1244.75 196.017 1260.34 211.74 1269.34 239.621C1278.35 267.502 1279.53 299.014 1272.88 334.158C1265.93 376.826 1250.34 412.116 1226.1 440.028C1202.15 467.587 1175.85 481.504 1147.19 481.779C1116.91 482.197 1093.88 466.976 1078.09 436.114C1062.6 404.901 1055.82 360.034 1057.78 301.515ZM1132.77 353.009C1132.48 353.361 1132.38 354.022 1132.46 354.992C1132.24 396.408 1138.93 416.51 1152.51 415.299C1163.18 414.347 1172.92 406.633 1181.74 392.157C1190.52 377.358 1196.55 359.056 1199.82 337.251C1202.88 316.769 1202.32 299.543 1198.14 285.574C1194.29 271.576 1187.67 264.995 1178.29 265.831C1167.3 266.812 1157.77 275.158 1149.72 290.87C1141.64 306.258 1135.99 326.971 1132.77 353.009Z" fill="#F8407C"/>
<path d="M1590.3 326.119C1573.35 406.511 1538.03 449.101 1484.35 453.889C1456.22 456.398 1434.1 445.984 1418 422.647C1398.85 449.127 1376.02 463.55 1349.5 465.915C1337.54 466.982 1325.65 465.271 1313.84 460.783C1302 455.972 1290.54 448.03 1279.45 436.959C1268.68 425.859 1260.68 411.09 1255.45 392.651C1249.9 374.241 1247.89 351.766 1249.44 325.226C1252.83 282.875 1264.34 249.254 1283.96 224.361C1303.87 199.117 1329.83 185.067 1361.85 182.212C1381.93 180.747 1401.51 186.498 1420.59 199.464C1431.52 183.169 1445.97 175.198 1463.93 175.553C1475.72 176.131 1484.38 180.085 1489.92 187.413C1495.76 194.39 1496.91 201.784 1493.37 209.597C1487.88 221.169 1481.84 239.309 1475.24 264.018C1469.41 286.377 1466.22 305.404 1465.66 321.099C1465.13 340.704 1467.18 356.33 1471.8 367.978C1476.72 379.274 1483.06 384.576 1490.82 383.883C1500.2 383.047 1509.24 374.744 1517.93 358.975C1526.66 343.528 1532.51 325.079 1535.49 303.627C1537.15 293.048 1544.42 288.651 1557.29 290.437C1570.11 291.576 1579.74 297.236 1586.19 307.417C1590.32 313.567 1591.69 319.801 1590.3 326.119ZM1394.5 296.154C1395.35 280.107 1396.95 266.926 1399.29 256.613C1390.57 250.219 1380.39 247.542 1368.74 248.58C1357.1 249.618 1347.1 256.215 1338.73 268.37C1330.65 280.172 1325.29 296.785 1322.64 318.209C1319.89 342.248 1321.45 361.504 1327.3 375.976C1333.16 390.447 1341.74 397.179 1353.06 396.169C1378.28 393.92 1392.02 361.566 1394.27 299.108C1394.25 298.784 1394.2 298.299 1394.14 297.653C1394.41 296.977 1394.53 296.477 1394.5 296.154Z" fill="#F8407C"/>
<path fill-rule="evenodd" clip-rule="evenodd" d="M278.039 410.244C287.264 414.961 296.066 419.983 304.381 425.334C305.967 419.598 307.747 413.988 309.728 408.512C307.018 407.365 304.246 405.861 301.498 403.9C289.481 395.327 285.061 383.282 283.836 374.425C282.031 362.823 277.243 354.847 269.089 348.324L268.57 347.909L268.065 347.478C260.859 341.316 253.02 338.581 241.727 339.588C232.881 340.377 228.543 343.096 225.58 346.255C223.778 348.35 221.935 351.575 222.66 359.705C223.224 366.032 225.664 372.411 232.016 379.527C238.588 386.891 252.554 397.418 277.805 410.125L278.039 410.244ZM195.408 319.109C185.041 330.79 180.651 345.524 182.237 363.31C183.65 379.155 190.151 393.57 201.739 406.552C213.328 419.535 232.602 432.81 259.562 446.377C273.41 453.458 285.61 461.024 296.162 469.076C300.875 472.672 305.259 476.365 309.315 480.155C309.534 480.36 309.753 480.566 309.971 480.771C316.488 486.933 322.141 493.348 326.929 500.019C330.116 504.458 333.017 509.119 335.631 514.002C335.224 507.666 335.084 501.022 335.212 494.072C335.283 490.231 335.436 486.296 335.671 482.267C336.495 471.975 337.799 462.198 339.583 452.937C343.088 434.732 348.444 418.519 355.652 404.299C359.865 395.986 364.711 388.354 370.19 381.402C373.602 377.077 377.192 373.08 380.959 369.412C381.1 369.275 381.241 369.138 381.382 369.002C390.809 359.917 401.339 352.876 412.974 347.877C423.733 343.255 435.436 340.381 448.083 339.253C467.731 337.82 486.903 343.296 505.599 355.681C506.008 355.952 506.417 356.227 506.826 356.505C506.991 356.259 507.156 356.016 507.322 355.774C518.195 339.972 532.476 332.245 550.164 332.594C561.95 333.172 570.614 337.126 576.157 344.455C578.18 346.871 579.639 349.338 580.536 351.856C582.228 356.604 581.917 361.532 579.603 366.638C579.528 366.795 579.453 366.954 579.378 367.114C573.951 378.704 567.984 396.686 561.476 421.059C555.647 443.418 552.455 462.445 551.899 478.14C551.366 497.745 553.411 513.371 558.035 525.019C562.954 536.315 569.294 541.617 577.055 540.925C578.929 540.757 580.788 540.292 582.634 539.53C589.998 536.487 597.145 528.705 604.077 516.184L604.17 516.016C609.094 507.3 613.103 497.628 616.196 487C615.942 478.523 615.846 469.477 615.909 459.861L615.909 459.753C616.011 444.577 616.508 427.984 617.4 409.974C617.938 399.108 618.62 387.726 619.446 375.828C619.997 367.897 620.611 359.736 621.29 351.346C621.352 350.526 621.417 349.711 621.483 348.9C623.956 318.566 628.872 294.817 636.231 277.652C644.08 259.676 656.254 248.16 672.753 243.103C686.79 238.676 697.501 238.508 704.885 242.598C705.84 243.127 706.739 243.726 707.582 244.397C714.921 249.936 717.202 257.23 714.423 266.278C711.114 276.999 708.479 288.522 706.519 300.845C705.783 305.474 705.141 310.215 704.595 315.07C711.232 302.425 718.098 291.32 725.193 281.755C727.754 278.303 730.344 275.052 732.964 272.001C740.27 263.497 747.829 256.529 755.6 251.142C771.358 240.219 788.071 235.705 805.74 237.599C818.179 239.012 827.739 245.611 834.419 257.395C841.124 269.226 844.928 286.283 845.829 308.567C846.002 312.856 846.068 317.338 846.027 322.014C855.761 299.933 866.08 281.585 876.983 266.971C878.013 265.591 879.048 264.244 880.088 262.93C902.387 234.767 927.082 221.911 954.172 224.362C976.861 226.576 990.199 239.076 994.187 261.863C998.296 282.358 997.262 310.971 991.086 347.703C986.637 370.916 985.312 388.962 987.113 401.839C989.236 414.688 992.293 423.379 996.283 427.913C1000.6 432.417 1005.66 434.41 1011.48 433.891C1017.63 433.343 1023.63 429.591 1029.48 422.634C1032.56 418.971 1035.6 414.421 1038.6 408.982C1047.33 393.536 1053.18 375.087 1056.15 353.634C1056.49 351.125 1057.16 348.968 1058.17 347.164C1057.36 333.003 1057.23 317.787 1057.77 301.515L1057.78 301.295C1059.93 234.065 1065.1 182.502 1073.29 146.607C1082.57 104.384 1099.01 82.2193 1122.61 80.114C1135.25 79.3126 1146.27 82.2415 1155.67 88.9006C1164.71 95.2652 1167.92 101.987 1165.29 109.067C1160.15 120.144 1154.98 140.947 1149.79 171.476C1146.69 189.676 1143.58 211.333 1140.47 236.446C1155.23 217.134 1170.65 204.092 1186.75 197.321C1198.35 192.442 1210.3 190.818 1222.6 192.452C1232.42 194.033 1240.95 198.006 1248.19 204.369C1257.28 212.354 1264.33 224.105 1269.34 239.621C1269.86 241.246 1270.36 242.882 1270.83 244.532C1272.04 242.278 1273.28 240.077 1274.58 237.928C1277.47 233.149 1280.59 228.627 1283.95 224.362C1288.94 218.041 1294.31 212.422 1300.05 207.504C1317.25 192.783 1337.85 184.352 1361.85 182.212C1381.49 180.779 1400.67 186.255 1419.36 198.641C1419.77 198.912 1420.18 199.186 1420.59 199.464C1420.75 199.219 1420.92 198.975 1421.09 198.734C1431.96 182.931 1446.24 175.204 1463.93 175.553C1475.71 176.132 1484.38 180.085 1489.92 187.414C1495.76 194.39 1496.91 201.785 1493.37 209.597C1487.88 221.169 1481.84 239.31 1475.24 264.019C1469.41 286.377 1466.22 305.404 1465.66 321.1C1465.13 340.704 1467.17 356.331 1471.8 367.979C1476.72 379.274 1483.06 384.576 1490.82 383.884C1500.2 383.048 1509.24 374.745 1517.93 358.975C1526.66 343.529 1532.51 325.079 1535.49 303.627C1537.15 293.048 1544.42 288.652 1557.29 290.437C1570.11 291.576 1579.74 297.236 1586.19 307.418C1590.32 313.568 1591.69 319.802 1590.3 326.119C1573.35 406.512 1538.03 449.102 1484.35 453.889C1471.26 455.056 1459.48 453.427 1448.99 449.001C1436.94 443.913 1426.61 435.128 1418 422.647C1409.12 434.923 1399.45 444.608 1388.99 451.701C1376.89 459.909 1363.72 464.647 1349.5 465.915C1337.53 466.982 1325.65 465.272 1313.84 460.784C1302 455.972 1290.54 448.031 1279.45 436.96C1279.25 436.755 1279.05 436.549 1278.85 436.342C1268.52 425.456 1260.78 411.127 1255.65 393.352C1248.61 409.119 1239.83 423.405 1229.32 436.209C1228.26 437.497 1227.19 438.77 1226.1 440.028C1202.15 467.588 1175.85 481.505 1147.19 481.779C1134.95 481.948 1123.89 479.561 1114.02 474.619C1102.34 468.771 1092.32 459.347 1083.96 446.345C1078.99 454.402 1073.48 461.952 1067.42 468.995C1064.26 472.717 1061.01 476.151 1057.66 479.295C1039.13 496.704 1017.7 505.25 993.373 504.934C936.32 504.807 910.832 463.891 916.91 382.187C916.823 381.217 916.898 380.232 917.135 379.233C917.228 376.617 917.396 373.017 917.639 368.432L918.714 358.557C919.113 352.579 919.4 347.215 919.575 342.465C919.664 340.063 919.724 337.819 919.756 335.731C919.836 330.396 919.73 326.086 919.437 322.801C917.908 305.662 913.425 297.424 905.987 298.087C905.46 298.134 904.931 298.223 904.401 298.355C898.637 299.781 892.71 306.185 886.618 317.566C885.81 319.074 885 320.67 884.187 322.354C883.605 323.558 883.021 324.807 882.437 326.101C882.284 326.439 882.13 326.781 881.977 327.126C881.053 329.204 880.126 331.393 879.195 333.694C878.863 334.514 878.531 335.348 878.198 336.197C878.064 336.539 877.929 336.883 877.795 337.229C873.498 348.318 869.123 361.76 864.67 377.556C850.679 429.001 843.3 472.359 842.534 507.63C842.17 514.508 839.368 519.647 834.131 523.047C826.687 527.297 818.261 529.678 808.854 530.191C798.801 530.762 789.296 528.35 780.34 522.955C771.679 517.209 766.973 510.131 766.223 501.723C763.512 471.326 764.264 435.893 768.478 395.424C770.115 375.918 771.05 360.75 771.285 349.92C771.295 349.444 771.304 348.977 771.311 348.517C771.381 344.296 771.337 340.784 771.177 337.979C771.15 319.402 766.61 310.517 757.555 311.325C756.095 311.455 754.64 311.804 753.191 312.372C750.483 313.434 747.795 315.26 745.127 317.851C744.607 318.356 744.088 318.89 743.569 319.453C740.764 322.5 737.981 326.396 735.22 331.143C735.032 331.467 734.843 331.795 734.655 332.127C733.814 333.611 732.974 335.174 732.137 336.816C731.932 337.218 731.727 337.625 731.522 338.036C731.226 338.631 730.93 339.235 730.635 339.85C726.774 347.88 722.958 357.603 719.185 369.018C712.042 391.287 706.294 413.612 701.94 435.995C701.302 439.277 700.693 442.56 700.115 445.845C700.044 446.247 699.974 446.649 699.904 447.051C698.043 457.755 696.5 468.473 695.276 479.204C695.333 479.851 695.215 480.35 694.92 480.702L694.674 521.794C694.569 531.582 688.325 538.332 675.944 542.044C669.788 543.755 663.489 544.338 657.046 543.791C650.179 558.288 642.179 570.452 633.046 580.285C616.118 598.511 595.298 608.726 570.586 610.93C557.499 612.097 545.714 610.468 535.231 606.042C523.179 600.954 512.848 592.169 504.239 579.688C495.36 591.964 485.69 601.649 475.229 608.742C463.124 616.949 449.96 621.687 435.736 622.956C423.771 624.023 411.884 622.312 400.075 617.824C397.387 616.732 394.719 615.478 392.069 614.063C383.051 609.245 374.255 602.558 365.681 594C360.836 589.006 356.551 583.269 352.827 576.788C353.598 587.12 353.335 597.269 352.039 607.235C352.018 607.401 351.996 607.568 351.974 607.734C350.891 615.84 349.124 623.825 346.672 631.689C345.074 636.814 343.186 641.887 341.007 646.909C330.68 669.995 314.362 689.867 292.052 706.524C269.743 723.182 243.228 732.88 212.507 735.62C162.059 740.119 121.927 728.704 92.1096 701.376C62.3211 674.371 45.1773 635.644 40.6783 585.197C39.7554 574.848 46.6226 564.131 61.2797 553.046C64.9891 550.293 68.6556 547.845 72.2792 545.7C72.4657 545.59 72.652 545.48 72.8382 545.371C75.6434 543.733 78.4229 542.277 81.1767 541.004C89.0354 537.369 96.6844 535.22 104.124 534.557C109.621 534.067 112.5 535.277 112.759 538.187C112.932 540.127 112.94 543.875 112.784 549.43C112.951 554.957 113.092 558.366 113.207 559.66C116.034 591.351 126.469 616.986 144.512 636.564C162.556 656.142 182.734 664.936 205.048 662.946C225.097 661.158 241.689 653.485 254.822 639.927C267.926 626.047 273.584 609.081 271.796 589.032C269.921 568.012 263.865 551.276 253.628 538.825C243.333 525.727 225.924 513.264 201.4 501.435C141.486 472.879 109.25 433.054 104.694 381.96C101.118 341.86 111.891 307.326 137.013 278.358C162.43 249.037 195.835 232.53 237.228 228.839C272.8 225.667 305.21 232.718 334.456 249.993C363.703 267.268 379.408 288.032 381.571 312.286C381.749 314.288 381.617 316.377 381.174 318.552C379.416 327.176 372.77 337.156 361.235 348.492C361.115 348.61 360.995 348.728 360.874 348.845C360.476 349.25 360.08 349.65 359.687 350.044C354.746 354.996 350.183 359.087 345.997 362.318C344.028 363.838 342.132 365.176 340.33 366.315C339.68 366.725 339.041 367.111 338.413 367.472C334.395 369.783 330.821 371.08 327.694 371.362C325.43 371.564 324.197 370.696 324.024 368.755C320.798 347.204 310.937 329.83 294.44 316.634C278.561 303.056 259.789 297.233 238.122 299.165C220.336 300.751 206.098 307.399 195.408 319.109ZM421.271 302.571C428.759 300.791 436.499 299.542 444.478 298.83L444.804 298.801L445.13 298.777C464.08 297.395 482.261 300.371 499.425 306.975C514.023 297.042 531.385 291.632 550.964 292.018L551.56 292.03L552.154 292.059C563.838 292.633 575.993 295.378 587.02 301.402C589.971 286.808 593.87 273.466 598.93 261.661L599.038 261.411C610.881 234.289 631.346 213.402 660.698 204.352C679.628 198.405 708.622 193.69 732.431 212.309C733.664 213.254 734.883 214.256 736.079 215.315C757.473 201.347 782.032 194.242 810.066 197.247L810.32 197.274C831.376 199.666 848.168 209.549 860.355 223.931C886.448 196.6 918.513 180.387 957.829 183.944L958.114 183.969C976.124 185.727 994.272 192.035 1008.94 205.786C1014 210.523 1018.2 215.732 1021.67 221.253C1024.5 188.63 1028.46 160.698 1033.69 137.741C1038.94 113.927 1046.99 91.6517 1059.98 74.1392C1073.86 55.436 1093.73 41.9457 1119.01 39.6913L1119.53 39.6451L1120.05 39.6122C1140.95 38.2871 1161.35 43.206 1179.08 55.7526C1186.73 61.1433 1195.78 69.2934 1201.48 81.2402C1207.89 94.6637 1208.41 109.521 1203.33 123.191L1202.78 124.692L1202.1 126.144C1200.53 129.54 1197.87 137.777 1194.62 152.846C1205.21 150.976 1216.32 150.679 1227.94 152.223L1228.49 152.296L1229.04 152.385C1248.05 155.442 1263.56 163.443 1275.97 174.738C1299.08 155.744 1326.82 144.592 1358.24 141.789L1358.57 141.76L1358.89 141.737C1377.84 140.354 1396.02 143.33 1413.19 149.934C1427.79 140.001 1445.15 134.592 1464.73 134.978L1465.32 134.99L1465.92 135.019C1485.76 135.993 1506.95 143.225 1521.68 162.141C1528.04 169.961 1533.4 179.938 1535.26 191.964C1537.22 204.558 1534.87 216.332 1530.33 226.349L1530.19 226.669L1530.04 226.985C1527.07 233.236 1523.25 243.71 1518.7 259.267C1519.5 258.72 1520.33 258.188 1521.18 257.672C1535.6 248.949 1550.92 248.718 1561.87 250.106C1585.71 252.487 1606.64 264.164 1620.18 285.249C1629.27 299.004 1633.98 316.163 1629.98 334.626C1620.75 378.327 1605.72 416.059 1582.34 444.261C1557.98 473.638 1525.89 490.928 1487.96 494.312C1462.51 496.581 1439.39 491.443 1419.69 479.473C1400.68 494.484 1378.48 504.075 1353.1 506.338C1334.71 507.979 1316.67 505.274 1299.42 498.719L1298.99 498.554L1298.56 498.38C1282.25 491.75 1267.59 481.658 1254.44 469.241C1225.53 501.483 1189.8 521.929 1147.66 522.359C1126.44 522.638 1106.09 517.641 1087.91 506.497C1062.08 531.819 1030.07 545.939 993.068 545.517C953.644 545.374 918.575 530.211 897.021 495.61C892.601 488.514 888.959 480.916 886.007 472.897C884.292 485.902 883.341 497.763 883.108 508.511L883.094 509.145L883.061 509.778C882.091 528.075 873.595 545.812 856.23 557.086L855.257 557.717L854.25 558.292C840.815 565.962 826.165 569.884 811.109 570.711C792.599 571.753 775.052 567.146 759.4 557.719L758.641 557.262L757.903 556.772C748.656 550.637 740.252 542.483 734.324 532.29C732.437 542.966 727.658 553.156 719.706 561.754C710.053 572.19 698.058 577.782 687.598 580.918L687.207 581.035L686.813 581.145C685.285 581.569 683.758 581.953 682.231 582.296C678.032 589.03 673.488 595.376 668.574 601.301C644.215 630.678 612.128 647.969 574.191 651.352C548.749 653.621 525.622 648.484 505.93 636.513C486.919 651.525 464.721 661.115 439.341 663.379C420.941 665.019 402.904 662.315 385.657 655.76L385.224 655.595L384.794 655.42C383.802 655.017 382.817 654.601 381.837 654.173C380.716 657.152 379.516 660.116 378.237 663.063L378.055 663.482C364.623 693.507 343.614 718.673 316.333 739.043C287.361 760.675 253.491 772.709 216.112 776.043C157.413 781.278 105.012 768.206 64.7683 731.367C25.6551 695.864 5.41222 646.623 0.255581 588.802C-2.63081 556.436 19.5232 533.744 36.7987 520.678L37.0973 520.452C55.9555 506.46 77.2277 496.211 100.519 494.134C104.421 493.786 111.396 493.433 119.307 495.416C87.8744 466.345 68.2234 429.885 64.2709 385.565C59.7711 335.108 73.6185 289.519 106.348 251.775M148.4 518.11C151.257 523.622 152.712 529.308 153.182 534.582C153.567 538.898 153.511 544.405 153.384 549.353C153.451 551.493 153.511 553.183 153.563 554.454L153.639 556.083C153.643 556.165 153.65 556.274 153.65 556.274C155.867 580.727 163.527 597.312 174.354 609.06C185.666 621.333 194.115 623.176 201.443 622.523C212.373 621.548 219.633 617.844 225.485 611.883C230.02 607.006 232.183 601.72 231.373 592.637C230.002 577.264 225.944 569.055 222.28 564.599L221.997 564.255L221.721 563.904C216.935 557.815 205.869 548.657 183.847 538.026C171.195 531.991 159.348 525.356 148.4 518.11ZM1022.01 396.96C1022.55 397.297 1023.03 397.637 1023.47 397.97ZM1020.84 396.265C1020.03 395.825 1019.15 395.402 1018.17 395.019C1015.7 394.046 1013.27 393.57 1011.08 393.432C1010.83 393.417 1010.59 393.406 1010.35 393.398C1009.48 393.373 1008.65 393.4 1007.88 393.468C1004.76 393.747 1002.21 394.618 1000.41 395.511C998.7 396.361 997.841 397.15 997.841 397.15C997.841 397.15 998.399 396.612 999.339 395.337C1000.32 394.007 1001.58 392.075 1003.06 389.381L1003.26 389.018C1008.51 379.726 1012.77 367.739 1015.3 352.344C1015.34 352.16 1015.37 351.976 1015.4 351.791C1015.59 350.568 1015.78 349.323 1015.96 348.058L1017.58 348.283M1023.47 397.97C1023.65 398.901 1023.84 399.827 1024.03 400.75L1024.07 400.97C1024.09 401.063 1024.11 401.156 1024.13 401.249M421.271 302.571C415.533 263.732 389.063 235.113 355.096 215.05C318.15 193.228 277.189 184.531 233.623 188.416C182.579 192.968 139.171 213.914 106.348 251.775M480.735 453.195C481.585 437.148 483.181 423.967 485.52 413.654C476.801 407.261 466.621 404.583 454.979 405.621C453.945 405.714 452.923 405.85 451.914 406.03C449.622 406.439 447.396 407.075 445.237 407.938C437.656 410.967 430.898 416.791 424.964 425.411C416.889 437.213 411.526 453.826 408.873 475.25C406.128 499.289 407.682 518.545 413.536 533.017C419.39 547.488 427.976 554.22 439.295 553.21C464.518 550.961 478.257 518.607 480.509 456.149L480.38 454.694C480.645 454.018 480.764 453.519 480.735 453.195ZM1165.1 271.051C1159.48 275.214 1154.36 281.82 1149.72 290.87C1149.56 291.183 1149.39 291.498 1149.23 291.814C1144.04 301.956 1139.88 314.347 1136.75 328.987C1136.38 330.732 1136.02 332.509 1135.67 334.318C1135.59 334.736 1135.51 335.156 1135.44 335.577C1134.41 341.095 1133.53 346.906 1132.77 353.009C1132.48 353.361 1132.37 354.023 1132.46 354.993C1132.41 364.797 1132.74 373.408 1133.47 380.823C1133.49 381.042 1133.51 381.26 1133.53 381.477C1135.11 397.086 1138.44 407.301 1143.52 412.121C1146.07 414.546 1149.07 415.606 1152.51 415.299C1163.18 414.348 1172.92 406.634 1181.73 392.158C1190.52 377.358 1196.55 359.056 1199.82 337.251C1202.88 316.769 1202.32 299.543 1198.14 285.574C1194.29 271.576 1187.67 264.995 1178.29 265.832C1173.63 266.247 1169.23 267.987 1165.1 271.051ZM1394.5 296.155C1395.35 280.107 1396.94 266.927 1399.28 256.613C1390.57 250.22 1380.38 247.542 1368.74 248.581C1367.71 248.673 1366.69 248.809 1365.68 248.989C1363.39 249.398 1361.16 250.035 1359 250.897C1351.42 253.926 1344.66 259.75 1338.73 268.37C1330.65 280.173 1325.29 296.786 1322.64 318.209C1319.89 342.249 1321.45 361.504 1327.3 375.976C1333.15 390.448 1341.74 397.179 1353.06 396.17C1378.28 393.92 1392.02 361.566 1394.27 299.108L1394.14 297.653C1394.41 296.977 1394.53 296.478 1394.5 296.155Z" fill="#00A4DA"/>
<path d="M255.036 405.793C285.432 421.336 307.887 439.217 322.403 459.435C336.918 479.654 345.488 504.477 348.112 533.904C350.362 559.128 346.484 583.269 336.48 606.326C326.153 629.412 309.835 649.283 287.526 665.941C265.217 682.598 238.701 692.297 207.98 695.037C157.533 699.536 117.4 688.121 87.5828 660.792C57.7943 633.787 40.6506 595.061 36.1516 544.613C35.2287 534.265 42.0958 523.548 56.753 512.462C71.7335 501.347 86.0148 495.184 99.5968 493.973C105.094 493.483 107.973 494.693 108.232 497.603C108.405 499.544 108.414 503.291 108.257 508.847C108.424 514.373 108.565 517.783 108.681 519.076C111.507 550.768 121.942 576.403 139.986 595.98C158.029 615.558 178.208 624.352 200.521 622.362C220.571 620.574 237.162 612.901 250.295 599.344C263.399 585.463 269.057 568.498 267.269 548.448C265.394 527.428 259.338 510.693 249.101 498.242C238.807 485.144 221.397 472.68 196.874 460.851C136.959 432.295 104.724 392.47 100.167 341.376C96.5908 301.277 107.364 266.743 132.487 237.774C157.904 208.453 191.309 191.947 232.702 188.255C268.274 185.083 300.683 192.134 329.93 209.409C359.176 226.684 374.881 247.448 377.044 271.702C377.938 281.727 371.039 293.913 356.347 308.262C342.302 322.553 331.237 330.058 323.152 330.779C320.888 330.981 319.67 330.112 319.497 328.172C316.271 306.621 306.41 289.247 289.913 276.05C274.034 262.472 255.262 256.649 233.595 258.582C215.809 260.168 201.571 266.816 190.881 278.526C180.514 290.207 176.124 304.94 177.71 322.726C179.124 338.572 185.624 352.986 197.213 365.969C208.801 378.951 228.075 392.226 255.036 405.793Z" fill="#01FF5E"/>
<path d="M672.008 442.576C655.057 522.969 619.741 565.559 566.059 570.346C537.925 572.855 515.81 562.441 499.712 539.104C480.561 565.585 457.727 580.007 431.209 582.372C419.244 583.439 407.357 581.729 395.549 577.241C383.711 572.429 372.246 564.488 361.155 553.417C350.386 542.317 342.387 527.547 337.157 509.109C331.604 490.698 329.599 468.223 331.144 441.683C334.538 399.333 346.044 365.711 365.663 340.819C385.577 315.574 411.541 301.524 443.556 298.669C463.634 297.205 483.215 302.955 502.299 315.921C513.232 299.626 527.678 291.656 545.637 292.01C557.423 292.589 566.088 296.542 571.631 303.871C577.468 310.847 578.616 318.242 575.076 326.054C569.589 337.626 563.547 355.767 556.949 380.476C551.12 402.834 547.928 421.861 547.372 437.557C546.839 457.161 548.884 472.788 553.509 484.436C558.427 495.731 564.767 501.033 572.528 500.341C581.907 499.505 590.945 491.202 599.643 475.432C608.37 459.986 614.222 441.537 617.198 420.084C618.862 409.505 626.13 405.109 639.001 406.894C651.815 408.033 661.446 413.693 667.896 423.875C672.03 430.025 673.401 436.259 672.008 442.576ZM476.208 412.612C477.059 396.564 478.654 383.384 480.994 373.07C472.275 366.677 462.094 363.999 450.453 365.038C438.811 366.076 428.806 372.672 420.437 384.827C412.363 396.63 406.999 413.243 404.347 434.666C401.601 458.706 403.155 477.961 409.009 492.433C414.863 506.905 423.449 513.636 434.768 512.627C459.992 510.377 473.73 478.023 475.983 415.565C475.954 415.242 475.911 414.757 475.853 414.11C476.119 413.435 476.237 412.935 476.208 412.612Z" fill="#01FF5E"/>
<path d="M801.213 197.016C828.544 200.119 841.973 228.258 841.5 281.43C871.864 212.554 907.913 180.003 949.646 183.778C972.334 185.992 985.672 198.493 989.66 221.28C993.769 241.774 992.736 270.387 986.559 307.119C982.11 330.333 980.786 348.378 982.586 361.256C984.71 374.105 987.767 382.796 991.756 387.329C996.07 391.834 1001.14 393.827 1006.96 393.308C1016.34 392.471 1025.37 384.168 1034.07 368.399C1042.8 352.952 1048.65 334.503 1051.63 313.051C1053 302.824 1059.94 298.456 1072.46 299.947C1085.3 301.41 1095.23 306.718 1102.24 315.871C1106.7 321.993 1108.1 328.55 1106.44 335.543C1098.67 372.742 1084.16 403.698 1062.89 428.411C1042.25 452.744 1017.56 464.723 988.847 464.351C931.793 464.224 906.306 423.308 912.383 341.603C912.297 340.633 912.372 339.649 912.609 338.65C912.701 336.034 912.869 332.433 913.112 327.848C913.65 322.911 914.008 319.62 914.187 317.974C915.303 301.251 915.544 289.332 914.91 282.217C913.381 265.078 908.898 256.84 901.46 257.504C888.525 258.657 874.753 285.147 860.143 336.973C846.152 388.417 838.773 431.775 838.007 467.046C837.643 473.924 834.842 479.063 829.604 482.464C822.16 486.713 813.734 489.094 804.327 489.607C794.274 490.178 784.769 487.766 775.813 482.372C767.152 476.625 762.446 469.548 761.696 461.14C758.985 430.742 759.737 395.309 763.951 354.841C766.321 326.597 767.221 307.449 766.651 297.395C766.624 278.818 762.083 269.933 753.028 270.741C739.77 271.923 726.98 291.154 714.658 328.434C702.926 365.009 694.957 401.738 690.749 438.62C690.807 439.267 690.688 439.766 690.394 440.119L690.147 481.211C690.042 490.999 683.799 497.749 671.417 501.46C659.331 504.82 646.693 503.828 633.505 498.486C620.991 493.408 614.245 485.372 613.264 474.377C609.861 436.218 611.027 381.68 616.763 310.762C619.169 279.256 624.149 254.692 631.704 237.068C639.553 219.093 651.728 207.576 668.226 202.519C684.078 197.52 695.688 197.952 703.056 203.814C710.395 209.352 712.675 216.646 709.896 225.694C705.344 240.442 702.069 256.706 700.069 274.486C729.323 218.747 763.038 192.923 801.213 197.016Z" fill="#01FF5E"/>
<path d="M1053.25 260.931C1055.39 193.594 1060.56 141.958 1068.77 106.023C1078.04 63.7999 1094.48 41.6357 1118.09 39.5304C1130.73 38.729 1141.75 41.6579 1151.14 48.317C1160.18 54.6816 1163.39 61.4035 1160.76 68.483C1152.56 86.164 1144.29 128.624 1135.94 195.863C1161.34 162.632 1188.71 147.968 1218.07 151.869C1240.23 155.434 1255.81 171.157 1264.81 199.038C1273.82 226.919 1275 258.431 1268.35 293.574C1261.4 336.242 1245.81 371.532 1221.57 399.444C1197.62 427.004 1171.32 440.921 1142.66 441.195C1112.39 441.614 1089.35 426.392 1073.56 395.531C1058.07 364.318 1051.3 319.451 1053.25 260.931ZM1128.25 312.426C1127.95 312.778 1127.85 313.439 1127.93 314.409C1127.72 355.825 1134.4 375.927 1147.98 374.716C1158.65 373.764 1168.39 366.05 1177.21 351.574C1185.99 336.775 1192.02 318.472 1195.29 296.668C1198.35 276.186 1197.79 258.96 1193.62 244.991C1189.76 230.992 1183.14 224.412 1173.76 225.248C1162.77 226.229 1153.25 234.575 1145.19 250.287C1137.11 265.675 1131.46 286.388 1128.25 312.426Z" fill="#01FF5E"/>
<path d="M1585.77 285.536C1568.82 365.928 1533.5 408.518 1479.82 413.305C1451.69 415.814 1429.57 405.401 1413.48 382.064C1394.32 408.544 1371.49 422.967 1344.97 425.332C1333.01 426.399 1321.12 424.688 1309.31 420.2C1297.48 415.389 1286.01 407.447 1274.92 396.376C1264.15 385.276 1256.15 370.507 1250.92 352.068C1245.37 333.658 1243.36 311.183 1244.91 284.643C1248.3 242.292 1259.81 208.67 1279.43 183.778C1299.34 158.534 1325.3 144.484 1357.32 141.629C1377.4 140.164 1396.98 145.915 1416.06 158.881C1427 142.586 1441.44 134.615 1459.4 134.969C1471.19 135.548 1479.85 139.502 1485.39 146.83C1491.23 153.807 1492.38 161.201 1488.84 169.014C1483.35 180.586 1477.31 198.726 1470.71 223.435C1464.88 245.794 1461.69 264.821 1461.14 280.516C1460.6 300.121 1462.65 315.747 1467.27 327.395C1472.19 338.691 1478.53 343.992 1486.29 343.3C1495.67 342.464 1504.71 334.161 1513.41 318.391C1522.13 302.945 1527.99 284.496 1530.96 263.043C1532.63 252.465 1539.89 248.068 1552.76 249.854C1565.58 250.993 1575.21 256.653 1581.66 266.834C1585.79 272.984 1587.16 279.218 1585.77 285.536ZM1389.97 255.571C1390.82 239.523 1392.42 226.343 1394.76 216.03C1386.04 209.636 1375.86 206.959 1364.22 207.997C1352.57 209.035 1342.57 215.632 1334.2 227.786C1326.13 239.589 1320.76 256.202 1318.11 277.626C1315.36 301.665 1316.92 320.921 1322.77 335.392C1328.63 349.864 1337.21 356.595 1348.53 355.586C1373.76 353.337 1387.49 320.983 1389.75 258.525C1389.72 258.201 1389.67 257.716 1389.62 257.069C1389.88 256.394 1390 255.894 1389.97 255.571Z" fill="#01FF5E"/>
<path fill-rule="evenodd" clip-rule="evenodd" d="M1434.45 612.719C1432.34 622.613 1431.23 631.177 1431.13 638.412C1431.13 638.586 1431.13 638.76 1431.12 638.933C1431.12 639.489 1431.12 640.038 1431.13 640.579C1431.17 643.126 1431.34 645.496 1431.65 647.687C1433.21 658.891 1438.3 665.445 1446.9 667.35C1453.92 668.868 1459.72 667.345 1464.3 662.782C1468.88 658.218 1470.72 651.796 1469.82 643.515C1469.52 640.823 1468.98 638.145 1468.18 635.482C1466.45 629.707 1463.54 624.002 1459.45 618.367C1459.36 618.246 1459.28 618.125 1459.19 618.005C1459.04 617.796 1458.89 617.588 1458.74 617.381C1453.39 609.993 1447.47 603.855 1441 598.969C1440.75 598.778 1440.49 598.589 1440.24 598.402C1439.92 598.17 1439.61 597.942 1439.29 597.716C1421.21 584.561 1411.29 570.513 1409.55 555.572C1409.53 555.469 1409.52 555.366 1409.51 555.264C1407.43 536.193 1412.36 520.925 1424.31 509.462C1436.26 497.998 1452.03 491.197 1471.6 489.058C1487.69 487.553 1500.73 490.699 1510.72 498.494C1511.38 498.993 1512.01 499.507 1512.63 500.036C1521.57 507.741 1525.87 518.623 1525.5 532.683C1525.37 536.946 1524.75 540.891 1523.63 544.518C1522.98 546.62 1522.16 548.615 1521.18 550.503C1520.66 551.516 1520.09 552.498 1519.46 553.449C1517.13 557.025 1514.12 560.167 1510.43 562.876C1509.34 563.683 1508.18 564.451 1506.96 565.181C1506.54 565.442 1506.12 565.694 1505.7 565.935C1502.38 567.862 1499.34 569.149 1496.6 569.795C1495.31 570.097 1494.1 570.259 1492.94 570.283C1492.37 570.294 1491.82 570.272 1491.29 570.217C1491.18 570.206 1491.07 570.193 1490.97 570.18C1489.12 569.94 1487.45 569.292 1485.97 568.237C1483.21 566.253 1482.11 563.199 1482.68 559.074C1483.38 556.712 1483.69 554.393 1483.61 552.116C1483.6 551.758 1483.57 551.401 1483.54 551.044C1483.34 548.887 1482.78 546.768 1481.87 544.689C1479.81 539.835 1476.4 537.668 1471.64 538.189C1464.33 538.988 1460.94 543.842 1461.46 552.751C1461.47 552.935 1461.49 553.121 1461.5 553.308C1461.51 553.42 1461.52 553.532 1461.53 553.645C1461.55 553.933 1461.58 554.225 1461.61 554.521C1461.67 555.092 1461.77 555.662 1461.91 556.23C1462.78 559.902 1465.17 563.504 1469.07 567.036C1471.01 568.784 1473.1 570.537 1475.36 572.296C1476.95 573.531 1478.62 574.77 1480.37 576.011L1480.42 576.045C1480.93 576.409 1481.45 576.773 1481.98 577.138C1483.05 577.877 1484.15 578.617 1485.28 579.359C1488.97 581.647 1492.63 584.113 1496.27 586.759C1498.81 588.606 1501.34 590.541 1503.86 592.563C1508.64 596.058 1513.01 600.391 1516.97 605.562C1518.26 607.254 1519.51 609.036 1520.72 610.908C1524.64 616.825 1527.31 623.374 1528.73 630.555C1528.75 630.635 1528.76 630.714 1528.78 630.794C1529.1 632.445 1529.35 634.128 1529.54 635.845C1531.34 652.35 1529.63 666.699 1524.39 678.894C1520.71 687.465 1515.3 694.971 1508.14 701.413C1490.8 717.02 1468.15 723.558 1440.2 721.027C1426.1 719.776 1413.55 714.164 1402.55 704.193C1391.78 693.943 1384.81 681.247 1381.63 666.104C1378.2 650.989 1379.67 634.197 1386.03 615.726C1387.21 612.702 1388.71 610.019 1390.51 607.675C1395.35 601.384 1402.41 597.546 1411.7 596.161C1421.71 594.814 1428.82 597.21 1433.05 603.35C1433.37 603.939 1433.65 604.539 1433.88 605.149L1433.93 605.265C1434.78 607.597 1434.96 610.082 1434.45 612.719ZM1371.02 570.275C1370.19 566.847 1369.57 563.314 1369.17 559.673C1365.96 530.322 1373.66 501.812 1396.22 480.174C1415.79 461.404 1440.46 451.636 1467.19 448.715L1467.5 448.68L1467.82 448.651C1490.65 446.516 1514.2 450.506 1534.08 465.28C1555.5 439.625 1584.05 424.396 1617.75 420.711L1618.08 420.676L1618.41 420.646C1632.95 419.292 1646.98 420.985 1660.27 425.195C1672.08 417.855 1685.91 413.717 1701.41 413.714L1702 413.714L1702.6 413.731C1704.21 413.778 1705.84 413.873 1707.48 414.02C1707.96 412.415 1708.49 410.814 1709.08 409.217C1714.96 392.877 1724.96 379.123 1737.82 368.04C1752.11 355.648 1769.19 347.869 1788.28 345.782C1804.72 343.986 1834.45 346.357 1848.82 375.294C1851.89 381.367 1853.79 387.838 1855.03 393.748C1857.29 392.638 1859.09 391.534 1860.52 390.496C1872.99 381.446 1888.05 378.879 1902.25 382.325C1912.54 384.825 1920.73 390.046 1926.72 394.911C1929.22 391.762 1932.08 388.635 1934.56 386.003C1924.86 373.794 1920.16 359.389 1918.63 345.375C1915.91 320.495 1926.9 299.977 1942.67 285.714C1960.14 269.823 1982.24 263.505 2003.79 262.136C2023.74 260.672 2041.87 267.544 2056.07 280.45C2065.4 288.928 2072.16 300.166 2074.66 313.477C2077.04 326.152 2075.06 337.958 2071.81 347.645L2071.76 347.807C2070.88 350.392 2069.88 352.907 2068.78 355.355C2079.31 351.465 2090.5 348.861 2102.28 347.574L2102.75 347.523L2103.22 347.482C2111.51 346.771 2119.88 346.824 2128.09 347.827C2128.51 345.751 2129.06 343.645 2129.77 341.512C2134.16 327.616 2144 316.391 2157.51 310.285C2164.31 307.209 2171.11 305.844 2177.29 305.384C2179.61 299.176 2182.15 293.311 2184.95 287.851L2185.12 287.524L2185.29 287.199C2188.74 280.749 2193.15 273.557 2198.78 267.384C2203.32 262.41 2214.64 251.414 2232.47 250.204C2250.79 248.771 2268.87 253.108 2285.56 259.881C2293.21 262.945 2303.43 267.755 2311.72 275.681C2316.17 279.933 2321.76 286.682 2324.87 296.279C2326.06 299.967 2326.77 303.714 2327.02 307.45C2331 310.206 2334.77 313.72 2338.15 318.141C2345.67 327.987 2348.32 338.844 2349.11 347.663C2361.09 342.316 2374.09 338.845 2387.96 337.329L2388.28 337.294L2388.61 337.264C2403.16 335.91 2417.18 337.603 2430.48 341.813C2442.28 334.473 2456.12 330.335 2471.61 330.332L2472.2 330.332L2472.8 330.349C2490.04 330.852 2509.42 336.826 2523.26 353.831C2529.12 360.773 2534.26 369.85 2536.22 381.004C2538.28 392.737 2536.28 403.706 2532.32 412.936L2532.18 413.258L2532.04 413.577C2531.37 415.06 2530.62 416.943 2529.79 419.261C2537.27 417.668 2544.25 417.785 2549.74 418.36C2570.78 420.072 2589.77 430.116 2602.25 448.692C2610.67 460.923 2615.38 476.602 2612.03 493.724C2605.38 528.619 2593.87 559.742 2574.89 583.585C2554.95 608.626 2528.11 623.819 2496.21 627.305C2476.78 629.43 2458.72 626.389 2442.86 618.581C2428.17 629.426 2411.08 636.61 2391.57 638.742C2375.87 640.459 2360.43 638.442 2345.7 633.178L2345.27 633.022L2344.83 632.856C2336.46 629.646 2328.64 625.398 2321.33 620.355C2306.88 629.454 2290.48 635.156 2272.46 637.124C2252.87 639.266 2233.21 635.988 2215.46 625.477C2212.47 623.703 2209.62 621.777 2206.91 619.717C2185.29 636.345 2159.79 646.143 2131.44 649.242C2106.84 651.931 2082.79 649.118 2059.94 640.321L2059.59 640.186L2059.25 640.046C2050.02 636.295 2041.46 631.589 2033.59 626.004C2030.47 634.958 2027.03 643.63 2023.27 652.013C2000.56 703.174 1966.17 746.728 1913.3 752.061L1912.81 752.11C1892.56 753.906 1872.95 749.839 1855.14 739.833C1836.78 729.694 1822.11 714.094 1815.06 692.82L1814.86 692.218L1814.68 691.611C1811.48 680.842 1810.04 669.765 1810.75 658.743C1808.82 661.571 1806.8 664.314 1804.69 666.967C1784.75 692.008 1757.91 707.201 1726.01 710.687C1706.57 712.812 1688.52 709.771 1672.65 701.963C1657.97 712.808 1640.88 719.992 1621.37 722.124C1605.66 723.841 1590.23 721.824 1575.5 716.56L1575.06 716.404L1574.63 716.238C1567.98 713.689 1561.68 710.485 1555.71 706.748C1550.42 715.703 1543.66 724.039 1535.29 731.576C1507.87 756.256 1473.27 764.771 1436.54 761.445C1413.21 759.359 1392.48 749.844 1375.29 734.252L1374.93 733.925L1374.58 733.59C1357.68 717.506 1346.81 697.47 1341.98 674.759C1336.59 650.687 1339.51 626.173 1347.66 602.512L1347.93 601.706L1348.25 600.913C1353.3 588.012 1361.19 577.775 1371.02 570.275ZM1569.48 666.853C1575.91 671.95 1582.47 675.781 1589.16 678.345C1598.41 681.65 1607.68 682.796 1616.96 681.781C1625 680.903 1632.57 678.602 1639.68 674.878C1650.77 669.072 1660.72 659.808 1669.54 647.086C1678.26 659.198 1689.02 666.664 1701.84 669.483C1707.96 670.828 1714.55 671.115 1721.6 670.344C1752.02 667.02 1774.51 648.178 1789.08 613.818C1791.86 607.255 1794.35 600.125 1796.56 592.429C1798.62 585.241 1800.42 577.558 1801.98 569.382C1802.19 568.323 1802.3 567.269 1802.32 566.22C1802.59 565.428 1802.8 564.569 1802.95 563.644C1803.85 559.144 1804.72 554.677 1805.55 550.241C1805.57 550.133 1805.59 550.026 1805.61 549.918C1805.96 548.012 1806.31 546.112 1806.65 544.218L1806.67 544.101C1808.62 533.308 1810.35 522.705 1811.86 512.293C1812.93 504.887 1813.9 497.578 1814.75 490.365C1825.4 490.217 1836.78 488.592 1848.88 485.492C1847.57 488.252 1846.35 491.08 1845.22 493.974C1840.96 504.819 1837.94 516.606 1836.13 529.334C1835.77 531.892 1835.46 534.488 1835.19 537.123C1834.91 539.945 1834.68 542.811 1834.51 545.72C1834.07 553.948 1834.08 561.679 1834.54 568.913C1834.56 569.269 1834.59 569.624 1834.61 569.978C1834.75 571.916 1834.92 573.817 1835.12 575.683C1835.13 575.79 1835.14 575.897 1835.15 576.004C1835.6 580.097 1836.22 584.016 1836.99 587.76C1837.38 589.674 1837.81 591.541 1838.29 593.364C1839.04 596.232 1839.9 598.987 1840.85 601.628C1843.76 609.669 1847.62 616.662 1852.44 622.607C1856.49 627.543 1860.81 631.658 1865.41 634.952C1862.15 635.276 1859.16 638.145 1856.45 643.557C1854.9 646.372 1853.7 649.28 1852.83 652.28C1852.27 654.198 1851.85 656.154 1851.57 658.148C1851.44 659.136 1851.33 660.133 1851.26 661.14C1851.15 662.67 1851.12 664.222 1851.17 665.795C1851.24 667.931 1851.45 670.107 1851.8 672.322C1851.92 673.022 1852.04 673.726 1852.18 674.434C1852.53 676.162 1852.96 677.913 1853.47 679.687C1853.51 679.81 1853.55 679.933 1853.58 680.056C1856.99 690.348 1864.1 698.459 1874.91 704.388C1885.46 710.344 1896.9 712.776 1909.22 711.683C1936.72 708.909 1960.5 687.514 1980.55 647.498C1981.98 644.636 1983.4 641.678 1984.79 638.625C1985.27 637.584 1985.74 636.532 1986.21 635.468C1992.11 622.345 1997.17 608.227 2001.38 593.114C2001.81 591.571 2002.23 590.017 2002.64 588.452C2002.7 588.246 2002.75 588.04 2002.81 587.834C2006.02 575.56 2008.69 562.65 2010.83 549.104C2012.73 537.056 2014.2 524.505 2015.25 511.45C2015.27 511.105 2015.3 510.76 2015.33 510.414C2016.7 492.851 2017.31 474.348 2017.14 454.971C2016.91 434.258 2012.79 419.172 2004.78 409.715C2004.35 409.217 2003.92 408.735 2003.48 408.269C2002.86 407.614 2002.21 406.99 2001.55 406.397C1999.07 404.066 1996.47 402.419 1993.77 401.458C1986.31 398.798 1978.03 401.373 1968.94 409.183C1967.85 410.122 1966.74 411.137 1965.62 412.228C1961.29 416.764 1958.58 419.854 1957.49 421.496C1956.38 422.888 1955.4 425.535 1954.55 429.436C1954.49 429.894 1954.43 430.373 1954.38 430.875C1954.21 432.482 1954.1 434.313 1954.03 436.367C1953.99 437.999 1953.97 439.772 1953.99 441.686C1954.72 448.417 1954.65 459.637 1953.78 475.346C1953.59 478.78 1953.36 482.429 1953.09 486.293C1952.99 487.735 1952.89 489.208 1952.78 490.71C1952.42 495.599 1952 500.804 1951.53 506.326C1951.28 509.579 1951.03 512.778 1950.76 515.924C1943.67 516.257 1939.65 519.854 1938.71 526.714C1937.34 537.674 1935.74 547.185 1933.91 555.247C1933.58 556.697 1933.24 558.1 1932.9 559.457C1932.57 560.737 1932.24 561.976 1931.9 563.173C1931.81 563.495 1931.72 563.814 1931.63 564.13C1930.66 567.476 1929.63 570.483 1928.55 573.151C1924.57 583.235 1918.69 588.703 1910.91 589.553C1906.81 590.001 1903.32 588.051 1900.43 583.705C1898.9 581.4 1897.54 578.42 1896.35 574.766C1894.96 570.157 1894.02 565.015 1893.52 559.341C1893.51 559.209 1893.5 559.076 1893.49 558.943C1893.39 557.766 1893.32 556.567 1893.26 555.345C1893.19 553.97 1893.15 552.566 1893.13 551.133C1893.07 546.01 1893.31 540.52 1893.87 534.662C1895.34 522.567 1898.3 510.181 1902.76 497.505C1906 488.967 1909.44 481.779 1913.09 475.943C1914.99 472.906 1916.94 470.235 1918.95 467.93C1921.27 463.613 1920.98 457.425 1918.06 449.363C1917.62 448.147 1917.13 446.95 1916.6 445.773C1916.02 444.508 1915.38 443.267 1914.68 442.048C1914.63 441.956 1914.58 441.865 1914.53 441.773C1914.16 441.149 1913.79 440.531 1913.4 439.919C1911 436.17 1908.03 432.648 1904.49 429.354C1903.92 428.831 1903.35 428.313 1902.76 427.801C1895.44 421.238 1889.31 419.749 1884.37 423.336C1877.3 428.469 1868.72 432.643 1858.63 435.86C1856.97 436.39 1855.27 436.894 1853.52 437.372C1846.32 439.217 1839.23 440.42 1832.25 440.983C1827.5 441.365 1822.79 441.451 1818.14 441.24L1817.99 432.876C1817.58 412.861 1815.76 399.728 1812.54 393.478C1809.6 387.451 1802.98 385 1792.69 386.125C1782.15 387.277 1772.71 391.483 1764.36 398.744C1756.24 405.726 1750.52 413.842 1747.22 423.091C1746.46 425.144 1745.86 427.233 1745.42 429.357C1744.52 433.775 1744.31 438.346 1744.81 443.068C1744.88 443.646 1744.95 444.226 1745.03 444.809C1745.37 447.204 1745.88 449.637 1746.58 452.108C1749.24 462.483 1755.52 471.192 1765.43 478.234C1765.45 480.53 1765.37 483.514 1765.19 487.184C1765 491.235 1764.69 496.123 1764.26 501.849C1763.4 513.293 1762.08 528.082 1760.29 546.215C1760.23 546.919 1760.22 547.628 1760.25 548.339C1759.66 549.617 1759.25 551.087 1759.02 552.747C1758.67 555.765 1758.23 558.708 1757.73 561.577C1757.7 561.727 1757.68 561.877 1757.65 562.027C1755.34 574.869 1751.54 586.207 1746.24 596.043C1745.96 596.574 1745.68 597.094 1745.4 597.603C1739.13 608.99 1732.51 615.065 1725.54 615.826C1719.52 616.484 1714.51 612.461 1710.51 603.757C1706.74 594.774 1704.91 582.658 1705.02 567.41C1705.21 555.201 1707.39 540.361 1711.58 522.89C1714.79 509.815 1717.85 499.085 1720.76 490.7C1722.15 486.702 1723.51 483.237 1724.82 480.306C1725.08 479.71 1725.31 479.088 1725.5 478.5C1727.22 473.049 1725.99 467.92 1721.8 463.115C1720.88 461.94 1719.85 460.882 1718.71 459.941C1718.5 459.762 1718.28 459.587 1718.05 459.416C1714.72 456.87 1710.54 455.271 1705.53 454.616C1704.21 454.445 1702.84 454.339 1701.41 454.297C1687.66 454.3 1676.68 460.527 1668.47 472.979C1668.34 473.17 1668.22 473.362 1668.1 473.555C1667.77 473.346 1667.45 473.139 1667.13 472.935C1652.4 463.596 1637.42 459.636 1622.16 461.054C1597.32 463.77 1577.36 475.093 1562.27 495.026C1561.48 496.069 1560.71 497.131 1559.95 498.211C1552.97 508.242 1547.54 519.89 1543.68 533.154L1543.66 533.238C1540.61 543.752 1538.54 555.281 1537.45 567.824C1537.27 569.845 1537.12 571.893 1537 573.967C1536.73 580.855 1536.77 587.385 1537.1 593.557C1537.22 595.663 1537.37 597.728 1537.55 599.751C1537.56 599.848 1537.57 599.945 1537.58 600.041C1538.48 609.753 1540.2 618.501 1542.71 626.287C1543.54 628.999 1544.45 631.606 1545.43 634.109C1549.59 644.757 1555.14 653.506 1562.05 660.358C1564.51 662.713 1566.98 664.878 1569.48 666.853ZM1901.14 644.676C1896.83 645.009 1892.68 644.898 1888.68 644.341C1888.56 644.325 1888.45 644.309 1888.34 644.293C1883.88 643.643 1879.6 642.439 1875.5 640.679L1875.3 640.593C1874.65 640.307 1874 640.008 1873.35 639.694L1874.48 641.206C1877.06 646.256 1880.24 649.844 1884.03 651.969C1887.57 654.122 1893.64 655.109 1902.26 654.929C1902.95 654.853 1903.63 654.744 1904.31 654.6C1911.15 653.15 1917.31 648.232 1922.78 639.845C1916.72 642.172 1910.2 643.718 1903.2 644.483C1902.82 644.525 1902.43 644.564 1902.04 644.6C1901.74 644.627 1901.44 644.653 1901.14 644.676ZM1649.31 549.122C1649.72 536.634 1650.76 526.363 1652.42 518.31C1645.54 513.475 1637.59 511.552 1628.55 512.539C1627.75 512.627 1626.96 512.748 1626.18 512.904C1620.45 514.044 1615.31 517.003 1610.73 521.782C1608.91 523.693 1607.17 525.895 1605.53 528.387C1599.43 537.687 1595.52 550.684 1593.79 567.378C1592.03 586.108 1593.54 601.052 1598.31 612.211C1603.08 623.37 1609.86 628.47 1618.65 627.51C1638.22 625.371 1648.4 600.008 1649.18 551.421L1649.06 550.292C1649.25 549.763 1649.34 549.373 1649.31 549.122ZM2017.8 516.67C2018.31 526.518 2019.87 535.73 2022.48 544.306C2025.09 552.867 2028.74 560.794 2033.44 568.088C2037.15 573.693 2041.22 578.734 2045.67 583.212C2053.99 591.601 2063.61 598.013 2074.53 602.449C2090.96 608.778 2108.46 610.928 2127.03 608.899C2147.4 606.672 2165.12 600.05 2180.18 589.032C2185.72 584.984 2190.89 580.344 2195.71 575.11C2196.94 573.753 2198.14 572.377 2199.31 570.984C2202.98 566.612 2206.37 562.065 2209.48 557.341C2210.49 559.643 2211.55 561.857 2212.67 563.984C2219 576.076 2226.71 584.863 2235.79 590.345C2245.1 595.969 2255.86 598.115 2268.06 596.782C2276.3 595.88 2283.97 593.838 2291.05 590.655C2303.17 585.206 2313.59 576.416 2322.3 564.283C2325.22 569.062 2328.54 573.293 2332.26 576.976C2338.84 583.283 2345.55 588.227 2352.39 591.807C2354.7 593.014 2357.02 594.066 2359.36 594.963C2368.61 598.268 2377.88 599.414 2387.16 598.399C2395.2 597.521 2402.78 595.22 2409.89 591.496C2420.97 585.69 2430.92 576.426 2439.74 563.704C2448.46 575.816 2459.23 583.282 2472.05 586.101C2478.17 587.446 2484.75 587.733 2491.8 586.962C2533.46 582.41 2560.25 548.756 2572.18 486C2573.17 481.068 2572.01 476.243 2568.7 471.526C2563.53 463.712 2555.95 459.461 2545.97 458.774C2535.94 457.585 2530.36 461.115 2529.23 469.365C2527.25 486.087 2522.98 500.519 2516.44 512.661C2509.92 525.054 2503.02 531.649 2495.75 532.444C2489.73 533.102 2484.71 529.079 2480.72 520.375C2476.94 511.392 2475.11 499.276 2475.22 484.028C2475.41 471.819 2477.6 456.979 2481.78 439.508C2486.53 420.199 2490.94 406.004 2495.03 396.923C2497.66 390.795 2496.65 385.065 2492.01 379.732C2487.58 374.121 2480.79 371.182 2471.62 370.915C2457.86 370.918 2446.88 377.145 2438.67 389.597C2438.55 389.788 2438.42 389.98 2438.3 390.173C2437.98 389.963 2437.65 389.755 2437.33 389.55C2422.6 380.213 2407.62 376.254 2392.37 377.672C2367.53 380.388 2347.56 391.711 2332.47 411.643C2328.78 416.527 2325.48 421.822 2322.58 427.528C2316.25 440.006 2311.81 454.451 2309.27 470.861C2307.2 472.662 2305.92 475.311 2305.44 478.807C2305.06 482.765 2304.54 486.624 2303.87 490.385L2303.86 490.457C2302.43 498.432 2300.34 505.966 2297.58 513.06C2297.49 513.305 2297.39 513.55 2297.29 513.794C2297.06 514.378 2296.83 514.96 2296.59 515.538C2295.61 517.874 2294.57 520.16 2293.44 522.398C2287.68 534.709 2280.91 541.29 2273.13 542.14C2272.3 542.23 2271.49 542.195 2270.7 542.035C2269.07 541.709 2267.5 540.861 2265.98 539.493C2265.36 538.847 2264.74 538.077 2264.14 537.182C2262.81 535.21 2261.54 532.632 2260.31 529.447C2258.54 524.817 2257.02 519.016 2255.75 512.044C2255.56 510.761 2255.38 509.421 2255.22 508.024L2255.21 507.97C2255.17 507.605 2255.13 507.236 2255.09 506.863C2255.06 506.665 2255.04 506.466 2255.02 506.266C2254.39 500.433 2253.94 493.675 2253.66 485.99C2253.6 480.601 2253.67 474.89 2253.88 468.858C2253.9 468.216 2253.92 467.572 2253.95 466.923C2254.09 463.321 2254.28 459.606 2254.51 455.78C2254.6 454.272 2254.7 452.746 2254.81 451.203C2255.53 436.904 2257.63 420.043 2261.09 400.619C2263.88 400.569 2270.54 399.967 2281.08 398.815C2285.6 398.322 2290.34 395.264 2295.31 389.642C2303.86 379.566 2308.35 368.41 2308.79 356.173C2308.86 354.473 2308.83 352.9 2308.7 351.455C2307.95 342.501 2303.68 338.449 2295.9 339.299L2275.58 341.52C2279.67 327.868 2283.19 318.216 2286.13 312.562C2287.71 308.535 2284.69 304.526 2277.04 300.535C2275.12 299.53 2272.9 298.526 2270.39 297.523C2257.1 292.119 2245.43 289.84 2235.36 290.686C2231.32 290.874 2226.56 296.092 2221.07 306.341C2215.84 316.562 2211.22 330.018 2207.2 346.708C2200.88 346.892 2193.86 346.643 2186.17 345.96C2176.17 345.022 2170.24 347.701 2168.39 353.998C2167.47 356.616 2167.48 359.534 2168.42 362.751C2169.66 366.997 2172.52 371.764 2177 377.053C2178.58 379.052 2180.14 380.902 2181.7 382.601C2181.9 382.827 2182.11 383.05 2182.31 383.27C2182.42 383.387 2182.53 383.503 2182.64 383.619C2182.7 383.679 2182.76 383.739 2182.81 383.799C2183.58 384.601 2184.34 385.367 2185.1 386.096C2185.29 386.28 2185.48 386.461 2185.67 386.64C2189.08 389.842 2192.43 392.307 2195.74 394.035C2196.64 394.504 2197.53 394.92 2198.42 395.28C2198.28 396.334 2198.15 397.388 2198.02 398.44C2196.55 410.543 2195.52 422.553 2194.93 434.47C2194.6 441.082 2194.41 447.667 2194.35 454.222C2194.35 454.541 2194.34 454.86 2194.34 455.178C2194.34 455.294 2194.34 455.411 2194.34 455.527C2194.25 462.656 2194.31 469.526 2194.51 476.136C2190.84 477.855 2188.74 481.028 2188.22 485.657C2186.21 502.128 2180.24 517.254 2170.32 531.035C2169.13 532.688 2167.9 534.255 2166.61 535.735C2166.51 535.847 2166.42 535.957 2166.32 536.067C2164.81 537.787 2163.23 539.388 2161.58 540.871C2153.03 548.582 2142.7 553.099 2130.6 554.422C2109.66 556.71 2094.23 551.177 2084.31 537.82C2084.12 537.572 2083.94 537.322 2083.76 537.068C2099.79 532.749 2114.07 526.303 2126.59 517.731C2126.83 517.57 2127.06 517.409 2127.29 517.246C2131.28 514.476 2135.09 511.488 2138.72 508.282C2139.24 507.825 2139.75 507.363 2140.26 506.896C2145.91 501.853 2150.67 496.351 2154.55 490.39C2156.23 487.796 2157.76 485.115 2159.11 482.347C2159.15 482.272 2159.18 482.196 2159.22 482.12C2163.18 473.955 2165.69 465.035 2166.74 455.361L2166.76 455.172C2166.87 454.179 2166.96 453.177 2167.04 452.168C2167.29 449.857 2167.45 447.588 2167.51 445.361C2167.73 436.695 2166.47 428.672 2163.71 421.292C2161.88 416.375 2159.38 411.745 2156.23 407.399C2155.59 406.525 2154.93 405.662 2154.24 404.811C2152.91 403.069 2151.47 401.459 2149.93 399.98C2149.62 399.689 2149.31 399.402 2149 399.121C2145.66 396.11 2141.87 393.687 2137.62 391.854C2129.13 388.188 2118.82 386.876 2106.69 387.917C2084.9 390.298 2066.59 398.686 2051.74 413.083C2048.46 416.265 2045.34 419.741 2042.4 423.511C2035.41 432.461 2029.9 442.914 2025.86 454.872C2020.52 470.729 2017.76 489.254 2017.61 510.398C2017.62 511.219 2017.63 512.036 2017.65 512.849C2017.66 513.321 2017.68 513.792 2017.69 514.261C2017.72 515.068 2017.76 515.871 2017.8 516.67ZM2378.34 541.823C2381.45 543.786 2384.95 544.554 2388.85 544.128C2408.42 541.989 2418.6 516.626 2419.39 468.039L2419.26 466.91C2419.46 466.381 2419.54 465.99 2419.51 465.74C2419.93 453.252 2420.96 442.981 2422.62 434.928C2415.75 430.093 2407.79 428.17 2398.76 429.157C2397.95 429.245 2397.16 429.366 2396.38 429.522C2390.66 430.662 2385.51 433.621 2380.94 438.401C2379.11 440.311 2377.37 442.513 2375.73 445.005C2374.6 446.737 2373.54 448.598 2372.55 450.586C2370.37 454.993 2368.57 460.03 2367.13 465.697C2367.04 466.056 2366.95 466.417 2366.86 466.78C2365.6 472 2364.64 477.738 2363.99 483.996C2363.51 489.136 2363.27 493.991 2363.28 498.561L2363.28 498.642C2363.31 510.688 2365.06 520.751 2368.51 528.829C2371.17 535.034 2374.44 539.365 2378.34 541.823ZM2074.23 497.6C2074.22 497.899 2074.22 498.198 2074.21 498.499C2085.36 496.01 2094.78 491.553 2102.46 485.127C2102.59 485.013 2102.73 484.898 2102.87 484.784C2104.44 483.44 2105.89 482.077 2107.22 480.696C2109.72 478.08 2111.76 475.395 2113.33 472.643C2113.37 472.57 2113.41 472.498 2113.46 472.425C2114.9 469.855 2115.95 467.226 2116.59 464.538C2118.13 457.767 2117.12 452.037 2113.56 447.347C2109.98 442.406 2105.42 440.238 2099.9 440.841C2093.09 441.586 2087.24 446.763 2082.35 456.371C2082.3 456.476 2082.24 456.582 2082.19 456.688C2082.09 456.885 2081.99 457.083 2081.89 457.284C2081.56 457.973 2081.24 458.682 2080.93 459.408C2079.96 461.681 2079.1 464.134 2078.34 466.768C2075.91 475.194 2074.54 485.472 2074.23 497.6ZM2009.87 364.181C2012.54 362.481 2015.12 360.478 2017.61 358.172C2025.4 350.465 2030.64 342.655 2033.33 334.743C2036.78 324.463 2035.26 316.376 2028.78 310.482C2022.29 304.589 2014.9 301.969 2006.59 302.623C1990.7 303.598 1978.48 307.981 1969.93 315.771C1961.61 323.283 1957.96 331.681 1958.98 340.965C1960.01 350.395 1963.16 357.779 1968.44 363.118C1968.92 363.605 1969.41 364.074 1969.93 364.526C1976.08 369.694 1982.92 371.867 1990.45 371.044C1997.39 370.285 2003.87 367.997 2009.87 364.181Z" fill="#00A4DA"/>
<path d="M1529.54 635.844C1532.61 663.949 1525.48 685.805 1508.14 701.412C1490.8 717.02 1468.15 723.558 1440.2 721.027C1426.09 719.775 1413.55 714.163 1402.55 704.192C1391.78 693.942 1384.81 681.246 1381.63 666.104C1378.2 650.989 1379.67 634.196 1386.03 615.726C1390.4 604.583 1398.95 598.062 1411.69 596.161C1421.7 594.813 1428.82 597.209 1433.05 603.349C1434.63 606.223 1435.1 609.346 1434.45 612.718C1427.4 645.739 1431.55 663.949 1446.9 667.35C1453.92 668.868 1459.72 667.345 1464.3 662.781C1468.88 658.218 1470.72 651.796 1469.81 643.515C1468.88 634.983 1465.43 626.6 1459.45 618.366C1453.44 609.881 1446.72 602.998 1439.29 597.716C1421.08 584.47 1411.16 570.319 1409.51 555.263C1407.43 536.192 1412.36 520.925 1424.31 509.461C1436.26 497.998 1452.02 491.196 1471.6 489.057C1487.68 487.553 1500.72 490.698 1510.72 498.493C1520.96 506.261 1525.89 517.658 1525.5 532.682C1525.06 547.205 1518.88 558.037 1506.96 565.18C1497.92 570.739 1490.92 571.758 1485.96 568.237C1483.21 566.253 1482.11 563.198 1482.68 559.074C1484.16 554.086 1483.89 549.291 1481.87 544.688C1479.81 539.834 1476.4 537.667 1471.63 538.189C1463.86 539.039 1460.51 544.483 1461.61 554.52C1462.08 558.786 1464.57 562.958 1469.07 567.036C1473.58 571.114 1478.98 575.221 1485.28 579.358C1491.54 583.244 1497.74 587.646 1503.86 592.563C1510.21 597.202 1515.83 603.316 1520.72 610.908C1525.58 618.248 1528.52 626.56 1529.54 635.844Z" fill="#F8407C"/>
<path d="M1801.98 569.382C1790.05 632.137 1763.25 665.791 1721.6 670.344C1699.77 672.73 1682.41 664.977 1669.54 647.086C1655.06 667.967 1637.54 679.532 1616.96 681.781C1607.67 682.796 1598.41 681.65 1589.16 678.344C1579.88 674.787 1570.85 668.792 1562.05 660.357C1553.51 651.896 1547.06 640.538 1542.71 626.286C1538.11 612.061 1536.2 594.621 1536.99 573.966C1538.98 540.993 1547.4 514.679 1562.27 495.025C1577.35 475.093 1597.32 463.769 1622.16 461.054C1637.75 459.604 1653.06 463.771 1668.09 473.555C1676.34 460.719 1687.45 454.299 1701.41 454.296C1710.58 454.564 1717.38 457.503 1721.8 463.114C1726.45 468.447 1727.45 474.177 1724.82 480.305C1720.74 489.385 1716.32 503.58 1711.58 522.89C1707.39 540.36 1705.2 555.201 1705.02 567.41C1704.9 582.658 1706.74 594.773 1710.51 603.756C1714.51 612.461 1719.52 616.484 1725.54 615.825C1732.82 615.03 1739.72 608.436 1746.23 596.043C1752.78 583.9 1757.04 569.468 1759.02 552.746C1760.15 544.497 1765.73 540.967 1775.77 542.155C1785.75 542.842 1793.32 547.093 1798.49 554.908C1801.8 559.625 1802.96 564.449 1801.98 569.382ZM1649.31 549.121C1649.72 536.633 1650.76 526.363 1652.42 518.31C1645.54 513.475 1637.59 511.551 1628.55 512.538C1619.52 513.526 1611.84 518.808 1605.53 528.386C1599.43 537.686 1595.52 550.683 1593.79 567.378C1592.03 586.107 1593.53 601.052 1598.31 612.211C1603.08 623.37 1609.86 628.469 1618.65 627.509C1638.22 625.37 1648.4 600.007 1649.18 551.421C1649.15 551.17 1649.11 550.793 1649.06 550.291C1649.25 549.762 1649.34 549.372 1649.31 549.121Z" fill="#F8407C"/>
<path d="M1918.95 467.93C1913.08 474.665 1907.69 484.523 1902.76 497.505C1898.3 510.18 1895.34 522.566 1893.87 534.662C1892.33 550.827 1893.16 564.195 1896.35 574.766C1899.78 585.309 1904.64 590.238 1910.91 589.552C1918.69 588.702 1924.57 583.235 1928.55 573.151C1932.75 562.788 1936.13 547.309 1938.71 526.714C1939.84 518.464 1945.42 514.934 1955.45 516.123C1965.48 517.312 1973.2 521.674 1978.59 529.21C1981.62 533.704 1982.66 538.542 1981.7 543.725C1975.96 574.825 1966.77 598.81 1954.14 615.68C1941.51 632.55 1924.53 642.151 1903.2 644.482C1883.13 646.676 1866.21 639.384 1852.44 622.606C1838.64 605.577 1832.67 579.948 1834.51 545.72C1835.84 522.975 1840.62 502.899 1848.88 485.491C1836.78 488.592 1825.4 490.216 1814.75 490.364C1811.98 513.775 1808.04 538.202 1802.95 563.643C1801.57 571.92 1795.55 574.864 1784.87 572.475C1775.76 570.424 1768.63 565.617 1763.49 558.053C1761.02 554.007 1759.95 550.06 1760.29 546.214C1763.78 510.79 1765.5 488.13 1765.43 478.234C1755.52 471.191 1749.24 462.482 1746.58 452.108C1743.67 441.761 1743.88 432.088 1747.22 423.09C1750.52 413.841 1756.24 405.725 1764.36 398.743C1772.71 391.482 1782.15 387.276 1792.69 386.124C1802.98 385 1809.6 387.451 1812.54 393.477C1815.76 399.727 1817.58 412.86 1817.99 432.876L1818.14 441.239C1829.63 441.761 1841.42 440.472 1853.52 437.372C1865.85 433.993 1876.13 429.314 1884.37 423.336C1889.31 419.749 1895.44 421.237 1902.76 427.801C1910.05 434.114 1915.15 441.301 1918.06 449.363C1920.98 457.424 1921.27 463.613 1918.95 467.93Z" fill="#F8407C"/>
<path d="M1902.26 654.928C1927.85 652.131 1944.28 602.597 1951.53 506.326C1954.32 473.772 1955.14 452.225 1953.99 441.686C1953.94 436.612 1954.13 432.529 1954.55 429.435C1955.39 425.534 1956.37 422.888 1957.49 421.496C1958.58 419.853 1961.29 416.764 1965.62 412.228C1979.39 398.788 1991.36 396.844 2001.55 406.396C2011.68 415.446 2016.88 431.638 2017.14 454.97C2017.76 528.034 2007.45 588.2 1986.21 635.468C1965.02 683.237 1939.36 708.642 1909.22 711.682C1896.9 712.775 1885.46 710.344 1874.9 704.387C1864.1 698.458 1856.99 690.347 1853.58 680.055C1849.56 666.528 1850.52 654.362 1856.45 643.556C1860.62 635.229 1865.44 632.924 1870.93 636.641C1871.21 636.865 1872.39 638.386 1874.47 641.205C1877.06 646.256 1880.24 649.843 1884.03 651.969C1887.57 654.121 1893.64 655.108 1902.26 654.928ZM1958.97 340.965C1957.96 331.68 1961.61 323.282 1969.93 315.77C1978.48 307.98 1990.69 303.598 2006.59 302.623C2014.89 301.969 2022.29 304.588 2028.78 310.482C2035.26 316.375 2036.78 324.462 2033.33 334.742C2030.64 342.654 2025.4 350.464 2017.61 358.172C2009.54 365.656 2000.49 369.946 1990.45 371.043C1982.92 371.866 1976.08 369.694 1969.93 364.526C1963.75 359.107 1960.1 351.253 1958.97 340.965Z" fill="#F8407C"/>
<path d="M2167.04 452.167C2165.38 474.186 2156.45 492.429 2140.26 506.896C2124.79 521.029 2105.96 531.086 2083.76 537.068C2093.66 550.968 2109.27 556.752 2130.6 554.421C2147.16 552.611 2160.4 544.815 2170.32 531.034C2180.24 517.253 2186.21 502.127 2188.22 485.656C2189.12 477.685 2194.69 474.03 2204.92 474.689C2214.68 475.654 2222.36 479.766 2227.98 487.024C2231.29 491.741 2232.48 496.816 2231.55 502.25C2226.01 530.535 2214.06 554.821 2195.71 575.11C2177.78 594.591 2154.88 605.854 2127.03 608.898C2108.46 610.928 2090.96 608.778 2074.52 602.448C2057.78 595.644 2044.09 584.191 2033.44 568.087C2023.04 551.956 2017.77 532.726 2017.61 510.397C2017.87 473.295 2026.14 444.333 2042.4 423.51C2058.66 402.688 2080.09 390.824 2106.69 387.916C2128.32 386.06 2144.17 391.691 2154.24 404.811C2164.81 417.876 2169.08 433.661 2167.04 452.167ZM2099.9 440.841C2092.88 441.609 2086.87 447.09 2081.89 457.283C2077.14 467.199 2074.57 480.937 2074.21 498.498C2085.36 496.009 2094.78 491.552 2102.46 485.126C2110.13 478.701 2114.84 471.838 2116.59 464.537C2118.13 457.766 2117.12 452.036 2113.56 447.346C2109.98 442.406 2105.42 440.237 2099.9 440.841Z" fill="#F8407C"/>
<path d="M2275.58 341.52L2295.9 339.298C2304.94 338.311 2309.23 343.936 2308.79 356.172C2308.35 368.409 2303.86 379.565 2295.31 389.641C2290.34 395.263 2285.6 398.321 2281.08 398.815C2270.54 399.967 2263.88 400.568 2261.09 400.619C2257.62 420.042 2255.53 436.903 2254.81 451.203C2253.92 463.996 2253.54 475.592 2253.66 485.99C2254.03 496.36 2254.73 505.045 2255.75 512.044C2257.02 519.015 2258.54 524.816 2260.31 529.446C2262.09 534.077 2263.98 537.426 2265.98 539.492C2268.24 541.531 2270.62 542.413 2273.13 542.139C2280.91 541.289 2287.68 534.708 2293.44 522.397C2299.91 509.502 2303.9 494.972 2305.44 478.807C2306.57 470.558 2312.15 467.027 2322.18 468.216C2332.22 469.405 2339.93 473.767 2345.32 481.304C2348.35 485.797 2349.39 490.635 2348.43 495.819C2336.5 558.574 2309.71 592.228 2268.05 596.781C2243.96 599.414 2225.5 588.481 2212.67 563.983C2199.83 539.485 2193.72 503.333 2194.34 455.527C2194.46 435.707 2195.82 415.625 2198.42 395.28C2191.51 392.48 2184.37 386.404 2177 377.052C2169.13 367.756 2166.26 360.071 2168.39 353.997C2170.24 347.701 2176.17 345.021 2186.17 345.959C2193.86 346.642 2200.87 346.891 2207.2 346.708C2211.22 330.017 2215.84 316.561 2221.07 306.34C2226.56 296.092 2231.32 290.873 2235.36 290.686C2245.42 289.839 2257.1 292.118 2270.39 297.522C2282.87 302.506 2288.11 307.52 2286.12 312.562C2283.19 318.215 2279.67 327.868 2275.58 341.52Z" fill="#F8407C"/>
<path d="M2572.18 485.999C2560.25 548.755 2533.46 582.409 2491.8 586.962C2469.97 589.348 2452.62 581.595 2439.74 563.704C2425.27 584.585 2407.74 596.15 2387.16 598.399C2377.88 599.414 2368.61 598.268 2359.36 594.962C2350.09 591.405 2341.05 585.41 2332.26 576.975C2323.72 568.513 2317.27 557.156 2312.92 542.904C2308.32 528.679 2306.41 511.239 2307.2 490.584C2309.18 457.611 2317.61 431.297 2332.47 411.643C2347.56 391.711 2367.52 380.387 2392.37 377.672C2407.95 376.222 2423.26 380.389 2438.3 390.173C2446.54 377.337 2457.65 370.917 2471.62 370.914C2480.79 371.182 2487.58 374.121 2492.01 379.732C2496.65 385.065 2497.66 390.795 2495.03 396.923C2490.94 406.003 2486.53 420.198 2481.78 439.508C2477.6 456.978 2475.41 471.818 2475.22 484.028C2475.11 499.276 2476.94 511.391 2480.72 520.374C2484.71 529.079 2489.72 533.102 2495.75 532.443C2503.02 531.648 2509.92 525.054 2516.44 512.661C2522.98 500.518 2527.25 486.086 2529.23 469.364C2530.36 461.115 2535.94 457.585 2545.97 458.773C2555.95 459.46 2563.52 463.711 2568.7 471.526C2572 476.243 2573.17 481.067 2572.18 485.999ZM2419.51 465.739C2419.93 453.251 2420.96 442.981 2422.62 434.928C2415.74 430.093 2407.79 428.169 2398.76 429.156C2389.72 430.144 2382.05 435.426 2375.73 445.004C2369.64 454.304 2365.72 467.301 2363.99 483.996C2362.23 502.725 2363.74 517.67 2368.51 528.829C2373.29 539.988 2380.07 545.087 2388.85 544.127C2408.42 541.988 2418.6 516.625 2419.38 468.038C2419.36 467.788 2419.32 467.411 2419.26 466.909C2419.46 466.38 2419.54 465.99 2419.51 465.739Z" fill="#F8407C"/>
<path d="M1529.54 595.261C1532.61 623.366 1525.48 645.222 1508.14 660.829C1490.8 676.437 1468.15 682.975 1440.2 680.444C1426.09 679.192 1413.55 673.58 1402.55 663.609C1391.78 653.359 1384.81 640.663 1381.63 625.521C1378.2 610.406 1379.67 593.613 1386.03 575.143C1390.4 564 1398.95 557.478 1411.69 555.578C1421.7 554.23 1428.82 556.626 1433.05 562.766C1434.63 565.64 1435.1 568.763 1434.45 572.135C1427.4 605.156 1431.55 623.366 1446.9 626.767C1453.92 628.284 1459.72 626.762 1464.3 622.198C1468.88 617.635 1470.72 611.213 1469.81 602.932C1468.88 594.4 1465.43 586.017 1459.45 577.783C1453.44 569.298 1446.72 562.414 1439.29 557.133C1421.08 543.887 1411.16 529.736 1409.51 514.68C1407.43 495.609 1412.36 480.342 1424.31 468.878C1436.26 457.415 1452.02 450.613 1471.6 448.474C1487.68 446.97 1500.72 450.115 1510.72 457.91C1520.96 465.678 1525.89 477.074 1525.5 492.099C1525.06 506.622 1518.88 517.454 1506.96 524.597C1497.92 530.156 1490.92 531.175 1485.96 527.654C1483.21 525.669 1482.11 522.615 1482.68 518.49C1484.16 513.503 1483.89 508.708 1481.87 504.105C1479.81 499.251 1476.4 497.084 1471.63 497.605C1463.86 498.456 1460.51 503.899 1461.61 513.937C1462.08 518.203 1464.57 522.375 1469.07 526.453C1473.58 530.531 1478.98 534.638 1485.28 538.775C1491.54 542.661 1497.74 547.062 1503.86 551.98C1510.21 556.618 1515.83 562.733 1520.72 570.324C1525.58 577.665 1528.52 585.977 1529.54 595.261Z" fill="#01FF5E"/>
<path d="M1801.98 528.798C1790.05 591.554 1763.25 625.208 1721.6 629.761C1699.77 632.147 1682.41 624.394 1669.54 606.502C1655.06 627.384 1637.54 638.949 1616.96 641.198C1607.67 642.212 1598.41 641.067 1589.16 637.761C1579.88 634.204 1570.85 628.208 1562.05 619.774C1553.51 611.312 1547.06 599.955 1542.71 585.703C1538.11 571.478 1536.2 554.038 1536.99 533.383C1538.98 500.409 1547.4 474.096 1562.27 454.442C1577.35 434.51 1597.32 423.186 1622.16 420.471C1637.75 419.021 1653.06 423.188 1668.09 432.972C1676.34 420.136 1687.45 413.716 1701.41 413.713C1710.58 413.981 1717.38 416.92 1721.8 422.531C1726.45 427.863 1727.45 433.594 1724.82 439.722C1720.74 448.802 1716.32 462.997 1711.58 482.307C1707.39 499.777 1705.2 514.617 1705.02 526.827C1704.9 542.075 1706.74 554.19 1710.51 563.173C1714.51 571.877 1719.52 575.901 1725.54 575.242C1732.82 574.447 1739.72 567.853 1746.23 555.46C1752.78 543.317 1757.04 528.885 1759.02 512.163C1760.15 503.914 1765.73 500.384 1775.77 501.572C1785.75 502.259 1793.32 506.51 1798.49 514.324C1801.8 519.041 1802.96 523.866 1801.98 528.798ZM1649.31 508.538C1649.72 496.05 1650.76 485.78 1652.42 477.726C1645.54 472.892 1637.59 470.968 1628.55 471.955C1619.52 472.943 1611.84 478.225 1605.53 487.803C1599.43 497.103 1595.52 510.1 1593.79 526.795C1592.03 545.524 1593.53 560.469 1598.31 571.627C1603.08 582.786 1609.86 587.886 1618.65 586.926C1638.22 584.787 1648.4 559.424 1649.18 510.837C1649.15 510.586 1649.11 510.21 1649.06 509.708C1649.25 509.179 1649.34 508.789 1649.31 508.538Z" fill="#01FF5E"/>
<path d="M1918.95 427.346C1913.08 434.082 1907.69 443.94 1902.76 456.922C1898.3 469.597 1895.34 481.983 1893.87 494.079C1892.33 510.244 1893.16 523.612 1896.35 534.183C1899.78 544.726 1904.64 549.655 1910.91 548.969C1918.69 548.119 1924.57 542.652 1928.55 532.568C1932.75 522.205 1936.13 506.726 1938.71 486.131C1939.84 477.881 1945.42 474.351 1955.45 475.54C1965.48 476.729 1973.2 481.091 1978.59 488.627C1981.62 493.121 1982.66 497.959 1981.7 503.142C1975.96 534.242 1966.77 558.226 1954.14 575.097C1941.51 591.967 1924.53 601.568 1903.2 603.899C1883.13 606.093 1866.21 598.801 1852.44 582.023C1838.64 564.994 1832.67 539.365 1834.51 505.137C1835.84 482.392 1840.62 462.316 1848.88 444.908C1836.78 448.009 1825.4 449.633 1814.75 449.781C1811.98 473.192 1808.04 497.618 1802.95 523.06C1801.57 531.337 1795.55 534.281 1784.87 531.892C1775.76 529.841 1768.63 525.034 1763.49 517.47C1761.02 513.423 1759.95 509.477 1760.29 505.631C1763.78 470.207 1765.5 447.546 1765.43 437.65C1755.52 430.608 1749.24 421.899 1746.58 411.525C1743.67 401.178 1743.88 391.505 1747.22 382.507C1750.52 373.258 1756.24 365.142 1764.36 358.16C1772.71 350.899 1782.15 346.693 1792.69 345.541C1802.98 344.417 1809.6 346.868 1812.54 352.894C1815.76 359.144 1817.58 372.277 1817.99 392.293L1818.14 400.656C1829.63 401.178 1841.42 399.889 1853.52 396.789C1865.85 393.41 1876.13 388.731 1884.37 382.753C1889.31 379.165 1895.44 380.654 1902.76 387.218C1910.05 393.531 1915.15 400.718 1918.06 408.779C1920.98 416.841 1921.27 423.03 1918.95 427.346Z" fill="#01FF5E"/>
<path d="M1902.26 614.345C1927.85 611.548 1944.28 562.013 1951.53 465.743C1954.32 433.188 1955.14 411.642 1953.99 401.103C1953.94 396.029 1954.13 391.946 1954.55 388.852C1955.39 384.951 1956.37 382.304 1957.49 380.913C1958.58 379.27 1961.29 376.181 1965.62 371.644C1979.39 358.205 1991.36 356.261 2001.55 365.813C2011.68 374.863 2016.88 391.054 2017.14 414.387C2017.76 487.451 2007.45 547.617 1986.21 594.885C1965.02 642.654 1939.36 668.059 1909.22 671.099C1896.9 672.192 1885.46 669.761 1874.9 663.804C1864.1 657.875 1856.99 649.764 1853.58 639.472C1849.56 625.945 1850.52 613.779 1856.45 602.973C1860.62 594.646 1865.44 592.341 1870.93 596.058C1871.21 596.282 1872.39 597.803 1874.47 600.622C1877.06 605.672 1880.24 609.26 1884.03 611.386C1887.57 613.538 1893.64 614.525 1902.26 614.345ZM1958.97 300.381C1957.96 291.097 1961.61 282.699 1969.93 275.187C1978.48 267.397 1990.69 263.015 2006.59 262.04C2014.89 261.386 2022.29 264.005 2028.78 269.899C2035.26 275.792 2036.78 283.879 2033.33 294.159C2030.64 302.071 2025.4 309.881 2017.61 317.588C2009.54 325.073 2000.49 329.363 1990.45 330.46C1982.92 331.283 1976.08 329.111 1969.93 323.942C1963.75 318.523 1960.1 310.67 1958.97 300.381Z" fill="#01FF5E"/>
<path d="M2167.04 411.584C2165.38 433.603 2156.45 451.846 2140.26 466.312C2124.79 480.446 2105.96 490.503 2083.76 496.485C2093.66 510.385 2109.27 516.169 2130.6 513.838C2147.16 512.028 2160.4 504.232 2170.32 490.451C2180.24 476.67 2186.21 461.544 2188.22 445.073C2189.12 437.102 2194.69 433.447 2204.92 434.106C2214.68 435.071 2222.36 439.183 2227.98 446.441C2231.29 451.158 2232.48 456.233 2231.55 461.667C2226.01 489.952 2214.06 514.238 2195.71 534.527C2177.78 554.008 2154.88 565.271 2127.03 568.315C2108.46 570.345 2090.96 568.195 2074.52 561.865C2057.78 555.061 2044.09 543.608 2033.44 527.504C2023.04 511.373 2017.77 492.143 2017.61 469.814C2017.87 432.712 2026.14 403.749 2042.4 382.927C2058.66 362.105 2080.09 350.24 2106.69 347.333C2128.32 345.476 2144.17 351.108 2154.24 364.228C2164.81 377.293 2169.08 393.078 2167.04 411.584ZM2099.9 400.258C2092.88 401.026 2086.87 406.506 2081.89 416.7C2077.14 426.615 2074.57 440.354 2074.21 457.915C2085.36 455.426 2094.78 450.969 2102.46 444.543C2110.13 438.118 2114.84 431.255 2116.59 423.954C2118.13 417.183 2117.12 411.453 2113.56 406.763C2109.98 401.823 2105.42 399.654 2099.9 400.258Z" fill="#01FF5E"/>
<path d="M2275.58 300.937L2295.9 298.715C2304.94 297.728 2309.23 303.352 2308.79 315.589C2308.35 327.826 2303.86 338.982 2295.31 349.058C2290.34 354.68 2285.59 357.738 2281.08 358.232C2270.54 359.384 2263.88 359.985 2261.09 360.036C2257.62 379.459 2255.53 396.32 2254.81 410.619C2253.92 423.413 2253.54 435.009 2253.66 445.407C2254.03 455.777 2254.73 464.462 2255.75 471.461C2257.01 478.432 2258.54 484.233 2260.31 488.863C2262.09 493.494 2263.98 496.842 2265.98 498.909C2268.24 500.948 2270.62 501.83 2273.13 501.556C2280.91 500.706 2287.68 494.125 2293.44 481.814C2299.91 468.919 2303.9 454.389 2305.44 438.224C2306.57 429.974 2312.15 426.444 2322.18 427.633C2332.22 428.822 2339.93 433.184 2345.32 440.72C2348.35 445.214 2349.39 450.052 2348.43 455.235C2336.5 517.991 2309.71 551.645 2268.05 556.198C2243.96 558.831 2225.5 547.898 2212.67 523.4C2199.83 498.902 2193.72 462.75 2194.34 414.943C2194.46 395.124 2195.82 375.042 2198.42 354.697C2191.51 351.897 2184.37 345.821 2177 336.469C2169.13 327.172 2166.26 319.487 2168.39 313.414C2170.24 307.118 2176.17 304.438 2186.17 305.376C2193.86 306.059 2200.87 306.308 2207.2 306.125C2211.22 289.434 2215.84 275.978 2221.07 265.757C2226.56 255.508 2231.32 250.29 2235.36 250.102C2245.42 249.256 2257.1 251.535 2270.39 256.939C2282.87 261.923 2288.11 266.936 2286.12 271.978C2283.19 277.632 2279.67 287.285 2275.58 300.937Z" fill="#01FF5E"/>
<path d="M2572.18 445.416C2560.25 508.172 2533.46 541.826 2491.8 546.379C2469.97 548.765 2452.62 541.012 2439.74 523.12C2425.27 544.002 2407.74 555.567 2387.16 557.816C2377.88 558.83 2368.61 557.685 2359.36 554.379C2350.09 550.822 2341.05 544.826 2332.26 536.392C2323.72 527.93 2317.27 516.573 2312.92 502.321C2308.32 488.096 2306.41 470.656 2307.2 450.001C2309.18 417.027 2317.61 390.714 2332.47 371.06C2347.56 351.128 2367.52 339.804 2392.37 337.089C2407.95 335.639 2423.26 339.806 2438.3 349.59C2446.54 336.754 2457.65 330.334 2471.62 330.331C2480.79 330.599 2487.58 333.538 2492.01 339.149C2496.65 344.481 2497.66 350.212 2495.03 356.34C2490.94 365.42 2486.53 379.615 2481.78 398.924C2477.6 416.395 2475.41 431.235 2475.22 443.445C2475.11 458.693 2476.94 470.808 2480.72 479.791C2484.71 488.495 2489.72 492.519 2495.75 491.86C2503.02 491.065 2509.92 484.471 2516.44 472.077C2522.98 459.935 2527.25 445.503 2529.23 428.781C2530.36 420.532 2535.94 417.002 2545.97 418.19C2555.95 418.877 2563.52 423.128 2568.7 430.942C2572 435.659 2573.17 440.484 2572.18 445.416ZM2419.51 425.156C2419.93 412.668 2420.96 402.398 2422.62 394.344C2415.74 389.51 2407.79 387.586 2398.76 388.573C2389.72 389.561 2382.05 394.843 2375.73 404.421C2369.64 413.721 2365.72 426.718 2363.99 443.413C2362.23 462.142 2363.74 477.086 2368.51 488.245C2373.29 499.404 2380.07 504.504 2388.85 503.544C2408.42 501.405 2418.6 476.042 2419.38 427.455C2419.36 427.204 2419.32 426.828 2419.26 426.326C2419.46 425.797 2419.54 425.407 2419.51 425.156Z" fill="#01FF5E"/>
</svg>
