<svg width="701" height="515" viewBox="0 0 701 515" fill="none" xmlns="http://www.w3.org/2000/svg">
<path d="M345.76 321.027L29.1333 4.39999C34.7322 2.06666 40.8 0.665588 47.3306 0.665588H653.997C660.065 0.665588 665.898 1.83226 671.263 3.93119L354.169 321.025C351.836 323.358 348.102 323.358 345.768 321.025L345.76 321.027Z" fill="white"/>
<path d="M279.267 304L69.2666 514H47.3346C21.668 514 0.667969 493 0.667969 467.333V47.3333C0.667969 40.8021 2.06904 34.7344 4.40237 29.136L279.267 304Z" fill="white"/>
<path d="M582.6 514H118.733L304 328.733L321.031 345.764C328.963 353.696 339.463 357.665 349.963 357.665C360.463 357.665 370.963 353.696 378.895 345.764L396.629 328.035L582.603 514.008L582.6 514Z" fill="white"/>
<path d="M700.667 47.3333V467.333C700.667 493 679.667 514 654 514H632.068L421.375 303.307L696.468 28.2C699.27 34.0333 700.666 40.5645 700.666 47.336L700.667 47.3333Z" fill="white"/>
</svg>
