<svg width="166" height="61" viewBox="0 0 166 61" fill="none" xmlns="http://www.w3.org/2000/svg">
<path d="M0.334961 56.9055C6.36164 41.4985 10.9598 25.8212 14.1294 9.87366L30.1335 7.23826L27.8568 32.0381L34.0843 9.13035L49.4859 6.42737C47.6555 21.1135 46.7404 34.3581 46.7404 46.1611C46.7404 48.5037 46.7627 50.8238 46.8073 53.1213L33.0799 55.554L35.4906 25.9564L26.7184 58.73L19.3525 59.7436L23.772 18.1177L14.2633 55.0134L0.334961 56.9055Z" fill="#1F2E98"/>
<path d="M41.9883 53.912C46.6578 41.8035 50.4378 30.1309 53.3284 18.8942L67.8133 16.4241C66.1615 26.2078 65.4151 37.7835 65.5739 51.1513L55.4726 53.5246L56.1873 47.4703L52.9949 48.1L51.9943 52.3622L41.9883 53.912ZM56.9497 40.9801L59.1414 22.6721H59.0938L54.6149 41.4161L56.9497 40.9801Z" fill="#1F2E98"/>
<path d="M70.1192 15.8254L80.3341 13.925C77.4834 24.8921 75.286 35.0079 73.7419 44.2725L84.1943 42.669L83.3035 53.7153C77.9189 54.1904 71.0892 55.5563 62.8145 57.8131L70.1192 15.8254Z" fill="#1F2E98"/>
<path d="M105.917 5.59424C110.77 5.59424 114.204 8.27741 116.218 13.6438C117.271 16.4179 117.798 19.4649 117.798 22.7848C117.798 25.9682 117.317 29.4245 116.355 33.1536C114.661 39.5205 111.731 45.3871 107.565 50.7534C102.483 57.3022 97.1033 60.5766 91.4261 60.5766C86.5273 60.5766 83.0477 57.8934 80.9874 52.5271C79.9802 49.8894 79.4766 46.9333 79.4766 43.6589C79.4766 40.43 79.9802 36.9283 80.9874 33.1536C82.6814 26.7413 85.5887 20.852 89.7092 15.4856C94.7912 8.89136 100.194 5.59424 105.917 5.59424ZM103.444 22.5119C100.926 22.5119 98.3624 24.5584 95.7527 28.6514C93.6466 31.8803 92.1816 35.041 91.3575 38.1334C90.9454 39.7706 90.7394 41.2486 90.7394 42.5675C90.7394 44.4321 91.1972 45.9556 92.1129 47.138C93.1659 48.4568 94.631 49.1163 96.5081 49.1163C99.072 49.1163 101.384 47.7747 103.444 45.0915C105.093 42.954 106.283 40.43 107.016 37.5195C107.885 34.1087 108.069 30.7433 107.565 27.4235C107.016 24.1491 105.642 22.5119 103.444 22.5119Z" fill="#1F2E98"/>
<path d="M128.944 18.9233C131.82 18.9233 133.936 20.4672 135.291 23.5551L130.603 28.6376C129.967 27.9818 129.234 27.6539 128.405 27.6539C126.939 27.6539 125.418 28.8972 123.841 31.3839C122.541 33.4333 121.697 35.3461 121.31 37.1223C121.117 37.9694 121.02 38.7345 121.02 39.4177C121.02 41.2485 121.697 42.5055 123.053 43.1886C123.495 43.4072 123.965 43.5165 124.463 43.5165C125.902 43.5165 127.409 42.4645 128.985 40.3604L130.313 45.238C127.575 48.2439 124.795 49.7468 121.974 49.7468C119.098 49.7468 116.996 48.2439 115.668 45.238C114.866 43.4892 114.465 41.5354 114.465 39.3767C114.465 37.7918 114.672 36.1112 115.087 34.3351C115.917 30.7007 117.493 27.3807 119.817 24.3748C122.61 20.7405 125.653 18.9233 128.944 18.9233Z" fill="#1F2E98"/>
<path d="M126.129 54.0602C131.949 39.2131 136.66 24.9004 140.263 11.1223L158.317 8.09351C156.259 20.09 155.328 34.2838 155.526 50.6751L142.936 53.5851L143.827 46.1615L139.848 46.9336L138.6 52.1598L126.129 54.0602ZM144.777 38.2035L147.509 15.7546H147.449L141.867 38.738L144.777 38.2035Z" fill="#1F2E98"/>
<path d="M8.01855 52.2952C14.0452 36.8883 18.6434 21.211 21.8129 5.26343L37.8171 2.62803L35.5404 27.4278L41.7679 4.52012L57.1694 1.81714C55.3391 16.5033 54.424 29.7479 54.424 41.5509C54.424 43.8935 54.4463 46.2135 54.4909 48.5111L40.7635 50.9437L43.1742 21.3461L34.402 54.1197L27.0361 55.1334L31.4556 13.5075L21.9469 50.4032L8.01855 52.2952Z" fill="#FF5379"/>
<path d="M49.6719 49.3019C54.3413 37.1934 58.1214 25.5207 61.012 14.284L75.4969 11.8139C73.8451 21.5976 73.0987 33.1733 73.2575 46.5411L63.1562 48.9144L63.8709 42.8601L60.6785 43.4898L59.6779 47.752L49.6719 49.3019ZM64.6332 36.37L66.825 18.0619H66.7774L62.2985 36.8059L64.6332 36.37Z" fill="#FF5379"/>
<path d="M77.8028 11.2152L88.0177 9.31476C85.167 20.2818 82.9696 30.3977 81.4255 39.6623L91.8779 38.0588L90.9871 49.1051C85.6025 49.5802 78.7728 50.9461 70.498 53.2029L77.8028 11.2152Z" fill="#FF5379"/>
<path d="M113.599 0.98407C118.452 0.98407 121.886 3.66725 123.901 9.0336C124.954 11.8077 125.48 14.8547 125.48 18.1746C125.48 21.358 124.999 24.8143 124.038 28.5435C122.344 34.9103 119.414 40.7769 115.248 46.1433C110.166 52.692 104.786 55.9664 99.1088 55.9664C94.2099 55.9664 90.7303 53.2833 88.67 47.9169C87.6628 45.2792 87.1592 42.3232 87.1592 39.0488C87.1592 35.8199 87.6628 32.3181 88.67 28.5435C90.364 22.1311 93.2713 16.2418 97.3919 10.8754C102.474 4.28119 107.876 0.98407 113.599 0.98407ZM111.127 17.9017C108.609 17.9017 106.045 19.9482 103.435 24.0412C101.329 27.2701 99.8642 30.4308 99.0401 33.5233C98.628 35.1604 98.422 36.6385 98.422 37.9573C98.422 39.8219 98.8798 41.3454 99.7955 42.5278C100.849 43.8467 102.314 44.5061 104.191 44.5061C106.755 44.5061 109.067 43.1645 111.127 40.4813C112.775 38.3439 113.966 35.8199 114.698 32.9093C115.568 29.4985 115.751 26.1332 115.248 22.8133C114.698 19.5389 113.325 17.9017 111.127 17.9017Z" fill="#FF5379"/>
<path d="M136.628 14.3131C139.504 14.3131 141.62 15.857 142.975 18.9448L138.287 24.0274C137.651 23.3716 136.918 23.0437 136.088 23.0437C134.622 23.0437 133.101 24.287 131.525 26.7737C130.225 28.8231 129.381 30.7359 128.994 32.5121C128.8 33.3592 128.703 34.1243 128.703 34.8074C128.703 36.6382 129.381 37.8952 130.736 38.5784C131.179 38.797 131.649 38.9063 132.147 38.9063C133.585 38.9063 135.092 37.8542 136.669 35.7502L137.997 40.6278C135.258 43.6336 132.479 45.1366 129.658 45.1366C126.781 45.1366 124.679 43.6336 123.352 40.6278C122.549 38.879 122.148 36.9252 122.148 34.7664C122.148 33.1815 122.356 31.501 122.771 29.7248C123.6 26.0905 125.177 22.7704 127.5 19.7646C130.294 16.1303 133.336 14.3131 136.628 14.3131Z" fill="#FF5379"/>
<path d="M133.812 49.45C139.632 34.6028 144.343 20.2902 147.946 6.51209L166 3.48328C163.941 15.4798 163.011 29.6736 163.209 46.0648L150.618 48.9749L151.509 41.5513L147.53 42.3233L146.283 47.5495L133.812 49.45ZM152.46 33.5932L155.191 11.1444H155.132L149.549 34.1277L152.46 33.5932Z" fill="#FF5379"/>
</svg>
