<svg width="540" height="643" viewBox="0 0 540 643" fill="none" xmlns="http://www.w3.org/2000/svg">
<path d="M429.36 506C437.667 523.803 437.949 543.473 430.152 561.349C422.428 579.037 407.636 593.385 387.334 602.86L316.845 635.761C307.465 640.147 297.408 642.272 287.444 642.272C270.526 642.272 253.772 636.136 240.522 624.376C168.028 560.001 108.058 479.589 67.0823 391.816C25.5517 302.846 3.05566 207.829 0.254325 109.456C-0.563382 81.3157 15.281 55.5077 40.6183 43.6531L119.228 6.97038C136.192 -0.915086 155.206 -1.75882 172.754 4.61625C190.322 11.0121 204.348 23.8669 212.26 40.8043L251.718 125.388C268.052 160.367 252.864 202.107 217.885 218.419L168.978 241.236C171.942 272.575 180.364 303.512 193.921 332.611C207.452 361.57 225.676 387.819 248.104 410.59L296.822 387.559C313.786 379.647 332.801 378.83 350.349 385.205C367.917 391.601 381.942 404.455 389.854 421.393L429.313 505.977L429.36 506ZM347.177 128.093C334.907 124.265 321.792 131.151 317.989 143.468C314.161 155.786 321.047 168.853 333.364 172.656C357.187 180.031 376.692 196.244 388.312 218.317C399.932 240.369 402.265 265.635 394.869 289.437C391.041 301.755 397.927 314.823 410.244 318.625C412.557 319.349 414.89 319.677 417.176 319.677C427.114 319.677 436.359 313.261 439.458 303.251C450.541 267.527 447.041 229.636 429.609 196.548C412.176 163.46 382.921 139.147 347.197 128.064L347.177 128.093ZM374.828 38.9373C362.557 35.0624 349.443 41.9947 345.64 54.312C341.812 66.6297 348.697 79.6973 361.015 83.5C408.64 98.2707 447.651 130.703 470.889 174.828C494.129 218.953 498.775 269.468 484.004 317.095C480.176 329.412 487.061 342.48 499.379 346.283C501.691 347.007 504.024 347.335 506.311 347.335C516.248 347.335 525.493 340.918 528.592 330.908C566.696 208.012 497.723 77.0414 374.845 38.9081L374.828 38.9373Z" fill="white"/>
</svg>
