<svg xmlns="http://www.w3.org/2000/svg" width="160" height="50" viewBox="0 0 160 50">
  <title>Holzmarkt25</title>
  <g id="holzmarkt">
    <path class="cls-1" d="M94.27,16.25,95.44,16l3-.63h.36l.11,0,.08.09.06.23,0,.12,0,.24,0,.12,0,.12,0,.11,0,.12,0,.12v.12l0,.12v2.48l0,.12v1.89l0,.12,0,.12,0,.11v.83l0,.12,0,.12v.83l0,.12,0,.11V25.7l0,.12v.12l0,.12,0,.12,0,.12,0,2,0,.12,0,.12,0,.24,0,.11,0,.36,0,.12v.23l0,.12,0,.12,0,.12,0,.12,0,.59,0,.12v.83l0,.12,0,.36,0,.12,0,.11v.72l0,.12v.12l0,.11,0,.12v1.81l-.06.12-.08.1-.1.07-.12,0-.48,0-.24,0-.12,0h-.11l-.12,0-.12,0-.36,0-.23,0-.13,0-.12-.06-.1-.07-.12-.23V31.77l0-.12,0-.12,0-.11,0-.12,0-1.43,0-.11,0-2.14,0-.12,0-.12,0-.24,0-.12,0-.12,0-.83,0-.12V24.29l0-.11,0-.24,0-.12,0-.12,0-.36V23.1l0-.11,0-.12,0-.12,0-.12,0-.12v-.12l0-.12,0-2.74,0-.12,0-.36h0l-.07-.23-.18-.13-.12,0H96l-.1.05h-.12l-.33.11-.23,0-.11,0-.23,0-.1,0-.24,0-.1.05-.68.17h-.12l-.11,0-.19.15-.12.2,0,.11V20l0,.11v.12l0,.12,0,.12,0,1.53,0,.12,0,.12v.47l0,.12v.71l0,.12,0,1.41,0,.12,0,.24,0,.47,0,.12v.24l0,.12,0,.11,0,.12,0,.12V27l0,.12V28l0,.12,0,.23,0,.12v.12l0,.12V30l0,.12,0,1.06,0,.12,0,1.19,0,.12v.48l0,.11,0,.12,0,.12,0,.12,0,.13,0,.12-.08.1-.11.08-.11,0h-1l-.11,0h-.84l-.23-.13-.08-.11,0-.12V33l0-.11V30.4l0-.12,0-.24,0-.12v-.47l0-.12,0-.11,0-.24,0-.12,0-.12,0-.59,0-.12,0-.12v-.23l0-.12v-.24l0-.11,0-3.19,0-.12,0-.83,0-.12,0-.12,0-.35,0-.24,0-.24,0-.12,0-.71,0-.12,0-.24,0-.23,0-.12,0-.12,0-.24,0-.12v-.12l0-.12,0-.12-.13-.19-.09-.08-.11-.06-1-.24L89,19h-.12l-1.24-.32h-.12l-.22.07-.11.2,0,.12,0,.82,0,.12v.71l0,.12,0,.47,0,.12,0,1.78,0,.12,0,.12,0,.12v2.14l0,.11v.48l0,.12,0,.35,0,.12v.24l0,.24,0,.12v.24l0,.11,0,.12v.48l0,.12,0,.95,0,.11v.12l0,.12,0,.12,0,.12,0,.35,0,.12,0,.24,0,.12,0,.6,0,.11,0,.48,0,.12v1.31l0,.12,0,.12,0,.12,0,.6,0,.12,0,.6-.06.25-.08.1-.23.11-.12,0h-.12l-.12,0h-.11l-.12,0-.12,0h-.71l-.12,0-.12,0-.12,0h-.13l-.11,0-.1-.08-.14-.22,0-.61,0-.11V33l0-.12,0-1.89,0-.11v-2l0-.12v-.35l0-.12V26.1l0-.12,0-.12,0-.12,0-.12,0-.11v-.36l0-.12,0-.47,0-.12V20.53l0-.12V18.87l0-.12V17.56l0-.12,0-.24,0-.12,0-.12,0-.12,0-.12,0-1.08,0-.11.09-.08.11-.06.11,0,.59.1.11.05.58.12h.12l.35.08h.12L88,16h.12l.11,0,.24,0,.23.07h.12l.11.05.36,0,.11.06h.12l.11,0,.24,0,.11,0,.35.05.12,0,.24,0,.11,0,.24,0,.11.05.6.06.12,0,.12,0,.12,0,.11,0h.13l.11,0,.93-.17Z"></path>
    <path class="cls-1" d="M109.85,19c.25,1.15.5,2.33.79,3.46l.56,2.43c.08.42.17.85.26,1.28l.55,2.42c.25,1,.46,2.09.74,3.13l.42,1.86a.4.4,0,0,1-.39.48l-.59,0-.12,0-.82,0-.12,0L111,34h-.36l-.11,0-.19-.13-.09-.09-.21-.8v-.12l-.07-.23,0-.24,0-.11v-.12l-.07-.23v-.13l0-.11,0-.12v-.12l-.34-1.52-.07-.35h0l0-.12-.06-.1a.63.63,0,0,0-.51-.28h-2.57l-.12,0-.24,0-.23,0h-.47L105,29l-.35.06a.64.64,0,0,0-.33.32l0,.11-.4,1.95,0,.11-.23,1.15,0,.11-.08.47-.12.33-.19.14-.2.11-1.92,0-.24-.05-.09-.08-.06-.23V33.4l0-.12,0-.11v-.12l.18-.69v-.12l0-.11V32l.18-.69V31.2l.07-.22v-.13l.08-.22,0-.24,0-.11.11-.46V29.7l.58-2.55.05-.11v-.12l.06-.11v-.12l.33-1.39v-.12l0-.11V25l.11-.46v-.12l0-.11.18-.81v-.12l0-.11.09-.47,0-.11,0-.12.06-.23v-.12l.08-.23v-.12l.15-.69,0-.11.19-.94,0-.11,0-.12v-.12l0-.11.33-1.52,0-.11v-.12l.1-.47.19-.31.09-.08.11-.05.23,0,.12,0h1.43l.12,0h1.08l.12,0h.12l.12,0,.12,0,.12,0,.12,0,.11,0,.48,0C109.61,17,109.83,18.48,109.85,19Zm-4.75,6.72a.37.37,0,0,0,0,.23l.15.19.11.05h.24l.11,0,.12,0h2.44l.11-.06.09-.08.07-.09,0-.12-.1-.47v-.12l-.62-2.89v-.12l-.27-1.15V21l-.25-1-.06-.09-.17-.14-.1,0-.12,0-.4.2-.09.07-.07.09-.22.91C105.78,22.58,105.44,24.18,105.1,25.76Z"></path>
    <polygon class="cls-1" points="129.31 23.73 129.36 23.95 129.51 24.11 129.6 24.17 129.71 24.21 131.32 24.17 131.62 23.95 131.75 23.75 132 22.96 132.06 22.85 132.07 22.73 132.14 22.63 132.31 22.06 132.37 21.96 132.6 21.29 132.62 21.17 132.66 21.06 132.72 20.95 132.89 20.38 132.95 20.28 132.96 20.16 133.2 19.48 133.26 19.38 133.28 19.26 133.34 19.16 133.36 19.04 133.51 18.58 133.56 18.48 133.7 18.02 133.77 17.92 134.38 16.23 134.57 16.07 134.68 16.01 136.21 15.91 136.33 15.88 136.69 15.88 136.8 15.86 137.02 15.91 137.11 15.98 137.16 16.19 137.14 16.3 136.87 17.08 136.81 17.18 136.69 17.52 136.67 17.64 135.95 19.64 135.89 19.74 135.87 19.86 135.81 19.96 135.79 20.08 135.73 20.18 135.61 20.51 135.59 20.63 135.41 21.07 135.4 21.19 134.08 24.87 134.01 24.97 133.81 25.53 133.76 25.99 133.84 26.45 133.9 26.55 134.35 27.64 134.37 27.77 134.49 27.97 134.52 28.09 134.58 28.19 134.61 28.31 134.67 28.41 135.49 30.38 135.51 30.5 135.73 31.05 135.8 31.15 135.92 31.48 135.98 31.59 136.42 32.69 136.49 32.79 136.51 32.91 136.62 33.12 136.69 33.35 136.76 33.45 136.78 33.57 136.94 33.89 136.96 34.01 137.03 34.11 137.07 34.23 137.17 34.44 137.19 34.56 137.24 34.66 137.23 34.77 137.2 34.88 137.01 34.99 136.9 35 136.78 34.97 136.53 34.98 136.41 34.95 135.8 34.95 135.68 34.91 135.56 34.93 135.44 34.9 135.32 34.92 135.19 34.89 135.07 34.91 134.7 34.87 134.48 34.76 134.29 34.61 134.14 34.41 134.05 34.19 134.03 34.07 133.87 33.75 133.85 33.63 133.79 33.52 133.42 32.52 133.35 32.42 133.04 31.64 133.02 31.52 132.49 30.19 132.43 30.09 132.41 29.97 132.32 29.75 132.25 29.65 132.18 29.42 132.03 29.09 132.01 28.97 131.94 28.87 131.92 28.75 131.81 28.53 131.78 28.41 131.72 28.31 131.7 28.19 131.63 28.09 131.6 27.97 131.56 27.85 131.5 27.75 131.45 27.63 131.28 27.45 130.95 27.3 130.83 27.3 130.72 27.28 130.6 27.29 130.49 27.27 130.27 27.3 129.82 27.28 129.57 27.34 129.47 27.42 129.38 27.52 129.31 27.76 129.31 29.65 129.34 29.77 129.31 29.88 129.34 30 129.33 30.83 129.31 30.95 129.33 31.07 129.32 31.42 129.33 31.54 129.32 31.77 129.33 31.89 129.3 32.01 129.33 32.13 129.34 33.91 129.31 34.03 129.32 34.28 129.18 34.5 129.07 34.56 128.95 34.6 127.03 34.54 126.74 34.35 126.65 34.15 126.63 33.92 126.65 33.8 126.65 33.57 126.63 33.45 126.65 33.33 126.63 33.21 126.66 33.09 126.63 32.5 126.65 32.38 126.65 31.56 126.63 31.44 126.65 31.08 126.64 30.96 126.66 30.84 126.65 30.13 126.63 30.01 126.63 29.89 126.65 29.77 126.63 29.66 126.64 28.83 126.63 28.71 126.65 28 126.63 27.88 126.65 26.69 126.63 26.57 126.63 26.45 126.65 26.33 126.63 26.21 126.65 21.46 126.63 21.34 126.65 21.23 126.64 21.11 126.66 20.99 126.63 19.56 126.65 19.44 126.63 17.29 126.65 17.17 126.63 17.05 126.66 16.81 126.64 16.69 126.74 16.49 126.92 16.35 127.02 16.31 127.38 16.29 127.5 16.3 128.82 16.22 128.95 16.24 129.07 16.28 129.26 16.45 129.33 16.82 129.31 16.94 129.33 17.3 129.32 17.41 129.33 17.53 129.31 17.65 129.33 17.77 129.3 17.89 129.34 18 129.31 18.12 129.31 18.24 129.33 18.36 129.31 21.1 129.33 21.22 129.31 21.46 129.33 21.58 129.31 21.81 129.33 22.05 129.31 22.17 129.34 22.41 129.31 22.53 129.33 23.25 129.31 23.37 129.33 23.49 129.31 23.73 129.31 23.73"></polygon>
    <path class="cls-1" d="M147,15.3l.25.06.19.16.07.24,0,.12V16l0,.12,0,.12v1l0,.12,0,.24,0,.12v.12l0,.12v.24h0v.11l-.05.1-.14.18-.09.06-.21.06-2.26.09-.1,0-.16.14-.08.09,0,.11v.23l0,.11,0,2.84,0,.12v.12l0,.11,0,.24,0,.12,0,.12v1.06l0,.12v.71l0,.12v.12l0,.12,0,.11,0,.12,0,.24,0,.12,0,.23,0,.12,0,.12,0,.36,0,.23,0,.12v3.08l0,.12,0,.23v.12l0,.12,0,.24,0,.11,0,.12,0,.12,0,.36,0,.12,0,1.42,0,.12,0,.12,0,.12,0,.24,0,.12v.83l0,.13-.06.11-.18.18h-1.33l-.12,0h-.24l-.12,0-.12,0-.22-.07-.1-.06-.16-.29,0-1.76,0-.12,0-.23,0-.24,0-.12V32l0-.12,0-2.95,0-.12,0-1.18,0-.12V24.23l0-.12V24l0-.12,0-.35,0-.12v-.12l0-.71,0-.12v-.12l0-.11,0-.72,0-.12,0-.23,0-.12,0-.24,0-.24,0-.12V20l0-.12,0-.48,0-.13,0-.12-.08-.1-.11-.07-.25-.06-.93.05-.11,0-.35,0-.12,0-.11,0-.12,0-.11,0-.24,0-.23,0-.24,0-.12,0-.1-.07-.09-.09,0-.12,0-.12v-.12l0-.12,0-.11,0-.12,0-.46,0-.12,0-.12v-.81l0-.12,0-.12v-.11l0-.11.06-.1.08-.08.2-.1h.23l.12,0h.24l.11,0,.71,0,.12,0,.94-.08.12,0h.11l.12,0,.12,0,1.53-.11.12,0,.11,0,.48,0Z"></path>
    <path class="cls-1" d="M44.63,34.53v.11l0,.1-.12.19-.09.06-.22,0-.47,0-.12,0h-.12l-.71.05h-.12l-.11,0-.25-.07-.18-.17,0-.12,0-.71L42,34l0-.12,0-.12,0-.24,0-.23V33l0-.12,0-.12,0-.12,0-.12,0-.48,0-.11,0-.12,0-.48,0-.12,0-.12L42,31l0-1.67,0-.12L42,28l0-.12v-.13l0-.12-.08-.1-.1-.08-.12-.05-1.09,0-.12,0-.48,0-.12,0-1,0-.12,0-.73,0-.23.11-.08.11,0,.12,0,.72,0,.12,0,.12v.11l0,.12v.24l0,.12,0,1.65,0,.12,0,.12,0,.12v.59l0,.12v.12l0,.12,0,.6V33l0,.36,0,.12v.83l0,.12V35l-.09.2-.19.12-.2.09-.12,0-.24,0h-.11l-.12,0-.12,0-.95.08H35.4l-.13,0-.09-.08-.08-.1L35,35.21V34l0-.12,0-.12,0-.24,0-.11,0-.83,0-.12,0-.23,0-.12V32l0-.12v-.12l0-.11,0-.24,0-.12,0-.94,0-.12V30l0-.12,0-.23,0-.12,0-1,0-.12,0-1.3,0-.12v-7l0-.12,0-.11,0-.12,0-.24,0-.12,0-.12V18.15L35,18v-.71l0-.12v-.12L35,17l0-.12,0-.12,0-.24,0-.12,0-.23L35,16l0-.13v-.24l.05-.12.09-.09.22-.13,1.89.13.1,0,.09.06.14.18.05.22v.47l0,.12v.35l0,.12,0,.24,0,.12,0,.11,0,.12,0,.35,0,.12,0,1.42,0,.12,0,.12,0,.12v.23l0,.12,0,1.19v.12l0,.11,0,1.19,0,.12,0,.24,0,.12,0,.12,0,.12.06.37.08.11.22.12h1.69l.12,0h1l.12,0,.24,0,.24,0,.25,0,.11,0,.11-.07.12-.22V22l0-.11,0-1.19,0-.12V17.25l0-.12V17l0-.11,0-.36,0-.12,0-.12,0-.25,0-.11.09-.1.1-.06.24-.07.11,0,.12,0,.71.07.12,0,.23,0h.12l.46.07.22.25.06.34V19l0,.12,0,.11,0,.12,0,.12,0,1.42,0,.11,0,.12,0,.12v.47l0,.12,0,.12v.82l0,.12,0,.12V24l0,.11,0,.24,0,.12v.71l0,.12,0,.94,0,.12v.12l0,.12,0,.12,0,1.53,0,.12,0,.12V29l0,.12v.71l0,.12,0,1.42,0,.12,0,.24,0,.47,0,.12v.24l0,.11,0,.12,0,.12,0,.12v.24l0,.12v.95l0,.12v.12Z"></path>
    <path class="cls-1" d="M65.8,30.78v.13l0,.11.18.18.12,0,.35,0,.12,0,1.05,0,.12,0,.23,0,.24,0,.12,0,.11,0,.24,0h.13l.21-.15.07-.1,0-.12,0-1.26,0-.12,0-.23v-.11l0-.25.09-.1.22-.14h.13l.11,0,.12,0,.71,0h.11l.12,0,.12,0h.24l.25,0,.17.19,0,.12,0,.25,0,.11,0,.36,0,.12,0,.36,0,.12,0,1.8,0,.12v1.2l0,.13-.07.25-.09.09-.21.14-1,0H70.3l-.12,0h-.59l-.12,0-.12,0-.11,0h-.95l-.12,0-1.42,0-.12,0-.12,0H65.32l-.12,0-.36,0-.11,0H64l-.12,0-.37,0-.11-.06-.1-.07L63.24,34l-.06-.12,0-.12,0-.12,0-.7,0-.12,0-.12,0-.12,0-1.17,0-.12,0-.12,0-.12,0-.23,0-.24,0-.12v-.12l0-.12,0-.11,0-.12,0-.12,0-.47,0-.12,0-.12,0-.47,0-.12,0-.12,0-.11,0-1.66,0-.12,0-1.18,0-.12,0-.12,0-1.53,0-.12V23l0-.12,0-.94,0-.12,0-.83,0-.12v-.95l0-.12,0-.12v-.11l0-.12v-.24l0-.12,0-1.66,0-.12,0-.12.07-.37.09-.09.1-.07.24-.07h.23l.59,0,.12,0,.36,0,.12,0,.34,0,.2.09.09.08.06.1,0,.45,0,.12,0,.35,0,.12,0,.36,0,.11,0,.24,0,.12,0,.12,0,.11,0,1.54,0,.12,0,1.06,0,.12,0,.12,0,.24,0,.11v.83l0,.12,0,.24,0,.12v.11l0,.12V24l0,.12,0,.24,0,.11,0,1,0,.12v.23l0,.12,0,.24,0,.12,0,.94,0,.12,0,1.31,0,.12,0,2Z"></path>
    <path class="cls-1" d="M82.67,17l.12,0,.11.07.06.11v.12l-.58,1.3,0,.12-.35.75-.08.1-.28.65-.07.1-.08.22-.07.1-.1.21,0,.12-.07.1-.34.76-.06.1-.64,1.41-.07.09,0,.12-.27.53,0,.11-1,2,0,.12-.07.1,0,.12-.31.64,0,.11L78,28l0,.12-.73,1.5,0,.11-.1.22L77,30l-.12.34-.12.21,0,.11-.05.12,0,.13.05.11.11.07.25,0,.24,0,.12,0h.12l.12,0H78l.12,0,.12,0,2.26,0,.11,0,.36,0,.12,0,.12,0h.72l.12,0,.12,0h.13l.11.05.19.18.06.25v.6l0,.12,0,1.23,0,.12-.19.18-.12.05-.48,0h-.35l-.24,0-.11,0H80l-.12,0-.23,0-.24,0h-.23l-.24,0-.12,0-.11,0-2.24,0-.12,0-.24,0L76,34l-.11,0-.12,0-.12,0L75,34l-.12,0-.12,0-.12,0-.47,0-.25,0-.11-.06-.19-.16-.07-.48,0-.12,0-.35,0-.11,0-1.41.67-1.65.07-.1,0-.11.12-.21,0-.11.06-.1.19-.44.07-.1.07-.22.07-.1L75,28l.28-.52,0-.12.07-.09,0-.12.42-.84,0-.12.62-1.28.07-.1,0-.12.53-1.06,0-.12.18-.31,0-.12.32-.63,0-.12.36-.74,0-.12.07-.1.29-.65.07-.1,0-.12.07-.1,0-.11.07-.1,0-.22,0-.11-.08-.07-.1,0h-.35l-.12,0-.12,0-.12,0-.24,0-.24,0h-.24l-.12,0-.12,0h-.72l-.12,0-.12,0-.48,0-.12,0-.12,0-.12,0-1,0-.22-.13-.08-.1-.05-.25V19.1l0-.12,0-1.16,0-.12,0-.11v-.36l.06-.11.07-.1.09-.09.25-.06h.59l.11,0h.47l.12,0,.94,0,.12,0h.82l.11,0,1,0,.11,0,.12,0h.12l.12,0h.23l.12,0h1.65L81,17l.12,0,.11,0h.59L82,17l.12,0,.12,0,.48,0Z"></path>
    <path class="cls-1" d="M53.91,16.25h-.12l-.35,0-.24,0h-.12l-.12,0h-.12l-.47.07-.11,0h-.12l-.91.27-.11.06-.12,0-1.53.9-.63.54-1.53,2,0,.12-.48.95-.51,1.58V23l-.05.11v.12l-.17,1.05.12,3.33.06.11.05.35,0,.12v.12l1,2.42.08.09,0,.12.15.19,0,.11,1.05,1.29.62.56.11.05.17.17.51.31.08.08.53.28.11,0,.1.06.23.08.1.06.22.09h.13l.1,0,.93.21.24,0,.11,0h1.31l.11,0,.59-.07.11,0,.35-.06,1.75-.7.1-.08.11,0,.09-.08.11-.06.09-.07.21-.11.84-.65.07-.1.09-.07,1-1.14,0-.11.53-.77a12.62,12.62,0,0,0,.8-1.71l.37-1.37v-.24l0-.11.07-.47v-.12l.05-.35,0-.12,0-.12v-.71l0-.12v-.12l-.12-1,0-.12v-.12l-.63-2-.06-.1-.23-.55-.08-.09-.41-.72-.15-.19,0-.1-.07-.1-.09-.08-.12-.2-.09-.09-.06-.1L59.45,19l-.05-.11-1.32-1.17-.2-.13-.09-.08-.2-.13-.11,0-.2-.13-.11,0-.09-.09-.12,0L56.87,17l-.76-.32-.12,0-.11-.06-.34-.1h-.12l-.11-.05-.46-.08-.11,0-.36,0-.11,0H54l-.12,0Zm0,15.28-.12,0-.59,0-.11,0H53l-.12,0h-.12L51.52,31l-.2-.14-.1-.05-.09-.08L51,30.64l-.18-.16-.1-.07-1.09-1.25-.77-1.73-.19-1.06,0-.11,0-1,0-.12V25l.2-1.3,0-.11v-.12l.06-.1V23.2l0-.11L49,23l.44-1,.14-.2,0-.11.5-.66,1.06-1,.42-.23.09-.08.44-.18.12,0,.21-.1.47-.11h.12l.35-.06h.71l.7.13H55l.1.06.24.05,1.27.64.56.45.08.09.18.16.07.09.1.07.52.66,0,.11.26.4.05.11.07.1,0,.11.06.1.16.45.07.11.36,1.87v.71l0,.12V26l-.31,1.52-.54,1.19-.07.1,0,.11-.09.09,0,.11-.85,1-.19.13-.08.1-1.1.71-.34.11-.1.07-.23.07-.12,0-.34.11-.24,0-.11,0h-.12l-.12,0-.24,0Z"></path>
    <path class="cls-1" d="M124.79,34.13l-.27-.77-.06-.11,0-.12-.18-.44,0-.12-.3-.78,0-.11-.06-.11,0-.11,0-.12-.09-.22,0-.11-.06-.11,0-.12-.35-.88,0-.12-.06-.11-.1-.34-.06-.1-.66-1.79,0-.12-.18-.44,0-.11-.24-.55V26.1l-.07-.1,0-.12-.05-.11,0-.11-.06-.11h0l-.05-.1,0-.22.17-.41h0l.09-.08.06-.09.1-.07.07-.1.1-.08.74-.93a6.27,6.27,0,0,0,.95-2.3l.14-.94V20.1l0-.12v-.12l0-.72V19l0-.12,0-.36,0-.12,0-.72,0-.12,0-.84,0-.12-.1-.1-.24-.09-.12,0-.12,0-.36,0-.12,0-3.57.13h-.12l-.11,0-.12,0-.48.05-.24,0-.12,0-.24,0-.23,0h-.12l-.12,0-.24,0-.12,0H117l-.24,0-.23,0-.12,0h-.12l-.12,0h-.24l-.36,0-.23,0-.24.06-.1.06-.1.07-.06.11,0,.24v.23l0,.12v1.29l0,.12v.24l0,.11,0,.12,0,.24,0,.12,0,4.6,0,.12v.94l0,.12,0,1.54,0,.11,0,.12,0,.12,0,.12,0,4.37,0,.12V33.4l0,.12v.12h0l.06.21.14.21.1.07.2,0v0l.57,0,.12,0,.12,0,.23,0,.11,0h.68l.11,0,.1-.06.07-.08.09-.2v-.1h0l0-.23,0-.24,0-.24v-.11l0-.12V32l0-.12,0-.71,0-.12,0-.23,0-.12v-.24l0-.12,0-.12,0-.83,0-.12V29l.06-.23.11-.21.58-.54.1-.06.07-.1.09-.07-.34.3-.07.09-.26.22-.08.09-.09.07.59-.55.1-.06.41-.41.09-.07.07-.1.1-.06.07-.09.21-.14h.12l.1.05.07.09.24.61,0,.23.07.1.52,1.58.06.1.07.22,0,.12.15.33.06.23,0,.11,0,.12.06.1.06.24,0,.1,0,.12.1.22,0,.12,0,.11.07.1.06.23.06.11v.12l.47,1.36,0,.07.08.08.06.09.18.12.21.09.09,0,.36,0,.12,0,.12,0,.72,0H124l.12,0,.12,0,.24,0h0l.12,0,.11-.06.06-.11v-.12Zm-4.43-11.44h0l-.52.49-.07.09-.1.07-.33.34-.1.06-.59.59-.1.07-.07.1-.08.08-.11.06-.16.17-.09.07L118,25l-.2.11-.11,0-.09-.06L117.5,25l-.06-.22v-.16l0-.12,0-.11,0-.36,0-.12V22l0-.12,0-.47,0-.12,0-.6,0-.11,0-.12,0-.12V20l.08-.23.19-.16.12,0,.7,0,.12,0,1.39,0,.12,0h.7l.12,0,.17.18.07.11,0,.12,0,.11,0,.12-.08.59v.12l0,.11,0,.24-.19.56-.06.1,0,.11-.08.1,0,.11-.34.48Z"></path>
  </g>
  <g id="twentyfive">
    <path d="M19.84,34.89c.09-.28,0-3.52,0-4.77,0-.1-.16-.13-.45-.14a14,14,0,0,1-2.63-.16c-.16-.05-.23-.24-.28-.36a.54.54,0,0,1,.58-.74c.61.06,1.81.1,2.41.15.35,0,.38-.16.38-.16V23.6l-.05-9.29h0c-.87-.12-7.41,1-7.31,2.19a47.44,47.44,0,0,0,.68,4.81s.05.13.14.08a14.8,14.8,0,0,1,4.17-1,.67.67,0,0,1,.67.54c.15.74-.43.84-.73.86a22.23,22.23,0,0,0-3.94.73s-.12,0-.06.4c.18,1.08.66,3.62.66,3.62s1,5.61,1.67,7.81C15.88,34.79,19.76,35.14,19.84,34.89Z"></path>
    <path d="M20.81,34.89c-.09-.28,0-3.52,0-4.77,0-.1.16-.13.46-.14a14,14,0,0,0,2.62-.16c.16-.05.23-.24.28-.36a.54.54,0,0,0-.58-.74c-.61.06-1.81.1-2.41.15-.35,0-.38-.16-.38-.16V23.6l0-9.29h0c.87-.12,7.41,1,7.31,2.19a47.44,47.44,0,0,1-.68,4.81s0,.13-.13.08a14.92,14.92,0,0,0-4.18-1,.66.66,0,0,0-.66.54c-.16.74.43.84.72.86a22.44,22.44,0,0,1,4,.73s.11,0,0,.4c-.18,1.08-.66,3.62-.66,3.62s-1,5.61-1.67,7.81C24.77,34.79,20.89,35.14,20.81,34.89Z"></path>
  </g>
</svg>