<svg width="6001" height="6570" viewBox="0 0 6001 6570" fill="none" xmlns="http://www.w3.org/2000/svg">
<path d="M2366.31 3804.45C2376.91 3679.85 2420.7 3578.24 2497.7 3499.64C2578.37 3419.76 2675.68 3383.71 2789.64 3391.48C2811.68 3151.64 2870.92 3027.43 2967.38 3018.82C3004.92 3016.42 3037.3 3024.86 3064.5 3044.14C3091.63 3062.49 3100.44 3082 3090.96 3102.67C3075.24 3138.05 3057.28 3211.86 3037.08 3324.1C3019.28 3431.41 3008.29 3535.75 3004.11 3637.13C2994.61 3869.24 3014.2 3983.12 3062.9 3978.78C3090.06 3976.36 3116.66 3951.8 3142.7 3905.11C3167.89 3859.45 3184.37 3806.06 3192.13 3744.96C3196.95 3714.32 3218.47 3701.55 3256.68 3706.64C3293.95 3711.81 3321.89 3728.67 3340.48 3757.21C3351.43 3774.17 3354.93 3792.27 3350.99 3811.5C3301.9 4044.31 3199.62 4167.64 3044.17 4181.51C2967.38 4188.36 2906.62 4152.71 2861.89 4074.58C2805.48 4161.73 2736.06 4208.98 2653.65 4216.33C2576.86 4223.18 2507.5 4191.61 2445.57 4121.62C2384.48 4050.61 2358.07 3944.88 2366.31 3804.45ZM2781.01 3659.85C2780.53 3643.85 2780.19 3618.87 2779.99 3584.9C2669.94 3578.67 2602.83 3646.48 2578.67 3788.34C2567.83 3857.27 2570.92 3913.16 2587.96 3956C2604.91 3997.91 2630.25 4017.36 2663.96 4014.36C2700.48 4011.1 2728.83 3984.97 2749 3935.98C2769.09 3886.05 2780.19 3819.92 2782.28 3737.62C2781.7 3731.06 2781.28 3705.14 2781.01 3659.85Z" fill="#FF8800"/>
<path d="M3750.99 3567.69C3743.19 3649.56 3708.6 3716.83 3647.22 3769.5C3588.57 3820.99 3517.69 3857.04 3434.57 3877.67C3470.4 3930.17 3528.12 3952.86 3607.72 3945.77C3669.53 3940.25 3719.42 3912.21 3757.38 3861.62C3795.35 3811.04 3818.68 3755.16 3827.38 3693.97C3831.35 3664.35 3852.36 3651.15 3890.4 3654.37C3926.65 3658.69 3954.97 3674.57 3975.36 3702.01C3987.33 3719.82 3991.38 3738.81 3987.52 3758.98C3964.78 3863.89 3918.49 3953.45 3848.65 4027.64C3780.43 4098.86 3694.34 4139.1 3590.39 4148.37C3521.09 4154.55 3456.08 4145.24 3395.34 4120.45C3333.5 4093.88 3283.36 4050.21 3244.9 3989.45C3207.38 3928.61 3189.16 3856.61 3190.24 3773.44C3193.97 3635.3 3226.88 3528.06 3288.98 3451.73C3351.08 3375.39 3431.76 3332.8 3531.03 3323.95C3611.73 3318.64 3670.34 3340.78 3706.86 3390.39C3745.25 3439.82 3759.96 3498.92 3750.99 3567.69ZM3501.84 3520.53C3475.61 3522.87 3452.85 3542.83 3433.55 3580.42C3415.1 3616.99 3404.54 3667.96 3401.88 3733.33C3443.6 3724.89 3479 3708.99 3508.06 3685.63C3537.13 3662.27 3555.18 3637.07 3562.2 3610.01C3568.46 3584.91 3565.13 3563.5 3552.23 3545.77C3539.23 3527.1 3522.44 3518.69 3501.84 3520.53Z" fill="#FF8800"/>
<path d="M1009.12 2572.09C1119.86 2628.72 1201.67 2693.86 1254.56 2767.53C1307.44 2841.19 1338.67 2931.63 1348.23 3038.85C1356.42 3130.74 1342.3 3218.7 1305.85 3302.7C1268.22 3386.81 1208.77 3459.21 1127.49 3519.9C1046.21 3580.59 949.605 3615.92 837.677 3625.91C653.879 3642.3 507.662 3600.71 399.027 3501.14C290.497 3402.75 228.036 3261.66 211.645 3077.86C208.282 3040.16 233.302 3001.11 286.703 2960.72C341.282 2920.23 393.314 2897.77 442.798 2893.36C462.827 2891.58 473.315 2895.98 474.26 2906.59C474.891 2913.66 474.921 2927.31 474.351 2947.55C474.959 2967.69 475.473 2980.11 475.893 2984.82C486.191 3100.28 524.209 3193.68 589.948 3265.01C655.688 3336.34 729.205 3368.38 810.501 3361.13C883.549 3354.61 943.997 3326.66 991.845 3277.26C1039.59 3226.69 1060.2 3164.88 1053.69 3091.83C1046.86 3015.25 1024.79 2954.28 987.496 2908.91C949.988 2861.19 886.56 2815.78 797.212 2772.69C578.922 2668.65 461.477 2523.55 444.875 2337.4C431.846 2191.3 471.097 2065.48 562.627 1959.94C655.231 1853.11 776.937 1792.97 927.746 1779.52C1057.35 1767.97 1175.43 1793.66 1281.98 1856.59C1388.54 1919.53 1445.76 1995.18 1453.64 2083.55C1456.89 2120.07 1431.76 2164.47 1378.23 2216.75C1327.06 2268.82 1286.74 2296.16 1257.29 2298.79C1249.04 2299.52 1244.6 2296.36 1243.97 2289.29C1232.22 2210.77 1196.29 2147.47 1136.19 2099.39C1078.34 2049.92 1009.94 2028.71 931.002 2035.75C866.201 2041.53 814.327 2065.75 775.379 2108.41C737.61 2150.97 721.615 2204.65 727.394 2269.45C732.542 2327.18 756.227 2379.7 798.447 2427C840.668 2474.3 910.891 2522.66 1009.12 2572.09Z" fill="#FF8800"/>
<path d="M2528.3 2706.1C2466.54 2999 2337.87 3154.17 2142.29 3171.62C2039.78 3180.76 1959.21 3142.81 1900.56 3057.79C1830.79 3154.27 1747.59 3206.81 1650.98 3215.43C1607.39 3219.32 1564.08 3213.09 1521.06 3196.73C1477.93 3179.2 1436.16 3150.27 1395.75 3109.94C1356.51 3069.49 1327.37 3015.68 1308.31 2948.51C1288.08 2881.43 1280.78 2799.55 1286.41 2702.85C1298.77 2548.55 1340.69 2426.06 1412.17 2335.37C1484.72 2243.39 1579.32 2192.2 1695.96 2181.8C1769.12 2176.46 1840.46 2197.42 1909.99 2244.66C1949.82 2185.29 2002.45 2156.25 2067.88 2157.54C2110.82 2159.65 2142.39 2174.05 2162.58 2200.75C2183.85 2226.17 2188.04 2253.11 2175.14 2281.57C2155.14 2323.73 2133.13 2389.83 2109.1 2479.85C2087.86 2561.31 2076.23 2630.63 2074.2 2687.82C2072.26 2759.24 2079.71 2816.18 2096.56 2858.61C2114.48 2899.77 2137.58 2919.08 2165.86 2916.56C2200.02 2913.51 2232.95 2883.26 2264.64 2825.81C2296.44 2769.53 2317.76 2702.32 2328.6 2624.16C2334.66 2585.61 2361.14 2569.6 2408.04 2576.1C2454.72 2580.25 2489.82 2600.87 2513.31 2637.97C2528.37 2660.38 2533.37 2683.09 2528.3 2706.1ZM1814.93 2596.93C1818.03 2538.47 1823.84 2490.44 1832.36 2452.87C1800.6 2429.58 1763.5 2419.82 1721.09 2423.6C1678.67 2427.39 1642.22 2451.42 1611.73 2495.7C1582.32 2538.7 1562.77 2599.23 1553.11 2677.29C1543.11 2764.87 1548.77 2835.02 1570.1 2887.75C1591.43 2940.48 1622.71 2965 1663.94 2961.32C1755.84 2953.13 1805.9 2835.25 1814.11 2607.69C1814 2606.52 1813.84 2604.75 1813.63 2602.39C1814.6 2599.93 1815.03 2598.11 1814.93 2596.93Z" fill="#FF8800"/>
<path d="M2999.04 1811.44C3098.61 1822.75 3147.54 1925.27 3145.81 2118.99C3256.44 1868.05 3387.78 1749.46 3539.83 1763.21C3622.49 1771.28 3671.08 1816.82 3685.61 1899.84C3700.59 1974.51 3696.82 2078.76 3674.31 2212.59C3658.11 2297.16 3653.28 2362.91 3659.84 2409.83C3667.58 2456.64 3678.71 2488.3 3693.25 2504.82C3708.97 2521.23 3727.43 2528.49 3748.63 2526.6C3782.8 2523.55 3815.73 2493.3 3847.42 2435.85C3879.22 2379.57 3900.54 2312.36 3911.38 2234.2C3916.37 2196.94 3941.67 2181.02 3987.28 2186.46C4034.07 2191.78 4070.24 2211.12 4095.77 2244.47C4112.01 2266.78 4117.11 2290.67 4111.07 2316.14C4082.78 2451.67 4029.9 2564.46 3952.43 2654.5C3877.2 2743.15 3787.28 2786.79 3682.65 2785.44C3474.78 2784.97 3381.92 2635.9 3404.07 2338.22C3403.75 2334.69 3404.02 2331.1 3404.89 2327.46C3405.23 2317.93 3405.84 2304.81 3406.72 2288.11C3408.68 2270.12 3409.99 2258.13 3410.64 2252.13C3414.71 2191.21 3415.58 2147.78 3413.27 2121.86C3407.7 2059.42 3391.37 2029.4 3364.27 2031.82C3317.14 2036.02 3266.97 2132.53 3213.74 2321.35C3162.76 2508.78 3135.88 2666.75 3133.09 2795.26C3131.76 2820.32 3121.56 2839.04 3102.47 2851.43C3075.35 2866.91 3044.65 2875.59 3010.38 2877.46C2973.75 2879.53 2939.12 2870.75 2906.49 2851.09C2874.94 2830.16 2857.79 2804.37 2855.06 2773.74C2845.18 2662.99 2847.92 2533.89 2863.27 2386.45C2871.91 2283.55 2875.19 2213.79 2873.11 2177.16C2873.01 2109.48 2856.47 2077.11 2823.48 2080.05C2775.17 2084.36 2728.58 2154.42 2683.69 2290.24C2640.94 2423.5 2611.9 2557.32 2596.57 2691.69C2596.78 2694.05 2596.35 2695.87 2595.28 2697.15L2594.38 2846.86C2594 2882.53 2571.25 2907.12 2526.14 2920.64C2482.11 2932.88 2436.06 2929.27 2388.01 2909.8C2342.42 2891.3 2317.84 2862.03 2314.27 2821.97C2301.87 2682.94 2306.12 2484.24 2327.02 2225.86C2335.78 2111.07 2353.93 2021.57 2381.45 1957.37C2410.05 1891.87 2454.41 1849.92 2514.52 1831.49C2572.27 1813.28 2614.57 1814.85 2641.41 1836.21C2668.15 1856.39 2676.46 1882.96 2666.34 1915.93C2649.75 1969.66 2637.82 2028.91 2630.53 2093.69C2737.11 1890.61 2859.95 1796.53 2999.04 1811.44Z" fill="#FF8800"/>
<path d="M3917.28 2044.31C3925.09 1798.97 3943.94 1610.84 3973.83 1479.92C4007.61 1326.09 4067.51 1245.34 4153.52 1237.67C4199.57 1234.75 4239.72 1245.42 4273.94 1269.68C4306.89 1292.87 4318.57 1317.36 4309 1343.15C4279.12 1407.57 4248.97 1562.27 4218.57 1807.24C4311.09 1686.17 4410.83 1632.74 4517.79 1646.95C4598.51 1659.94 4655.28 1717.23 4688.09 1818.81C4720.9 1920.39 4725.2 2035.2 4701 2163.24C4675.67 2318.69 4618.85 2447.27 4530.54 2548.96C4443.3 2649.37 4347.47 2700.07 4243.06 2701.07C4132.75 2702.6 4048.83 2647.14 3991.3 2534.7C3934.84 2420.98 3910.17 2257.52 3917.28 2044.31ZM4190.53 2231.92C4189.46 2233.2 4189.08 2235.61 4189.39 2239.15C4188.6 2390.04 4212.94 2463.28 4262.43 2458.86C4301.31 2455.4 4336.8 2427.29 4368.91 2374.55C4400.92 2320.63 4422.88 2253.95 4434.8 2174.51C4445.96 2099.88 4443.92 2037.12 4428.7 1986.23C4414.65 1935.23 4390.54 1911.25 4356.37 1914.3C4316.31 1917.87 4281.62 1948.28 4252.28 2005.53C4222.84 2061.59 4202.26 2137.06 4190.53 2231.92Z" fill="#FF8800"/>
<path d="M5857.46 2133.95C5795.7 2426.85 5667.03 2582.02 5471.45 2599.46C5368.95 2608.6 5288.37 2570.66 5229.72 2485.64C5159.95 2582.11 5076.76 2634.66 4980.14 2643.28C4936.55 2647.16 4893.24 2640.93 4850.22 2624.58C4807.09 2607.05 4765.32 2578.12 4724.91 2537.78C4685.68 2497.34 4656.53 2443.53 4637.48 2376.35C4617.25 2309.28 4609.94 2227.39 4615.57 2130.7C4627.94 1976.4 4669.86 1853.9 4741.34 1763.21C4813.89 1671.24 4908.49 1620.05 5025.13 1609.65C5098.28 1604.31 5169.62 1625.26 5239.15 1672.5C5278.98 1613.13 5331.62 1584.09 5397.05 1585.38C5439.99 1587.49 5471.55 1601.9 5491.75 1628.6C5513.02 1654.01 5517.2 1680.96 5504.3 1709.42C5484.31 1751.58 5462.3 1817.67 5438.26 1907.69C5417.02 1989.16 5405.39 2058.48 5403.37 2115.66C5401.42 2187.09 5408.88 2244.02 5425.72 2286.46C5443.64 2327.61 5466.74 2346.93 5495.02 2344.41C5529.19 2341.36 5562.12 2311.11 5593.81 2253.66C5625.6 2197.38 5646.92 2130.16 5657.77 2052C5663.83 2013.46 5690.31 1997.44 5737.2 2003.95C5783.89 2008.1 5818.98 2028.72 5842.48 2065.81C5857.54 2088.22 5862.53 2110.93 5857.46 2133.95ZM5144.09 2024.78C5147.19 1966.31 5153 1918.29 5161.53 1880.72C5129.76 1857.42 5092.67 1847.67 5050.25 1851.45C5007.84 1855.23 4971.39 1879.27 4940.9 1923.55C4911.48 1966.55 4891.94 2027.08 4882.27 2105.13C4872.27 2192.71 4877.93 2262.87 4899.26 2315.6C4920.59 2368.32 4951.87 2392.85 4993.11 2389.17C5085.01 2380.97 5135.06 2263.1 5143.27 2035.54C5143.17 2034.36 5143.01 2032.59 5142.8 2030.24C5143.77 2027.78 5144.2 2025.96 5144.09 2024.78Z" fill="#FF8800"/>
<path d="M1531.15 5436.94C1542.34 5539.34 1516.35 5618.97 1453.18 5675.83C1390.01 5732.69 1307.5 5756.51 1205.65 5747.29C1154.26 5742.73 1108.55 5722.29 1068.5 5685.96C1029.26 5648.61 1003.85 5602.36 992.268 5547.19C979.773 5492.12 985.113 5430.94 1008.29 5363.64C1024.2 5323.05 1055.38 5299.29 1101.8 5292.36C1138.27 5287.45 1164.2 5296.18 1179.6 5318.55C1185.37 5329.02 1187.08 5340.4 1184.72 5352.69C1159.01 5472.99 1174.13 5539.34 1230.07 5551.73C1255.65 5557.26 1276.79 5551.71 1293.47 5535.08C1310.16 5518.46 1316.85 5495.06 1313.55 5464.89C1310.16 5433.81 1297.57 5403.26 1275.79 5373.26C1253.9 5342.35 1229.42 5317.27 1202.34 5298.03C1136 5249.77 1099.84 5198.21 1093.84 5143.36C1086.25 5073.87 1104.22 5018.25 1147.77 4976.49C1191.31 4934.72 1248.74 4909.94 1320.05 4902.15C1378.66 4896.66 1426.17 4908.12 1462.58 4936.53C1499.9 4964.83 1517.86 5006.35 1516.44 5061.09C1514.82 5114 1492.3 5153.47 1448.89 5179.49C1415.95 5199.74 1390.45 5203.45 1372.39 5190.63C1362.35 5183.4 1358.36 5172.27 1360.42 5157.24C1365.83 5139.07 1364.85 5121.6 1357.47 5104.83C1349.98 5087.14 1337.55 5079.25 1320.18 5081.15C1291.84 5084.25 1279.67 5104.08 1283.67 5140.65C1285.37 5156.19 1294.43 5171.39 1310.85 5186.25C1327.28 5201.11 1346.96 5216.07 1369.88 5231.14C1392.71 5245.3 1415.28 5261.34 1437.59 5279.25C1460.72 5296.15 1481.19 5318.43 1499.02 5346.09C1516.74 5372.83 1527.45 5403.12 1531.15 5436.94Z" fill="#FF8800"/>
<path d="M2523.74 5194.8C2480.27 5423.44 2382.65 5546.05 2230.89 5562.64C2151.35 5571.33 2088.13 5543.08 2041.22 5477.9C1988.48 5553.98 1924.62 5596.11 1849.65 5604.31C1815.83 5608 1782.06 5603.83 1748.37 5591.78C1714.57 5578.83 1681.65 5556.98 1649.61 5526.25C1618.49 5495.42 1595 5454.05 1579.15 5402.12C1562.38 5350.29 1555.44 5286.75 1558.31 5211.5C1565.54 5091.37 1596.23 4995.49 1650.39 4923.89C1705.36 4851.27 1778.1 4810.01 1868.61 4800.12C1925.39 4794.84 1981.18 4810.02 2035.96 4845.67C2066 4798.9 2106.46 4775.51 2157.35 4775.5C2190.76 4776.47 2215.52 4787.18 2231.63 4807.63C2248.56 4827.05 2252.23 4847.93 2242.64 4870.26C2227.75 4903.34 2211.67 4955.06 2194.38 5025.41C2179.13 5089.06 2171.16 5143.13 2170.47 5187.61C2170.07 5243.17 2176.74 5287.31 2190.5 5320.03C2205.06 5351.75 2223.32 5366.41 2245.26 5364.01C2271.77 5361.11 2296.9 5337.08 2320.65 5291.93C2344.49 5247.69 2360.02 5195.11 2367.24 5134.19C2371.36 5104.13 2391.69 5091.27 2428.25 5095.6C2464.6 5098.1 2492.2 5113.59 2511.04 5142.06C2523.1 5159.25 2527.33 5176.83 2523.74 5194.8ZM1967.52 5120.98C1969.02 5075.48 1972.79 5038.06 1978.84 5008.72C1953.79 4991.11 1924.8 4984.1 1891.89 4987.7C1858.98 4991.29 1831.01 5010.54 1808 5045.44C1785.8 5079.32 1771.54 5126.67 1765.24 5187.5C1758.82 5255.73 1764.31 5310.18 1781.7 5350.84C1799.1 5391.49 1823.8 5410.07 1855.8 5406.58C1927.11 5398.78 1964.19 5306.38 1967.05 5129.36C1966.95 5128.44 1966.8 5127.07 1966.6 5125.24C1967.31 5123.32 1967.62 5121.89 1967.52 5120.98Z" fill="#FF8800"/>
<path d="M2949.91 4825.17C2928.54 4849.71 2908.87 4885.63 2890.91 4932.92C2874.68 4979.11 2863.89 5024.23 2858.53 5068.3C2852.94 5127.2 2855.95 5175.9 2867.56 5214.41C2880.08 5252.83 2897.77 5270.78 2920.63 5268.28C2948.97 5265.19 2970.38 5245.27 2984.87 5208.53C3000.17 5170.77 3012.51 5114.38 3021.89 5039.34C3026.01 5009.29 3046.34 4996.42 3082.9 5000.76C3119.45 5005.09 3147.55 5020.98 3167.21 5048.44C3178.25 5064.81 3182.03 5082.44 3178.54 5101.32C3157.62 5214.63 3124.15 5302.01 3078.13 5363.48C3032.12 5424.94 2970.25 5459.92 2892.54 5468.41C2819.4 5476.41 2757.75 5449.84 2707.59 5388.71C2657.33 5326.67 2635.56 5233.29 2642.28 5108.59C2647.1 5025.72 2664.55 4952.58 2694.62 4889.15C2650.52 4900.45 2609.07 4906.37 2570.28 4906.91C2560.17 4992.2 2545.84 5081.2 2527.29 5173.89C2522.26 5204.04 2500.31 5214.77 2461.42 5206.07C2428.23 5198.59 2402.26 5181.08 2383.52 5153.52C2374.51 5138.78 2370.62 5124.4 2371.87 5110.39C2384.59 4981.33 2390.83 4898.77 2390.59 4862.71C2354.48 4837.05 2331.58 4805.33 2321.9 4767.53C2311.31 4729.83 2312.08 4694.59 2324.22 4661.8C2336.27 4628.11 2357.09 4598.54 2386.69 4573.1C2417.11 4546.65 2451.51 4531.32 2489.91 4527.13C2527.39 4523.03 2551.5 4531.96 2562.23 4553.91C2573.97 4576.69 2580.58 4624.53 2582.08 4697.46L2582.63 4727.93C2624.47 4729.83 2667.44 4725.13 2711.54 4713.84C2756.45 4701.53 2793.91 4684.48 2823.91 4662.7C2841.91 4649.63 2864.24 4655.05 2890.91 4678.97C2917.48 4701.97 2936.07 4728.15 2946.68 4757.52C2957.29 4786.89 2958.37 4809.44 2949.91 4825.17Z" fill="#FF8800"/>
<path d="M2889.13 5696.79C2982.38 5686.6 3042.22 5315.81 3068.64 4965.06C3078.81 4846.46 3081.79 4767.95 3077.6 4729.55C3077.43 4711.07 3078.11 4696.19 3079.66 4684.92C3082.73 4670.71 3086.3 4661.07 3090.37 4656C3094.34 4650.01 3104.22 4638.76 3119.99 4622.23C3170.15 4573.26 3213.78 4566.18 3250.89 4600.98C3287.8 4633.96 3306.74 4692.95 3307.7 4777.96C3309.97 5044.15 3286 5449.15 3208.6 5621.36C3131.41 5795.4 3037.91 5897.02 2928.1 5908.1C2883.2 5912.08 2827.93 5898.69 2789.48 5876.99C2750.11 5855.39 2712 5813.48 2699.58 5775.99C2684.94 5726.7 2677.97 5653.95 2699.58 5614.58C2714.76 5584.24 2755.01 5562.24 2774.99 5575.79C2776 5576.6 2780.31 5583.05 2787.91 5593.32C2797.32 5611.72 2808.93 5700.92 2822.72 5708.67C2835.61 5716.51 2857.74 5697.45 2889.13 5696.79ZM3095.77 4362.59C3092.08 4328.77 3105.38 4298.17 3135.7 4270.8C3166.83 4242.42 3211.34 4226.45 3269.24 4222.9C3299.51 4220.52 3326.45 4230.06 3350.08 4251.53C3373.71 4273 3379.24 4302.47 3366.68 4339.92C3356.88 4368.75 3337.78 4397.2 3309.4 4425.28C3280 4452.55 3247.01 4468.18 3210.44 4472.18C3183.02 4475.18 3158.1 4467.26 3135.69 4448.43C3113.17 4428.69 3099.87 4400.08 3095.77 4362.59Z" fill="#FF8800"/>
<path d="M3853.77 4767.74C3847.74 4847.97 3815.22 4914.43 3756.22 4967.14C3699.86 5018.63 3631.24 5055.27 3550.36 5077.07C3586.43 5127.71 3643.32 5148.78 3721.03 5140.29C3781.37 5133.69 3829.61 5105.29 3865.75 5055.08C3901.9 5004.87 3923.63 4949.77 3930.95 4889.76C3934.25 4860.71 3954.53 4847.4 3991.8 4849.8C4027.34 4853.32 4055.35 4868.29 4075.82 4894.74C4087.87 4911.92 4092.21 4930.42 4088.82 4950.21C4068.63 5053.26 4025.1 5141.75 3958.24 5215.67C3892.91 5286.64 3809.51 5327.68 3708.03 5338.77C3640.37 5346.16 3576.61 5338.33 3516.72 5315.27C3455.73 5290.48 3405.84 5248.75 3367.04 5190.08C3329.16 5131.31 3309.94 5061.25 3309.38 4979.9C3310.33 4844.72 3340.43 4739.2 3399.67 4663.34C3458.92 4587.47 3537 4544.25 3633.91 4533.65C3712.73 4526.89 3770.48 4547.41 3807.16 4595.21C3845.67 4642.81 3861.21 4700.32 3853.77 4767.74ZM3609.19 4726.48C3583.59 4729.27 3561.71 4749.24 3543.57 4786.38C3526.24 4822.51 3516.91 4872.56 3515.57 4936.54C3556.22 4927.47 3590.52 4911.24 3618.49 4887.82C3646.47 4864.41 3663.62 4839.41 3669.97 4812.81C3675.6 4788.14 3671.93 4767.26 3658.96 4750.18C3645.89 4732.18 3629.3 4724.28 3609.19 4726.48Z" fill="#FF8800"/>
<path d="M4249.23 4364.62L4323.29 4356.52C4356.2 4352.92 4371.85 4373.42 4370.25 4418C4368.65 4462.58 4352.27 4503.23 4321.13 4539.94C4303.02 4560.42 4285.73 4571.56 4269.27 4573.36C4230.88 4577.56 4206.6 4579.75 4196.44 4579.93C4183.82 4650.7 4176.2 4712.13 4173.56 4764.23C4170.33 4810.84 4168.94 4853.09 4169.38 4890.97C4170.73 4928.75 4173.26 4960.4 4176.98 4985.89C4181.6 5011.29 4187.15 5032.43 4193.62 5049.3C4200.09 5066.17 4206.97 5078.37 4214.27 5085.9C4222.49 5093.33 4231.16 5096.54 4240.31 5095.54C4268.65 5092.44 4293.32 5068.47 4314.32 5023.62C4337.87 4976.64 4352.43 4923.7 4358.02 4864.8C4362.14 4834.75 4382.48 4821.88 4419.03 4826.21C4455.59 4830.55 4483.69 4846.44 4503.34 4873.9C4514.38 4890.27 4518.16 4907.9 4514.67 4926.78C4471.2 5155.42 4373.59 5278.03 4221.82 5294.62C4134.05 5304.21 4066.79 5264.38 4020.03 5175.13C3973.27 5085.87 3951.01 4954.16 3953.25 4779.98C3953.68 4707.77 3958.64 4634.61 3968.11 4560.48C3942.94 4550.28 3916.93 4528.14 3890.08 4494.07C3861.4 4460.2 3850.94 4432.2 3858.7 4410.08C3865.44 4387.13 3887.04 4377.37 3923.49 4380.79C3951.52 4383.28 3977.06 4384.19 4000.12 4383.52C4014.75 4322.71 4031.6 4273.68 4050.65 4236.44C4070.63 4199.1 4087.98 4180.09 4102.71 4179.41C4139.38 4176.33 4181.92 4184.63 4230.33 4204.32C4275.79 4222.48 4294.9 4240.74 4287.66 4259.11C4276.96 4279.71 4264.15 4314.88 4249.23 4364.62Z" fill="#FF8800"/>
<path d="M5329.87 4891.01C5286.4 5119.65 5188.78 5242.26 5037.01 5258.85C4957.48 5267.54 4894.25 5239.29 4847.35 5174.11C4794.6 5250.19 4730.75 5292.32 4655.78 5300.52C4621.95 5304.21 4588.19 5300.04 4554.49 5287.99C4520.69 5275.04 4487.78 5253.19 4455.74 5222.46C4424.61 5191.63 4401.13 5150.26 4385.27 5098.33C4368.51 5046.5 4361.56 4982.96 4364.44 4907.71C4371.66 4787.57 4402.35 4691.7 4456.51 4620.1C4511.49 4547.48 4584.23 4506.22 4674.74 4496.33C4731.52 4491.05 4787.3 4506.23 4842.08 4541.88C4872.13 4495.11 4912.59 4471.72 4963.47 4471.71C4996.88 4472.68 5021.65 4483.39 5037.76 4503.84C5054.68 4523.26 5058.35 4544.14 5048.77 4566.47C5033.88 4599.55 5017.79 4651.27 5000.5 4721.62C4985.25 4785.27 4977.29 4839.34 4976.6 4883.82C4976.19 4939.38 4982.87 4983.52 4996.62 5016.24C5011.19 5047.96 5029.44 5062.62 5051.39 5060.22C5077.9 5057.32 5103.03 5033.29 5126.77 4988.14C5150.62 4943.9 5166.15 4891.32 5173.37 4830.4C5177.48 4800.34 5197.82 4787.48 5234.37 4791.81C5270.73 4794.31 5298.33 4809.8 5317.17 4838.27C5329.22 4855.46 5333.46 4873.04 5329.87 4891.01ZM4773.64 4817.19C4775.15 4771.69 4778.92 4734.27 4784.96 4704.93C4759.91 4687.32 4730.93 4680.31 4698.01 4683.91C4665.1 4687.5 4637.14 4706.75 4614.12 4741.65C4591.92 4775.53 4577.67 4822.88 4571.36 4883.71C4564.94 4951.94 4570.43 5006.39 4587.83 5047.05C4605.23 5087.7 4629.92 5106.28 4661.92 5102.79C4733.23 5094.99 4770.31 5002.59 4773.17 4825.57C4773.07 4824.65 4772.92 4823.28 4772.72 4821.45C4773.44 4819.53 4773.74 4818.1 4773.64 4817.19Z" fill="#FF8800"/>
<path d="M2493.01 567.81C1976.83 720.299 1525.25 1063.46 1245.84 1357.61C1210.7 1394.61 1151.52 1395.67 1116.39 1358.65C1085.44 1326.03 1084.44 1275.21 1114.19 1241.49C1407.77 908.757 1819.45 458.427 2409.2 284.207C2996.71 110.646 3675.66 130.514 4307.96 645.859C4397.7 719.006 4402.42 851.928 4325.51 938.466C4284.88 984.182 4214.38 986.599 4168.37 946.304C3604.38 452.416 3015 413.608 2493.01 567.81Z" fill="#FF8800"/>
<path d="M2862.97 6361.26C2580.21 6354.55 2311.64 6233.74 2129.12 6132.22C2065.77 6096.98 1985.53 6111.83 1941.98 6169.77C1892.28 6235.89 1910.23 6330.59 1984.64 6366.71C2195.99 6469.31 2492.59 6561.61 2823.42 6569.46C3206.62 6578.56 3635.13 6473.8 4021.13 6145.11C4061.79 6110.48 4042.09 6045.91 3989.41 6037.11C3969.01 6033.71 3948.22 6040.34 3932.98 6054.32C3595.32 6364.07 3196.28 6369.17 2862.97 6361.26Z" fill="#FF8800"/>
<g filter="url(#filter0_d_351_2723)">
<path d="M2529.59 440.751C2013.56 593.216 1562.12 936.322 1282.8 1230.42C1247.66 1267.42 1188.5 1268.48 1153.38 1231.47C1122.44 1198.85 1121.44 1148.04 1151.18 1114.33C1444.67 781.643 1856.23 331.384 2445.8 157.191C3033.13 -16.3421 3711.87 3.52271 4343.98 518.787C4433.7 591.922 4438.41 724.824 4361.53 811.349C4320.91 857.057 4250.43 859.473 4204.43 819.185C3640.62 325.374 3051.41 286.572 2529.59 440.751Z" fill="white"/>
<path d="M2899.43 6233.29C2616.76 6226.58 2348.27 6105.79 2165.81 6004.29C2102.48 5969.06 2022.25 5983.9 1978.72 6041.83C1929.04 6107.94 1946.98 6202.63 2021.37 6238.74C2232.65 6341.32 2529.16 6433.61 2859.9 6441.46C3242.98 6450.56 3671.35 6345.82 4057.24 6017.17C4097.88 5982.56 4078.19 5917.99 4025.53 5909.2C4005.14 5905.79 3984.35 5912.43 3969.12 5926.4C3631.55 6236.11 3232.64 6241.2 2899.43 6233.29Z" fill="white"/>
<path d="M3929.16 5883.78C3956.93 5858.29 3995.63 5845.46 4034.72 5851.99C4132.82 5868.38 4175.92 5992.96 4094.7 6062.15C3696.25 6401.53 3253.22 6509.83 2858.03 6500.45C2517.65 6492.37 2212.93 6397.5 1995.32 6291.84C1884.34 6237.95 1862.12 6099.49 1931.47 6007.19C1993.28 5924.93 2105.42 5905.19 2192.69 5953.1L2193.72 5953.67L2197.94 5956.02C2377.56 6055.5 2634.04 6169.03 2900.33 6175.36C3233.34 6183.26 3610.24 6176.42 3929.16 5883.78ZM4025.09 5909.65C4004.7 5906.24 3983.91 5912.88 3968.67 5926.86V5926.86C3631.1 6236.61 3232.17 6241.71 2898.95 6233.8C2616.26 6227.09 2347.77 6106.27 2165.3 6004.75C2101.97 5969.52 2021.74 5984.36 1978.2 6042.31L1977.62 6043.08C1928.86 6108.9 1946.61 6202.53 2019.98 6238.83L2020.85 6239.25C2232.15 6341.85 2528.67 6434.15 2859.41 6442.01C3241.76 6451.08 3669.23 6346.75 4054.54 6019.57L4056.8 6017.64C4097.29 5983.15 4077.9 5918.95 4025.7 5909.75L4025.09 5909.65ZM2432.26 99.5347C3032.79 -77.0385 3731.32 -56.2533 4380.48 472.984L4343.55 518.294C3711.42 2.93977 3032.66 -16.9285 2445.3 156.635L2441.85 157.659C1854.1 332.617 1443.56 781.846 1150.63 1113.94L1149.94 1114.73C1120.91 1148.45 1122.14 1198.73 1152.84 1231.1C1187.95 1268.12 1247.12 1267.06 1282.26 1230.06H1282.26C1561.04 936.477 2011.28 594.076 2526.07 441.14L2529.09 440.244C3050.94 286.039 3640.16 324.847 4204 818.744C4249.82 858.882 4319.93 856.642 4360.62 811.441L4361.1 810.907C4437.99 724.367 4433.27 591.442 4343.55 518.294L4380.48 472.984C4498.39 569.108 4501.66 740.715 4404.79 849.736C4341.58 920.888 4234.19 922.903 4165.49 862.719H4165.49C3618.91 383.944 3051.25 346.901 2545.65 496.305C2044.22 644.479 1602.69 978.53 1327.87 1266.92L1324.64 1270.31C1267.57 1330.41 1170.24 1333.56 1111.12 1272.05L1110.43 1271.33C1058.73 1216.82 1056.96 1131.77 1106.8 1075.26C1399.65 743.263 1821.14 280.118 2428.74 100.574L2432.26 99.5347Z" fill="#FF8800"/>
</g>
<path d="M2366.31 3656.59C2376.91 3531.99 2420.7 3430.39 2497.7 3351.78C2578.37 3271.91 2675.68 3235.86 2789.64 3243.63C2811.68 3003.79 2870.92 2879.57 2967.38 2870.97C3004.92 2868.57 3037.3 2877.01 3064.5 2896.29C3091.63 2914.64 3100.44 2934.15 3090.96 2954.81C3075.24 2990.2 3057.28 3064.01 3037.08 3176.25C3019.28 3283.56 3008.29 3387.9 3004.11 3489.27C2994.61 3721.38 3014.2 3835.27 3062.9 3830.92C3090.06 3828.5 3116.66 3803.95 3142.7 3757.26C3167.89 3711.59 3184.37 3658.21 3192.13 3597.1C3196.95 3566.47 3218.47 3553.69 3256.68 3558.78C3293.95 3563.95 3321.89 3580.81 3340.48 3609.36C3351.43 3626.32 3354.93 3644.41 3350.99 3663.64C3301.9 3896.45 3199.62 4019.79 3044.17 4033.65C2967.38 4040.5 2906.62 4004.86 2861.89 3926.73C2805.48 4013.88 2736.06 4061.13 2653.65 4068.48C2576.86 4075.33 2507.5 4043.76 2445.57 3973.77C2384.48 3902.75 2358.07 3797.03 2366.31 3656.59ZM2781.01 3512C2780.53 3496 2780.19 3471.01 2779.99 3437.05C2669.94 3430.82 2602.83 3498.63 2578.67 3640.49C2567.83 3709.42 2570.92 3765.3 2587.96 3808.15C2604.91 3850.06 2630.25 3869.51 2663.96 3866.5C2700.48 3863.25 2728.83 3837.12 2749 3788.12C2769.09 3738.19 2780.19 3672.07 2782.28 3589.76C2781.7 3583.21 2781.28 3557.29 2781.01 3512Z" fill="white"/>
<path d="M3750.99 3419.83C3743.19 3501.71 3708.6 3568.98 3647.22 3621.65C3588.57 3673.13 3517.69 3709.19 3434.57 3729.82C3470.4 3782.31 3528.12 3805.01 3607.72 3797.91C3669.53 3792.4 3719.42 3764.35 3757.38 3713.77C3795.35 3663.19 3818.68 3607.3 3827.38 3546.11C3831.35 3516.5 3852.36 3503.3 3890.4 3506.51C3926.65 3510.83 3954.97 3526.71 3975.36 3554.16C3987.33 3571.97 3991.38 3590.96 3987.52 3611.12C3964.78 3716.04 3918.49 3805.59 3848.65 3879.79C3780.43 3951 3694.34 3991.24 3590.39 4000.51C3521.09 4006.7 3456.08 3997.39 3395.34 3972.6C3333.5 3946.02 3283.36 3902.35 3244.9 3841.6C3207.38 3780.75 3189.16 3708.75 3190.24 3625.59C3193.97 3487.44 3226.88 3380.2 3288.98 3303.87C3351.08 3227.54 3431.76 3184.95 3531.03 3176.09C3611.73 3170.78 3670.34 3192.93 3706.86 3242.53C3745.25 3291.97 3759.96 3351.07 3750.99 3419.83ZM3501.84 3372.67C3475.61 3375.01 3452.85 3394.98 3433.55 3432.57C3415.1 3469.14 3404.54 3520.11 3401.88 3585.48C3443.6 3577.04 3479 3561.14 3508.06 3537.78C3537.13 3514.42 3555.18 3489.21 3562.2 3462.16C3568.46 3437.06 3565.13 3415.64 3552.23 3397.91C3539.24 3379.25 3522.44 3370.84 3501.84 3372.67Z" fill="white"/>
<path d="M2962.92 2812.68L2963.64 2812.63C3012.52 2809.5 3058.37 2820.49 3097.78 2848.23C3115.75 2860.47 3134.2 2877.31 3144.72 2900.6C3156.5 2926.65 3155.4 2954.21 3144.31 2978.72C3131.93 3006.67 3115.01 3073.31 3094.69 3186.18C3077.29 3291.15 3066.59 3392.97 3062.52 3491.66C3057.8 3606.85 3060.59 3688.26 3069.29 3738.86C3070.52 3746.01 3071.8 3752.11 3073.07 3757.29C3078.5 3750.43 3084.74 3741.17 3091.59 3728.9C3111.28 3693.15 3125.31 3650.46 3132.75 3599.92C3139.74 3464.68 3174.73 3351.68 3243.63 3266.98C3315.83 3178.23 3411.08 3128.1 3525.84 3117.87L3526.51 3117.81L3527.19 3117.76C3620.55 3111.62 3701.53 3137.15 3753.52 3207.31C3801.98 3270.06 3819.52 3344.66 3809.08 3426.39C3807.46 3443.01 3804.87 3459.18 3801.33 3474.87C3805.45 3471.13 3810 3467.66 3815.01 3464.51C3840.26 3448.64 3869.15 3446.21 3894.14 3448.17L3895.32 3448.27L3896.32 3448.35L3897.31 3448.47C3947.92 3454.5 3990.94 3477.64 4021.56 3518.34L4022.28 3519.3L4023.1 3520.41L4023.87 3521.55C4044.01 3551.51 4051.84 3586.07 4044.93 3622.13L4044.79 3622.82L4044.64 3623.5C4019.78 3738.22 3968.73 3837.51 3891.21 3919.85L3891.04 3920.04L3890.86 3920.22C3812.26 4002.28 3712.73 4048.29 3595.59 4058.74C3517.57 4065.7 3443.15 4055.25 3373.25 4026.72L3372.75 4026.52L3372.26 4026.3C3338.65 4011.86 3308.06 3993.15 3280.51 3970.4C3219.99 4042.27 3142.07 4083.61 3049.36 4091.88C3000.05 4096.27 2953.3 4087.04 2911.43 4062.48C2893.08 4051.72 2876.39 4038.44 2861.22 4023.01C2805.63 4082.98 2738.25 4119.62 2658.85 4126.7C2559.56 4135.56 2473.09 4093.08 2401.79 4012.5L2401.52 4012.2L2401.25 4011.88C2326.28 3924.73 2299.26 3801.28 2307.95 3653.17L2308 3652.4L2308.06 3651.64C2319.65 3515.46 2368.15 3400.5 2455.95 3310.88L2456.26 3310.56L2456.57 3310.25C2535.64 3231.95 2630.06 3189.83 2737.19 3184.68C2749.33 3086.69 2768.93 3006.04 2797.84 2945.42C2832.22 2873.35 2885.31 2819.6 2962.19 2812.75L2962.92 2812.68ZM2967.38 2870.97C2870.92 2879.57 2811.68 3003.79 2789.65 3243.63L2788.31 3243.54C2674.92 3236.14 2578.05 3272.22 2497.71 3351.78L2496.8 3352.71C2420.36 3431.18 2376.86 3532.48 2366.31 3656.59L2366.12 3659.88C2358.48 3798.68 2384.96 3903.31 2445.57 3973.76C2507.26 4043.48 2576.32 4075.08 2652.76 4068.56L2653.65 4068.48C2736.07 4061.13 2805.48 4013.88 2861.89 3926.72C2906.62 4004.86 2967.38 4040.5 3044.17 4033.65C3141.03 4025.01 3217.25 3973.87 3272.81 3880.23C3306.66 3921.25 3347.5 3952.04 3395.34 3972.6C3455.6 3997.2 3520.08 4006.55 3588.77 4000.66L3590.39 4000.51C3693.53 3991.32 3779.08 3951.63 3847.04 3881.45L3848.65 3879.79C3917.94 3806.17 3964.05 3717.44 3986.98 3613.58L3987.52 3611.12C3991.38 3590.96 3987.33 3571.97 3975.36 3554.16C3954.97 3526.71 3926.66 3510.83 3890.4 3506.51C3852.36 3503.3 3831.35 3516.5 3827.39 3546.11C3818.68 3607.3 3795.35 3663.19 3757.38 3713.77L3756.49 3714.95C3718.64 3764.79 3669.05 3792.44 3607.72 3797.91L3602.53 3739.69C3647.47 3735.68 3682.4 3716.3 3710.63 3678.68C3734.76 3646.53 3751.7 3612.26 3761.74 3575.56C3742.13 3608.84 3716.72 3638.99 3685.58 3665.76C3651.77 3695.41 3614.53 3720.35 3574.06 3740.67C3582.83 3740.91 3592.3 3740.6 3602.53 3739.69L3607.72 3797.91L3605.86 3798.07C3527.22 3804.65 3470.13 3781.9 3434.57 3729.81C3517.69 3709.19 3588.57 3673.13 3647.22 3621.65C3708.6 3568.98 3743.19 3501.71 3750.99 3419.83C3759.96 3351.07 3745.25 3291.97 3706.86 3242.53C3670.35 3192.93 3611.73 3170.78 3531.03 3176.09C3431.76 3184.94 3351.08 3227.54 3288.98 3303.87L3288.25 3304.77C3229.64 3377.3 3197.22 3477.57 3190.99 3605.58C3182.82 3663.16 3166.72 3713.72 3142.7 3757.26L3142.09 3758.35C3116.24 3804.33 3089.85 3828.52 3062.9 3830.92L3062.33 3830.97C3014.05 3834.38 2994.65 3720.48 3004.12 3489.27C3008.29 3387.9 3019.28 3283.56 3037.08 3176.25C3057.28 3064.01 3075.24 2990.2 3090.96 2954.81C3100.37 2934.31 3091.76 2914.94 3065.14 2896.72L3064.5 2896.29C3037.3 2877 3004.92 2868.56 2967.38 2870.97ZM2578.67 3640.49C2602.83 3498.63 2669.94 3430.82 2779.99 3437.05C2780.19 3471.01 2780.53 3496 2781.01 3512C2781.28 3557.29 2781.7 3583.21 2782.29 3589.76C2780.19 3672.07 2769.09 3738.19 2749 3788.12C2728.83 3837.12 2700.48 3863.25 2663.96 3866.5L2658.77 3808.28C2664.49 3807.77 2678.86 3804.81 2694.85 3766.11C2711.12 3725.58 2721.62 3668.03 2723.78 3590.79C2723.12 3578.34 2722.79 3551.18 2722.56 3513.01C2722.47 3509.77 2722.38 3506.22 2722.3 3502.35C2709.01 3507.38 2698.05 3514.87 2688.67 3524.35C2666.9 3546.35 2647.4 3585.4 2636.36 3649.95C2626.46 3713.12 2630.62 3757.1 2642.21 3786.38C2648.29 3801.36 2653.62 3806.53 2655.27 3807.8C2655.65 3808.1 2655.86 3808.2 2655.9 3808.22C2655.93 3808.24 2655.92 3808.23 2655.93 3808.24C2655.94 3808.24 2656.11 3808.29 2656.52 3808.32C2656.93 3808.35 2657.66 3808.38 2658.77 3808.28L2663.96 3866.5C2630.25 3869.51 2604.91 3850.06 2587.96 3808.15C2570.92 3765.3 2567.83 3709.42 2578.67 3640.49ZM3501.84 3372.67C3522.44 3370.84 3539.24 3379.25 3552.23 3397.91C3565.14 3415.64 3568.46 3437.05 3562.2 3462.15C3555.18 3489.21 3537.13 3514.42 3508.07 3537.78L3507.38 3538.32C3478.44 3561.38 3443.28 3577.1 3401.88 3585.48C3404.54 3520.11 3415.1 3469.14 3433.55 3432.57L3433.55 3432.57C3452.85 3394.98 3475.61 3375.01 3501.84 3372.67ZM3504.94 3432.28C3504.56 3432.57 3504.12 3432.93 3503.64 3433.35C3499.53 3436.95 3493.13 3444.55 3485.65 3459.09C3481.31 3467.71 3477.34 3478.04 3473.87 3490.23C3494.44 3473.13 3502.66 3458.65 3505.56 3447.7C3508.34 3436.31 3505.82 3433.49 3504.97 3432.32L3504.94 3432.28Z" fill="#FF8800"/>
<path d="M992.601 2424.23C1103.34 2480.86 1185.16 2546 1238.04 2619.67C1290.93 2693.33 1322.15 2783.77 1331.71 2890.98C1339.91 2982.88 1325.78 3070.84 1289.33 3154.84C1251.71 3238.95 1192.25 3311.35 1110.97 3372.04C1029.69 3432.73 933.09 3468.06 821.161 3478.05C637.363 3494.44 491.146 3452.85 382.511 3353.28C273.981 3254.89 211.52 3113.8 195.129 2930C191.767 2892.3 216.786 2853.25 270.187 2812.86C324.766 2772.37 376.798 2749.91 426.282 2745.5C446.312 2743.71 456.799 2748.12 457.745 2758.73C458.375 2765.8 458.405 2779.45 457.835 2799.69C458.443 2819.82 458.958 2832.25 459.378 2836.96C469.675 2952.42 507.693 3045.82 573.433 3117.15C639.172 3188.48 712.69 3220.52 793.985 3213.27C867.033 3206.75 927.481 3178.8 975.329 3129.4C1023.07 3078.83 1043.69 3017.02 1037.17 2943.97C1030.34 2867.39 1008.28 2806.42 970.98 2761.05C933.473 2713.33 870.045 2667.92 780.697 2624.83C562.407 2520.79 444.961 2375.69 428.359 2189.53C415.33 2043.44 454.581 1917.62 546.112 1812.08C638.715 1705.25 760.421 1645.11 911.23 1631.66C1040.83 1620.1 1158.91 1645.79 1265.47 1708.73C1372.02 1771.67 1429.24 1847.32 1437.12 1935.69C1440.38 1972.21 1415.24 2016.61 1361.71 2068.89C1310.54 2120.95 1270.23 2148.3 1240.77 2150.93C1232.53 2151.66 1228.09 2148.5 1227.46 2141.43C1215.7 2062.91 1179.78 1999.61 1119.67 1951.53C1061.82 1902.06 993.425 1880.85 914.486 1887.89C849.685 1893.66 797.811 1917.89 758.864 1960.55C721.094 2003.11 705.099 2056.79 710.878 2121.59C716.027 2179.32 739.711 2231.83 781.932 2279.13C824.152 2326.43 894.375 2374.8 992.601 2424.23Z" fill="white"/>
<path d="M2511.78 2558.24C2450.02 2851.14 2321.35 3006.31 2125.77 3023.75C2023.27 3032.9 1942.69 2994.95 1884.04 2909.93C1814.27 3006.41 1731.08 3058.95 1634.46 3067.57C1590.87 3071.46 1547.56 3065.23 1504.54 3048.87C1461.41 3031.34 1419.64 3002.41 1379.23 2962.07C1340 2921.63 1310.85 2867.82 1291.8 2800.64C1271.57 2733.57 1264.26 2651.68 1269.89 2554.99C1282.26 2400.69 1324.18 2278.2 1395.66 2187.5C1468.21 2095.53 1562.81 2044.34 1679.45 2033.94C1752.6 2028.6 1823.94 2049.55 1893.47 2096.79C1933.3 2037.43 1985.94 2008.39 2051.37 2009.68C2094.31 2011.79 2125.87 2026.19 2146.07 2052.89C2167.34 2078.31 2171.52 2105.25 2158.62 2133.71C2138.63 2175.87 2116.62 2241.96 2092.58 2331.99C2071.34 2413.45 2059.71 2482.77 2057.69 2539.96C2055.74 2611.38 2063.2 2668.31 2080.04 2710.75C2097.96 2751.91 2121.06 2771.22 2149.34 2768.7C2183.51 2765.65 2216.44 2735.4 2248.13 2677.95C2279.92 2621.67 2301.24 2554.46 2312.09 2476.3C2318.15 2437.75 2344.63 2421.74 2391.52 2428.24C2438.21 2432.39 2473.3 2453.01 2496.8 2490.11C2511.86 2512.51 2516.85 2535.23 2511.78 2558.24ZM1798.41 2449.07C1801.51 2390.6 1807.32 2342.58 1815.85 2305.01C1784.08 2281.72 1746.99 2271.96 1704.57 2275.74C1662.16 2279.53 1625.71 2303.56 1595.22 2347.84C1565.8 2390.84 1546.26 2451.37 1536.59 2529.42C1526.59 2617.01 1532.25 2687.16 1553.58 2739.89C1574.91 2792.62 1606.19 2817.14 1647.43 2813.46C1739.33 2805.27 1789.38 2687.39 1797.59 2459.83C1797.48 2458.65 1797.33 2456.89 1797.12 2454.53C1798.08 2452.07 1798.52 2450.25 1798.41 2449.07Z" fill="white"/>
<path d="M2982.52 1663.58C3082.1 1674.89 3131.02 1777.4 3129.3 1971.13C3239.93 1720.19 3371.26 1601.6 3523.31 1615.35C3605.97 1623.42 3654.57 1668.96 3669.1 1751.98C3684.07 1826.65 3680.3 1930.9 3657.8 2064.73C3641.59 2149.3 3636.77 2215.05 3643.32 2261.96C3651.06 2308.78 3662.2 2340.44 3676.74 2356.96C3692.45 2373.37 3710.91 2380.63 3732.12 2378.74C3766.29 2375.69 3799.22 2345.44 3830.91 2287.99C3862.7 2231.71 3884.02 2164.49 3894.86 2086.34C3899.85 2049.08 3925.16 2033.16 3970.77 2038.6C4017.56 2043.92 4053.72 2063.26 4079.26 2096.61C4095.5 2118.91 4100.6 2142.8 4094.56 2168.28C4066.27 2303.81 4013.38 2416.6 3935.91 2506.64C3860.69 2595.29 3770.76 2638.93 3666.13 2637.58C3458.27 2637.11 3365.41 2488.04 3387.55 2190.36C3387.24 2186.83 3387.51 2183.24 3388.37 2179.6C3388.71 2170.07 3389.32 2156.95 3390.21 2140.25C3392.17 2122.26 3393.47 2110.27 3394.12 2104.27C3398.19 2043.34 3399.07 1999.92 3396.76 1974C3391.19 1911.55 3374.85 1881.54 3347.76 1883.96C3300.63 1888.16 3250.45 1984.67 3197.22 2173.49C3146.25 2360.92 3119.36 2518.89 3116.57 2647.4C3115.25 2672.45 3105.04 2691.18 3085.96 2703.57C3058.84 2719.05 3028.14 2727.73 2993.87 2729.59C2957.24 2731.67 2922.61 2722.89 2889.98 2703.23C2858.42 2682.3 2841.28 2656.51 2838.55 2625.88C2828.67 2515.13 2831.41 2386.03 2846.76 2238.59C2855.4 2135.69 2858.67 2065.93 2856.6 2029.3C2856.5 1961.61 2839.95 1929.24 2806.96 1932.19C2758.66 1936.49 2712.06 2006.56 2667.17 2142.38C2624.43 2275.64 2595.39 2409.46 2580.06 2543.83C2580.27 2546.19 2579.84 2548.01 2578.76 2549.29L2577.87 2699C2577.48 2734.66 2554.74 2759.26 2509.63 2772.78C2465.59 2785.02 2419.55 2781.41 2371.5 2761.94C2325.91 2743.44 2301.33 2714.16 2297.75 2674.11C2285.36 2535.08 2289.6 2336.38 2310.5 2078C2319.27 1963.21 2337.41 1873.71 2364.94 1809.5C2393.54 1744.01 2437.89 1702.06 2498 1683.63C2555.75 1665.42 2598.05 1666.99 2624.9 1688.35C2651.64 1708.53 2659.94 1735.1 2649.82 1768.07C2633.24 1821.8 2621.3 1881.05 2614.01 1945.83C2720.6 1742.75 2843.43 1648.67 2982.52 1663.58Z" fill="white"/>
<path d="M3900.77 1896.45C3908.58 1651.11 3927.43 1462.98 3957.32 1332.06C3991.1 1178.23 4051 1097.47 4137 1089.8C4183.06 1086.88 4223.2 1097.56 4257.43 1121.82C4290.37 1145.01 4302.06 1169.5 4292.48 1195.29C4262.6 1259.71 4232.46 1414.4 4202.05 1659.38C4294.57 1538.31 4394.31 1484.88 4501.27 1499.09C4582 1512.08 4638.77 1569.37 4671.58 1670.95C4704.39 1772.53 4708.69 1887.34 4684.48 2015.38C4659.15 2170.83 4602.33 2299.41 4514.02 2401.1C4426.79 2501.51 4330.96 2552.21 4226.54 2553.21C4116.23 2554.74 4032.32 2499.28 3974.79 2386.84C3918.33 2273.12 3893.66 2109.66 3900.77 1896.45ZM4174.01 2084.06C4172.94 2085.34 4172.56 2087.75 4172.88 2091.29C4172.08 2242.18 4196.43 2315.42 4245.91 2311C4284.79 2307.54 4320.29 2279.43 4352.4 2226.69C4384.41 2172.77 4406.37 2106.09 4418.28 2026.65C4429.44 1952.02 4427.41 1889.26 4412.18 1838.37C4398.13 1787.37 4374.02 1763.39 4339.85 1766.44C4299.8 1770.01 4265.1 1800.42 4235.77 1857.66C4206.33 1913.73 4185.74 1989.19 4174.01 2084.06Z" fill="white"/>
<path d="M5840.94 1986.09C5779.19 2278.99 5650.52 2434.16 5454.94 2451.6C5352.43 2460.74 5271.86 2422.8 5213.21 2337.77C5143.43 2434.25 5060.24 2486.8 4963.63 2495.41C4920.04 2499.3 4876.73 2493.07 4833.71 2476.72C4790.58 2459.19 4748.81 2430.26 4708.4 2389.92C4669.16 2349.48 4640.02 2295.67 4620.96 2228.49C4600.73 2161.41 4593.43 2079.53 4599.06 1982.84C4611.42 1828.54 4653.34 1706.04 4724.82 1615.35C4797.37 1523.37 4891.97 1472.19 5008.61 1461.78C5081.77 1456.45 5153.11 1477.4 5222.63 1524.64C5262.47 1465.27 5315.1 1436.23 5380.53 1437.52C5423.47 1439.63 5455.04 1454.04 5475.23 1480.74C5496.5 1506.15 5500.69 1533.09 5487.79 1561.56C5467.79 1603.72 5445.78 1669.81 5421.75 1759.83C5400.51 1841.29 5388.88 1910.62 5386.85 1967.8C5384.91 2039.23 5392.36 2096.16 5409.21 2138.6C5427.13 2179.75 5450.23 2199.07 5478.51 2196.55C5512.67 2193.5 5545.6 2163.25 5577.29 2105.79C5609.09 2049.52 5630.41 1982.3 5641.25 1904.14C5647.31 1865.6 5673.79 1849.58 5720.69 1856.09C5767.37 1860.24 5802.46 1880.86 5825.96 1917.95C5841.02 1940.36 5846.02 1963.07 5840.94 1986.09ZM5127.58 1876.92C5130.67 1818.45 5136.49 1770.43 5145.01 1732.85C5113.24 1709.56 5076.15 1699.81 5033.74 1703.59C4991.32 1707.37 4954.87 1731.4 4924.38 1775.69C4894.96 1818.69 4875.42 1879.22 4865.76 1957.27C4855.76 2044.85 4861.42 2115.01 4882.75 2167.73C4904.07 2220.46 4935.36 2244.98 4976.59 2241.31C5068.49 2233.11 5118.55 2115.24 5126.75 1887.68C5126.65 1886.5 5126.49 1884.73 5126.28 1882.38C5127.25 1879.91 5127.68 1878.09 5127.58 1876.92Z" fill="white"/>
<path d="M616.417 3077.53C672.459 3138.34 729.083 3160.37 788.793 3155.04L793.986 3213.27L793.033 3213.35C712.116 3220.27 638.916 3188.2 573.433 3117.15L616.417 3077.53ZM4132.56 1031.51L4133.31 1031.47C4191.22 1027.79 4244.86 1041.31 4291.07 1074.02L4291.07 1074.02C4312.06 1088.79 4331.9 1107.75 4343.66 1132.41C4356.42 1159.14 4357.49 1188.15 4347.28 1215.63L4346.48 1217.8L4345.51 1219.89C4333.79 1245.16 4319.83 1293.87 4304.84 1370.81C4297.61 1407.9 4290.33 1450.53 4282.99 1498.75C4351.76 1451.62 4427.18 1430.28 4508.97 1441.15L4509.77 1441.25L4510.56 1441.38C4589.76 1454.12 4648.48 1499.19 4688.94 1566.83C4770.2 1469.9 4876.05 1414.92 5003.42 1403.56L5003.89 1403.52L5004.36 1403.48C5075.58 1398.29 5144.21 1414.08 5209.47 1448.54C5255.05 1402.54 5312.72 1377.98 5380.66 1379.06L5381.68 1379.08L5382.54 1379.1L5383.4 1379.14C5437.85 1381.81 5487.51 1400.89 5520.97 1444.31C5536.5 1463.19 5548.12 1485.49 5552.09 1511.03C5556.17 1537.32 5551.47 1562.65 5541.03 1585.69L5540.82 1586.15L5540.6 1586.6C5522.99 1623.75 5502.08 1685.57 5478.26 1774.75C5457.72 1853.6 5447.13 1918.27 5445.28 1969.6C5443.48 2036.37 5450.67 2084.07 5463.19 2116.14C5468.65 2128.48 5473.29 2134.76 5475.92 2137.6C5482.64 2135.01 5500.66 2123.7 5526.11 2077.56L5526.25 2077.3L5526.4 2077.04C5553.87 2028.41 5573.3 1968.54 5583.35 1896.11L5583.42 1895.58L5583.51 1895.06C5588.46 1863.57 5603.7 1832.38 5635.4 1813.21C5664.35 1795.69 5697.62 1794.07 5727.3 1797.99C5789.77 1803.92 5841.17 1833.19 5874.89 1885.97C5897.09 1919.28 5906.94 1957.76 5898.11 1998.31C5866.15 2149.81 5815.71 2271.91 5743.12 2359.45C5669.13 2448.68 5573.9 2499.68 5460.13 2509.82C5362.76 2518.51 5279.47 2490.8 5214.01 2428.63C5145.35 2501.5 5063.62 2545.18 4968.82 2553.64C4915.96 2558.35 4863.79 2550.69 4812.94 2531.36L4812.31 2531.12L4811.69 2530.87C4759.92 2509.83 4711.81 2475.92 4667.1 2431.29L4666.77 2430.96L4666.44 2430.62C4647.12 2410.71 4630.15 2388.43 4615.39 2364C4597.96 2390.41 4578.88 2415.56 4558.16 2439.43L4558.15 2439.44C4463.16 2548.78 4352.6 2610.46 4227.1 2611.66L4227.1 2611.66C4161.5 2612.53 4101.27 2596.31 4048.64 2561.53C4031.06 2549.91 4014.69 2536.46 3999.5 2521.34C3993.28 2529.24 3986.9 2537 3980.35 2544.61C3895.36 2644.69 3789.64 2697.54 3665.71 2696.03C3546.09 2695.69 3450.1 2651.25 3390.97 2556.33C3335.24 2466.86 3318.11 2341.43 3328.99 2189.62C3328.86 2183.99 3329.26 2178.45 3330.12 2173.04C3330.5 2163.58 3331.07 2151.59 3331.83 2137.15L3331.92 2135.53L3332.1 2133.92L3390.21 2140.25C3389.32 2156.95 3388.71 2170.07 3388.37 2179.6C3387.51 2183.24 3387.24 2186.83 3387.55 2190.36C3365.41 2488.04 3458.27 2637.11 3666.13 2637.58C3770.76 2638.93 3860.69 2595.29 3935.91 2506.64C3957.99 2480.98 3978.07 2453.47 3996.16 2424.11C4052.4 2511.52 4129.19 2554.56 4226.54 2553.21C4330.96 2552.21 4426.79 2501.51 4514.02 2401.1C4557.57 2350.95 4593.46 2294.26 4621.7 2231.04C4640.76 2297.03 4669.66 2349.99 4708.4 2389.92C4748.81 2430.26 4790.58 2459.19 4833.71 2476.72C4876.39 2492.94 4919.36 2499.2 4962.61 2495.5L4963.63 2495.41C5060.24 2486.8 5143.43 2434.25 5213.21 2337.77C5271.86 2422.8 5352.43 2460.74 5454.94 2451.6C5650.52 2434.16 5779.19 2278.99 5840.94 1986.09C5846.02 1963.07 5841.02 1940.36 5825.96 1917.95C5802.65 1881.15 5767.92 1860.56 5721.78 1856.19L5720.69 1856.09C5673.79 1849.58 5647.31 1865.6 5641.25 1904.14L5641 1905.97C5630.07 1983.35 5608.84 2049.96 5577.29 2105.79C5545.6 2163.25 5512.67 2193.5 5478.51 2196.55L5477.84 2196.6C5450.09 2198.75 5427.35 2179.73 5409.63 2139.56L5409.21 2138.6C5392.36 2096.16 5384.91 2039.23 5386.85 1967.8C5388.88 1910.62 5400.51 1841.29 5421.75 1759.83C5445.41 1671.22 5467.11 1605.79 5486.85 1563.55L5487.79 1561.56C5500.69 1533.09 5496.5 1506.15 5475.23 1480.74C5455.2 1454.24 5423.96 1439.86 5381.54 1437.57L5380.53 1437.52C5315.1 1436.23 5262.47 1465.27 5222.64 1524.64C5153.11 1477.4 5081.77 1456.45 5008.61 1461.78C4891.97 1472.19 4797.37 1523.38 4724.82 1615.35C4707.06 1637.88 4691.13 1662.38 4677.02 1688.84C4675.3 1682.83 4673.49 1676.86 4671.58 1670.95C4638.77 1569.37 4582 1512.08 4501.27 1499.09C4394.31 1484.88 4294.57 1538.31 4202.05 1659.38C4232.34 1415.36 4262.36 1260.92 4292.13 1196.05L4292.48 1195.29C4301.98 1169.7 4290.55 1145.39 4258.2 1122.36L4257.43 1121.82C4223.2 1097.56 4183.06 1086.88 4137 1089.8C4051 1097.47 3991.1 1178.23 3957.32 1332.06C3927.43 1462.98 3908.58 1651.11 3900.77 1896.45L3900.61 1901.43C3898.82 1958.84 3899.35 2012.62 3902.21 2062.76C3898.54 2069.33 3896.09 2077.19 3894.86 2086.34C3884.02 2164.49 3862.7 2231.71 3830.91 2287.99C3799.22 2345.44 3766.29 2375.69 3732.12 2378.74L3732.12 2378.74C3710.91 2380.63 3692.45 2373.37 3676.74 2356.96C3662.2 2340.44 3651.06 2308.78 3643.33 2261.96C3636.87 2215.78 3641.44 2151.35 3657.05 2068.68L3657.8 2064.73C3680.3 1930.9 3684.07 1826.65 3669.1 1751.98C3654.63 1669.28 3606.35 1623.77 3524.28 1615.45L3523.31 1615.35C3371.26 1601.6 3239.93 1720.19 3129.3 1971.13C3131.02 1777.4 3082.1 1674.89 2982.52 1663.58C2843.43 1648.67 2720.6 1742.75 2614.01 1945.83C2621.19 1882.07 2632.86 1823.65 2649.05 1770.59L2649.82 1768.07C2659.94 1735.1 2651.64 1708.53 2624.9 1688.35C2598.05 1666.99 2555.75 1665.42 2498 1683.63L2498 1683.63C2437.89 1702.06 2393.54 1744.01 2364.94 1809.5L2364.29 1811.01C2337.13 1875.11 2319.2 1964.11 2310.5 2078C2294.26 2278.78 2288.08 2443.52 2291.95 2572.23C2280.68 2610.95 2266.07 2646.19 2248.13 2677.95C2216.44 2735.4 2183.51 2765.65 2149.34 2768.7C2121.06 2771.22 2097.96 2751.91 2080.04 2710.75C2063.2 2668.31 2055.74 2611.38 2057.69 2539.96C2059.71 2482.77 2071.34 2413.45 2092.58 2331.99C2116.24 2243.37 2137.94 2177.94 2157.68 2135.71L2158.62 2133.71C2171.52 2105.25 2167.34 2078.31 2146.07 2052.89C2126.03 2026.4 2094.8 2012.01 2052.37 2009.73L2051.37 2009.68C1985.94 2008.39 1933.3 2037.43 1893.47 2096.79C1823.94 2049.55 1752.6 2028.6 1679.45 2033.94C1562.81 2044.34 1468.21 2095.53 1395.66 2187.5C1324.18 2278.2 1282.26 2400.69 1269.89 2554.99L1269.76 2557.25C1267.49 2597.64 1267.48 2635.42 1269.75 2670.62C1260.22 2652.82 1249.66 2635.84 1238.04 2619.67C1185.16 2546 1103.34 2480.86 992.602 2424.23C895.143 2375.19 825.251 2327.19 782.927 2280.24L781.932 2279.13C740.041 2232.2 716.398 2180.14 711.002 2122.94L710.878 2121.59C705.099 2056.79 721.095 2003.11 758.864 1960.55C797.812 1917.89 849.686 1893.66 914.486 1887.89C993.425 1880.85 1061.82 1902.06 1119.67 1951.53C1179.78 1999.61 1215.7 2062.91 1227.46 2141.43C1228.08 2148.39 1232.39 2151.56 1240.39 2150.96L1240.77 2150.93C1270.23 2148.3 1310.54 2120.95 1361.71 2068.89C1414.83 2017.02 1439.98 1972.91 1437.19 1936.55L1437.12 1935.69C1429.24 1847.32 1372.02 1771.67 1265.47 1708.73L1264.22 1708C1157.99 1645.59 1040.33 1620.15 911.231 1631.66C760.422 1645.11 638.716 1705.25 546.112 1812.08L545.042 1813.31C454.276 1918.6 415.381 2044.01 428.36 2189.53C444.961 2375.69 562.407 2520.79 780.697 2624.83L782.786 2625.84C871.035 2668.63 933.766 2713.7 970.981 2761.05C1008.28 2806.42 1030.34 2867.39 1037.17 2943.97L1037.32 2945.68C1043.36 3017.99 1022.7 3079.23 975.329 3129.4C927.481 3178.8 867.034 3206.75 793.986 3213.27L788.793 3155.04C848.734 3149.7 895.717 3127.45 933.081 3089C968.469 3051.38 984.056 3006.44 978.948 2949.16C972.843 2880.72 953.657 2832.02 925.828 2798.18L925.42 2797.68L925.023 2797.17C895.448 2759.55 841.143 2718.89 755.353 2677.5C524.803 2567.57 389.112 2407.51 370.136 2194.73C355.832 2034.34 399.117 1893.07 500.752 1775.16L501.951 1773.78C605.221 1654.65 741.328 1588.13 906.038 1573.44C1047.15 1560.85 1177.55 1588.91 1295.2 1658.4C1411.08 1726.85 1485.19 1816.62 1495.35 1930.5C1498.37 1964.37 1487.78 1996.57 1471.58 2025.18C1466.31 2034.5 1460.24 2043.8 1453.44 2053.08C1517.34 2009.06 1591.22 1983.12 1674.25 1975.72L1674.72 1975.67L1675.19 1975.64C1746.41 1970.44 1815.04 1986.23 1880.3 2020.69C1925.89 1974.7 1983.56 1950.13 2051.5 1951.22L2052.52 1951.23L2053.38 1951.25L2054.23 1951.29C2108.69 1953.97 2158.36 1973.05 2191.82 2016.48C2207.35 2035.36 2218.95 2057.65 2222.92 2083.19C2227 2109.47 2222.3 2134.81 2211.86 2157.84L2211.66 2158.3L2211.44 2158.76C2193.83 2195.9 2172.92 2257.71 2149.11 2346.89C2128.55 2425.76 2117.96 2490.45 2116.11 2541.8C2114.32 2608.54 2121.51 2656.23 2134.02 2688.29C2139.49 2700.64 2144.12 2706.91 2146.76 2709.76C2153.48 2707.16 2171.49 2695.85 2196.94 2649.72L2197.09 2649.45L2197.23 2649.19C2211.46 2624.02 2223.52 2595.83 2233.25 2564.45C2229.86 2433.89 2236.33 2269.94 2252.23 2073.39C2261.21 1955.86 2280.06 1859.13 2311.21 1786.47L2311.29 1786.29L2311.37 1786.11C2345.69 1707.5 2401.94 1652.06 2480.49 1627.86C2542.59 1608.29 2610.09 1602.3 2660.73 1642.16C2681.54 1658.02 2698.57 1679.1 2706.97 1705.97C2707.68 1708.23 2708.31 1710.5 2708.88 1712.76C2789.98 1633.9 2882.89 1594.11 2988.75 1605.46L2988.93 1605.48L2989.12 1605.5C3061.91 1613.76 3114.88 1657.19 3146.65 1723.77C3154.46 1740.13 3161.04 1757.94 3166.5 1777.09C3264.23 1627.44 3383.43 1544 3528.58 1557.13L3528.78 1557.15L3528.99 1557.17C3579.92 1562.14 3625.9 1579.33 3661.73 1612.91C3697.31 1646.26 3717.63 1690.86 3726.56 1741.21C3743.45 1826.23 3738.29 1938.56 3715.45 2074.42L3715.33 2075.07L3715.21 2075.73C3699.49 2157.75 3696.04 2215.78 3701.12 2253.16C3704.61 2274.1 3708.59 2289.95 3712.62 2301.43C3714.64 2307.17 3716.51 2311.34 3718.06 2314.24C3718.82 2315.67 3719.45 2316.69 3719.92 2317.38C3719.99 2317.5 3720.07 2317.6 3720.13 2317.7C3722.27 2319.7 3723.51 2320.22 3723.76 2320.31C3723.94 2320.38 3724.69 2320.72 3726.93 2320.52C3729.52 2320.28 3749.32 2314.87 3779.72 2259.76L3779.87 2259.49L3780.01 2259.23C3807.49 2210.6 3826.92 2150.74 3836.96 2078.3C3838.15 2069.55 3840.16 2060.8 3843.12 2052.3C3840.72 2002.52 3840.5 1949.88 3842.35 1894.5C3850.19 1648.16 3869.16 1455.73 3900.26 1319.34C3918.03 1238.52 3943.79 1170.96 3980.63 1121.3C4018.72 1069.94 4069.4 1037.15 4131.81 1031.58L4132.56 1031.51ZM1705.57 2275.66C1747.57 2272.11 1784.33 2281.9 1815.85 2305.01C1807.32 2342.58 1801.51 2390.6 1798.41 2449.07L1798.41 2449.07L1798.42 2449.3C1798.46 2450.48 1798.02 2452.22 1797.12 2454.53L1797.59 2459.83C1789.38 2687.39 1739.33 2805.27 1647.43 2813.46L1642.24 2755.24C1658.63 2753.78 1679.77 2743.91 1700.09 2696.06C1720.72 2647.47 1734.85 2570.73 1739.04 2461.34L1737.67 2445.98L1740.43 2438.96C1742.58 2401.48 1745.88 2367.43 1750.47 2337.06C1738.4 2333.72 1724.99 2332.61 1709.77 2333.97C1689.11 2335.81 1666.83 2346.94 1643.42 2380.92C1621.32 2413.24 1603.7 2463.42 1594.64 2536.33C1585.24 2618.93 1591.59 2677.98 1607.77 2717.97C1616.16 2738.7 1624.24 2748.01 1629.1 2751.82C1632.52 2754.5 1635.75 2755.82 1642.24 2755.24L1647.43 2813.46L1646.46 2813.54C1605.7 2816.75 1574.74 2792.2 1553.58 2739.89C1532.42 2687.58 1526.68 2618.1 1536.36 2531.47L1536.59 2529.42C1546.26 2451.37 1565.8 2390.84 1595.22 2347.84C1625.71 2303.56 1662.16 2279.53 1704.57 2275.74L1705.57 2275.66ZM4339.86 1766.44C4374.02 1763.39 4398.13 1787.37 4412.18 1838.37C4427.41 1889.26 4429.44 1952.02 4418.28 2026.65C4406.37 2106.09 4384.41 2172.77 4352.4 2226.69C4320.29 2279.43 4284.79 2307.54 4245.91 2311L4245.33 2311.05C4196.24 2314.84 4172.09 2241.59 4172.88 2091.29C4172.57 2087.86 4172.92 2085.49 4173.92 2084.18L4174.01 2084.06C4185.65 1989.94 4206.01 1914.91 4235.08 1858.98L4235.77 1857.66C4265.1 1800.42 4299.8 1770.01 4339.86 1766.44ZM4936.94 2145.81C4945.32 2166.55 4953.41 2175.86 4958.27 2179.67C4961.69 2182.35 4964.91 2183.66 4971.4 2183.08L4976.59 2241.31C4935.36 2244.98 4904.08 2220.46 4882.75 2167.73L4936.94 2145.81ZM4343.45 1824.86C4332.77 1826.49 4312.39 1836.31 4287.79 1884.32L4287.66 1884.58L4287.52 1884.84C4262.58 1932.34 4243.29 2000.16 4232.03 2091.23L4231.31 2096.99C4231.24 2167.89 4237.18 2214.38 4246.01 2240.94C4247.38 2245.08 4248.67 2248.24 4249.78 2250.63C4262.22 2245.98 4280.36 2232.53 4302.3 2196.56C4329.45 2150.73 4349.4 2091.8 4360.47 2017.98C4370.85 1948.54 4368.13 1895.08 4356.18 1855.12L4355.99 1854.51L4355.82 1853.89C4350.99 1836.34 4346.01 1828.1 4343.45 1824.86ZM3338.53 1979.19C3338.16 1975.03 3337.74 1971.15 3337.29 1967.52C3333.97 1972.92 3330.41 1979.2 3326.64 1986.46C3304.33 2029.38 3279.78 2096.12 3253.56 2189.09C3203.31 2373.9 3177.66 2526.73 3175.02 2648.67L3175 2649.58L3174.95 2650.49C3172.75 2692 3154.34 2728.87 3117.79 2752.6L3116.39 2753.51L3114.94 2754.33C3079.2 2774.73 3039.56 2785.63 2997.18 2787.95L2997.18 2787.96C2997.14 2787.96 2997.1 2787.96 2997.06 2787.96C2997.06 2787.96 2997.05 2787.96 2997.05 2787.96L2997.05 2787.96C2948.26 2790.71 2902.07 2778.76 2859.82 2753.31L2858.72 2752.65L2857.66 2751.94C2815.08 2723.69 2784.99 2683.46 2780.32 2631.07C2770.04 2515.73 2772.99 2382.91 2788.56 2233.13C2797.2 2130.06 2800.04 2064.46 2798.24 2032.61L2798.14 2031L2798.14 2029.38C2798.13 2019.3 2797.69 2010.78 2796.96 2003.67C2793.36 2007.82 2789.18 2013.24 2784.46 2020.34C2765.4 2049 2744.51 2094.71 2722.76 2160.47C2681.54 2289.03 2653.48 2417.91 2638.52 2547.16C2638.4 2550.69 2638 2554.57 2637.16 2558.65L2636.32 2699.35L2636.32 2699.49L2636.32 2699.63C2635.98 2730.94 2625.32 2760.22 2603.43 2783.88C2582.65 2806.35 2555.12 2820.17 2526.41 2828.77L2525.85 2828.94L2525.28 2829.1C2509.16 2833.58 2492.95 2836.39 2476.69 2837.62C2457.95 2872.34 2437.08 2903.73 2413.96 2931.61C2339.97 3020.83 2244.74 3071.83 2130.96 3081.98C2033.59 3090.66 1950.3 3062.96 1884.84 3000.78C1816.19 3073.65 1734.45 3117.34 1639.66 3125.79C1586.8 3130.51 1534.63 3122.84 1483.77 3103.51L1483.15 3103.28L1482.53 3103.03C1447.89 3088.95 1414.89 3069.11 1383.46 3044.16C1375.4 3089.78 1361.89 3134.46 1342.96 3178.11L1342.83 3178.41L1342.69 3178.71C1300.6 3272.81 1234.39 3352.84 1145.95 3418.88C1055.07 3486.73 947.873 3525.43 826.354 3536.27C630.649 3553.72 466.741 3509.74 343.079 3396.43C221.148 3285.8 154.241 3129.58 136.905 2935.19C130.715 2865.78 177.753 2809.48 234.926 2766.24L235.141 2766.08L235.357 2765.92C295.522 2721.28 357.622 2692.94 421.09 2687.28C434.343 2686.09 453.407 2685.84 471.823 2693.58C481.936 2697.83 492.964 2704.98 501.751 2716.52C510.687 2728.25 514.883 2741.35 515.969 2753.53C516.922 2764.21 516.83 2780.53 516.315 2799.57C516.596 2808.76 516.852 2816.12 517.082 2821.69C517.205 2824.64 517.315 2827 517.414 2828.8C517.462 2829.69 517.505 2830.4 517.541 2830.93C517.559 2831.2 517.574 2831.4 517.585 2831.55C517.596 2831.7 517.602 2831.77 517.602 2831.77C526.985 2936.98 561.025 3017.43 616.417 3077.53L573.433 3117.15C507.694 3045.82 469.675 2952.42 459.378 2836.96C458.958 2832.25 458.444 2819.82 457.836 2799.69C458.388 2780.08 458.377 2766.66 457.803 2759.41L457.745 2758.73C456.814 2748.29 446.638 2743.85 427.215 2745.42L426.283 2745.5C376.799 2749.91 324.767 2772.37 270.188 2812.86C216.787 2853.25 191.767 2892.3 195.129 2930L195.129 2930C211.521 3113.8 273.982 3254.89 382.511 3353.28C491.147 3452.85 637.363 3494.44 821.162 3478.05C932.216 3468.14 1028.18 3433.28 1109.07 3373.46L1110.97 3372.04C1192.25 3311.35 1251.71 3238.95 1289.33 3154.84L1289.33 3154.84C1324.67 3073.39 1339.03 2988.23 1332.4 2899.36C1345.97 2922.97 1361.58 2943.88 1379.23 2962.07C1419.64 3002.41 1461.41 3031.34 1504.54 3048.87C1547.56 3065.22 1590.87 3071.46 1634.46 3067.57L1634.46 3067.57C1731.08 3058.95 1814.27 3006.41 1884.05 2909.93C1942.69 2994.95 2023.27 3032.9 2125.77 3023.75L2125.77 3023.75C2264.38 3011.39 2369.38 2929.86 2440.78 2779.14C2463.89 2781.1 2486.49 2779.08 2508.6 2773.06L2509.63 2772.78C2554.74 2759.26 2577.48 2734.66 2577.86 2699L2577.87 2699L2578.76 2549.29L2578.76 2549.29C2579.84 2548.01 2580.27 2546.19 2580.06 2543.83L2580.06 2543.83C2595.39 2409.46 2624.43 2275.64 2667.17 2142.38C2712.06 2006.56 2758.66 1936.49 2806.96 1932.19C2839.95 1929.24 2856.5 1961.61 2856.6 2029.3L2856.69 2031.04C2858.57 2068.11 2855.26 2137.3 2846.76 2238.59C2831.41 2386.03 2828.67 2515.13 2838.55 2625.88L2838.61 2626.59C2841.52 2656.67 2858.4 2682.06 2889.24 2702.74L2889.98 2703.23C2922.61 2722.89 2957.24 2731.67 2993.87 2729.59C3028.14 2727.73 3058.84 2719.05 3085.96 2703.57L3085.96 2703.57C3104.74 2691.37 3114.93 2673.04 3116.51 2648.57L3116.57 2647.4C3119.36 2518.89 3146.25 2360.92 3197.22 2173.49C3250.45 1984.67 3300.63 1888.16 3347.76 1883.96C3374.85 1881.54 3391.19 1911.56 3396.76 1974L3396.86 1975.23C3399.04 2001.28 3398.13 2044.3 3394.12 2104.27C3393.47 2110.27 3392.17 2122.26 3390.21 2140.25L3332.1 2133.92C3333.93 2117.11 3335.19 2105.53 3335.88 2099.19C3339.87 2039.03 3340.39 2000 3338.53 1979.19ZM5127.59 1877.15C5127.63 1878.32 5127.19 1880.07 5126.28 1882.38L5126.75 1887.68C5118.55 2115.24 5068.49 2233.11 4976.59 2241.31L4971.4 2183.08C4987.79 2181.62 5008.94 2171.75 5029.25 2123.91C5049.89 2075.32 5064.01 1998.57 5068.2 1889.19L5066.83 1873.82L5069.59 1866.81C5071.74 1829.33 5075.04 1795.28 5079.63 1764.91C5067.56 1761.56 5054.16 1760.45 5038.93 1761.81C5018.27 1763.65 4995.98 1774.79 4972.56 1808.79C4950.48 1841.11 4932.86 1891.29 4923.8 1964.18C4914.4 2046.77 4920.76 2105.82 4936.94 2145.81L4882.75 2167.73C4861.42 2115.01 4855.76 2044.85 4865.76 1957.27C4875.42 1879.22 4894.96 1818.69 4924.38 1775.69C4954.87 1731.4 4991.32 1707.37 5033.74 1703.59C5076.15 1699.81 5113.25 1709.56 5145.01 1732.85C5136.62 1769.84 5130.86 1816.95 5127.72 1874.18L5127.58 1876.92L5127.59 1877.15ZM769.103 2116.39C773.028 2160.42 790.863 2201.36 825.541 2240.21C860.264 2279.11 922.138 2323.13 1016.64 2370.89L1018.88 2372.01L1019.05 2372.1L1019.21 2372.19C1096.78 2411.85 1162.81 2456.48 1215.97 2506.64C1231.91 2373.33 1270.89 2260.03 1335.79 2169.85C1332.48 2172.28 1329.18 2174.61 1325.92 2176.82C1302.27 2192.87 1275.04 2206.56 1245.97 2209.15C1234.88 2210.14 1215.5 2209.67 1197.31 2196.69C1178.39 2183.19 1171.36 2163.96 1169.51 2149.18C1159.73 2085.16 1131.13 2035.55 1083.16 1997.18L1082.41 1996.58L1081.68 1995.96C1036.32 1957.17 983.676 1940.4 919.679 1946.11C867.639 1950.75 830.11 1969.36 802.313 1999.66C776.984 2028.36 764.545 2065.29 769.103 2116.39Z" fill="#FF8800"/>
<path d="M1531.15 5289.08C1542.34 5391.48 1516.35 5471.11 1453.18 5527.97C1390.01 5584.83 1307.5 5608.66 1205.65 5599.43C1154.26 5594.87 1108.55 5574.43 1068.5 5538.1C1029.26 5500.76 1003.85 5454.5 992.268 5399.33C979.773 5344.26 985.113 5283.08 1008.29 5215.79C1024.2 5175.19 1055.38 5151.43 1101.8 5144.5C1138.27 5139.59 1164.21 5148.32 1179.6 5170.69C1185.37 5181.16 1187.08 5192.54 1184.72 5204.83C1159.01 5325.13 1174.13 5391.48 1230.07 5403.87C1255.65 5409.4 1276.79 5403.85 1293.47 5387.22C1310.16 5370.6 1316.85 5347.2 1313.56 5317.03C1310.16 5285.95 1297.57 5255.4 1275.79 5225.4C1253.9 5194.49 1229.42 5169.41 1202.34 5150.17C1136 5101.91 1099.84 5050.35 1093.84 4995.5C1086.25 4926.02 1104.22 4870.39 1147.77 4828.63C1191.31 4786.86 1248.74 4762.08 1320.05 4754.29C1378.66 4748.81 1426.17 4760.27 1462.58 4788.67C1499.9 4816.97 1517.86 4858.49 1516.44 4913.23C1514.82 4966.14 1492.3 5005.61 1448.89 5031.63C1415.95 5051.88 1390.45 5055.6 1372.39 5042.77C1362.35 5035.54 1358.36 5024.41 1360.42 5009.38C1365.83 4991.21 1364.85 4973.74 1357.47 4956.97C1349.98 4939.28 1337.55 4931.39 1320.18 4933.29C1291.84 4936.39 1279.67 4956.22 1283.67 4992.79C1285.37 5008.33 1294.43 5023.53 1310.85 5038.39C1327.28 5053.25 1346.96 5068.21 1369.88 5083.28C1392.71 5097.44 1415.28 5113.48 1437.59 5131.39C1460.72 5148.3 1481.19 5170.57 1499.02 5198.23C1516.74 5224.97 1527.45 5255.26 1531.15 5289.08Z" fill="white"/>
<path d="M2523.74 5046.94C2480.27 5275.58 2382.65 5398.19 2230.89 5414.78C2151.35 5423.47 2088.13 5395.23 2041.22 5330.04C1988.48 5406.12 1924.62 5448.25 1849.65 5456.45C1815.83 5460.14 1782.06 5455.97 1748.37 5443.93C1714.57 5430.97 1681.65 5409.12 1649.61 5378.39C1618.49 5347.56 1595 5306.19 1579.15 5254.26C1562.38 5202.43 1555.44 5138.89 1558.31 5063.64C1565.54 4943.51 1596.23 4847.64 1650.39 4776.03C1705.36 4703.41 1778.1 4662.15 1868.61 4652.26C1925.39 4646.98 1981.18 4662.16 2035.96 4697.81C2066 4651.04 2106.46 4627.65 2157.35 4627.64C2190.76 4628.62 2215.52 4639.32 2231.63 4659.77C2248.56 4679.19 2252.23 4700.07 2242.64 4722.4C2227.75 4755.48 2211.67 4807.2 2194.38 4877.55C2179.13 4941.2 2171.16 4995.27 2170.47 5039.75C2170.07 5095.31 2176.74 5139.45 2190.5 5172.18C2205.06 5203.89 2223.32 5218.55 2245.26 5216.15C2271.77 5213.25 2296.9 5189.23 2320.65 5144.07C2344.49 5099.83 2360.02 5047.25 2367.24 4986.33C2371.36 4956.27 2391.69 4943.41 2428.25 4947.74C2464.6 4950.25 2492.2 4965.73 2511.04 4994.2C2523.1 5011.39 2527.33 5028.97 2523.74 5046.94ZM1967.52 4973.12C1969.02 4927.62 1972.8 4890.2 1978.84 4860.86C1953.79 4843.25 1924.8 4836.24 1891.89 4839.84C1858.98 4843.43 1831.01 4862.68 1808 4897.58C1785.8 4931.46 1771.54 4978.81 1765.24 5039.64C1758.82 5107.88 1764.31 5162.32 1781.7 5202.98C1799.1 5243.63 1823.8 5262.21 1855.8 5258.72C1927.11 5250.92 1964.19 5158.52 1967.05 4981.5C1966.95 4980.58 1966.8 4979.21 1966.6 4977.38C1967.31 4975.46 1967.62 4974.03 1967.52 4973.12Z" fill="white"/>
<path d="M2949.91 4677.31C2928.54 4701.85 2908.87 4737.77 2890.91 4785.06C2874.68 4831.25 2863.89 4876.37 2858.53 4920.44C2852.94 4979.34 2855.95 5028.04 2867.56 5066.55C2880.08 5104.97 2897.77 5122.92 2920.63 5120.43C2948.97 5117.33 2970.39 5097.41 2984.87 5060.67C3000.17 5022.92 3012.51 4966.52 3021.89 4891.48C3026.01 4861.43 3046.34 4848.57 3082.9 4852.9C3119.45 4857.23 3147.56 4873.12 3167.21 4900.58C3178.25 4916.95 3182.03 4934.58 3178.54 4953.46C3157.62 5066.77 3124.15 5163.13 3078.13 5224.6C3032.12 5286.06 2970.25 5312.06 2892.54 5320.55C2819.41 5328.55 2757.75 5301.98 2707.59 5240.85C2657.33 5178.81 2635.56 5085.43 2642.28 4960.73C2647.1 4877.86 2664.55 4804.72 2694.62 4741.3C2650.52 4752.59 2609.07 4758.51 2570.28 4759.05C2560.17 4844.34 2545.84 4933.34 2527.3 5026.03C2522.26 5056.18 2500.31 5066.91 2461.43 5058.21C2428.23 5050.74 2402.26 5033.22 2383.52 5005.66C2374.51 4990.92 2370.62 4976.54 2371.87 4962.53C2384.59 4833.47 2390.83 4750.91 2390.59 4714.85C2354.48 4689.19 2331.58 4657.47 2321.9 4619.67C2311.31 4581.97 2312.08 4546.73 2324.22 4513.95C2336.27 4480.25 2357.09 4450.68 2386.69 4425.24C2417.11 4398.79 2451.51 4383.46 2489.91 4379.27C2527.39 4375.17 2551.5 4384.1 2562.23 4406.06C2573.97 4428.83 2580.58 4476.67 2582.08 4549.6L2582.63 4580.07C2624.47 4581.97 2667.44 4577.27 2711.54 4565.98C2756.45 4553.67 2793.91 4536.62 2823.91 4514.84C2841.91 4501.77 2864.24 4507.19 2890.91 4531.11C2917.48 4554.11 2936.07 4580.29 2946.68 4609.67C2957.29 4639.04 2958.37 4661.58 2949.91 4677.31Z" fill="white"/>
<path d="M2889.09 5592.04C2982.34 5581.85 3042.18 5401.38 3068.61 5050.63C3078.77 4932.02 3081.76 4620.09 3077.56 4581.7C3077.39 4563.21 3078.08 4548.33 3079.62 4537.06C3082.69 4522.85 3086.27 4513.21 3090.34 4508.14C3094.31 4502.15 3104.18 4490.9 3119.95 4474.37C3170.11 4425.4 3213.74 4418.32 3250.85 4453.12C3287.76 4486.1 3306.7 4545.09 3307.66 4630.1C3309.93 4896.29 3272.37 5348.92 3194.97 5521.14C3117.78 5695.18 3024.28 5787.74 2914.47 5798.81C2869.57 5802.8 2827.89 5793.94 2789.44 5772.23C2750.07 5750.63 2724.18 5743.74 2711.75 5706.24C2697.11 5656.96 2700.6 5589.97 2722.2 5550.61C2737.38 5520.27 2754.97 5511.87 2774.95 5525.41C2775.97 5526.23 2780.27 5531.77 2787.87 5542.04C2797.28 5560.44 2808.89 5573.51 2822.69 5581.26C2835.57 5589.1 2857.71 5592.69 2889.09 5592.04ZM3095.74 4214.73C3092.04 4180.91 3105.35 4150.31 3135.66 4122.94C3166.79 4094.56 3211.3 4078.59 3269.2 4075.04C3299.47 4072.66 3326.42 4082.2 3350.04 4103.67C3373.67 4125.15 3379.2 4154.61 3366.64 4192.06C3356.84 4220.89 3337.75 4249.34 3309.36 4277.42C3279.96 4304.69 3246.98 4320.32 3210.41 4324.32C3182.98 4327.32 3158.06 4319.4 3135.65 4300.57C3113.14 4280.83 3099.83 4252.22 3095.74 4214.73Z" fill="white"/>
<path d="M3853.78 4619.88C3847.74 4700.11 3815.22 4766.57 3756.22 4819.28C3699.87 4870.77 3631.24 4907.41 3550.36 4929.21C3586.43 4979.85 3643.32 5000.92 3721.03 4992.43C3781.37 4985.83 3829.61 4957.43 3865.75 4907.22C3901.9 4857.02 3923.63 4801.91 3930.95 4741.9C3934.25 4712.86 3954.53 4699.54 3991.8 4701.94C4027.34 4705.46 4055.35 4720.44 4075.82 4746.88C4087.87 4764.06 4092.21 4782.56 4088.82 4802.35C4068.63 4905.4 4025.1 4993.89 3958.24 5067.81C3892.91 5138.78 3809.51 5179.82 3708.03 5190.91C3640.37 5198.3 3576.61 5190.47 3516.73 5167.41C3455.73 5142.62 3405.84 5100.89 3367.04 5042.22C3329.16 4983.45 3309.94 4913.39 3309.38 4832.04C3310.33 4696.86 3340.43 4591.34 3399.67 4515.48C3458.92 4439.61 3537 4396.39 3633.91 4385.79C3712.73 4379.03 3770.48 4399.55 3807.16 4447.35C3845.67 4494.95 3861.21 4552.46 3853.78 4619.88ZM3609.19 4578.62C3583.59 4581.42 3561.72 4601.38 3543.57 4638.52C3526.24 4674.65 3516.91 4724.7 3515.58 4788.68C3556.22 4779.62 3590.52 4763.38 3618.49 4739.97C3646.47 4716.55 3663.62 4691.55 3669.97 4664.95C3675.6 4640.28 3671.93 4619.41 3658.96 4602.32C3645.89 4584.32 3629.3 4576.42 3609.19 4578.62Z" fill="white"/>
<path d="M4249.23 4216.76L4323.29 4208.66C4356.2 4205.06 4371.85 4225.56 4370.25 4270.14C4368.65 4314.72 4352.27 4355.37 4321.13 4392.08C4303.02 4412.56 4285.73 4423.7 4269.27 4425.5C4230.88 4429.7 4206.6 4431.89 4196.44 4432.07C4183.82 4502.84 4176.2 4564.27 4173.56 4616.37C4170.33 4662.98 4168.94 4705.23 4169.38 4743.11C4170.73 4780.89 4173.26 4812.54 4176.98 4838.03C4181.6 4863.43 4187.15 4884.57 4193.62 4901.44C4200.09 4918.31 4206.97 4930.51 4214.27 4938.04C4222.49 4945.47 4231.16 4948.68 4240.31 4947.68C4268.65 4944.59 4293.32 4920.61 4314.32 4875.76C4337.87 4828.78 4352.43 4775.84 4358.02 4716.94C4362.14 4686.89 4382.48 4674.02 4419.03 4678.36C4455.59 4682.69 4483.69 4698.58 4503.34 4726.04C4514.39 4742.41 4518.16 4760.04 4514.68 4778.92C4471.2 5007.56 4373.59 5130.18 4221.82 5146.76C4134.06 5156.36 4066.79 5116.52 4020.03 5027.27C3973.27 4938.01 3951.01 4806.3 3953.25 4632.12C3953.68 4559.91 3958.64 4486.75 3968.11 4412.62C3942.95 4402.42 3916.93 4380.29 3890.08 4346.21C3861.4 4312.34 3850.94 4284.34 3858.7 4262.22C3865.44 4239.28 3887.04 4229.51 3923.49 4232.93C3951.52 4235.42 3977.06 4236.33 4000.12 4235.66C4014.75 4174.85 4031.6 4125.82 4050.66 4088.58C4070.63 4051.25 4087.98 4032.23 4102.71 4031.55C4139.38 4028.47 4181.92 4036.77 4230.33 4056.46C4275.79 4074.62 4294.9 4092.88 4287.66 4111.25C4276.96 4131.85 4264.15 4167.02 4249.23 4216.76Z" fill="white"/>
<path d="M5329.87 4743.15C5286.4 4971.79 5188.78 5094.4 5037.02 5110.99C4957.48 5119.68 4894.25 5091.44 4847.35 5026.25C4794.6 5102.33 4730.75 5144.46 4655.78 5152.66C4621.95 5156.35 4588.19 5152.18 4554.49 5140.14C4520.7 5127.18 4487.78 5105.33 4455.74 5074.6C4424.61 5043.77 4401.13 5002.4 4385.27 4950.47C4368.51 4898.64 4361.56 4835.1 4364.44 4759.85C4371.66 4639.72 4402.35 4543.85 4456.51 4472.24C4511.49 4399.62 4584.23 4358.36 4674.74 4348.47C4731.52 4343.19 4787.3 4358.37 4842.08 4394.02C4872.13 4347.25 4912.59 4323.86 4963.47 4323.85C4996.88 4324.82 5021.65 4335.53 5037.76 4355.98C5054.68 4375.4 5058.35 4396.28 5048.77 4418.61C5033.88 4451.69 5017.79 4503.41 5000.5 4573.76C4985.25 4637.41 4977.29 4691.48 4976.6 4735.96C4976.19 4791.52 4982.87 4835.66 4996.62 4868.39C5011.19 4900.1 5029.44 4914.76 5051.39 4912.36C5077.9 4909.46 5103.03 4885.44 5126.77 4840.28C5150.62 4796.04 5166.15 4743.46 5173.37 4682.54C5177.48 4652.48 5197.82 4639.62 5234.38 4643.95C5270.73 4646.46 5298.33 4661.94 5317.17 4690.41C5329.22 4707.6 5333.46 4725.18 5329.87 4743.15ZM4773.64 4669.33C4775.15 4623.83 4778.92 4586.41 4784.97 4557.07C4759.91 4539.46 4730.93 4532.45 4698.01 4536.05C4665.1 4539.64 4637.14 4558.89 4614.12 4593.79C4591.92 4627.67 4577.67 4675.02 4571.36 4735.85C4564.95 4804.08 4570.43 4858.53 4587.83 4899.19C4605.23 4939.84 4629.92 4958.42 4661.92 4954.93C4733.23 4947.13 4770.32 4854.73 4773.17 4677.71C4773.07 4676.79 4772.92 4675.42 4772.72 4673.59C4773.44 4671.67 4773.74 4670.24 4773.64 4669.33Z" fill="white"/>
<path d="M1255.45 5323.38C1253.56 5306.11 1246.96 5287.34 1233.39 5266.82C1229.81 5296.74 1230.6 5317.91 1233.77 5331.83C1235.95 5341.37 1238.62 5344.69 1239.17 5345.3C1239.24 5345.38 1239.57 5346.08 1242.57 5346.77C1248.03 5347.93 1250.18 5347.34 1250.27 5347.32C1250.37 5347.29 1250.42 5347.27 1250.56 5347.19C1250.72 5347.1 1251.28 5346.74 1252.21 5345.82C1252.85 5345.18 1257.42 5341.42 1255.45 5323.38ZM4102.71 4031.55C4087.98 4032.23 4070.63 4051.25 4050.66 4088.58C4031.6 4125.82 4014.75 4174.85 4000.12 4235.66C3977.06 4236.33 3951.52 4235.42 3923.5 4232.93C3887.04 4229.51 3865.44 4239.28 3858.7 4262.22C3850.94 4284.34 3861.4 4312.34 3890.08 4346.21C3916.93 4380.29 3942.95 4402.42 3968.12 4412.62C3958.64 4486.75 3953.68 4559.91 3953.25 4632.12C3952.92 4658.1 3953.13 4683.13 3953.88 4707.21C3940.51 4713.47 3932.87 4725.03 3930.95 4741.9C3923.63 4801.91 3901.9 4857.02 3865.75 4907.22C3829.61 4957.43 3781.37 4985.84 3721.03 4992.43L3714.68 4934.32C3758.18 4929.57 3791.64 4910.13 3818.31 4873.07C3839.21 4844.04 3854.23 4813.41 3863.58 4780.94C3845.66 4810.73 3822.92 4838.03 3795.43 4862.64C3764.12 4891.21 3729.64 4915.57 3692.14 4935.81C3699.2 4935.68 3706.7 4935.19 3714.68 4934.32L3721.03 4992.43L3719.21 4992.62C3642.43 5000.59 3586.15 4979.45 3550.36 4929.21C3631.25 4907.41 3699.87 4870.77 3756.22 4819.28C3815.22 4766.57 3847.74 4700.11 3853.78 4619.88C3861.21 4552.46 3845.67 4494.95 3807.16 4447.35C3770.48 4399.55 3712.73 4379.03 3633.91 4385.8C3537 4396.39 3458.92 4439.61 3399.68 4515.48C3340.43 4591.34 3310.33 4696.86 3309.38 4832.04C3309.94 4913.39 3329.17 4983.45 3367.04 5042.22L3367.96 5043.59C3406.62 5101.54 3456.21 5142.82 3516.73 5167.41C3576.14 5190.29 3639.38 5198.18 3706.44 5191.08L3708.03 5190.91C3809.51 5179.82 3892.91 5138.78 3958.24 5067.81C3976.75 5047.34 3993.47 5025.76 4008.41 5003.06C4012.1 5011.45 4015.97 5019.52 4020.03 5027.27C4066.61 5116.18 4133.53 5156.04 4220.8 5146.87L4221.82 5146.76C4303.3 5137.86 4369.18 5098.39 4419.44 5028.36C4430.09 5045.77 4442.19 5061.19 4455.74 5074.6C4487.78 5105.33 4520.7 5127.18 4554.49 5140.14C4587.66 5151.99 4620.9 5156.22 4654.19 5152.82L4655.78 5152.66C4730.75 5144.46 4794.6 5102.33 4847.35 5026.25C4893.89 5090.93 4956.49 5119.24 5035.16 5111.19L5037.02 5110.99C5188.78 5094.4 5286.4 4971.79 5329.87 4743.15C5333.46 4725.18 5329.22 4707.6 5317.17 4690.41C5298.33 4661.94 5270.73 4646.46 5234.38 4643.95C5197.82 4639.62 5177.49 4652.48 5173.37 4682.54C5166.15 4743.46 5150.62 4796.04 5126.78 4840.28L5126.22 4841.34C5102.64 4885.81 5077.69 4909.48 5051.39 4912.36L5050.87 4912.41C5029.16 4914.53 5011.08 4899.85 4996.62 4868.39C4982.87 4835.66 4976.19 4791.52 4976.6 4735.96C4977.29 4691.48 4985.26 4637.41 5000.5 4573.76C5017.52 4504.51 5033.38 4453.31 5048.07 4420.17L5048.77 4418.61C5058.36 4396.28 5054.69 4375.41 5037.76 4355.98C5021.65 4335.53 4996.89 4324.83 4963.47 4323.85C4912.59 4323.86 4872.13 4347.25 4842.08 4394.02C4787.3 4358.37 4731.52 4343.19 4674.74 4348.47C4584.23 4358.36 4511.49 4399.62 4456.51 4472.24C4413.63 4528.94 4385.46 4600.86 4372 4687.99C4364.43 4694.55 4359.77 4704.2 4358.03 4716.94C4352.44 4775.84 4337.87 4828.78 4314.32 4875.76C4293.32 4920.61 4268.65 4944.59 4240.31 4947.68C4231.17 4948.68 4222.49 4945.47 4214.27 4938.04C4207.2 4930.75 4200.52 4919.07 4194.23 4903.01L4193.62 4901.44C4187.15 4884.57 4181.6 4863.43 4176.98 4838.03C4173.27 4812.54 4170.73 4780.9 4169.38 4743.11C4168.95 4706.41 4170.25 4665.62 4173.27 4620.73L4173.57 4616.37C4176.2 4564.27 4183.82 4502.84 4196.44 4432.07C4205.96 4431.9 4227.9 4429.97 4262.24 4426.27L4269.27 4425.5C4285.73 4423.7 4303.02 4412.56 4321.13 4392.08C4352.28 4355.37 4368.65 4314.72 4370.25 4270.14C4371.84 4225.91 4356.44 4205.39 4324.06 4208.58L4323.29 4208.66L4249.23 4216.76C4264.15 4167.02 4276.96 4131.85 4287.66 4111.25C4294.91 4092.88 4275.79 4074.62 4230.33 4056.46C4182.29 4036.92 4140.04 4028.6 4103.57 4031.48L4102.71 4031.55ZM2305.2 4714.28C2303.67 4725.12 2300.6 4735.57 2296.36 4745.46L2296.16 4745.93L2295.95 4746.39C2283.34 4774.4 2268.28 4821.8 2251.2 4891.27C2236.58 4952.35 2229.55 5001.78 2228.92 5040.43C2228.58 5091.26 2234.79 5126.18 2244.02 5148.65C2244.55 5149.77 2245.05 5150.8 2245.54 5151.75C2251.72 5145.28 2259.73 5134.32 2268.91 5116.87L2269.05 5116.6L2269.19 5116.34C2288.87 5079.83 2302.66 5034.64 2309.2 4979.45L2309.26 4978.92L2309.33 4978.4C2310.2 4972.07 2311.55 4965.69 2313.48 4959.39C2313.53 4958.71 2313.58 4958.04 2313.64 4957.36L2313.67 4957.08L2313.69 4956.79C2323.79 4854.4 2329.56 4783.5 2331.45 4742.21C2321.84 4733.48 2313.07 4724.17 2305.2 4714.28ZM1499.68 5067.69C1493.28 5072.6 1486.47 5077.24 1479.26 5081.57C1477.33 5082.76 1475.35 5083.94 1473.32 5085.11C1482.4 5091.83 1491.05 5099.12 1499.3 5106.95C1499.13 5094.12 1499.26 5081.03 1499.68 5067.69ZM3609.19 4578.62C3629.3 4576.42 3645.89 4584.32 3658.96 4602.32C3671.93 4619.41 3675.6 4640.28 3669.97 4664.95C3663.62 4691.55 3646.47 4716.56 3618.5 4739.97L3617.84 4740.51C3589.99 4763.63 3555.9 4779.69 3515.58 4788.68C3516.91 4724.7 3526.24 4674.65 3543.57 4638.52C3561.72 4601.38 3583.59 4581.42 3609.19 4578.62ZM3613 4638.86C3609.2 4642.33 3603.17 4649.74 3596.18 4664.01C3592.62 4671.46 3589.36 4680.2 3586.49 4690.33C3603.76 4674.6 3610.63 4661.49 3613.05 4651.64C3614.84 4643.63 3613.96 4640.26 3613.14 4638.73C3613.09 4638.77 3613.05 4638.82 3613 4638.86ZM1035.73 5001.85C1026.52 4917.56 1048.48 4842.86 1107.3 4786.44C1161.82 4734.15 1232.08 4705.1 1313.7 4696.18L1314.15 4696.13L1314.61 4696.09C1383.69 4689.62 1447.17 4702.64 1498.26 4742.37C1525.38 4763.02 1544.87 4788.38 1557.42 4817.2C1570.54 4789.83 1585.95 4764.32 1603.77 4740.77L1603.77 4740.76L1603.78 4740.75C1668.46 4655.31 1755.76 4605.79 1862.26 4594.15L1862.73 4594.1L1863.2 4594.06C1918.11 4588.95 1971.24 4599.28 2021.89 4623.1C2057.65 4588.74 2102.71 4569.61 2155.63 4569.19L2157.34 4569.19L2158.19 4569.19L2159.05 4569.21C2195.66 4570.28 2230.93 4580.45 2258.8 4604.11C2253.07 4566.7 2256.14 4529.64 2269.29 4493.96C2285.06 4450.03 2312.06 4412.33 2348.5 4380.99C2387.46 4347.16 2432.85 4326.7 2483.56 4321.16C2529.86 4316.1 2587.3 4324.88 2614.5 4379.89C2624.8 4400.17 2630.37 4425.53 2633.9 4451.01C2636.66 4470.96 2638.53 4494.01 2639.64 4519.89C2658.18 4517.88 2677.14 4514.42 2696.55 4509.47C2736.12 4498.58 2766.61 4484.21 2789.57 4467.54L2790.11 4467.14C2813.4 4450.48 2840.97 4445.75 2867.95 4452.3C2892.13 4458.17 2912.74 4472.24 2929.56 4487.25C2962.53 4515.89 2987.3 4550.05 3001.66 4589.8L3002.23 4591.4C3014.18 4625.13 3021.62 4667.39 3001.39 4705L2998.29 4710.77L2993.99 4715.7C2979.03 4732.88 2962.45 4761.5 2945.82 4805.13C2931.09 4847.2 2921.46 4887.71 2916.65 4926.73C2911.61 4980.53 2914.87 5020.53 2923.34 5049.05C2923.69 5050.1 2924.03 5051.11 2924.37 5052.07C2926.26 5048.87 2928.35 5044.67 2930.49 5039.23L2930.6 5038.97L2930.7 5038.71C2943.1 5008.11 2954.7 4957.75 2963.89 4884.23L2963.93 4883.89L2963.98 4883.55C2967.71 4856.27 2980.58 4827.86 3008.98 4809.89C3012.5 4807.67 3016.09 4805.72 3019.71 4804.01C3019.82 4797.71 3019.93 4791.44 3020.02 4785.19C3021.55 4685.53 3021.05 4602.67 3019.45 4588.05L3019.14 4585.15L3019.11 4582.23C3018.93 4562.43 3019.62 4544.39 3021.71 4529.13L3022.01 4526.91L3022.49 4524.71C3025.52 4510.68 3030.84 4490.21 3042.96 4473.87C3050.55 4463.03 3063.52 4448.84 3077.66 4434.01L3078.38 4433.26L3079.12 4432.54C3103.49 4408.75 3131.34 4388.54 3162.6 4378.94C3139.22 4373.11 3117.51 4361.68 3098.05 4345.33L3097.57 4344.93L3097.11 4344.52C3060.96 4312.82 3042.89 4269.19 3037.63 4221.08C3031.47 4164.74 3055.4 4116.65 3096.49 4079.55L3096.49 4079.55C3140.5 4039.55 3199.22 4020.84 3265.18 4016.72C3312.21 4013.17 3354.63 4028.85 3389.36 4060.42C3409.94 4079.12 3424.09 4103.01 3429.37 4131.09C3434.47 4158.25 3430.54 4185.37 3422.07 4210.65L3422.03 4210.76L3421.99 4210.88C3408.51 4250.53 3383.37 4286.43 3350.47 4318.98L3349.8 4319.64L3349.11 4320.28C3317 4350.07 3280.02 4370.2 3238.77 4378.92C3257.81 4385.12 3275.14 4395.89 3290.31 4409.99C3314.76 4432 3332.22 4459.94 3344.19 4492.06C3347.25 4487.81 3350.39 4483.62 3353.61 4479.5C3422.7 4391.02 3515.19 4339.97 3627.56 4327.69L3628.23 4327.61L3628.91 4327.55C3720.36 4319.71 3800.55 4343.16 3853.1 4411.2C3874.72 4438.07 3890.43 4467.33 3900.48 4498.58C3901.91 4480.36 3903.62 4462.09 3905.59 4443.78C3883.64 4427.66 3863.47 4406.77 3844.83 4383.22C3814.87 4347.64 3785.2 4297.56 3803.05 4244.29C3811.39 4217.34 3829.87 4196.18 3855.88 4184.42C3879.55 4173.73 3905.44 4172.56 3928.66 4174.7L3931.11 4174.92C3939.45 4175.63 3947.47 4176.19 3955.19 4176.59C3967.78 4132.59 3982.14 4094.16 3998.62 4061.95L3998.86 4061.48L3999.11 4061.01C4010.12 4040.43 4022.11 4021.56 4035.47 4006.92C4047.2 3994.06 4068.39 3975.17 4098.63 3973.23C4147.2 3969.32 4198.93 3980.61 4252.14 4002.22C4276.88 4012.12 4301.39 4024.55 4319.15 4041.52C4328.44 4050.4 4338.39 4062.89 4343.76 4079.48C4349.54 4097.31 4348.69 4115.84 4342.04 4132.69L4340.93 4135.51L4339.53 4138.2C4337.86 4141.42 4336.03 4145.31 4334.05 4149.9C4359.73 4150.8 4386.74 4160.42 4406.17 4185.85C4426.37 4212.3 4429.64 4245.36 4428.67 4272.24C4426.56 4331.01 4404.63 4384.02 4365.71 4429.9L4365.32 4430.35L4364.92 4430.8C4343.05 4455.53 4313.43 4479.48 4275.63 4483.61C4265.1 4484.76 4255.39 4485.79 4246.56 4486.68C4238.69 4537.05 4233.87 4581.2 4231.95 4619.32L4231.92 4619.87L4231.88 4620.41C4228.75 4665.5 4227.43 4705.91 4227.82 4741.73C4229.12 4777.4 4231.47 4806.21 4234.68 4828.6C4238.43 4848.98 4242.58 4864.78 4246.77 4876.63C4251.1 4870.64 4256.07 4862.32 4261.38 4850.97L4261.72 4850.26L4262.06 4849.57C4281.99 4809.81 4294.84 4764.02 4299.83 4711.42L4299.95 4710.21L4300.11 4709.01C4302.27 4693.27 4307.46 4677.16 4316.92 4662.9C4332.47 4575.24 4362.8 4499.24 4409.89 4436.98L4409.9 4436.97L4409.91 4436.96C4474.58 4351.52 4561.88 4302 4668.39 4290.36L4668.86 4290.31L4669.33 4290.27C4724.23 4285.16 4777.36 4295.49 4828.01 4319.31C4863.78 4284.95 4908.83 4265.82 4961.76 4265.4L4963.46 4265.4L4964.32 4265.4L4965.18 4265.42C5010.13 4266.73 5053.06 4281.77 5082.76 4318.65C5096.26 4334.46 5106.83 4353.63 5110.78 4376.09C5114.86 4399.3 5111.09 4421.63 5102.48 4441.67L5102.28 4442.14L5102.07 4442.6C5089.46 4470.62 5074.39 4518.04 5057.31 4587.55C5042.7 4648.59 5035.67 4698 5035.05 4736.64C5034.7 4787.45 5040.92 4822.38 5050.15 4844.85C5050.67 4845.97 5051.18 4847 5051.67 4847.96C5057.85 4841.49 5065.86 4830.53 5075.04 4813.08L5075.18 4812.81L5075.32 4812.55C5095 4776.04 5108.78 4730.85 5115.32 4675.66L5115.38 4675.13L5115.46 4674.61C5119.19 4647.32 5132.06 4618.91 5160.46 4600.95C5186.1 4584.73 5215.23 4583.02 5239.81 4585.74C5292.01 4589.7 5336.08 4613.51 5365.46 4657.47C5384.85 4685.41 5394.25 4718.62 5387.28 4754.16C5364.56 4873.59 5326.66 4971.56 5269.78 5043C5211.56 5116.13 5135.2 5159.06 5043.37 5169.1C4968.67 5177.26 4903.26 5158.68 4850.31 5114.9C4798.01 5169.1 4735.31 5202.77 4662.13 5210.77C4619.05 5215.47 4576.41 5210.04 4534.82 5195.18L4534.19 5194.96L4533.57 5194.72C4491.93 5178.75 4453.34 5152.83 4417.55 5118.96C4365.24 5167.74 4301.67 5196.84 4228.17 5204.87C4173.42 5210.86 4121.67 5201.56 4075.77 5174.38C4047.15 5157.44 4022.57 5134.59 4001.54 5107.08L4001.42 5107.21L4001.25 5107.4C3925.76 5189.42 3829.03 5236.49 3714.38 5249.02C3638.03 5257.36 3564.83 5248.58 3495.72 5221.96L3495.22 5221.77L3494.72 5221.56C3433.54 5196.7 3382.1 5157.5 3340.62 5105.27C3340.18 5109.31 3339.73 5113.34 3339.28 5117.36C3320.55 5284.92 3291.21 5449.48 3248.37 5544.93C3168.99 5723.86 3062.91 5842.59 2920.34 5856.97L2919.98 5857.01L2919.63 5857.04C2863.38 5862.03 2809.99 5850.85 2761.12 5823.37C2751.98 5818.36 2744.81 5814.83 2735.34 5809.87C2726.77 5805.39 2716.62 5799.88 2706.86 5793.01C2684.66 5777.39 2666.79 5756.38 2656.26 5724.63L2655.98 5723.76L2655.72 5722.88C2646.17 5690.74 2642.94 5654.7 2645.04 5621.06C2647.09 5588.31 2654.51 5552.95 2670.4 5523.49C2679.99 5504.58 2695.56 5481.24 2721.59 5468.81C2753.79 5453.42 2785.35 5461.85 2807.75 5477.02L2809.71 5478.35L2811.55 5479.83C2815.3 5482.84 2817.94 5485.74 2818.5 5486.36C2819.58 5487.53 2820.51 5488.62 2821.16 5489.39C2822.48 5490.97 2823.85 5492.7 2825.11 5494.32C2827.68 5497.63 2830.98 5502.02 2834.87 5507.28L2837.73 5511.14L2839.91 5515.42C2845.31 5525.96 2849.62 5529.25 2851.05 5530.13L2851.3 5530.28L2852.1 5530.73C2852.72 5530.94 2854.62 5531.53 2858.32 5532.14C2864.25 5533.1 2872.79 5533.75 2884.46 5533.65C2888.69 5532.72 2896.37 5529.34 2907.19 5515.87C2920.24 5499.62 2934.58 5472.41 2948.43 5430.64C2954.78 5411.47 2960.8 5389.97 2966.45 5366.13C2944.71 5372.1 2922.12 5376.13 2898.9 5378.66C2804.44 5388.99 2723.98 5352.97 2662.4 5277.93L2662.29 5277.79L2662.17 5277.65C2612.98 5216.93 2588.71 5136.67 2583.65 5042.29C2583.44 5043.24 2583.21 5044.19 2582.98 5045.13C2582.6 5049.37 2582 5053.64 2581.15 5057.94C2558.44 5177.37 2520.54 5275.34 2463.66 5346.79C2405.43 5419.92 2329.07 5462.85 2237.24 5472.89C2162.54 5481.05 2097.13 5462.47 2044.19 5418.69C1991.88 5472.89 1929.18 5506.56 1856 5514.56C1812.93 5519.26 1770.28 5513.83 1728.69 5498.97L1728.06 5498.75L1727.44 5498.51C1684.92 5482.2 1645.57 5455.51 1609.15 5420.58L1608.81 5420.26L1608.48 5419.92C1600.94 5412.46 1593.83 5404.57 1587.13 5396.29C1575.81 5464.56 1544.99 5523.98 1492.29 5571.42C1414.62 5641.33 1314.93 5668 1200.48 5657.66L1200.48 5657.66C1200.46 5657.66 1200.43 5657.66 1200.41 5657.65C1200.4 5657.65 1200.39 5657.65 1200.38 5657.65L1200.38 5657.65C1135.71 5651.89 1078.2 5625.82 1029.22 5581.4L1028.7 5580.93L1028.2 5580.44C980.122 5534.69 949.105 5477.85 935.152 5411.77C919.843 5343.79 927.279 5271.49 953.02 5196.75L953.42 5195.59L953.867 5194.45C974.729 5141.24 1014.58 5107.01 1066.83 5092.3C1050.11 5064.35 1039.28 5034.25 1035.73 5001.85ZM4773.64 4669.33C4773.74 4670.24 4773.44 4671.67 4772.72 4673.59L4773.17 4677.71C4770.32 4854.73 4733.23 4947.13 4661.92 4954.93L4655.57 4896.82C4661.73 4896.14 4674.91 4893.03 4688.97 4858.01C4703.33 4822.21 4713.06 4764.46 4714.66 4680.38L4713.11 4666.23L4715.49 4659.8C4716.42 4636.13 4717.97 4614.08 4720.24 4593.8C4715.34 4593.43 4710.08 4593.53 4704.37 4594.16C4693.16 4595.38 4679.12 4601.45 4662.97 4625.9C4647.88 4648.97 4635.33 4685.94 4629.54 4741.61C4623.62 4804.84 4629.58 4848.16 4641.57 4876.19C4647.85 4890.86 4653.08 4895.79 4654.52 4896.89C4654.76 4896.88 4655.11 4896.87 4655.57 4896.82L4661.92 4954.93L4661.17 4955C4629.79 4958.11 4605.48 4939.82 4588.24 4900.14L4587.83 4899.19C4570.44 4858.53 4564.95 4804.09 4571.37 4735.85C4577.67 4675.02 4591.92 4627.67 4614.12 4593.79C4637.14 4558.89 4665.1 4539.64 4698.02 4536.05L4698.79 4535.96C4731.38 4532.56 4760.11 4539.6 4784.97 4557.07C4778.92 4586.41 4775.15 4623.83 4773.64 4669.33ZM1967.52 4973.12C1967.62 4974.03 1967.31 4975.46 1966.6 4977.38L1967.05 4981.5C1964.19 5158.52 1927.11 5250.92 1855.8 5258.72L1849.45 5200.61C1855.6 5199.94 1868.79 5196.82 1882.84 5161.8C1897.21 5126 1906.93 5068.24 1908.54 4984.17L1906.99 4970.02L1909.37 4963.59C1910.3 4939.92 1911.85 4917.87 1914.11 4897.59C1909.22 4897.22 1903.95 4897.32 1898.24 4897.95C1887.04 4899.17 1872.99 4905.24 1856.85 4929.68C1841.75 4952.75 1829.21 4989.73 1823.41 5045.41C1817.49 5108.63 1823.45 5151.95 1835.45 5179.98C1841.72 5194.65 1846.95 5199.58 1848.39 5200.68C1848.64 5200.67 1848.98 5200.66 1849.45 5200.61L1855.8 5258.72L1855.05 5258.79C1823.41 5261.92 1798.97 5243.32 1781.71 5202.98C1764.45 5162.64 1758.91 5108.73 1765.09 5041.23L1765.24 5039.64C1771.54 4978.81 1785.8 4931.46 1808 4897.58C1831.01 4862.68 1858.98 4843.43 1891.89 4839.84L1892.66 4839.76C1925.26 4836.35 1953.98 4843.39 1978.84 4860.86C1972.8 4890.2 1969.02 4927.62 1967.52 4973.12ZM1093.99 4996.78C1100.41 5051.16 1136.52 5102.29 1202.34 5150.17C1229.42 5169.41 1253.9 5194.49 1275.79 5225.41L1276.8 5226.81C1297.96 5256.36 1310.21 5286.43 1313.56 5317.03L1313.7 5318.44C1316.64 5347.93 1309.9 5370.86 1293.47 5387.23C1276.92 5403.72 1255.98 5409.31 1230.67 5404L1230.07 5403.87C1174.13 5391.48 1159.01 5325.13 1184.72 5204.83C1187.08 5192.54 1185.37 5181.17 1179.6 5170.69C1164.21 5148.32 1138.27 5139.59 1101.8 5144.5C1055.38 5151.43 1024.21 5175.19 1008.29 5215.79C985.114 5283.08 979.774 5344.26 992.269 5399.33C1003.85 5454.5 1029.26 5500.76 1068.5 5538.1C1108.55 5574.43 1154.27 5594.87 1205.65 5599.43C1307.5 5608.66 1390.01 5584.84 1453.18 5527.97C1516.35 5471.11 1542.34 5391.48 1531.15 5289.09C1527.46 5255.26 1516.74 5224.97 1499.02 5198.23C1481.47 5171.01 1461.36 5148.99 1438.67 5132.19L1437.59 5131.39C1415.28 5113.48 1392.71 5097.44 1369.88 5083.29C1346.96 5068.21 1327.28 5053.25 1310.86 5038.39C1294.43 5023.53 1285.37 5008.33 1283.67 4992.79C1279.67 4956.22 1291.84 4936.39 1320.18 4933.29C1337.56 4931.39 1349.98 4939.29 1357.47 4956.97C1364.85 4973.74 1365.83 4991.21 1360.42 5009.38C1358.36 5024.41 1362.35 5035.54 1372.39 5042.77C1390.45 5055.6 1415.95 5051.88 1448.89 5031.63C1492.3 5005.61 1514.82 4966.14 1516.44 4913.23C1517.86 4858.49 1499.9 4816.97 1462.58 4788.67C1426.17 4760.27 1378.66 4748.81 1320.05 4754.29C1248.74 4762.08 1191.31 4786.86 1147.77 4828.63L1146.75 4829.61C1103.94 4871.26 1086.31 4926.56 1093.84 4995.5L1093.99 4996.78ZM3077.56 4581.7C3080.13 4605.18 3080.01 4731.02 3077.2 4852.35C3044.23 4849.98 3025.79 4863.03 3021.89 4891.48C3012.51 4966.52 3000.18 5022.92 2984.87 5060.67C2970.39 5097.41 2948.97 5117.33 2920.63 5120.43C2897.77 5122.92 2880.08 5104.97 2867.56 5066.55C2856.13 5028.64 2853.03 4980.86 2858.27 4923.19L2858.53 4920.44C2863.89 4876.37 2874.68 4831.25 2890.91 4785.07C2908.59 4738.51 2927.93 4702.98 2948.91 4678.47L2949.91 4677.31C2958.37 4661.58 2957.29 4639.04 2946.68 4609.67C2936.07 4580.3 2917.48 4554.11 2890.91 4531.11C2864.24 4507.19 2841.91 4501.77 2823.91 4514.84C2793.91 4536.62 2756.45 4553.67 2711.54 4565.98L2709.48 4566.5C2666.1 4577.42 2623.82 4581.94 2582.63 4580.07L2582.08 4549.6C2580.58 4476.67 2573.97 4428.83 2562.23 4406.06C2551.58 4384.27 2527.77 4375.31 2490.79 4379.17L2489.91 4379.27C2451.51 4383.46 2417.11 4398.79 2386.69 4425.24C2357.09 4450.68 2336.27 4480.25 2324.23 4513.95C2312.08 4546.73 2311.31 4581.97 2321.9 4619.67C2331.59 4657.47 2354.48 4689.19 2390.59 4714.85C2390.83 4750.91 2384.59 4833.47 2371.87 4962.53C2371.64 4965.1 2371.58 4967.68 2371.7 4970.27C2369.56 4974.93 2368.07 4980.28 2367.24 4986.33C2360.03 5047.25 2344.49 5099.83 2320.65 5144.07L2320.09 5145.13C2296.51 5189.6 2271.57 5213.27 2245.26 5216.15L2244.75 5216.2C2223.04 5218.32 2204.95 5203.64 2190.5 5172.18C2176.74 5139.45 2170.07 5095.31 2170.47 5039.75C2171.16 4995.27 2179.13 4941.2 2194.38 4877.55C2211.4 4808.3 2227.25 4757.1 2241.94 4723.96L2242.64 4722.4C2252.23 4700.07 2248.56 4679.2 2231.63 4659.77C2215.65 4639.48 2191.15 4628.78 2158.13 4627.67L2157.35 4627.64C2106.47 4627.65 2066 4651.04 2035.96 4697.81C1981.18 4662.16 1925.4 4646.98 1868.61 4652.26C1778.1 4662.15 1705.36 4703.41 1650.39 4776.03C1596.23 4847.64 1565.54 4943.51 1558.32 5063.64L1558.25 5065.4C1555.55 5139.89 1562.51 5202.84 1579.15 5254.26C1595 5306.19 1618.49 5347.56 1649.61 5378.39C1681.65 5409.12 1714.57 5430.97 1748.37 5443.93C1781.54 5455.78 1814.77 5460.01 1848.07 5456.61L1849.65 5456.45C1924.62 5448.25 1988.48 5406.12 2041.22 5330.04C2088.13 5395.23 2151.35 5423.47 2230.89 5414.78C2382.65 5398.19 2480.27 5275.58 2523.74 5046.94C2524.51 5043.08 2524.92 5039.24 2524.97 5035.42C2525.96 5032.53 2526.73 5029.4 2527.3 5026.03C2545.85 4933.34 2560.17 4844.34 2570.28 4759.05C2609.08 4758.51 2650.52 4752.59 2694.62 4741.3C2664.55 4804.72 2647.1 4877.86 2642.28 4960.73L2642.13 4963.65C2635.9 5086.89 2657.72 5179.29 2707.59 5240.85C2757.36 5301.5 2818.44 5328.13 2890.83 5320.74L2892.55 5320.55C2953.4 5313.9 3004.54 5296.51 3045.96 5259.76C3013.85 5473.36 2961.56 5584.12 2889.09 5592.04C2857.71 5592.69 2835.57 5589.1 2822.69 5581.26C2809.11 5573.63 2797.65 5560.85 2788.32 5542.9L2787.87 5542.04C2780.51 5532.09 2776.24 5526.58 2775.06 5525.5L2774.95 5525.41C2754.97 5511.87 2737.39 5520.27 2722.2 5550.61C2700.6 5589.97 2697.11 5656.96 2711.75 5706.24C2724.18 5743.74 2750.07 5750.63 2789.44 5772.23C2827.89 5793.94 2869.57 5802.8 2914.47 5798.81C3024.28 5787.74 3117.78 5695.18 3194.97 5521.14C3272.37 5348.93 3309.93 4896.29 3307.66 4630.1C3306.7 4545.09 3287.76 4486.1 3250.85 4453.12C3213.74 4418.32 3170.11 4425.41 3119.95 4474.37C3104.18 4490.9 3094.31 4502.15 3090.34 4508.14L3090.15 4508.38C3086.15 4513.51 3082.65 4523.07 3079.62 4537.06L3079.48 4538.13C3078.04 4549.27 3077.4 4563.79 3077.56 4581.7ZM3095.84 4215.61C3100.04 4252.66 3113.32 4280.99 3135.65 4300.57C3158.06 4319.4 3182.98 4327.32 3210.41 4324.32C3246.69 4320.36 3279.45 4304.94 3308.67 4278.06L3309.36 4277.42C3337.31 4249.78 3356.24 4221.78 3366.18 4193.41L3366.65 4192.06C3379.11 4154.9 3373.76 4125.61 3350.6 4104.18L3350.05 4103.67C3326.6 4082.37 3299.89 4072.81 3269.91 4074.99L3269.2 4075.04C3211.31 4078.59 3166.79 4094.56 3135.66 4122.94C3105.35 4150.31 3092.04 4180.91 3095.74 4214.73L3095.84 4215.61Z" fill="#FF8800"/>
<defs>
<filter id="filter0_d_351_2723" x="1070.51" y="0" width="3403" height="6518" filterUnits="userSpaceOnUse" color-interpolation-filters="sRGB">
<feFlood flood-opacity="0" result="BackgroundImageFix"/>
<feColorMatrix in="SourceAlpha" type="matrix" values="0 0 0 0 0 0 0 0 0 0 0 0 0 0 0 0 0 0 127 0" result="hardAlpha"/>
<feOffset dy="17"/>
<feComposite in2="hardAlpha" operator="out"/>
<feColorMatrix type="matrix" values="0 0 0 0 0.972549 0 0 0 0 0.25098 0 0 0 0 0.486275 0 0 0 1 0"/>
<feBlend mode="normal" in2="BackgroundImageFix" result="effect1_dropShadow_351_2723"/>
<feBlend mode="normal" in="SourceGraphic" in2="effect1_dropShadow_351_2723" result="shape"/>
</filter>
</defs>
</svg>
