<svg width="65" height="34" viewBox="0 0 65 34" fill="none" xmlns="http://www.w3.org/2000/svg">
<path d="M6.39581 10.9991C7.1448 11.382 7.69812 11.8226 8.05579 12.3208C8.41346 12.819 8.62462 13.4307 8.68929 14.1558C8.74472 14.7773 8.64918 15.3722 8.40268 15.9403C8.1482 16.5092 7.74611 16.9988 7.19639 17.4093C6.64668 17.8197 5.99333 18.0587 5.23633 18.1262C3.99326 18.2371 3.00437 17.9558 2.26965 17.2824C1.53564 16.617 1.1132 15.6627 1.00234 14.4197C0.979604 14.1647 1.14881 13.9006 1.50998 13.6275C1.87911 13.3536 2.23101 13.2017 2.56568 13.1719C2.70115 13.1598 2.77207 13.1896 2.77847 13.2613C2.78273 13.3091 2.78294 13.4015 2.77908 13.5384C2.78319 13.6745 2.78667 13.7586 2.78951 13.7904C2.85916 14.5713 3.11628 15.203 3.56089 15.6854C4.0055 16.1678 4.50272 16.3845 5.05253 16.3355C5.54657 16.2914 5.95539 16.1024 6.279 15.7683C6.60189 15.4263 6.74131 15.0082 6.69725 14.5142C6.65106 13.9962 6.50184 13.5839 6.24959 13.2771C5.99592 12.9543 5.56694 12.6472 4.96266 12.3557C3.48632 11.6521 2.69201 10.6708 2.57973 9.41177C2.49161 8.42369 2.75707 7.57274 3.37611 6.85893C4.00241 6.13644 4.82554 5.72972 5.84549 5.63876C6.72201 5.56059 7.5206 5.73434 8.24126 6.16C8.96192 6.58567 9.3489 7.09732 9.4022 7.69495C9.42423 7.94197 9.25423 8.24225 8.8922 8.59581C8.54612 8.94794 8.27347 9.13289 8.07426 9.15066C8.01848 9.15563 7.98846 9.13422 7.98419 9.08641C7.90471 8.55537 7.66172 8.12726 7.25523 7.80208C6.86396 7.46752 6.40139 7.32404 5.86751 7.37165C5.42925 7.41074 5.07841 7.57455 4.815 7.86309C4.55956 8.15092 4.45138 8.51396 4.49046 8.95222C4.52528 9.34267 4.68547 9.69785 4.97101 10.0177C5.25656 10.3376 5.73149 10.6648 6.39581 10.9991Z" fill="#F8407C"/>
<path d="M16.6703 11.9054C16.2527 13.8863 15.3824 14.9358 14.0597 15.0538C13.3664 15.1156 12.8215 14.859 12.4248 14.2839C11.9529 14.9364 11.3903 15.2918 10.7369 15.3501C10.442 15.3764 10.1491 15.3342 9.85816 15.2237C9.56648 15.1051 9.28398 14.9094 9.01067 14.6366C8.74532 14.3631 8.54821 13.9992 8.41934 13.5448C8.28251 13.0912 8.23312 12.5374 8.27118 11.8834C8.35481 10.8399 8.63834 10.0114 9.12177 9.39804C9.61245 8.77599 10.2522 8.42979 11.0411 8.35944C11.5358 8.32335 12.0183 8.46505 12.4886 8.78454C12.758 8.38302 13.1139 8.18663 13.5565 8.19535C13.8469 8.20961 14.0604 8.30703 14.197 8.48761C14.3408 8.65952 14.3691 8.84172 14.2818 9.03423C14.1466 9.31937 13.9978 9.76636 13.8352 10.3752C13.6916 10.9261 13.6129 11.395 13.5992 11.7817C13.5861 12.2648 13.6365 12.6499 13.7504 12.9369C13.8716 13.2152 14.0278 13.3458 14.2191 13.3288C14.4502 13.3082 14.6729 13.1036 14.8872 12.715C15.1022 12.3344 15.2464 11.8798 15.3198 11.3512C15.3608 11.0905 15.5399 10.9822 15.857 11.0262C16.1728 11.0543 16.4101 11.1937 16.569 11.4446C16.6709 11.5961 16.7046 11.7498 16.6703 11.9054ZM11.8457 11.1671C11.8666 10.7716 11.9059 10.4469 11.9636 10.1927C11.7487 10.0352 11.4979 9.96923 11.211 9.99481C10.9242 10.0204 10.6776 10.1829 10.4714 10.4824C10.2725 10.7733 10.1403 11.1826 10.0749 11.7105C10.0073 12.3029 10.0456 12.7773 10.1898 13.1339C10.3341 13.4905 10.5457 13.6564 10.8246 13.6315C11.4461 13.5761 11.7846 12.7789 11.8401 11.2398C11.8394 11.2319 11.8383 11.2199 11.8369 11.204C11.8435 11.1873 11.8464 11.175 11.8457 11.1671Z" fill="#F8407C"/>
<path d="M19.8541 5.85462C20.5275 5.9311 20.8584 6.62444 20.8467 7.93466C21.5949 6.23749 22.4832 5.43541 23.5115 5.52843C24.0706 5.58299 24.3993 5.89101 24.4975 6.4525C24.5988 6.95751 24.5733 7.66256 24.4211 8.56765C24.3115 9.13965 24.2788 9.58431 24.3232 9.90162C24.3755 10.2182 24.4509 10.4324 24.5492 10.5441C24.6555 10.6551 24.7803 10.7042 24.9237 10.6914C25.1548 10.6708 25.3775 10.4662 25.5919 10.0776C25.8069 9.69702 25.9511 9.24241 26.0244 8.71381C26.0582 8.46182 26.2293 8.35419 26.5378 8.39093C26.8542 8.42697 27.0988 8.55776 27.2715 8.7833C27.3814 8.93414 27.4159 9.09572 27.375 9.26803C27.1837 10.1846 26.826 10.9474 26.302 11.5564C25.7933 12.1559 25.1851 12.4511 24.4775 12.442C23.0716 12.4388 22.4436 11.4306 22.5934 9.41737C22.5912 9.39346 22.5931 9.3692 22.5989 9.34459C22.6012 9.28013 22.6053 9.19141 22.6113 9.07843C22.6246 8.95678 22.6334 8.87567 22.6378 8.83512C22.6653 8.42305 22.6713 8.12936 22.6556 7.95405C22.618 7.53173 22.5075 7.32874 22.3242 7.34509C22.0055 7.37351 21.6661 8.02624 21.3061 9.30326C20.9614 10.5709 20.7796 11.6393 20.7607 12.5084C20.7517 12.6779 20.6827 12.8045 20.5536 12.8883C20.3702 12.993 20.1626 13.0517 19.9308 13.0643C19.6831 13.0784 19.4489 13.0189 19.2282 12.886C19.0148 12.7444 18.8988 12.57 18.8803 12.3628C18.8135 11.6138 18.832 10.7407 18.9359 9.74355C18.9943 9.04761 19.0165 8.57578 19.0024 8.32804C19.0017 7.87029 18.8898 7.65137 18.6667 7.67127C18.34 7.7004 18.0249 8.17427 17.7213 9.09287C17.4322 9.99411 17.2358 10.8991 17.1321 11.8079C17.1335 11.8239 17.1306 11.8362 17.1234 11.8449L17.1173 12.8574C17.1147 13.0986 16.9609 13.2649 16.6558 13.3564C16.358 13.4392 16.0466 13.4147 15.7216 13.2831C15.4132 13.158 15.247 12.9599 15.2228 12.689C15.139 11.7488 15.1677 10.4049 15.3091 8.65742C15.3683 7.88109 15.491 7.2758 15.6772 6.84154C15.8706 6.39861 16.1706 6.11484 16.5771 5.99024C16.9677 5.86705 17.2538 5.87768 17.4354 6.02213C17.6162 6.1586 17.6724 6.33832 17.6039 6.56129C17.4918 6.92469 17.411 7.32544 17.3618 7.76355C18.0826 6.39009 18.9134 5.75378 19.8541 5.85462Z" fill="#F8407C"/>
<path d="M26.0644 7.42955C26.1172 5.7703 26.2447 4.49795 26.4468 3.61249C26.6753 2.57208 27.0804 2.02594 27.6621 1.97406C27.9735 1.95431 28.245 2.02648 28.4765 2.19057C28.6993 2.3474 28.7784 2.51303 28.7136 2.68747C28.5115 3.12315 28.3076 4.16939 28.102 5.82621C28.7277 5.00739 29.4023 4.64604 30.1257 4.74216C30.6717 4.83001 31.0556 5.21744 31.2775 5.90444C31.4994 6.59145 31.5285 7.36793 31.3648 8.2339C31.1935 9.28527 30.8092 10.1548 30.2119 10.8426C29.6219 11.5217 28.9738 11.8646 28.2676 11.8714C27.5216 11.8817 26.954 11.5066 26.565 10.7462C26.1831 9.97707 26.0163 8.87152 26.0644 7.42955ZM27.9124 8.69841C27.9051 8.70709 27.9026 8.72338 27.9047 8.74728C27.8993 9.7678 28.064 10.2631 28.3986 10.2333C28.6616 10.2098 28.9017 10.0198 29.1188 9.66305C29.3353 9.29838 29.4838 8.84741 29.5644 8.31012C29.6399 7.80543 29.6261 7.38097 29.5231 7.03676C29.4281 6.69183 29.2651 6.52968 29.034 6.55028C28.7631 6.57445 28.5284 6.7801 28.33 7.16726C28.1309 7.54644 27.9917 8.05683 27.9124 8.69841Z" fill="#F8407C"/>
<path d="M39.1862 8.03581C38.7685 10.0167 37.8983 11.0662 36.5755 11.1842C35.8823 11.246 35.3373 10.9894 34.9407 10.4143C34.4688 11.0668 33.9061 11.4222 33.2527 11.4805C32.9579 11.5068 32.665 11.4646 32.374 11.3541C32.0823 11.2355 31.7998 11.0398 31.5265 10.767C31.2612 10.4935 31.0641 10.1296 30.9352 9.67522C30.7984 9.22158 30.749 8.66778 30.787 8.01382C30.8707 6.97026 31.1542 6.1418 31.6376 5.52843C32.1283 4.90639 32.7681 4.56019 33.5569 4.48984C34.0517 4.45375 34.5342 4.59545 35.0044 4.91494C35.2738 4.51342 35.6298 4.31703 36.0723 4.32575C36.3627 4.34001 36.5762 4.43743 36.7128 4.61801C36.8566 4.78991 36.8849 4.97212 36.7977 5.16463C36.6625 5.44977 36.5136 5.89676 36.351 6.50561C36.2074 7.05654 36.1287 7.52539 36.115 7.91213C36.1019 8.39521 36.1523 8.78025 36.2663 9.06727C36.3875 9.3456 36.5437 9.47624 36.7349 9.45918C36.966 9.43858 37.1887 9.23398 37.403 8.84541C37.6181 8.4648 37.7623 8.0102 37.8356 7.48159C37.8766 7.22092 38.0557 7.11258 38.3729 7.15659C38.6886 7.18465 38.9259 7.32412 39.0848 7.57499C39.1867 7.72654 39.2205 7.88015 39.1862 8.03581ZM34.3615 7.29747C34.3825 6.90204 34.4218 6.57727 34.4794 6.32314C34.2646 6.1656 34.0137 6.09962 33.7269 6.12521C33.44 6.15079 33.1935 6.31333 32.9873 6.61283C32.7883 6.90366 32.6562 7.31301 32.5908 7.84091C32.5231 8.43326 32.5614 8.90773 32.7057 9.26433C32.8499 9.62092 33.0615 9.78679 33.3404 9.76191C33.9619 9.70648 34.3004 8.90926 34.356 7.37025C34.3552 7.36228 34.3542 7.35033 34.3528 7.33439C34.3593 7.31774 34.3622 7.30543 34.3615 7.29747Z" fill="#F8407C"/>
<path fill-rule="evenodd" clip-rule="evenodd" d="M6.85109 10.1087C7.07841 10.2249 7.29528 10.3487 7.50019 10.4805C7.53927 10.3392 7.58312 10.201 7.63194 10.066C7.56516 10.0378 7.49686 10.0007 7.42913 9.95239C7.13304 9.74115 7.02411 9.44434 6.99394 9.2261C6.94947 8.94023 6.83148 8.7437 6.63055 8.58296L6.61777 8.57274L6.60534 8.56211C6.42777 8.41027 6.2346 8.34288 5.95634 8.36769C5.73837 8.38713 5.63147 8.45413 5.55847 8.53197C5.51407 8.5836 5.46865 8.66306 5.48651 8.86339C5.50041 9.01928 5.56053 9.17649 5.71704 9.35183C5.879 9.53328 6.22312 9.79267 6.84534 10.1058L6.85109 10.1087ZM4.815 7.86308C4.55956 8.15091 4.45138 8.51396 4.49046 8.95222C4.52529 9.34267 4.68547 9.69784 4.97101 10.0177C5.25656 10.3376 5.73149 10.6647 6.39582 10.9991C6.73704 11.1735 7.03765 11.36 7.29766 11.5584C7.41379 11.647 7.52182 11.738 7.62175 11.8314C7.62716 11.8364 7.63255 11.8415 7.63791 11.8466C7.7985 11.9984 7.93779 12.1565 8.05579 12.3208C8.13432 12.4302 8.20579 12.5451 8.2702 12.6654C8.26016 12.5093 8.25673 12.3456 8.25989 12.1743C8.26164 12.0796 8.2654 11.9827 8.27118 11.8834C8.2915 11.6298 8.32364 11.3889 8.36757 11.1607C8.45394 10.7121 8.58593 10.3126 8.76353 9.96222C8.86736 9.75738 8.98677 9.56932 9.12177 9.39803C9.20584 9.29145 9.29429 9.19297 9.38712 9.10258C9.39059 9.0992 9.39407 9.09583 9.39755 9.09248C9.62983 8.86862 9.88931 8.69511 10.176 8.57195C10.4411 8.45806 10.7295 8.38723 11.0411 8.35944C11.5252 8.32412 11.9977 8.45905 12.4583 8.76424C12.4684 8.77093 12.4785 8.77769 12.4886 8.78454C12.4926 8.77849 12.4967 8.77249 12.5008 8.76653C12.7687 8.37715 13.1206 8.18675 13.5565 8.19535C13.8469 8.20961 14.0604 8.30703 14.197 8.48761C14.2468 8.54716 14.2828 8.60795 14.3048 8.66998C14.3465 8.78699 14.3389 8.90841 14.2818 9.03423C14.28 9.03811 14.2782 9.04202 14.2763 9.04595C14.1426 9.33155 13.9956 9.77464 13.8352 10.3752C13.6916 10.9261 13.6129 11.395 13.5992 11.7817C13.5861 12.2648 13.6365 12.6498 13.7504 12.9369C13.8716 13.2152 14.0278 13.3458 14.2191 13.3288C14.2652 13.3247 14.3111 13.3132 14.3566 13.2944C14.538 13.2194 14.7141 13.0277 14.8849 12.7192L14.8872 12.715C15.0085 12.5002 15.1073 12.2619 15.1835 12C15.1773 11.7912 15.1749 11.5683 15.1765 11.3313L15.1765 11.3287C15.179 10.9547 15.1912 10.5458 15.2132 10.1021C15.2265 9.83431 15.2433 9.55385 15.2636 9.26068C15.2772 9.06524 15.2923 8.86416 15.3091 8.65742C15.3106 8.63722 15.3122 8.61713 15.3138 8.59716C15.3748 7.8497 15.4959 7.26449 15.6772 6.84154C15.8706 6.39861 16.1706 6.11484 16.5771 5.99023C16.923 5.88115 17.1869 5.877 17.3689 5.97778C17.3924 5.99081 17.4146 6.00559 17.4354 6.02212C17.6162 6.1586 17.6724 6.33832 17.6039 6.56128C17.5224 6.82546 17.4575 7.10938 17.4092 7.41304C17.391 7.52709 17.3752 7.64393 17.3618 7.76355C17.5253 7.45198 17.6945 7.17834 17.8693 6.94264C17.9324 6.85758 17.9962 6.77747 18.0608 6.70229C18.2408 6.49276 18.4271 6.32105 18.6186 6.18832C19.0069 5.91917 19.4187 5.80794 19.8541 5.85461C20.1606 5.88942 20.3961 6.05202 20.5607 6.3424C20.726 6.63391 20.8197 7.05422 20.8419 7.60332C20.8461 7.709 20.8478 7.81944 20.8467 7.93465C21.0866 7.39056 21.3409 6.93846 21.6095 6.57835C21.6349 6.54434 21.6604 6.51116 21.686 6.47879C22.2355 5.78484 22.844 5.46805 23.5115 5.52843C24.0706 5.58299 24.3993 5.89101 24.4975 6.4525C24.5988 6.9575 24.5733 7.66255 24.4211 8.56765C24.3115 9.13965 24.2789 9.5843 24.3232 9.90162C24.3755 10.2182 24.4509 10.4324 24.5492 10.5441C24.6555 10.6551 24.7803 10.7042 24.9237 10.6914C25.0751 10.6779 25.2229 10.5854 25.3671 10.414C25.443 10.3238 25.5179 10.2116 25.5919 10.0776C25.8069 9.69701 25.9511 9.24241 26.0244 8.71381C26.0327 8.65196 26.0493 8.59882 26.0741 8.55436C26.0542 8.20544 26.051 7.8305 26.0644 7.42955L26.0645 7.42412C26.1175 5.76752 26.2449 4.49698 26.4468 3.61248C26.6753 2.57208 27.0804 2.02593 27.6621 1.97406C27.9735 1.95431 28.245 2.02648 28.4765 2.19057C28.6993 2.34739 28.7784 2.51303 28.7136 2.68747C28.587 2.96042 28.4597 3.47303 28.3317 4.22528C28.2554 4.67375 28.1788 5.20739 28.102 5.82621C28.4656 5.35033 28.8458 5.02898 29.2424 4.86213C29.5283 4.74189 29.8227 4.7019 30.1257 4.74216C30.3678 4.78112 30.5781 4.879 30.7564 5.03579C30.9803 5.23255 31.154 5.5221 31.2775 5.90444C31.2904 5.94447 31.3027 5.9848 31.3143 6.02543C31.3439 5.96991 31.3747 5.91567 31.4067 5.8627C31.4778 5.74496 31.5548 5.63354 31.6376 5.52843C31.7605 5.37268 31.8927 5.23422 32.0342 5.11306C32.458 4.75031 32.9656 4.54257 33.5569 4.48983C34.0411 4.45452 34.5135 4.58945 34.9742 4.89465C34.9843 4.90133 34.9943 4.90809 35.0044 4.91494C35.0085 4.90889 35.0125 4.90289 35.0166 4.89694C35.2846 4.50755 35.6364 4.31715 36.0723 4.32575C36.3627 4.34001 36.5762 4.43743 36.7128 4.61801C36.8566 4.78991 36.8849 4.97212 36.7977 5.16463C36.6625 5.44977 36.5136 5.89676 36.351 6.5056C36.2074 7.05654 36.1287 7.52538 36.115 7.91213C36.1019 8.3952 36.1523 8.78025 36.2663 9.06726C36.3875 9.3456 36.5437 9.47624 36.7349 9.45918C36.966 9.43857 37.1887 9.23398 37.403 8.84541C37.6181 8.4648 37.7623 8.01019 37.8356 7.48159C37.8766 7.22092 38.0557 7.11258 38.3729 7.15658C38.6886 7.18465 38.9259 7.32412 39.0848 7.57499C39.1867 7.72654 39.2205 7.88015 39.1862 8.03581C38.7685 10.0167 37.8983 11.0662 36.5755 11.1842C36.253 11.2129 35.9626 11.1728 35.7043 11.0637C35.4074 10.9383 35.1528 10.7219 34.9407 10.4143C34.7219 10.7168 34.4836 10.9555 34.2258 11.1303C33.9276 11.3325 33.6032 11.4492 33.2527 11.4805C32.9579 11.5068 32.665 11.4646 32.374 11.354C32.0823 11.2355 31.7998 11.0398 31.5265 10.767C31.5216 10.762 31.5167 10.7569 31.5119 10.7518C31.2573 10.4836 31.0667 10.1305 30.9401 9.69249C30.7667 10.081 30.5504 10.433 30.2914 10.7485C30.2653 10.7802 30.2389 10.8116 30.2119 10.8426C29.6219 11.5217 28.9738 11.8646 28.2676 11.8714C27.966 11.8756 27.6936 11.8167 27.4504 11.695C27.1626 11.5509 26.9156 11.3186 26.7095 10.9983C26.5872 11.1968 26.4514 11.3828 26.302 11.5564C26.2242 11.6481 26.144 11.7327 26.0615 11.8102C25.6049 12.2391 25.0768 12.4497 24.4775 12.442C23.0716 12.4388 22.4436 11.4306 22.5934 9.41737C22.5912 9.39346 22.5931 9.3692 22.5989 9.34458C22.6012 9.28013 22.6053 9.19141 22.6113 9.07843L22.6378 8.83511C22.6476 8.68781 22.6547 8.55563 22.659 8.43858C22.6612 8.3794 22.6627 8.32409 22.6635 8.27265C22.6655 8.1412 22.6628 8.035 22.6556 7.95405C22.618 7.53173 22.5075 7.32874 22.3242 7.34508C22.3112 7.34624 22.2982 7.34844 22.2851 7.35167C22.1431 7.38683 21.9971 7.54463 21.8469 7.82506C21.827 7.86223 21.8071 7.90155 21.787 7.94302C21.7727 7.9727 21.7583 8.00348 21.7439 8.03536C21.7401 8.04371 21.7364 8.05213 21.7326 8.06063C21.7098 8.11183 21.687 8.16577 21.664 8.22246C21.6559 8.24267 21.6477 8.26322 21.6395 8.28413C21.6362 8.29255 21.6329 8.30104 21.6295 8.30958C21.5237 8.58281 21.4159 8.91404 21.3061 9.30326C20.9614 10.5709 20.7796 11.6393 20.7607 12.5084C20.7517 12.6778 20.6827 12.8045 20.5536 12.8883C20.3702 12.993 20.1626 13.0517 19.9308 13.0643C19.6831 13.0784 19.4489 13.0189 19.2282 12.886C19.0148 12.7444 18.8988 12.57 18.8803 12.3628C18.8135 11.6138 18.832 10.7407 18.9359 9.74355C18.9762 9.2629 18.9993 8.88915 19.005 8.62229C19.0053 8.61056 19.0055 8.59904 19.0057 8.58772C19.0074 8.48371 19.0063 8.39716 19.0024 8.32804C19.0017 7.87029 18.8898 7.65136 18.6667 7.67126C18.6308 7.67447 18.5949 7.68308 18.5592 7.69708C18.4925 7.72324 18.4262 7.76824 18.3605 7.83209C18.3477 7.84453 18.3349 7.85769 18.3221 7.87156C18.253 7.94663 18.1844 8.04264 18.1164 8.1596C18.1117 8.16759 18.1071 8.17567 18.1025 8.18386C18.0817 8.22041 18.061 8.25893 18.0404 8.29938C18.0354 8.30929 18.0303 8.31931 18.0253 8.32946C18.018 8.34411 18.0107 8.359 18.0034 8.37414C17.9083 8.57202 17.8142 8.8116 17.7213 9.09287C17.5453 9.64159 17.4036 10.1917 17.2963 10.7432C17.2806 10.8241 17.2656 10.905 17.2514 10.9859C17.2496 10.9958 17.2479 11.0058 17.2462 11.0157C17.2003 11.2794 17.1623 11.5435 17.1321 11.8079C17.1335 11.8239 17.1306 11.8362 17.1234 11.8449L17.1173 12.8574C17.1147 13.0986 16.9609 13.2649 16.6558 13.3564C16.5041 13.3985 16.3489 13.4129 16.1901 13.3994C16.0209 13.7566 15.8238 14.0564 15.5987 14.2987C15.1816 14.7478 14.6686 14.9995 14.0597 15.0538C13.7372 15.0825 13.4468 15.0424 13.1885 14.9333C12.8915 14.8079 12.637 14.5915 12.4248 14.2839C12.2061 14.5864 11.9678 14.8251 11.71 14.9999C11.4117 15.2021 11.0874 15.3188 10.7369 15.3501C10.442 15.3764 10.1491 15.3342 9.85816 15.2236C9.79193 15.1967 9.72617 15.1658 9.66089 15.131C9.43866 15.0122 9.22192 14.8475 9.01067 14.6366C8.89127 14.5135 8.7857 14.3722 8.69394 14.2125C8.71292 14.4671 8.70645 14.7171 8.67452 14.9627C8.67399 14.9668 8.67345 14.9709 8.6729 14.975C8.64622 15.1748 8.60267 15.3715 8.54226 15.5653C8.5029 15.6916 8.45637 15.8166 8.40268 15.9403C8.1482 16.5092 7.74611 16.9988 7.19639 17.4093C6.64668 17.8197 5.99333 18.0587 5.23633 18.1262C3.99327 18.2371 3.00437 17.9558 2.26965 17.2824C1.53564 16.617 1.1132 15.6627 1.00234 14.4197C0.979604 14.1647 1.14882 13.9006 1.50998 13.6275C1.60138 13.5596 1.69173 13.4993 1.78102 13.4465C1.78561 13.4437 1.7902 13.441 1.79479 13.4384C1.86391 13.398 1.9324 13.3621 2.00026 13.3307C2.1939 13.2412 2.38238 13.1882 2.56568 13.1719C2.70115 13.1598 2.77208 13.1896 2.77847 13.2613C2.78273 13.3091 2.78294 13.4015 2.77908 13.5384C2.7832 13.6745 2.78667 13.7586 2.78951 13.7904C2.85916 14.5713 3.11628 15.203 3.56089 15.6854C4.0055 16.1678 4.50272 16.3845 5.05253 16.3355C5.54657 16.2914 5.9554 16.1024 6.279 15.7683C6.60189 15.4263 6.74131 15.0082 6.69725 14.5142C6.65106 13.9962 6.50184 13.5839 6.24959 13.2771C5.99592 12.9543 5.56694 12.6472 4.96266 12.3557C3.48632 11.6521 2.69201 10.6708 2.57973 9.41176C2.49161 8.42368 2.75707 7.57274 3.37611 6.85893C4.00241 6.13644 4.82554 5.72971 5.84549 5.63875C6.72201 5.56058 7.5206 5.73433 8.24126 6.16C8.96192 6.58567 9.3489 7.09731 9.4022 7.69494C9.4066 7.74428 9.40334 7.79575 9.39241 7.84934C9.3491 8.06184 9.18533 8.30776 8.9011 8.58709C8.89815 8.58999 8.89518 8.5929 8.89221 8.59581C8.8824 8.60578 8.87265 8.61563 8.86296 8.62533C8.74121 8.74735 8.62877 8.84817 8.52563 8.92779C8.47711 8.96524 8.43038 8.9982 8.38598 9.02626C8.36997 9.03638 8.35424 9.04589 8.33877 9.05478C8.23974 9.11173 8.15169 9.14367 8.07462 9.15062C8.01884 9.1556 7.98846 9.13421 7.98419 9.0864C7.90471 8.55536 7.66172 8.12726 7.25523 7.80208C6.86396 7.46751 6.40139 7.32404 5.86751 7.37165C5.42925 7.41073 5.07841 7.57454 4.815 7.86308ZM10.3804 7.45557C10.5649 7.41172 10.7557 7.38092 10.9523 7.36339L10.9603 7.36267L10.9683 7.36209C11.4353 7.32802 11.8833 7.40135 12.3062 7.56408C12.6659 7.31932 13.0937 7.18603 13.5762 7.19554L13.5908 7.19583L13.6055 7.19655C13.8934 7.21069 14.1929 7.27832 14.4646 7.42676C14.5373 7.06715 14.6334 6.73839 14.7581 6.44753L14.7608 6.44134C15.0526 5.77306 15.5569 5.25836 16.2801 5.03536C16.7466 4.88883 17.461 4.77265 18.0477 5.23145C18.078 5.25473 18.1081 5.27942 18.1375 5.30552C18.6647 4.96134 19.2699 4.78626 19.9606 4.86031L19.9669 4.86098C20.4857 4.9199 20.8995 5.16343 21.1998 5.51782C21.8428 4.84437 22.6329 4.44486 23.6016 4.5325L23.6087 4.53313C24.0524 4.57644 24.4996 4.73188 24.8612 5.07072C24.9857 5.18744 25.0893 5.31579 25.1746 5.45182C25.2444 4.64797 25.3421 3.95971 25.4709 3.39403C25.6002 2.80725 25.7987 2.25835 26.1188 1.82683C26.4606 1.36597 26.9504 1.03356 27.5732 0.97801L27.586 0.976871L27.5988 0.97606C28.1138 0.94341 28.6166 1.06461 29.0534 1.37377C29.2419 1.5066 29.465 1.70743 29.6054 2.00181C29.7632 2.33257 29.7761 2.69868 29.6511 3.03551L29.6373 3.07249L29.6207 3.10828C29.5819 3.19196 29.5164 3.39492 29.4365 3.76624C29.6974 3.72014 29.9712 3.71283 30.2574 3.75087L30.271 3.75268L30.2846 3.75486C30.7528 3.83021 31.1352 4.02734 31.4409 4.30566C32.0104 3.83763 32.6938 3.56284 33.4681 3.49379L33.4761 3.49307L33.4842 3.49248C33.9511 3.45842 34.3991 3.53175 34.8221 3.69448C35.1818 3.44972 35.6096 3.31643 36.092 3.32594L36.1067 3.32623L36.1213 3.32695C36.6102 3.35095 37.1324 3.52917 37.4954 3.99527C37.6521 4.18795 37.784 4.43379 37.8301 4.73013C37.8782 5.04046 37.8204 5.33057 37.7085 5.57741L37.705 5.58527L37.7013 5.59308C37.6282 5.7471 37.5341 6.00519 37.4218 6.38852C37.4416 6.37504 37.462 6.36193 37.4831 6.34921C37.8384 6.13427 38.2158 6.12859 38.4856 6.1628C39.073 6.22146 39.5887 6.50918 39.9225 7.02874C40.1466 7.36768 40.2625 7.79049 40.164 8.24543C39.9366 9.32225 39.5662 10.252 38.99 10.9469C38.3898 11.6708 37.5991 12.0968 36.6643 12.1802C36.0374 12.2361 35.4676 12.1095 34.9823 11.8146C34.5139 12.1845 33.9669 12.4208 33.3415 12.4765C32.8882 12.517 32.4437 12.4503 32.0187 12.2888L32.008 12.2847L31.9975 12.2804C31.5955 12.1171 31.2344 11.8684 30.9103 11.5624C30.1979 12.3569 29.3176 12.8607 28.2793 12.8713C27.7564 12.8782 27.2549 12.7551 26.8071 12.4805C26.1705 13.1044 25.3817 13.4523 24.47 13.4419C23.4985 13.4384 22.6344 13.0648 22.1033 12.2122C21.9944 12.0373 21.9046 11.8501 21.8319 11.6525C21.7896 11.973 21.7662 12.2652 21.7605 12.5301L21.7601 12.5457L21.7593 12.5613C21.7354 13.0122 21.526 13.4492 21.0982 13.727L21.0742 13.7426L21.0494 13.7567C20.7183 13.9457 20.3573 14.0424 19.9863 14.0628C19.5302 14.0884 19.0979 13.9749 18.7122 13.7426L18.6935 13.7313L18.6753 13.7193C18.4475 13.5681 18.2404 13.3672 18.0943 13.116C18.0478 13.3791 17.9301 13.6302 17.7341 13.842C17.4963 14.0992 17.2007 14.237 16.9429 14.3142L16.9333 14.3171L16.9236 14.3198C16.886 14.3303 16.8483 14.3398 16.8107 14.3482C16.7072 14.5141 16.5953 14.6705 16.4742 14.8165C15.8739 15.5404 15.0833 15.9664 14.1485 16.0498C13.5216 16.1057 12.9517 15.9791 12.4665 15.6842C11.9981 16.0541 11.4511 16.2904 10.8257 16.3461C10.3723 16.3866 9.92785 16.3199 9.50289 16.1584L9.4922 16.1544L9.48162 16.15C9.45718 16.1401 9.4329 16.1299 9.40877 16.1193C9.38113 16.1927 9.35156 16.2657 9.32005 16.3384L9.31556 16.3487C8.9846 17.0885 8.46692 17.7086 7.79468 18.2106C7.0808 18.7436 6.24622 19.0401 5.32516 19.1223C3.87878 19.2513 2.58759 18.9292 1.59594 18.0214C0.632161 17.1466 0.133361 15.9333 0.0062977 14.5085C-0.0648252 13.711 0.481066 13.1518 0.906748 12.8299L0.914106 12.8243C1.37879 12.4796 1.90295 12.227 2.47685 12.1758C2.57302 12.1673 2.74489 12.1586 2.93981 12.2074C2.16529 11.4911 1.68108 10.5927 1.58368 9.50059C1.47281 8.25731 1.81402 7.13395 2.6205 6.20392M3.65668 12.7666C3.72709 12.9024 3.76293 13.0426 3.77452 13.1725C3.784 13.2788 3.78263 13.4145 3.7795 13.5365C3.78115 13.5892 3.78262 13.6308 3.78392 13.6622L3.78578 13.7023C3.78589 13.7043 3.78605 13.707 3.78605 13.707C3.84069 14.3095 4.02943 14.7182 4.29622 15.0077C4.57494 15.3101 4.78315 15.3555 4.96371 15.3394C5.23303 15.3154 5.41194 15.2241 5.55611 15.0773C5.66786 14.9571 5.72116 14.8268 5.7012 14.603C5.66742 14.2242 5.56743 14.0219 5.47715 13.9121L5.47017 13.9037L5.46338 13.895C5.34545 13.745 5.07278 13.5193 4.53014 13.2574C4.21838 13.1086 3.92644 12.9452 3.65668 12.7666ZM25.1832 9.78139C25.1963 9.78968 25.2083 9.79806 25.2192 9.80628ZM25.1542 9.76427C25.1344 9.75342 25.1125 9.74299 25.0885 9.73355C25.0276 9.70957 24.9678 9.69785 24.9137 9.69446C24.9076 9.69408 24.9016 9.6938 24.8957 9.69362C24.8743 9.69299 24.854 9.69365 24.8349 9.69535C24.758 9.70221 24.6953 9.72368 24.6509 9.74568C24.6087 9.76663 24.5876 9.78607 24.5876 9.78607C24.5876 9.78607 24.6013 9.7728 24.6245 9.74139C24.6486 9.70863 24.6796 9.661 24.7162 9.59464L24.7212 9.58568C24.8505 9.35674 24.9553 9.06136 25.0179 8.68202C25.0186 8.67749 25.0194 8.67294 25.0201 8.66838C25.025 8.63825 25.0296 8.60758 25.0339 8.57639L25.074 8.58196M25.2192 9.80628C25.2236 9.8292 25.2282 9.85203 25.2328 9.87476L25.2339 9.88019C25.2344 9.88249 25.2349 9.88478 25.2354 9.88708M10.3804 7.45557C10.239 6.49854 9.58681 5.79335 8.74983 5.29898C7.83947 4.76126 6.83015 4.54697 5.75666 4.64271C4.49889 4.75488 3.42928 5.27099 2.6205 6.20392M11.8457 11.1671C11.8666 10.7716 11.9059 10.4469 11.9636 10.1927C11.7488 10.0352 11.4979 9.96922 11.211 9.9948C11.1855 9.99708 11.1604 10.0004 11.1355 10.0049C11.079 10.015 11.0242 10.0306 10.971 10.0519C10.7842 10.1265 10.6177 10.27 10.4714 10.4824C10.2725 10.7733 10.1403 11.1826 10.0749 11.7105C10.0073 12.3029 10.0456 12.7773 10.1898 13.1339C10.3341 13.4905 10.5457 13.6564 10.8246 13.6315C11.4461 13.5761 11.7846 12.7789 11.8401 11.2398L11.8369 11.204C11.8435 11.1873 11.8464 11.175 11.8457 11.1671ZM28.7089 6.6789C28.5706 6.78147 28.4443 6.94426 28.33 7.16725C28.326 7.17495 28.3219 7.18271 28.318 7.19052C28.1901 7.44042 28.0876 7.74574 28.0104 8.10648C28.0012 8.14947 27.9923 8.19326 27.9839 8.23783C27.9819 8.24813 27.9799 8.25848 27.978 8.26887C27.9529 8.40484 27.931 8.54802 27.9124 8.6984C27.9051 8.70708 27.9026 8.72338 27.9047 8.74728C27.9034 8.98888 27.9117 9.20104 27.9295 9.38376C27.93 9.38916 27.9305 9.39453 27.9311 9.39987C27.9701 9.78449 28.0521 10.0362 28.1771 10.155C28.2401 10.2147 28.3139 10.2408 28.3986 10.2333C28.6616 10.2098 28.9017 10.0198 29.1188 9.66305C29.3353 9.29838 29.4838 8.8474 29.5644 8.31012C29.6399 7.80542 29.6261 7.38097 29.5231 7.03675C29.4281 6.69183 29.2651 6.52967 29.034 6.55028C28.9191 6.56053 28.8108 6.6034 28.7089 6.6789ZM34.3615 7.29746C34.3825 6.90204 34.4218 6.57726 34.4794 6.32314C34.2646 6.1656 34.0137 6.09962 33.7269 6.1252C33.7014 6.12748 33.6762 6.13083 33.6514 6.13527C33.5949 6.14535 33.54 6.16103 33.4868 6.18229C33.3 6.25692 33.1335 6.40043 32.9873 6.61283C32.7883 6.90365 32.6562 7.31301 32.5908 7.8409C32.5231 8.43325 32.5614 8.90773 32.7057 9.26432C32.8499 9.62092 33.0615 9.78678 33.3404 9.76191C33.9619 9.70648 34.3004 8.90926 34.356 7.37024L34.3528 7.33439C34.3593 7.31774 34.3622 7.30543 34.3615 7.29746Z" fill="#00A4DA"/>
<path d="M40.6887 6.0853C40.7203 5.71341 40.851 5.41017 41.0808 5.17556C41.3216 4.93716 41.612 4.82956 41.9522 4.85275C42.0179 4.13694 42.1947 3.76619 42.4826 3.74052C42.5947 3.73334 42.6913 3.75853 42.7725 3.81609C42.8535 3.87085 42.8798 3.92907 42.8515 3.99076C42.8046 4.09637 42.7509 4.31667 42.6907 4.65166C42.6375 4.97194 42.6047 5.28335 42.5923 5.58591C42.5639 6.27867 42.6224 6.61857 42.7677 6.60561C42.8488 6.59838 42.9282 6.52509 43.0059 6.38575C43.0811 6.24945 43.1303 6.09012 43.1534 5.90774C43.1678 5.81631 43.232 5.77818 43.3461 5.79337C43.4573 5.8088 43.5407 5.85912 43.5962 5.94432C43.6289 5.99494 43.6393 6.04894 43.6276 6.10634C43.481 6.80118 43.1758 7.16929 42.7118 7.21067C42.4826 7.23111 42.3013 7.12473 42.1678 6.89154C41.9994 7.15165 41.7923 7.29268 41.5463 7.31462C41.3171 7.33506 41.1101 7.24083 40.9252 7.03193C40.7429 6.81999 40.6641 6.50445 40.6887 6.0853ZM41.9264 5.65375C41.925 5.60598 41.9239 5.53141 41.9234 5.43004C41.5949 5.41144 41.3946 5.61384 41.3225 6.03722C41.2901 6.24295 41.2994 6.40976 41.3502 6.53763C41.4008 6.66272 41.4764 6.72077 41.577 6.7118C41.6861 6.70207 41.7707 6.6241 41.8309 6.47786C41.8908 6.32884 41.9239 6.13149 41.9302 5.88583C41.9285 5.86627 41.9272 5.7889 41.9264 5.65375Z" fill="#F8407C"/>
<path d="M44.8214 5.37866C44.7981 5.62302 44.6949 5.8238 44.5117 5.981C44.3366 6.13466 44.1251 6.24227 43.877 6.30384C43.984 6.46052 44.1562 6.52826 44.3938 6.50708C44.5783 6.49063 44.7272 6.40692 44.8405 6.25595C44.9538 6.10498 45.0234 5.93818 45.0494 5.75556C45.0613 5.66717 45.1239 5.62777 45.2375 5.63737C45.3457 5.65025 45.4302 5.69765 45.4911 5.77956C45.5268 5.83272 45.5389 5.8894 45.5273 5.94959C45.4595 6.26272 45.3213 6.53001 45.1129 6.75144C44.9093 6.96399 44.6523 7.0841 44.3421 7.11177C44.1353 7.13021 43.9412 7.10244 43.7599 7.02846C43.5754 6.94913 43.4257 6.8188 43.3109 6.63746C43.1989 6.45587 43.1446 6.24097 43.1478 5.99277C43.1589 5.58045 43.2571 5.26038 43.4425 5.03256C43.6278 4.80474 43.8686 4.67761 44.1649 4.65119C44.4058 4.63534 44.5807 4.70144 44.6897 4.84949C44.8043 4.99704 44.8482 5.17343 44.8214 5.37866ZM44.0778 5.23791C43.9995 5.24489 43.9316 5.30448 43.874 5.41667C43.8189 5.52582 43.7874 5.67794 43.7794 5.87304C43.904 5.84785 44.0096 5.8004 44.0964 5.73068C44.1831 5.66097 44.237 5.58573 44.258 5.50498C44.2766 5.43006 44.2667 5.36615 44.2282 5.31324C44.1894 5.25754 44.1393 5.23243 44.0778 5.23791Z" fill="#F8407C"/>
<path fill-rule="evenodd" clip-rule="evenodd" d="M40.2571 6.04467L40.2576 6.0389C40.2967 5.57959 40.4629 5.17555 40.7742 4.85775L40.7766 4.85535L40.779 4.85299C41.0068 4.62736 41.2741 4.4845 41.5701 4.42757C41.6091 4.20451 41.6651 4.00522 41.7444 3.83886C41.8687 3.57827 42.0919 3.32409 42.4521 3.29196L42.4576 3.29147L42.4631 3.29112C42.6608 3.27846 42.8592 3.32291 43.0324 3.44428C43.107 3.49531 43.2047 3.57938 43.2637 3.71004C43.3325 3.86205 43.325 4.02407 43.263 4.16195C43.2412 4.21188 43.1957 4.37741 43.1349 4.71377C43.3936 4.41157 43.7348 4.23827 44.1344 4.20264L44.1395 4.20218L44.1446 4.20184C44.4811 4.1797 44.8246 4.27141 45.0503 4.57416C45.1921 4.75858 45.2647 4.96801 45.277 5.18813C45.2791 5.18829 45.2812 5.18846 45.2833 5.18863L45.2908 5.18927L45.2983 5.19017C45.5179 5.21631 45.7155 5.32096 45.854 5.50745L45.8602 5.51578L45.866 5.52439C45.9634 5.6693 46.0039 5.84354 45.9694 6.02365L45.9684 6.02887L45.9673 6.03406C45.8834 6.42118 45.7093 6.76193 45.4429 7.04493L45.4402 7.04773L45.4402 7.04771C45.1582 7.34211 44.7998 7.50577 44.3899 7.54233C44.1173 7.56664 43.8522 7.53024 43.6018 7.42804L43.5981 7.4265L43.5943 7.42489C43.5469 7.40452 43.5012 7.38185 43.4572 7.35697C43.2608 7.51996 43.0254 7.61754 42.7597 7.64123C42.5627 7.6588 42.3667 7.62194 42.1893 7.51786C42.1886 7.51746 42.1879 7.51705 42.1872 7.51665C42.0187 7.64285 41.8212 7.72493 41.5941 7.74517C41.1951 7.78076 40.859 7.6042 40.6034 7.31538L40.5993 7.31074L40.5993 7.31071C40.3122 6.9769 40.2288 6.52753 40.2568 6.05044L40.2571 6.04467ZM41.8594 7.20609C41.9771 7.1351 42.0828 7.02725 42.1765 6.88254C42.2656 7.03829 42.3761 7.13747 42.508 7.18008C42.5735 7.20126 42.6444 7.20846 42.7205 7.20167C42.8628 7.18898 42.9902 7.14553 43.1027 7.07132C43.2186 6.99482 43.3187 6.88564 43.4029 6.74377C43.5007 6.86231 43.6181 6.95223 43.7551 7.01353C43.7596 7.01554 43.7641 7.01751 43.7686 7.01946C43.9499 7.09344 44.1439 7.12121 44.3507 7.10277C44.661 7.0751 44.9179 6.95499 45.1215 6.74244C45.33 6.52101 45.4681 6.25373 45.536 5.94059C45.5475 5.8804 45.5354 5.82372 45.4997 5.77057C45.4389 5.68866 45.3544 5.64126 45.2461 5.62837C45.2414 5.62797 45.2368 5.62766 45.2323 5.62743C45.1275 5.62213 45.0694 5.66184 45.0581 5.74656C45.0321 5.92918 44.9625 6.09598 44.8491 6.24695C44.8356 6.26506 44.8214 6.2822 44.8068 6.29837C44.8057 6.29958 44.8046 6.30079 44.8035 6.302C44.6968 6.41839 44.5631 6.48375 44.4025 6.49808C44.2423 6.51236 44.1119 6.48624 44.0111 6.41972C43.9624 6.38755 43.9205 6.34592 43.8857 6.29484C43.8886 6.2941 43.8916 6.29336 43.8946 6.29261C43.9502 6.2785 44.004 6.26205 44.056 6.24327C44.113 6.22266 44.1678 6.19924 44.2204 6.17301C44.271 6.14775 44.3195 6.11988 44.366 6.0894C44.4138 6.05805 44.4595 6.02394 44.5029 5.98707C44.5088 5.9821 44.5146 5.97708 44.5204 5.972C44.612 5.89336 44.6836 5.8038 44.7353 5.70333C44.7357 5.7025 44.7361 5.70167 44.7366 5.70084C44.7874 5.60115 44.8185 5.49076 44.8301 5.36966C44.8328 5.34846 44.8348 5.32756 44.8361 5.30697C44.847 5.12829 44.8011 4.9728 44.6984 4.84049C44.5894 4.69245 44.4144 4.62635 44.1736 4.64219C43.8773 4.66861 43.6365 4.79574 43.4511 5.02356C43.3771 5.11461 43.3169 5.22039 43.2707 5.3409C43.2093 5.5008 43.1724 5.68664 43.1601 5.89843C43.1601 5.89845 43.1601 5.89847 43.1601 5.89849C43.1596 5.90697 43.1591 5.9155 43.1587 5.92407C43.1558 5.94419 43.1527 5.96403 43.1491 5.98357C43.1491 5.9836 43.1491 5.98364 43.1491 5.98367C43.1295 6.09299 43.0998 6.19333 43.0599 6.28468C43.0577 6.28959 43.0556 6.29447 43.0534 6.29932C43.0413 6.32591 43.0284 6.35172 43.0146 6.37675C42.9485 6.49512 42.8813 6.56583 42.8129 6.58886C42.8008 6.59294 42.7886 6.59552 42.7764 6.59661C42.6853 6.60473 42.6283 6.47427 42.6055 6.20522C42.6054 6.20379 42.6052 6.20236 42.6051 6.20092C42.5918 6.04122 42.5904 5.83322 42.6009 5.57691C42.6134 5.27435 42.6462 4.96294 42.6993 4.64266C42.7596 4.30767 42.8132 4.08737 42.8601 3.98176C42.8884 3.92007 42.8621 3.86185 42.7812 3.80709C42.7 3.74953 42.6033 3.72434 42.4913 3.73152C42.2034 3.75719 42.0266 4.12794 41.9608 4.84375C41.6207 4.82056 41.3302 4.92816 41.0895 5.16656C40.8597 5.40117 40.729 5.70442 40.6973 6.0763C40.6727 6.49545 40.7516 6.81099 40.9339 7.02293C41.1187 7.23183 41.3258 7.32606 41.5549 7.30562C41.6641 7.29589 41.7656 7.26271 41.8594 7.20609ZM43.7937 5.86289C43.7918 5.86328 43.79 5.86367 43.7881 5.86405C43.7888 5.8475 43.7896 5.83127 43.7906 5.81535C43.7907 5.81499 43.7907 5.81464 43.7907 5.81429C43.7976 5.70633 43.8123 5.61261 43.8349 5.5331C43.8384 5.52066 43.8421 5.50857 43.846 5.49682C43.8537 5.47354 43.8622 5.45162 43.8715 5.43107C43.8751 5.42306 43.8788 5.41526 43.8826 5.40767C43.8838 5.40546 43.8849 5.40328 43.886 5.40111C43.8867 5.39994 43.8873 5.39878 43.8879 5.39763C43.9444 5.29192 44.0105 5.23568 44.0864 5.22891C44.1479 5.22343 44.1981 5.24854 44.2368 5.30424C44.2754 5.35715 44.2853 5.42106 44.2666 5.49598C44.2589 5.52571 44.2467 5.5547 44.2301 5.58294C44.2296 5.58374 44.2291 5.58454 44.2286 5.58534C44.2133 5.61097 44.1942 5.63598 44.1715 5.66037C44.1521 5.68126 44.1299 5.7017 44.105 5.72168C44.0788 5.74272 44.0509 5.76173 44.0213 5.77872C44.0194 5.7798 44.0175 5.78087 44.0156 5.78194C43.95 5.81874 43.876 5.84572 43.7937 5.86289ZM41.3312 6.02823C41.3618 5.84813 41.4157 5.70802 41.4928 5.6079C41.5801 5.49441 41.6972 5.4323 41.8442 5.42156C41.8724 5.4195 41.9016 5.41933 41.932 5.42105C41.9326 5.52242 41.9336 5.59698 41.9351 5.64475C41.9358 5.77991 41.9371 5.85727 41.9389 5.87683C41.9326 6.12249 41.8995 6.31984 41.8395 6.46887C41.7793 6.6151 41.6947 6.69308 41.5857 6.7028C41.4851 6.71177 41.4095 6.65372 41.3589 6.52863C41.308 6.40076 41.2988 6.23396 41.3312 6.02823ZM41.7704 6.36862C41.7704 6.36865 41.7702 6.36818 41.7697 6.36718C41.7702 6.3681 41.7704 6.3686 41.7704 6.36862Z" fill="#00A4DA"/>
<path d="M41.1013 5.59754C41.1329 5.22566 41.2636 4.92241 41.4934 4.6878C41.7342 4.4494 42.0246 4.3418 42.3648 4.365C42.4305 3.64918 42.6073 3.27844 42.8952 3.25276C43.0073 3.24558 43.1039 3.27078 43.1851 3.32833C43.2661 3.38309 43.2924 3.44132 43.2641 3.503C43.2171 3.60861 43.1635 3.82891 43.1033 4.16391C43.0501 4.48418 43.0173 4.79559 43.0049 5.09815C42.9765 5.79091 43.035 6.13081 43.1803 6.11785C43.2614 6.11062 43.3408 6.03734 43.4185 5.89799C43.4937 5.76169 43.5429 5.60236 43.566 5.41999C43.5804 5.32855 43.6446 5.29043 43.7587 5.30561C43.8699 5.32105 43.9533 5.37136 44.0088 5.45657C44.0415 5.50718 44.0519 5.56118 44.0401 5.61858C43.8936 6.31343 43.5884 6.68154 43.1244 6.72292C42.8952 6.74336 42.7139 6.63698 42.5804 6.40378C42.412 6.6639 42.2049 6.80492 41.9589 6.82686C41.7297 6.8473 41.5227 6.75307 41.3378 6.54417C41.1555 6.33223 41.0767 6.01669 41.1013 5.59754ZM42.339 5.16599C42.3376 5.11822 42.3365 5.04366 42.336 4.94229C42.0075 4.92369 41.8072 5.12608 41.7351 5.54947C41.7027 5.7552 41.712 5.922 41.7628 6.04988C41.8134 6.17496 41.889 6.23301 41.9896 6.22404C42.0987 6.21432 42.1833 6.13634 42.2435 5.99011C42.3034 5.84108 42.3365 5.64374 42.3428 5.39807C42.3411 5.37851 42.3398 5.30115 42.339 5.16599Z" fill="#01FF5E"/>
<path d="M45.234 4.8909C45.2107 5.13526 45.1075 5.33605 44.9243 5.49325C44.7492 5.6469 44.5377 5.75452 44.2896 5.81608C44.3966 5.97276 44.5688 6.04051 44.8064 6.01932C44.9909 6.00287 45.1398 5.91916 45.2531 5.76819C45.3664 5.61722 45.436 5.45043 45.462 5.2678C45.4739 5.17941 45.5365 5.14002 45.6501 5.14961C45.7583 5.1625 45.8428 5.2099 45.9036 5.29181C45.9394 5.34497 45.9515 5.40164 45.9399 5.46183C45.8721 5.77497 45.7339 6.04225 45.5255 6.26368C45.3219 6.47623 45.0649 6.59634 44.7547 6.62401C44.5479 6.64246 44.3538 6.61469 44.1725 6.5407C43.988 6.46137 43.8383 6.33104 43.7235 6.1497C43.6115 5.96811 43.5572 5.75322 43.5604 5.50501C43.5715 5.0927 43.6697 4.77263 43.8551 4.5448C44.0404 4.31698 44.2812 4.18986 44.5775 4.16343C44.8184 4.14759 44.9933 4.21369 45.1023 4.36173C45.2169 4.50928 45.2608 4.68567 45.234 4.8909ZM44.4904 4.75015C44.4121 4.75713 44.3442 4.81672 44.2866 4.92891C44.2315 5.03806 44.2 5.19019 44.192 5.38529C44.3166 5.3601 44.4222 5.31264 44.509 5.24293C44.5957 5.17321 44.6496 5.09797 44.6706 5.01722C44.6892 4.94231 44.6793 4.87839 44.6408 4.82548C44.602 4.76978 44.5519 4.74467 44.4904 4.75015Z" fill="#01FF5E"/>
<path d="M6.28427 9.99906C7.03325 10.382 7.58658 10.8226 7.94425 11.3208C8.30192 11.819 8.51308 12.4307 8.57775 13.1558C8.63318 13.7773 8.53764 14.3722 8.29113 14.9403C8.03666 15.5092 7.63457 15.9988 7.08485 16.4093C6.53514 16.8197 5.88179 17.0587 5.12479 17.1262C3.88172 17.2371 2.89283 16.9558 2.15811 16.2824C1.4241 15.617 1.00166 14.6627 0.890802 13.4197C0.868062 13.1647 1.03727 12.9006 1.39844 12.6275C1.76757 12.3536 2.11947 12.2017 2.45414 12.1719C2.5896 12.1598 2.66053 12.1896 2.66693 12.2613C2.67119 12.3091 2.6714 12.4015 2.66754 12.5384C2.67165 12.6745 2.67513 12.7586 2.67797 12.7904C2.74761 13.5713 3.00474 14.203 3.44935 14.6854C3.89396 15.1678 4.39117 15.3845 4.94099 15.3355C5.43503 15.2914 5.84385 15.1024 6.16746 14.7683C6.49035 14.4263 6.62977 14.0082 6.58571 13.5142C6.53952 12.9962 6.3903 12.5839 6.13805 12.2771C5.88438 11.9543 5.4554 11.6472 4.85112 11.3557C3.37478 10.6521 2.58047 9.67077 2.46819 8.41176C2.38007 7.42368 2.64553 6.57274 3.26457 5.85893C3.89087 5.13644 4.71399 4.72971 5.73395 4.63875C6.61047 4.56058 7.40906 4.73433 8.12972 5.16C8.85038 5.58567 9.23736 6.09731 9.29066 6.69494C9.31268 6.94196 9.14269 7.24225 8.78066 7.59581C8.43457 7.94794 8.16192 8.13289 7.96272 8.15066C7.90694 8.15563 7.87692 8.13421 7.87265 8.0864C7.79317 7.55536 7.55018 7.12726 7.14368 6.80208C6.75242 6.46751 6.28985 6.32404 5.75596 6.37165C5.3177 6.41073 4.96687 6.57454 4.70346 6.86308C4.44802 7.15091 4.33984 7.51396 4.37892 7.95222C4.41374 8.34267 4.57393 8.69784 4.85947 9.01774C5.14502 9.33764 5.61995 9.66475 6.28427 9.99906Z" fill="#01FF5E"/>
<path d="M16.5588 10.9054C16.1411 12.8863 15.2709 13.9358 13.9481 14.0538C13.2549 14.1156 12.7099 13.859 12.3133 13.2839C11.8414 13.9364 11.2787 14.2918 10.6253 14.3501C10.3305 14.3764 10.0376 14.3342 9.74662 14.2236C9.45494 14.1051 9.17244 13.9094 8.89912 13.6366C8.63378 13.3631 8.43667 12.9992 8.3078 12.5448C8.17097 12.0912 8.12158 11.5374 8.15964 10.8834C8.24327 9.83986 8.5268 9.0114 9.01022 8.39803C9.50091 7.77599 10.1407 7.42979 10.9296 7.35944C11.4243 7.32334 11.9068 7.46504 12.377 7.78454C12.6464 7.38302 13.0024 7.18662 13.4449 7.19535C13.7353 7.20961 13.9488 7.30703 14.0854 7.48761C14.2293 7.65951 14.2576 7.84172 14.1703 8.03423C14.0351 8.31937 13.8862 8.76636 13.7237 9.37521C13.58 9.92614 13.5014 10.395 13.4877 10.7817C13.4745 11.2648 13.5249 11.6499 13.6389 11.9369C13.7601 12.2152 13.9163 12.3458 14.1075 12.3288C14.3386 12.3082 14.5613 12.1036 14.7757 11.715C14.9907 11.3344 15.1349 10.8798 15.2082 10.3512C15.2492 10.0905 15.4283 9.98218 15.7455 10.0262C16.0612 10.0542 16.2985 10.1937 16.4575 10.4446C16.5593 10.5961 16.5931 10.7497 16.5588 10.9054ZM11.7341 10.1671C11.7551 9.77164 11.7944 9.44686 11.8521 9.19274C11.6372 9.0352 11.3864 8.96922 11.0995 8.9948C10.8126 9.02039 10.5661 9.18293 10.3599 9.48243C10.1609 9.77325 10.0288 10.1826 9.96341 10.7105C9.89576 11.3029 9.93406 11.7773 10.0783 12.1339C10.2225 12.4905 10.4341 12.6564 10.713 12.6315C11.3345 12.5761 11.6731 11.7789 11.7286 10.2398C11.7279 10.2319 11.7268 10.2199 11.7254 10.204C11.7319 10.1873 11.7348 10.175 11.7341 10.1671Z" fill="#01FF5E"/>
<path d="M19.7425 4.85461C20.416 4.93109 20.7469 5.62444 20.7352 6.93465C21.4834 5.23748 22.3717 4.43541 23.4 4.52843C23.9591 4.58299 24.2877 4.89101 24.386 5.4525C24.4872 5.9575 24.4618 6.66255 24.3096 7.56765C24.1999 8.13965 24.1673 8.5843 24.2117 8.90162C24.264 9.21822 24.3393 9.43238 24.4376 9.54409C24.5439 9.65508 24.6688 9.70419 24.8122 9.6914C25.0433 9.67079 25.266 9.4662 25.4803 9.07762C25.6954 8.69701 25.8395 8.24241 25.9129 7.71381C25.9466 7.46181 26.1177 7.35419 26.4262 7.39093C26.7427 7.42696 26.9873 7.55775 27.16 7.7833C27.2698 7.93414 27.3043 8.09572 27.2635 8.26803C27.0721 9.18465 26.7145 9.94743 26.1905 10.5564C25.6817 11.1559 25.0736 11.4511 24.3659 11.442C22.9601 11.4388 22.3321 10.4306 22.4818 8.41737C22.4797 8.39346 22.4815 8.3692 22.4874 8.34458C22.4897 8.28013 22.4938 8.19141 22.4998 8.07843C22.513 7.95677 22.5219 7.87567 22.5263 7.83511C22.5538 7.42304 22.5597 7.12935 22.5441 6.95405C22.5064 6.53173 22.3959 6.32874 22.2127 6.34508C21.8939 6.37351 21.5546 7.02623 21.1946 8.30326C20.8498 9.57089 20.668 10.6393 20.6491 11.5084C20.6402 11.6778 20.5711 11.8045 20.4421 11.8883C20.2586 11.993 20.051 12.0517 19.8192 12.0643C19.5715 12.0784 19.3373 12.0189 19.1166 11.886C18.9032 11.7444 18.7873 11.57 18.7688 11.3628C18.702 10.6138 18.7205 9.74071 18.8243 8.74355C18.8827 8.04761 18.9049 7.57577 18.8909 7.32804C18.8902 6.87029 18.7783 6.65136 18.5552 6.67126C18.2285 6.7004 17.9133 7.17427 17.6097 8.09287C17.3206 8.99411 17.1243 9.89913 17.0206 10.8079C17.022 10.8239 17.0191 10.8362 17.0118 10.8449L17.0057 11.8574C17.0032 12.0986 16.8493 12.2649 16.5442 12.3564C16.2464 12.4392 15.935 12.4147 15.61 12.2831C15.3017 12.158 15.1355 11.9599 15.1113 11.689C15.0274 10.7487 15.0562 9.40488 15.1975 7.65742C15.2568 6.88109 15.3795 6.27579 15.5657 5.84154C15.7591 5.39861 16.0591 5.11484 16.4656 4.99023C16.8562 4.86705 17.1423 4.87768 17.3238 5.02212C17.5047 5.1586 17.5609 5.33832 17.4924 5.56128C17.3802 5.92468 17.2995 6.32544 17.2502 6.76355C17.9711 5.39008 18.8018 4.75377 19.7425 4.85461Z" fill="#01FF5E"/>
<path d="M25.9528 6.42955C26.0056 4.7703 26.1331 3.49794 26.3353 2.61248C26.5637 1.57208 26.9688 1.02593 27.5505 0.974056C27.862 0.95431 28.1335 1.02648 28.365 1.19057C28.5878 1.34739 28.6668 1.51303 28.6021 1.68747C28.4 2.12315 28.1961 3.16939 27.9904 4.82621C28.6162 4.00739 29.2908 3.64604 30.0142 3.74216C30.5601 3.83001 30.944 4.21743 31.1659 4.90444C31.3879 5.59144 31.4169 6.36793 31.2532 7.2339C31.0819 8.28527 30.6977 9.15484 30.1004 9.84261C29.5104 10.5217 28.8623 10.8646 28.1561 10.8714C27.4101 10.8817 26.8425 10.5066 26.4534 9.74619C26.0716 8.97707 25.9047 7.87152 25.9528 6.42955ZM27.8008 7.6984C27.7936 7.70708 27.791 7.72338 27.7931 7.74728C27.7878 8.76779 27.9524 9.26312 28.2871 9.23328C28.5501 9.20983 28.7901 9.01975 29.0073 8.66305C29.2238 8.29838 29.3723 7.8474 29.4529 7.31012C29.5283 6.80542 29.5146 6.38097 29.4116 6.03675C29.3166 5.69183 29.1535 5.52967 28.9224 5.55028C28.6515 5.57444 28.4169 5.7801 28.2185 6.16725C28.0194 6.54644 27.8802 7.05682 27.8008 7.6984Z" fill="#01FF5E"/>
<path d="M39.0746 7.03581C38.6569 9.01674 37.7867 10.0662 36.464 10.1842C35.7707 10.246 35.2258 9.98938 34.8291 9.41434C34.3572 10.0668 33.7946 10.4222 33.1412 10.4805C32.8463 10.5068 32.5534 10.4646 32.2625 10.354C31.9708 10.2355 31.6883 10.0398 31.415 9.76701C31.1496 9.4935 30.9525 9.12957 30.8237 8.67522C30.6868 8.22158 30.6374 7.66778 30.6755 7.01381C30.7591 5.97026 31.0426 5.1418 31.5261 4.52843C32.0168 3.90639 32.6565 3.56019 33.4454 3.48983C33.9401 3.45374 34.4226 3.59544 34.8929 3.91494C35.1623 3.51342 35.5182 3.31702 35.9608 3.32575C36.2512 3.34001 36.4647 3.43743 36.6013 3.61801C36.7451 3.78991 36.7734 3.97212 36.6861 4.16463C36.5509 4.44977 36.4021 4.89676 36.2395 5.5056C36.0959 6.05654 36.0172 6.52538 36.0035 6.91213C35.9904 7.3952 36.0408 7.78025 36.1547 8.06726C36.2759 8.3456 36.4321 8.47624 36.6234 8.45918C36.8545 8.43857 37.0772 8.23398 37.2915 7.84541C37.5065 7.4648 37.6507 7.01019 37.7241 6.48159C37.7651 6.22092 37.9442 6.11258 38.2613 6.15658C38.5771 6.18465 38.8144 6.32411 38.9733 6.57499C39.0752 6.72654 39.1089 6.88015 39.0746 7.03581ZM34.25 6.29746C34.2709 5.90204 34.3102 5.57726 34.3679 5.32314C34.153 5.1656 33.9022 5.09962 33.6153 5.1252C33.3285 5.15079 33.0819 5.31333 32.8757 5.61283C32.6768 5.90365 32.5446 6.31301 32.4792 6.8409C32.4116 7.43325 32.4499 7.90773 32.5941 8.26432C32.7384 8.62092 32.95 8.78678 33.2288 8.76191C33.8504 8.70648 34.1889 7.90926 34.2444 6.37024C34.2437 6.36228 34.2426 6.35032 34.2412 6.33439C34.2478 6.31774 34.2507 6.30543 34.25 6.29746Z" fill="#01FF5E"/>
<path fill-rule="evenodd" clip-rule="evenodd" d="M35.3461 15.0979C35.294 15.3417 35.2667 15.5527 35.2641 15.731C35.2641 15.7353 35.264 15.7395 35.264 15.7438C35.2639 15.7575 35.2639 15.771 35.2641 15.7843C35.2651 15.8471 35.2693 15.9055 35.2769 15.9595C35.3155 16.2356 35.4408 16.3971 35.6527 16.444C35.8258 16.4814 35.9687 16.4439 36.0816 16.3314C36.1944 16.219 36.2397 16.0608 36.2174 15.8567C36.2101 15.7904 36.1967 15.7244 36.1771 15.6588C36.1345 15.5165 36.0628 15.3759 35.9619 15.237C35.9598 15.234 35.9577 15.2311 35.9556 15.2281C35.9519 15.223 35.9482 15.2178 35.9445 15.2127C35.8125 15.0307 35.6668 14.8795 35.5073 14.759C35.5011 14.7543 35.4949 14.7497 35.4886 14.7451C35.4808 14.7394 35.473 14.7337 35.4652 14.7282C35.0196 14.404 34.7753 14.0579 34.7323 13.6897C34.732 13.6872 34.7317 13.6846 34.7314 13.6821C34.6801 13.2122 34.8016 12.836 35.0961 12.5535C35.3906 12.2711 35.779 12.1035 36.2613 12.0507C36.6577 12.0137 36.979 12.0912 37.2253 12.2833C37.2415 12.2956 37.2572 12.3082 37.2723 12.3213C37.4928 12.5111 37.5985 12.7793 37.5895 13.1257C37.5863 13.2308 37.5709 13.328 37.5433 13.4173C37.5274 13.4691 37.5073 13.5183 37.4832 13.5648C37.4702 13.5898 37.4561 13.614 37.4408 13.6374C37.3832 13.7255 37.3091 13.8029 37.2183 13.8697C37.1912 13.8896 37.1627 13.9085 37.1327 13.9265C37.1222 13.9329 37.1118 13.9391 37.1016 13.9451C37.0197 13.9925 36.9449 14.0243 36.8773 14.0402C36.8457 14.0476 36.8157 14.0516 36.7872 14.0522C36.7733 14.0525 36.7597 14.0519 36.7464 14.0506C36.7438 14.0503 36.7412 14.05 36.7386 14.0497C36.693 14.0437 36.6519 14.0278 36.6153 14.0018C36.5474 13.9529 36.5204 13.8776 36.5343 13.776C36.5517 13.7178 36.5593 13.6607 36.5572 13.6046C36.5569 13.5957 36.5564 13.5869 36.5555 13.5781C36.5506 13.525 36.5369 13.4728 36.5144 13.4215C36.4637 13.3019 36.3797 13.2485 36.2622 13.2614C36.0821 13.2811 35.9986 13.4007 36.0115 13.6202C36.0118 13.6247 36.0121 13.6293 36.0125 13.6339C36.0127 13.6367 36.0129 13.6394 36.0131 13.6422C36.0138 13.6493 36.0145 13.6565 36.0153 13.6638C36.0168 13.6779 36.0192 13.6919 36.0225 13.7059C36.0441 13.7964 36.1029 13.8852 36.1991 13.9722C36.2467 14.0153 36.2984 14.0585 36.3541 14.1018C36.3932 14.1322 36.4343 14.1628 36.4774 14.1933L36.4786 14.1942C36.4913 14.2031 36.5041 14.2121 36.5171 14.2211C36.5435 14.2393 36.5706 14.2576 36.5984 14.2758C36.6892 14.3322 36.7795 14.393 36.8692 14.4582C36.9319 14.5037 36.9942 14.5514 37.0563 14.6012C37.1741 14.6873 37.2818 14.7941 37.3793 14.9215C37.4112 14.9632 37.442 15.0071 37.4717 15.0532C37.5683 15.199 37.6342 15.3604 37.6691 15.5373C37.6695 15.5393 37.6699 15.5413 37.6703 15.5433C37.6782 15.5839 37.6844 15.6254 37.689 15.6677C37.7335 16.0744 37.6912 16.428 37.5622 16.7285C37.4716 16.9397 37.338 17.1246 37.1617 17.2833C36.7345 17.6679 36.1764 17.829 35.4876 17.7667C35.1401 17.7358 34.8309 17.5975 34.56 17.3518C34.2946 17.0993 34.1228 16.7864 34.0445 16.4133C33.96 16.0409 33.9961 15.6271 34.1528 15.172C34.182 15.0974 34.2188 15.0313 34.2632 14.9736C34.3825 14.8186 34.5565 14.724 34.7853 14.6899C35.0319 14.6567 35.2073 14.7157 35.3114 14.867C35.3194 14.8815 35.3263 14.8963 35.332 14.9113L35.333 14.9142C35.3542 14.9717 35.3585 15.0329 35.3461 15.0979ZM33.7831 14.052C33.7626 13.9675 33.7472 13.8805 33.7373 13.7908C33.6583 13.0675 33.848 12.365 34.4039 11.8318C34.8861 11.3693 35.494 11.1287 36.1526 11.0567L36.1604 11.0558L36.1682 11.0551C36.7308 11.0025 37.311 11.1008 37.801 11.4648C38.3288 10.8327 39.0321 10.4574 39.8627 10.3666L39.8707 10.3658L39.8788 10.365C40.2373 10.3317 40.5827 10.3734 40.9104 10.4771C41.2012 10.2963 41.5422 10.1943 41.9239 10.1942L41.9386 10.1942L41.9533 10.1946C41.9929 10.1958 42.0331 10.1981 42.0735 10.2018C42.0854 10.1622 42.0985 10.1228 42.113 10.0834C42.258 9.68078 42.5042 9.34187 42.8213 9.06879C43.1733 8.76343 43.5942 8.57175 44.0647 8.52033C44.4697 8.47606 45.2022 8.5345 45.5564 9.24752C45.632 9.39716 45.6787 9.55661 45.7093 9.70226C45.765 9.6749 45.8095 9.64769 45.8447 9.62213C46.1518 9.39912 46.5231 9.33586 46.8728 9.42077C47.1265 9.48237 47.3283 9.61102 47.4759 9.73091C47.5375 9.65331 47.6079 9.57627 47.669 9.5114C47.4301 9.21057 47.3143 8.85562 47.2766 8.51029C47.2096 7.89723 47.4804 7.39166 47.8688 7.04021C48.2993 6.64865 48.8438 6.49296 49.375 6.45922C49.8665 6.42316 50.3133 6.59249 50.6632 6.91049C50.893 7.11939 51.0597 7.39632 51.1213 7.7243C51.18 8.03662 51.131 8.32755 51.051 8.56624L51.0496 8.57023C51.028 8.63391 51.0034 8.69589 50.9763 8.75622C51.2357 8.66036 51.5115 8.59621 51.8018 8.56448L51.8133 8.56322L51.8249 8.56223C52.0293 8.54469 52.2354 8.54599 52.4377 8.57072C52.448 8.51957 52.4617 8.46768 52.4791 8.4151C52.5874 8.0727 52.8297 7.7961 53.1626 7.64564C53.3303 7.56987 53.4979 7.53621 53.65 7.5249C53.7073 7.37193 53.7699 7.2274 53.8388 7.09287L53.8429 7.08479L53.8472 7.07679C53.9322 6.91786 54.0408 6.74064 54.1797 6.58853C54.2915 6.46597 54.5705 6.19504 55.0098 6.16521C55.4612 6.12991 55.9067 6.23676 56.3179 6.40367C56.5065 6.47915 56.7582 6.59769 56.9626 6.79299C57.0722 6.89776 57.2099 7.06405 57.2865 7.30053C57.316 7.3914 57.3334 7.48375 57.3395 7.57579C57.4376 7.6437 57.5306 7.73028 57.6139 7.83923C57.7992 8.08184 57.8643 8.34936 57.8839 8.56667C58.1792 8.43492 58.4994 8.3494 58.8411 8.31205L58.8491 8.31117L58.8572 8.31043C59.2157 8.27708 59.5611 8.3188 59.8889 8.42252C60.1796 8.24166 60.5206 8.1397 60.9023 8.13962L60.917 8.13962L60.9317 8.14005C61.3565 8.15243 61.834 8.29965 62.175 8.71867C62.3194 8.88972 62.446 9.11338 62.4943 9.38822C62.5451 9.67733 62.4959 9.94763 62.3983 10.175L62.3949 10.183L62.3913 10.1909C62.3749 10.2274 62.3564 10.2738 62.3359 10.3309C62.5202 10.2917 62.6923 10.2945 62.8276 10.3087C63.3461 10.3509 63.8138 10.5984 64.1214 11.0561C64.3289 11.3575 64.4449 11.7438 64.3623 12.1657C64.1984 13.0256 63.915 13.7925 63.4472 14.38C62.956 14.997 62.2947 15.3714 61.5086 15.4573C61.0297 15.5096 60.5847 15.4347 60.1938 15.2423C59.832 15.5095 59.4109 15.6865 58.9302 15.7391C58.5432 15.7814 58.1628 15.7317 57.7999 15.602L57.7892 15.5981L57.7785 15.594C57.5723 15.515 57.3794 15.4103 57.1994 15.286C56.8432 15.5102 56.4391 15.6507 55.9953 15.6992C55.5125 15.752 55.0281 15.6712 54.5907 15.4122C54.5169 15.3685 54.4467 15.3211 54.3798 15.2703C53.8472 15.68 53.2189 15.9215 52.5204 15.9978C51.914 16.0641 51.3214 15.9948 50.7585 15.778L50.7499 15.7747L50.7414 15.7712C50.514 15.6788 50.3032 15.5628 50.1093 15.4252C50.0324 15.6459 49.9477 15.8595 49.8549 16.0661C49.2954 17.3267 48.4478 18.3999 47.1451 18.5314L47.133 18.5326C46.6341 18.5768 46.151 18.4766 45.7121 18.23C45.2597 17.9802 44.8981 17.5958 44.7244 17.0716L44.7195 17.0568L44.7151 17.0418C44.6363 16.7765 44.6007 16.5035 44.6182 16.2319C44.5706 16.3016 44.5209 16.3692 44.4688 16.4346C43.9776 17.0516 43.3162 17.426 42.5302 17.5119C42.0513 17.5642 41.6063 17.4893 41.2154 17.2969C40.8535 17.5641 40.4325 17.7411 39.9518 17.7937C39.5648 17.836 39.1844 17.7863 38.8215 17.6566L38.8108 17.6527L38.8001 17.6486C38.6363 17.5858 38.481 17.5069 38.3338 17.4148C38.2036 17.6355 38.037 17.8409 37.8307 18.0266C37.1551 18.6347 36.3025 18.8445 35.3974 18.7626C34.8225 18.7112 34.3117 18.4767 33.8882 18.0925L33.8793 18.0845L33.8706 18.0762C33.4542 17.6799 33.1864 17.1862 33.0674 16.6266C32.9347 16.0334 33.0065 15.4294 33.2073 14.8463L33.2141 14.8265L33.2218 14.8069C33.3464 14.4891 33.5408 14.2368 33.7831 14.052ZM38.6731 16.4318C38.8317 16.5574 38.9934 16.6518 39.1581 16.7149C39.386 16.7964 39.6144 16.8246 39.8431 16.7996C40.0412 16.778 40.2279 16.7213 40.403 16.6295C40.6762 16.4864 40.9214 16.2582 41.1388 15.9447C41.3535 16.2431 41.6188 16.4271 41.9347 16.4966C42.0855 16.5297 42.2477 16.5368 42.4215 16.5178C43.171 16.4359 43.7253 15.9716 44.0842 15.1249C44.1528 14.9632 44.2143 14.7875 44.2686 14.5979C44.3193 14.4208 44.3638 14.2315 44.4021 14.03C44.4074 14.0039 44.4101 13.9779 44.4105 13.9521C44.4171 13.9326 44.4224 13.9114 44.4262 13.8886C44.4484 13.7777 44.4696 13.6676 44.49 13.5583C44.4905 13.5557 44.491 13.553 44.4915 13.5504C44.5003 13.5034 44.5089 13.4566 44.5173 13.4099L44.5178 13.4071C44.5657 13.1411 44.6083 12.8798 44.6456 12.6233C44.672 12.4408 44.6958 12.2607 44.7169 12.083C44.9793 12.0793 45.2596 12.0393 45.5578 11.9629C45.5256 12.0309 45.4955 12.1006 45.4675 12.1719C45.3628 12.4391 45.2882 12.7296 45.2437 13.0432C45.2348 13.1062 45.227 13.1702 45.2205 13.2351C45.2136 13.3047 45.208 13.3753 45.2038 13.447C45.1929 13.6497 45.1931 13.8402 45.2044 14.0184C45.205 14.0272 45.2056 14.036 45.2062 14.0447C45.2096 14.0924 45.2137 14.1393 45.2187 14.1853C45.219 14.1879 45.2193 14.1905 45.2196 14.1932C45.2307 14.294 45.2458 14.3906 45.2647 14.4828C45.2744 14.53 45.2852 14.576 45.2969 14.6209C45.3154 14.6916 45.3364 14.7595 45.36 14.8246C45.4317 15.0227 45.5269 15.195 45.6455 15.3415C45.7454 15.4631 45.8519 15.5645 45.9652 15.6457C45.8847 15.6537 45.8111 15.7244 45.7443 15.8577C45.7063 15.9271 45.6765 15.9987 45.6551 16.0727C45.6414 16.1199 45.6311 16.1681 45.6242 16.2173C45.6208 16.2416 45.6182 16.2662 45.6164 16.291C45.6138 16.3287 45.6131 16.3669 45.6143 16.4057C45.6159 16.4583 45.6211 16.5119 45.6299 16.5665C45.6326 16.5838 45.6357 16.6011 45.6392 16.6186C45.6477 16.6611 45.6583 16.7043 45.671 16.748C45.6719 16.751 45.6728 16.7541 45.6737 16.7571C45.7577 17.0107 45.9329 17.2106 46.1991 17.3566C46.4592 17.5034 46.741 17.5633 47.0447 17.5364C47.7223 17.4681 48.3082 16.9409 48.8022 15.9548C48.8375 15.8843 48.8724 15.8114 48.9068 15.7362C48.9185 15.7105 48.9302 15.6846 48.9418 15.6584C49.0871 15.335 49.2117 14.9872 49.3155 14.6148C49.3261 14.5768 49.3365 14.5385 49.3467 14.4999C49.348 14.4948 49.3493 14.4898 49.3507 14.4847C49.4299 14.1822 49.4958 13.8641 49.5484 13.5303C49.5952 13.2335 49.6315 12.9242 49.6572 12.6025C49.6579 12.594 49.6586 12.5855 49.6593 12.577C49.6931 12.1442 49.708 11.6883 49.704 11.2108C49.6982 10.7004 49.5966 10.3287 49.3992 10.0957C49.3888 10.0834 49.3782 10.0715 49.3673 10.0601C49.352 10.0439 49.3361 10.0285 49.3197 10.0139C49.2585 9.95648 49.1946 9.91592 49.1281 9.89222C48.9442 9.82669 48.7402 9.89014 48.5162 10.0826C48.4892 10.1057 48.462 10.1307 48.4344 10.1576C48.3278 10.2694 48.261 10.3455 48.2341 10.386C48.2066 10.4203 48.1824 10.4855 48.1617 10.5816C48.1601 10.5929 48.1587 10.6047 48.1574 10.6171C48.1533 10.6567 48.1504 10.7018 48.1489 10.7524C48.1477 10.7926 48.1473 10.8363 48.1477 10.8835C48.1659 11.0493 48.1642 11.3258 48.1427 11.7129C48.138 11.7975 48.1323 11.8874 48.1258 11.9826C48.1233 12.0182 48.1207 12.0545 48.118 12.0915C48.1091 12.2119 48.0988 12.3402 48.0872 12.4763C48.0811 12.5564 48.0748 12.6352 48.0683 12.7128C47.8934 12.721 47.7944 12.8096 47.7712 12.9786C47.7375 13.2487 47.6981 13.483 47.653 13.6817C47.6449 13.7174 47.6366 13.752 47.6281 13.7854C47.6201 13.817 47.6119 13.8475 47.6036 13.877C47.6013 13.8849 47.5991 13.8928 47.5968 13.9006C47.5728 13.983 47.5475 14.0571 47.5209 14.1229C47.4229 14.3714 47.278 14.5061 47.0864 14.527C46.9854 14.5381 46.8993 14.49 46.8281 14.3829C46.7903 14.3261 46.7568 14.2527 46.7274 14.1627C46.6932 14.0491 46.67 13.9224 46.6579 13.7826C46.6576 13.7793 46.6573 13.7761 46.6571 13.7728C46.6547 13.7438 46.6527 13.7142 46.6513 13.6841C46.6496 13.6502 46.6486 13.6156 46.6482 13.5803C46.6466 13.4541 46.6527 13.3188 46.6664 13.1745C46.7026 12.8764 46.7756 12.5712 46.8854 12.2589C46.9653 12.0485 47.0502 11.8714 47.1401 11.7276C47.1868 11.6528 47.2349 11.587 47.2844 11.5301C47.3416 11.4238 47.3343 11.2713 47.2626 11.0726C47.2517 11.0427 47.2397 11.0132 47.2264 10.9842C47.2121 10.953 47.1964 10.9224 47.1793 10.8924C47.178 10.8901 47.1767 10.8879 47.1754 10.8856C47.1665 10.8703 47.1572 10.855 47.1476 10.8399C47.0884 10.7476 47.0153 10.6608 46.928 10.5796C46.9142 10.5667 46.9 10.554 46.8854 10.5413C46.705 10.3796 46.554 10.3429 46.4322 10.4313C46.258 10.5578 46.0467 10.6607 45.7982 10.7399C45.7572 10.753 45.7152 10.7654 45.6723 10.7772C45.4948 10.8226 45.3201 10.8523 45.1481 10.8661C45.0309 10.8756 44.9151 10.8777 44.8004 10.8725L44.7967 10.6664C44.7866 10.1732 44.7418 9.84959 44.6624 9.69559C44.5899 9.54709 44.4268 9.4867 44.1733 9.5144C43.9136 9.54279 43.6809 9.64644 43.4752 9.82534C43.275 9.99739 43.1342 10.1974 43.0528 10.4253C43.034 10.4759 43.0193 10.5273 43.0085 10.5797C42.9862 10.6885 42.9812 10.8012 42.9936 10.9175C42.9951 10.9318 42.9968 10.9461 42.9989 10.9604C43.0072 11.0194 43.0199 11.0794 43.0371 11.1403C43.1025 11.3959 43.2574 11.6105 43.5016 11.784C43.502 11.8406 43.5 11.9141 43.4957 12.0046C43.4909 12.1044 43.4832 12.2249 43.4727 12.3659C43.4516 12.6479 43.419 13.0123 43.375 13.4591C43.3734 13.4765 43.3731 13.494 43.3738 13.5115C43.3594 13.543 43.3493 13.5792 43.3437 13.6201C43.3349 13.6945 43.3242 13.767 43.3118 13.8377C43.3111 13.8414 43.3105 13.8451 43.3098 13.8488C43.253 14.1652 43.1592 14.4446 43.0286 14.687C43.0217 14.7 43.0148 14.7128 43.0079 14.7254C42.8534 15.006 42.6904 15.1557 42.5187 15.1744C42.3703 15.1906 42.2469 15.0915 42.1483 14.877C42.0553 14.6557 42.0102 14.3571 42.0129 13.9814C42.0176 13.6806 42.0714 13.3149 42.1746 12.8844C42.2537 12.5622 42.3292 12.2978 42.4009 12.0912C42.4351 11.9927 42.4685 11.9073 42.501 11.8351C42.5073 11.8204 42.513 11.8051 42.5176 11.7906C42.5601 11.6563 42.5297 11.5299 42.4265 11.4115C42.4037 11.3825 42.3783 11.3565 42.3504 11.3333C42.3451 11.3289 42.3396 11.3246 42.3341 11.3204C42.2519 11.2576 42.1491 11.2182 42.0255 11.2021C41.9931 11.1979 41.9593 11.1952 41.9241 11.1942C41.5852 11.1943 41.3146 11.3477 41.1124 11.6546C41.1093 11.6593 41.1062 11.664 41.1031 11.6688C41.0952 11.6636 41.0873 11.6585 41.0793 11.6535C40.7165 11.4234 40.3472 11.3258 39.9714 11.3607C39.3592 11.4276 38.8673 11.7067 38.4955 12.1978C38.476 12.2235 38.457 12.2497 38.4385 12.2763C38.2663 12.5235 38.1327 12.8105 38.0376 13.1373L38.037 13.1394C37.9617 13.3985 37.9107 13.6825 37.8838 13.9916C37.8795 14.0414 37.8758 14.0919 37.8727 14.143C37.8663 14.3127 37.8672 14.4736 37.8754 14.6257C37.8783 14.6776 37.882 14.7285 37.8865 14.7783C37.8867 14.7807 37.8869 14.7831 37.8872 14.7855C37.9094 15.0248 37.9516 15.2403 38.0137 15.4322C38.0341 15.499 38.0563 15.5633 38.0805 15.6249C38.1832 15.8873 38.3198 16.1029 38.4902 16.2717C38.5507 16.3298 38.6117 16.3831 38.6731 16.4318ZM46.8455 15.8853C46.7395 15.8935 46.6371 15.8908 46.5384 15.877C46.5356 15.8767 46.5329 15.8763 46.5301 15.8759C46.4202 15.8599 46.3147 15.8302 46.2139 15.7868L46.2089 15.7847C46.1928 15.7777 46.1767 15.7703 46.1608 15.7625L46.1885 15.7998C46.2522 15.9242 46.3307 16.0126 46.424 16.065C46.5111 16.1181 46.6608 16.1424 46.8731 16.1379C46.8901 16.1361 46.907 16.1334 46.9237 16.1298C47.0922 16.0941 47.2439 15.9729 47.3788 15.7663C47.2295 15.8236 47.0687 15.8617 46.8964 15.8805C46.8868 15.8816 46.8773 15.8825 46.8678 15.8834C46.8603 15.8841 46.8529 15.8847 46.8455 15.8853ZM40.6403 13.5308C40.6504 13.2231 40.676 12.97 40.7169 12.7716C40.5474 12.6524 40.3514 12.605 40.1288 12.6293C40.109 12.6315 40.0895 12.6345 40.0702 12.6383C39.9292 12.6664 39.8024 12.7393 39.6897 12.8571C39.6447 12.9042 39.6019 12.9584 39.5614 13.0199C39.4113 13.249 39.3149 13.5693 39.2722 13.9806C39.2288 14.4421 39.2659 14.8104 39.3836 15.0853C39.5012 15.3603 39.6683 15.486 39.8847 15.4623C40.367 15.4096 40.6178 14.7846 40.6371 13.5874L40.634 13.5596C40.6389 13.5466 40.641 13.537 40.6403 13.5308ZM49.7201 12.7311C49.7326 12.9738 49.7711 13.2008 49.8354 13.4121C49.8997 13.6231 49.9897 13.8184 50.1056 13.9981C50.1969 14.1362 50.2973 14.2604 50.4068 14.3708C50.6119 14.5775 50.8489 14.7355 51.1179 14.8448C51.5229 15.0008 51.9541 15.0537 52.4117 15.0037C52.9137 14.9489 53.3502 14.7857 53.7214 14.5142C53.8577 14.4145 53.9853 14.3001 54.104 14.1712C54.1342 14.1377 54.1638 14.1038 54.1926 14.0695C54.2831 13.9618 54.3666 13.8497 54.4432 13.7333C54.4682 13.79 54.4944 13.8446 54.5218 13.897C54.6779 14.1949 54.8678 14.4115 55.0915 14.5465C55.321 14.6851 55.586 14.738 55.8866 14.7051C56.0898 14.6829 56.2787 14.6326 56.4532 14.5542C56.7519 14.4199 57.0086 14.2033 57.2232 13.9043C57.2952 14.0221 57.377 14.1264 57.4686 14.2171C57.6307 14.3725 57.7961 14.4944 57.9648 14.5826C58.0216 14.6123 58.0789 14.6382 58.1365 14.6603C58.3644 14.7418 58.5928 14.77 58.8215 14.745C59.0197 14.7234 59.2063 14.6667 59.3815 14.5749C59.6546 14.4319 59.8998 14.2036 60.1172 13.8901C60.3319 14.1885 60.5973 14.3725 60.9132 14.442C61.0639 14.4751 61.2262 14.4822 61.3999 14.4632C62.4263 14.351 63.0866 13.5217 63.3806 11.9754C63.4048 11.8539 63.3762 11.735 63.2947 11.6188C63.1672 11.4262 62.9806 11.3215 62.7347 11.3045C62.4875 11.2752 62.35 11.3622 62.3221 11.5655C62.2733 11.9775 62.1683 12.3332 62.007 12.6324C61.8464 12.9377 61.6764 13.1002 61.4971 13.1198C61.3487 13.136 61.2253 13.0369 61.1267 12.8224C61.0337 12.6011 60.9886 12.3025 60.9913 11.9268C60.996 11.626 61.0499 11.2603 61.153 10.8298C61.2699 10.354 61.3787 10.0042 61.4794 9.78049C61.5443 9.62949 61.5194 9.48829 61.405 9.35689C61.296 9.21863 61.1285 9.14621 60.9025 9.13962C60.5636 9.13969 60.293 9.29314 60.0908 9.59997C60.0877 9.60467 60.0846 9.6094 60.0816 9.61416C60.0736 9.60898 60.0656 9.60386 60.0576 9.5988C59.6948 9.36874 59.3255 9.27118 58.9498 9.30613C58.3376 9.37304 57.8457 9.65206 57.4739 10.1432C57.3829 10.2635 57.3016 10.394 57.2302 10.5346C57.0741 10.8421 56.9647 11.198 56.9023 11.6024C56.8511 11.6468 56.8196 11.712 56.8078 11.7982C56.7985 11.8957 56.7856 11.9908 56.7691 12.0834L56.7688 12.0852C56.7336 12.2817 56.6821 12.4674 56.6142 12.6422C56.6118 12.6482 56.6095 12.6542 56.6071 12.6603C56.6014 12.6747 56.5956 12.689 56.5896 12.7032C56.5656 12.7608 56.5398 12.8171 56.5122 12.8723C56.3702 13.1756 56.2033 13.3378 56.0116 13.3587C55.9913 13.361 55.9713 13.3601 55.9517 13.3562C55.9116 13.3481 55.8728 13.3272 55.8356 13.2935C55.8201 13.2776 55.805 13.2586 55.7901 13.2366C55.7574 13.188 55.726 13.1244 55.6959 13.046C55.6521 12.9319 55.6146 12.7889 55.5833 12.6172C55.5787 12.5855 55.5744 12.5525 55.5703 12.5181L55.5701 12.5168C55.5691 12.5078 55.568 12.4987 55.567 12.4895C55.5665 12.4846 55.5659 12.4797 55.5654 12.4748C55.5499 12.3311 55.5387 12.1645 55.5319 11.9752C55.5304 11.8424 55.5322 11.7017 55.5373 11.553C55.5378 11.5372 55.5384 11.5213 55.539 11.5053C55.5425 11.4166 55.5471 11.325 55.5529 11.2308C55.5551 11.1936 55.5576 11.156 55.5602 11.118C55.578 10.7656 55.6296 10.3502 55.715 9.87156C55.7836 9.87031 55.9478 9.85549 56.2075 9.82711C56.3188 9.81495 56.4357 9.7396 56.5583 9.60107C56.7689 9.35279 56.8796 9.07789 56.8905 8.77637C56.892 8.73447 56.8912 8.69572 56.8882 8.66011C56.8696 8.43947 56.7645 8.33963 56.5728 8.36058L56.072 8.41532C56.1729 8.07892 56.2595 7.84107 56.3319 7.70176C56.371 7.60253 56.2964 7.50374 56.1081 7.40541C56.0607 7.38064 56.006 7.35589 55.9441 7.33118C55.6167 7.19802 55.329 7.14187 55.081 7.16272C54.9814 7.16735 54.8641 7.29593 54.729 7.54846C54.6001 7.80032 54.4861 8.13188 54.3872 8.54315C54.2313 8.54768 54.0585 8.54153 53.869 8.52471C53.6224 8.5016 53.4763 8.56762 53.4307 8.72278C53.4081 8.78729 53.4084 8.85919 53.4316 8.93847C53.4622 9.04308 53.5326 9.16055 53.643 9.29087C53.6818 9.34013 53.7204 9.3857 53.7587 9.42758C53.7637 9.43314 53.7688 9.43863 53.7739 9.44406C53.7766 9.44694 53.7793 9.44981 53.782 9.45266C53.7834 9.45414 53.7848 9.45562 53.7862 9.4571C53.805 9.47686 53.8238 9.49573 53.8424 9.5137C53.8471 9.51823 53.8518 9.5227 53.8565 9.52711C53.9405 9.606 54.0232 9.66673 54.1047 9.70932C54.1268 9.72088 54.1488 9.73112 54.1707 9.74001C54.1674 9.76598 54.1642 9.79193 54.161 9.81787C54.1247 10.1161 54.0993 10.412 54.0847 10.7057C54.0766 10.8686 54.0718 11.0308 54.0704 11.1924C54.0704 11.2002 54.0703 11.2081 54.0702 11.2159C54.0702 11.2188 54.0702 11.2217 54.0702 11.2245C54.0679 11.4002 54.0694 11.5695 54.0745 11.7324C53.984 11.7747 53.9323 11.8529 53.9194 11.967C53.8699 12.3728 53.7229 12.7455 53.4784 13.0851C53.4491 13.1258 53.4186 13.1644 53.3869 13.2009C53.3846 13.2037 53.3822 13.2064 53.3798 13.2091C53.3425 13.2515 53.3035 13.2909 53.263 13.3275C53.0522 13.5175 52.7977 13.6288 52.4996 13.6614C51.9836 13.7178 51.6034 13.5814 51.3589 13.2523C51.3543 13.2462 51.3498 13.24 51.3454 13.2338C51.7405 13.1273 52.0923 12.9685 52.4008 12.7573C52.4066 12.7533 52.4124 12.7493 52.4181 12.7453C52.5164 12.6771 52.6102 12.6035 52.6996 12.5245C52.7124 12.5132 52.7251 12.5018 52.7377 12.4903C52.8768 12.366 52.9941 12.2305 53.0897 12.0836C53.1313 12.0197 53.1687 11.9536 53.2021 11.8854C53.203 11.8835 53.2039 11.8817 53.2048 11.8798C53.3024 11.6786 53.3641 11.4588 53.3902 11.2204L53.3907 11.2158C53.3933 11.1913 53.3956 11.1666 53.3974 11.1418C53.4037 11.0848 53.4076 11.0289 53.409 10.974C53.4146 10.7605 53.3834 10.5628 53.3156 10.3809C53.2704 10.2598 53.2089 10.1457 53.1311 10.0386C53.1154 10.0171 53.0991 9.99582 53.0822 9.97486C53.0492 9.93192 53.0138 9.89224 52.9758 9.85581C52.9683 9.84863 52.9607 9.84157 52.953 9.83464C52.8708 9.76044 52.7773 9.70075 52.6726 9.65557C52.4633 9.56525 52.2093 9.53292 51.9104 9.55856C51.3737 9.61723 50.9223 9.82393 50.5564 10.1787C50.4755 10.2571 50.3988 10.3427 50.3263 10.4356C50.154 10.6562 50.0182 10.9137 49.9188 11.2084C49.7871 11.5991 49.7192 12.0556 49.7156 12.5766C49.7157 12.5968 49.716 12.617 49.7165 12.637C49.7168 12.6486 49.7171 12.6602 49.7175 12.6718C49.7182 12.6917 49.719 12.7115 49.7201 12.7311ZM58.6041 13.3509C58.6807 13.3993 58.767 13.4182 58.8631 13.4077C59.3454 13.355 59.5962 12.73 59.6155 11.5328L59.6125 11.505C59.6173 11.492 59.6194 11.4824 59.6187 11.4762C59.6289 11.1685 59.6544 10.9154 59.6953 10.717C59.5258 10.5978 59.3298 10.5504 59.1072 10.5747C59.0874 10.5769 59.0679 10.5799 59.0487 10.5837C58.9076 10.6118 58.7808 10.6848 58.6681 10.8025C58.6231 10.8496 58.5803 10.9038 58.5398 10.9653C58.5119 11.0079 58.4858 11.0538 58.4615 11.1028C58.4078 11.2114 58.3633 11.3355 58.3279 11.4751C58.3256 11.484 58.3234 11.4929 58.3213 11.5018C58.2902 11.6304 58.2666 11.7718 58.2506 11.926C58.2387 12.0527 58.2329 12.1723 58.2331 12.2849L58.2331 12.2869C58.2339 12.5837 58.2768 12.8317 58.362 13.0307C58.4274 13.1836 58.5081 13.2904 58.6041 13.3509ZM51.1106 12.2612C51.1104 12.2686 51.1103 12.276 51.1101 12.2834C51.385 12.2221 51.617 12.1122 51.8062 11.9539C51.8095 11.9511 51.8129 11.9483 51.8162 11.9454C51.8551 11.9123 51.8909 11.8787 51.9234 11.8447C51.9851 11.7802 52.0353 11.7141 52.0741 11.6463C52.0751 11.6445 52.0761 11.6427 52.0772 11.6409C52.1128 11.5776 52.1385 11.5128 52.1543 11.4466C52.1924 11.2797 52.1676 11.1385 52.0799 11.023C51.9915 10.9012 51.8793 10.8478 51.7432 10.8627C51.5753 10.881 51.4311 11.0086 51.3107 11.2453C51.3093 11.2479 51.308 11.2505 51.3067 11.2531C51.3043 11.258 51.3019 11.2629 51.2995 11.2678C51.2913 11.2848 51.2834 11.3023 51.2758 11.3202C51.2519 11.3762 51.2306 11.4366 51.2119 11.5015C51.1519 11.7091 51.1182 11.9624 51.1106 12.2612ZM49.5247 8.97368C49.5906 8.9318 49.6542 8.88245 49.7155 8.82563C49.9074 8.63571 50.0366 8.44327 50.1029 8.24831C50.1878 7.995 50.1504 7.79574 49.9906 7.65052C49.8308 7.5053 49.6486 7.44075 49.4438 7.45687C49.0523 7.48089 48.7512 7.58888 48.5407 7.78083C48.3357 7.96592 48.2457 8.17286 48.2707 8.40164C48.2961 8.63399 48.3738 8.81594 48.5038 8.94751C48.5156 8.95949 48.5279 8.97105 48.5406 8.9822C48.6922 9.10954 48.8607 9.16308 49.0462 9.1428C49.2173 9.1241 49.3768 9.06773 49.5247 8.97368Z" fill="#00A4DA"/>
<path d="M37.689 15.6677C37.7647 16.3602 37.589 16.8988 37.1617 17.2834C36.7345 17.6679 36.1764 17.829 35.4876 17.7667C35.1401 17.7358 34.8309 17.5976 34.56 17.3518C34.2946 17.0993 34.1228 16.7864 34.0445 16.4133C33.96 16.0409 33.9961 15.6271 34.1528 15.172C34.2605 14.8974 34.4713 14.7367 34.7853 14.6899C35.0319 14.6567 35.2073 14.7157 35.3114 14.867C35.3505 14.9378 35.362 15.0148 35.3461 15.0979C35.1722 15.9115 35.2744 16.3602 35.6528 16.444C35.8258 16.4814 35.9687 16.4439 36.0816 16.3315C36.1944 16.219 36.2397 16.0608 36.2174 15.8567C36.1944 15.6465 36.1093 15.4399 35.962 15.237C35.814 15.028 35.6484 14.8583 35.4652 14.7282C35.0166 14.4018 34.772 14.0531 34.7314 13.6821C34.6801 13.2122 34.8016 12.836 35.0961 12.5535C35.3906 12.2711 35.779 12.1035 36.2613 12.0508C36.6577 12.0137 36.979 12.0912 37.2253 12.2833C37.4777 12.4747 37.5991 12.7555 37.5895 13.1257C37.5786 13.4836 37.4263 13.7505 37.1327 13.9265C36.9099 14.0635 36.7374 14.0886 36.6153 14.0018C36.5474 13.9529 36.5204 13.8777 36.5343 13.776C36.571 13.6531 36.5643 13.535 36.5144 13.4215C36.4638 13.3019 36.3797 13.2486 36.2622 13.2614C36.0706 13.2823 35.9882 13.4165 36.0153 13.6638C36.0267 13.7689 36.088 13.8717 36.1991 13.9722C36.3102 14.0727 36.4433 14.1739 36.5984 14.2758C36.7527 14.3716 36.9054 14.4801 37.0563 14.6012C37.2127 14.7155 37.3512 14.8662 37.4717 15.0532C37.5916 15.2341 37.664 15.4389 37.689 15.6677Z" fill="#F8407C"/>
<path d="M44.4022 14.03C44.1081 15.5764 43.4479 16.4056 42.4215 16.5178C41.8836 16.5766 41.456 16.3856 41.1388 15.9447C40.782 16.4592 40.3502 16.7442 39.8431 16.7996C39.6144 16.8246 39.386 16.7964 39.1581 16.7149C38.9295 16.6273 38.7069 16.4796 38.4902 16.2717C38.2797 16.0632 38.1209 15.7834 38.0137 15.4322C37.9003 15.0817 37.8533 14.6519 37.8728 14.143C37.9216 13.3305 38.1292 12.6821 38.4955 12.1978C38.8673 11.7067 39.3592 11.4276 39.9714 11.3607C40.3554 11.325 40.7327 11.4277 41.1031 11.6688C41.3063 11.3525 41.58 11.1943 41.9241 11.1942C42.1501 11.2008 42.3176 11.2732 42.4266 11.4115C42.541 11.5429 42.5658 11.6841 42.501 11.8351C42.4003 12.0588 42.2915 12.4086 42.1746 12.8844C42.0715 13.3149 42.0176 13.6806 42.0129 13.9814C42.0102 14.3572 42.0553 14.6557 42.1483 14.877C42.2469 15.0915 42.3703 15.1906 42.5187 15.1744C42.698 15.1548 42.868 14.9923 43.0286 14.687C43.1898 14.3878 43.2949 14.0322 43.3437 13.6201C43.3715 13.4168 43.5091 13.3299 43.7563 13.3591C44.0022 13.3761 44.1888 13.4808 44.3162 13.6734C44.3978 13.7896 44.4264 13.9085 44.4022 14.03ZM40.6403 13.5308C40.6505 13.2231 40.676 12.97 40.7169 12.7716C40.5474 12.6524 40.3514 12.605 40.1288 12.6294C39.9062 12.6537 39.7171 12.7839 39.5614 13.0199C39.4113 13.249 39.3149 13.5693 39.2722 13.9806C39.2288 14.4422 39.2659 14.8104 39.3836 15.0854C39.5012 15.3603 39.6683 15.486 39.8847 15.4623C40.367 15.4096 40.6178 14.7846 40.6371 13.5874C40.6364 13.5813 40.6354 13.572 40.6341 13.5596C40.6389 13.5466 40.641 13.537 40.6403 13.5308Z" fill="#F8407C"/>
<path d="M47.2844 11.5302C47.1399 11.6961 47.0069 11.939 46.8854 12.2589C46.7756 12.5713 46.7026 12.8764 46.6664 13.1745C46.6286 13.5728 46.6489 13.9022 46.7274 14.1627C46.8122 14.4225 46.9318 14.5439 47.0864 14.527C47.2781 14.5061 47.4229 14.3714 47.5209 14.1229C47.6244 13.8676 47.7078 13.4861 47.7712 12.9786C47.7991 12.7754 47.9366 12.6884 48.1838 12.7177C48.4311 12.747 48.6211 12.8545 48.7541 13.0402C48.8287 13.1509 48.8543 13.2701 48.8307 13.3978C48.6892 14.1641 48.4628 14.7551 48.1516 15.1708C47.8404 15.5865 47.422 15.8231 46.8964 15.8805C46.4018 15.9346 45.9848 15.7549 45.6455 15.3415C45.3056 14.9219 45.1584 14.2904 45.2038 13.447C45.2364 12.8865 45.3544 12.3918 45.5578 11.9629C45.2596 12.0393 44.9793 12.0793 44.7169 12.083C44.6485 12.6598 44.5516 13.2617 44.4262 13.8886C44.3922 14.0926 44.2437 14.1651 43.9807 14.1062C43.7562 14.0557 43.5805 13.9372 43.4538 13.7509C43.3928 13.6512 43.3666 13.5539 43.375 13.4591C43.461 12.5863 43.5032 12.0279 43.5016 11.7841C43.2574 11.6105 43.1025 11.3959 43.0371 11.1403C42.9654 10.8853 42.9706 10.647 43.0528 10.4253C43.1342 10.1974 43.2751 9.9974 43.4752 9.82535C43.6809 9.64644 43.9136 9.5428 44.1733 9.51441C44.4268 9.48671 44.5899 9.5471 44.6624 9.6956C44.7418 9.8496 44.7866 10.1732 44.7967 10.6664L44.8004 10.8725C45.0834 10.8854 45.374 10.8536 45.6723 10.7772C45.976 10.6939 46.2293 10.5786 46.4322 10.4313C46.554 10.3429 46.705 10.3796 46.8854 10.5414C47.0651 10.6969 47.1908 10.874 47.2626 11.0727C47.3343 11.2713 47.3416 11.4238 47.2844 11.5302Z" fill="#F8407C"/>
<path d="M46.8731 16.138C47.5038 16.069 47.9085 14.8485 48.0872 12.4763C48.1559 11.6741 48.1761 11.1432 48.1477 10.8835C48.1466 10.7585 48.1512 10.6579 48.1617 10.5816C48.1825 10.4855 48.2066 10.4203 48.2341 10.386C48.261 10.3455 48.3278 10.2694 48.4344 10.1576C48.7737 9.82646 49.0688 9.77857 49.3197 10.0139C49.5694 10.2369 49.6975 10.6359 49.704 11.2108C49.7193 13.0112 49.4652 14.4937 48.9418 15.6584C48.4197 16.8355 47.7874 17.4615 47.0447 17.5364C46.7411 17.5633 46.4592 17.5034 46.1991 17.3567C45.9329 17.2106 45.7577 17.0107 45.6737 16.7571C45.5747 16.4238 45.5982 16.124 45.7443 15.8577C45.8471 15.6525 45.966 15.5957 46.1011 15.6873C46.108 15.6929 46.1371 15.7303 46.1885 15.7998C46.2522 15.9242 46.3307 16.0127 46.424 16.065C46.5111 16.1181 46.6608 16.1424 46.8731 16.138ZM48.2707 8.40165C48.2457 8.17287 48.3357 7.96593 48.5407 7.78084C48.7512 7.58889 49.0523 7.4809 49.4438 7.45687C49.6486 7.44076 49.8308 7.50531 49.9906 7.65053C50.1504 7.79575 50.1878 7.99501 50.1029 8.24832C50.0366 8.44327 49.9074 8.63571 49.7155 8.82564C49.5166 9.01005 49.2935 9.11578 49.0462 9.14281C48.8607 9.16309 48.6922 9.10955 48.5406 8.98221C48.3884 8.84868 48.2984 8.65516 48.2707 8.40165Z" fill="#F8407C"/>
<path d="M53.3974 11.1418C53.3566 11.6843 53.1367 12.1338 52.7377 12.4903C52.3565 12.8386 51.8924 13.0864 51.3454 13.2338C51.5893 13.5763 51.9741 13.7188 52.4996 13.6614C52.9077 13.6168 53.234 13.4247 53.4784 13.0851C53.7229 12.7455 53.8699 12.3728 53.9194 11.967C53.9417 11.7706 54.0789 11.6805 54.331 11.6967C54.5713 11.7205 54.7607 11.8218 54.8992 12.0007C54.9807 12.1169 55.01 12.242 54.9871 12.3759C54.8505 13.0728 54.5562 13.6712 54.104 14.1712C53.6621 14.6512 53.098 14.9287 52.4117 15.0037C51.9542 15.0537 51.5229 15.0008 51.1179 14.8448C50.7054 14.6772 50.3679 14.3949 50.1056 13.9981C49.8494 13.6006 49.7194 13.1268 49.7156 12.5766C49.722 11.6624 49.9256 10.9487 50.3263 10.4356C50.7269 9.92256 51.255 9.63021 51.9104 9.55857C52.4435 9.51282 52.8341 9.65158 53.0822 9.97486C53.3426 10.2968 53.4477 10.6858 53.3974 11.1418ZM51.7432 10.8627C51.5701 10.8816 51.4222 11.0166 51.2995 11.2678C51.1823 11.5121 51.1191 11.8507 51.1101 12.2834C51.385 12.2221 51.617 12.1122 51.8062 11.9539C51.9954 11.7956 52.1114 11.6265 52.1543 11.4466C52.1924 11.2797 52.1676 11.1385 52.0799 11.023C51.9915 10.9012 51.8793 10.8478 51.7432 10.8627Z" fill="#F8407C"/>
<path d="M56.072 8.41532L56.5728 8.36058C56.7954 8.33625 56.9013 8.47485 56.8905 8.77638C56.8796 9.0779 56.7689 9.3528 56.5583 9.60107C56.4357 9.73961 56.3188 9.81495 56.2075 9.82712C55.9479 9.8555 55.7837 9.87032 55.715 9.87157C55.6296 10.3502 55.578 10.7657 55.5602 11.118C55.5384 11.4332 55.5289 11.719 55.5319 11.9752C55.5411 12.2307 55.5582 12.4447 55.5833 12.6172C55.6146 12.7889 55.6521 12.9319 55.6959 13.046C55.7396 13.1601 55.7862 13.2426 55.8356 13.2935C55.8911 13.3438 55.9498 13.3655 56.0116 13.3587C56.2033 13.3378 56.3702 13.1756 56.5122 12.8723C56.6715 12.5545 56.77 12.1965 56.8078 11.7982C56.8356 11.5949 56.9732 11.5079 57.2204 11.5372C57.4676 11.5665 57.6577 11.674 57.7906 11.8597C57.8653 11.9704 57.8908 12.0896 57.8672 12.2174C57.5732 13.7637 56.913 14.593 55.8866 14.7052C55.293 14.77 54.8381 14.5006 54.5218 13.897C54.2056 13.2933 54.055 12.4025 54.0702 11.2245C54.0731 10.7362 54.1066 10.2413 54.1707 9.74001C54.0005 9.67102 53.8246 9.52131 53.643 9.29088C53.449 9.0618 53.3783 8.87243 53.4307 8.72278C53.4763 8.56763 53.6224 8.50161 53.869 8.52471C54.0585 8.54154 54.2313 8.54769 54.3872 8.54316C54.4862 8.13189 54.6001 7.80033 54.729 7.54847C54.8641 7.29594 54.9814 7.16736 55.081 7.16273C55.329 7.14188 55.6167 7.19803 55.9441 7.33119C56.2516 7.454 56.3809 7.57753 56.3319 7.70177C56.2595 7.84108 56.1729 8.07893 56.072 8.41532Z" fill="#F8407C"/>
<path d="M63.3806 11.9754C63.0866 13.5218 62.4264 14.351 61.3999 14.4632C60.862 14.522 60.4344 14.331 60.1172 13.8901C59.7604 14.4046 59.3286 14.6896 58.8216 14.745C58.5928 14.77 58.3644 14.7418 58.1365 14.6603C57.908 14.5727 57.6853 14.425 57.4686 14.2171C57.2581 14.0086 57.0993 13.7288 56.9921 13.3776C56.8787 13.0271 56.8317 12.5973 56.8512 12.0884C56.9 11.2759 57.1076 10.6275 57.4739 10.1432C57.8457 9.65207 58.3376 9.37304 58.9498 9.30614C59.3338 9.27042 59.7111 9.3731 60.0816 9.61417C60.2848 9.29788 60.5584 9.1397 60.9026 9.13963C61.1285 9.14622 61.296 9.21864 61.405 9.3569C61.5194 9.4883 61.5443 9.6295 61.4794 9.7805C61.3787 10.0042 61.2699 10.354 61.153 10.8298C61.0499 11.2603 60.996 11.626 60.9913 11.9268C60.9886 12.3026 61.0337 12.6011 61.1268 12.8224C61.2253 13.0369 61.3487 13.1361 61.4971 13.1198C61.6765 13.1002 61.8464 12.9377 62.007 12.6324C62.1683 12.3332 62.2733 11.9776 62.3221 11.5655C62.35 11.3622 62.4875 11.2753 62.7347 11.3045C62.9806 11.3215 63.1672 11.4262 63.2947 11.6188C63.3762 11.735 63.4048 11.8539 63.3806 11.9754ZM59.6187 11.4762C59.6289 11.1685 59.6544 10.9154 59.6953 10.717C59.5258 10.5978 59.3298 10.5504 59.1072 10.5748C58.8846 10.5991 58.6955 10.7293 58.5398 10.9653C58.3897 11.1944 58.2933 11.5147 58.2506 11.926C58.2072 12.3876 58.2444 12.7558 58.362 13.0308C58.4797 13.3057 58.6467 13.4314 58.8631 13.4077C59.3454 13.355 59.5962 12.7301 59.6155 11.5328C59.6148 11.5267 59.6138 11.5174 59.6125 11.505C59.6173 11.492 59.6194 11.4824 59.6187 11.4762Z" fill="#F8407C"/>
<path d="M37.689 14.6677C37.7647 15.3602 37.589 15.8988 37.1617 16.2834C36.7345 16.6679 36.1764 16.829 35.4876 16.7667C35.1401 16.7358 34.8309 16.5976 34.56 16.3518C34.2946 16.0993 34.1228 15.7864 34.0445 15.4133C33.96 15.0409 33.9961 14.6271 34.1528 14.172C34.2605 13.8974 34.4713 13.7367 34.7853 13.6899C35.0319 13.6567 35.2073 13.7157 35.3114 13.867C35.3505 13.9378 35.362 14.0148 35.3461 14.0979C35.1722 14.9115 35.2744 15.3602 35.6528 15.444C35.8258 15.4814 35.9687 15.4439 36.0816 15.3315C36.1944 15.219 36.2397 15.0608 36.2174 14.8567C36.1944 14.6465 36.1093 14.4399 35.962 14.237C35.814 14.028 35.6484 13.8583 35.4652 13.7282C35.0166 13.4018 34.772 13.0531 34.7314 12.6821C34.6801 12.2122 34.8016 11.836 35.0961 11.5535C35.3906 11.2711 35.779 11.1035 36.2613 11.0508C36.6577 11.0137 36.979 11.0912 37.2253 11.2833C37.4777 11.4747 37.5991 11.7555 37.5895 12.1257C37.5786 12.4836 37.4263 12.7505 37.1327 12.9265C36.9099 13.0635 36.7374 13.0886 36.6153 13.0018C36.5474 12.9529 36.5204 12.8777 36.5343 12.776C36.571 12.6531 36.5643 12.535 36.5144 12.4215C36.4638 12.3019 36.3797 12.2486 36.2622 12.2614C36.0706 12.2823 35.9882 12.4165 36.0153 12.6638C36.0267 12.7689 36.088 12.8717 36.1991 12.9722C36.3102 13.0727 36.4433 13.1739 36.5984 13.2758C36.7527 13.3716 36.9054 13.4801 37.0563 13.6012C37.2127 13.7155 37.3512 13.8662 37.4717 14.0532C37.5916 14.2341 37.664 14.4389 37.689 14.6677Z" fill="#01FF5E"/>
<path d="M44.4022 13.03C44.1081 14.5764 43.4479 15.4056 42.4215 15.5178C41.8836 15.5766 41.456 15.3856 41.1388 14.9447C40.782 15.4592 40.3502 15.7442 39.8431 15.7996C39.6144 15.8246 39.386 15.7964 39.1581 15.7149C38.9295 15.6273 38.7069 15.4796 38.4902 15.2717C38.2797 15.0632 38.1209 14.7834 38.0137 14.4322C37.9003 14.0817 37.8533 13.6519 37.8728 13.143C37.9216 12.3305 38.1292 11.6821 38.4955 11.1978C38.8673 10.7067 39.3592 10.4276 39.9714 10.3607C40.3554 10.325 40.7327 10.4277 41.1031 10.6688C41.3063 10.3525 41.58 10.1943 41.9241 10.1942C42.1501 10.2008 42.3176 10.2732 42.4266 10.4115C42.541 10.5429 42.5658 10.6841 42.501 10.8351C42.4003 11.0588 42.2915 11.4086 42.1746 11.8844C42.0715 12.3149 42.0176 12.6806 42.0129 12.9814C42.0102 13.3572 42.0553 13.6557 42.1483 13.877C42.2469 14.0915 42.3703 14.1906 42.5187 14.1744C42.698 14.1548 42.868 13.9923 43.0286 13.687C43.1898 13.3878 43.2949 13.0322 43.3437 12.6201C43.3715 12.4168 43.5091 12.3299 43.7563 12.3591C44.0022 12.3761 44.1888 12.4808 44.3162 12.6734C44.3978 12.7896 44.4264 12.9085 44.4022 13.03ZM40.6403 12.5308C40.6505 12.2231 40.676 11.97 40.7169 11.7716C40.5474 11.6524 40.3514 11.605 40.1288 11.6294C39.9062 11.6537 39.7171 11.7839 39.5614 12.0199C39.4113 12.249 39.3149 12.5693 39.2722 12.9806C39.2288 13.4422 39.2659 13.8104 39.3836 14.0854C39.5012 14.3603 39.6683 14.486 39.8847 14.4623C40.367 14.4096 40.6178 13.7846 40.6371 12.5874C40.6364 12.5813 40.6354 12.572 40.6341 12.5596C40.6389 12.5466 40.641 12.537 40.6403 12.5308Z" fill="#01FF5E"/>
<path d="M47.2844 10.5302C47.1399 10.6961 47.0069 10.939 46.8854 11.2589C46.7756 11.5713 46.7026 11.8764 46.6664 12.1745C46.6286 12.5728 46.6489 12.9022 46.7274 13.1627C46.8122 13.4225 46.9318 13.5439 47.0864 13.527C47.2781 13.5061 47.4229 13.3714 47.5209 13.1229C47.6244 12.8676 47.7078 12.4861 47.7712 11.9786C47.7991 11.7754 47.9366 11.6884 48.1838 11.7177C48.4311 11.747 48.6211 11.8545 48.7541 12.0402C48.8287 12.1509 48.8543 12.2701 48.8307 12.3978C48.6892 13.1641 48.4628 13.7551 48.1516 14.1708C47.8404 14.5865 47.422 14.8231 46.8964 14.8805C46.4018 14.9346 45.9848 14.7549 45.6455 14.3415C45.3056 13.9219 45.1584 13.2904 45.2038 12.447C45.2364 11.8865 45.3544 11.3918 45.5578 10.9629C45.2596 11.0393 44.9793 11.0793 44.7169 11.083C44.6485 11.6598 44.5516 12.2617 44.4262 12.8886C44.3922 13.0926 44.2437 13.1651 43.9807 13.1062C43.7562 13.0557 43.5805 12.9372 43.4538 12.7509C43.3928 12.6512 43.3666 12.5539 43.375 12.4591C43.461 11.5863 43.5032 11.0279 43.5016 10.7841C43.2574 10.6105 43.1025 10.3959 43.0371 10.1403C42.9654 9.88534 42.9706 9.647 43.0528 9.42528C43.1342 9.19738 43.2751 8.9974 43.4752 8.82535C43.6809 8.64644 43.9136 8.5428 44.1733 8.51441C44.4268 8.48671 44.5899 8.5471 44.6624 8.6956C44.7418 8.8496 44.7866 9.17321 44.7967 9.66641L44.8004 9.87248C45.0834 9.88535 45.374 9.85359 45.6723 9.77719C45.976 9.69394 46.2293 9.57865 46.4322 9.43133C46.554 9.34294 46.705 9.37962 46.8854 9.54136C47.0651 9.69692 47.1908 9.87402 47.2626 10.0727C47.3343 10.2713 47.3416 10.4238 47.2844 10.5302Z" fill="#01FF5E"/>
<path d="M46.8731 15.138C47.5038 15.069 47.9085 13.8485 48.0872 11.4763C48.1559 10.6741 48.1761 10.1432 48.1477 9.88349C48.1466 9.75847 48.1512 9.65785 48.1617 9.58163C48.1825 9.4855 48.2066 9.42029 48.2341 9.386C48.261 9.34552 48.3278 9.26939 48.4344 9.15762C48.7737 8.82646 49.0688 8.77857 49.3197 9.01393C49.5694 9.23693 49.6975 9.6359 49.704 10.2108C49.7193 12.0112 49.4652 13.4937 48.9418 14.6584C48.4197 15.8355 47.7874 16.4615 47.0447 16.5364C46.7411 16.5633 46.4592 16.5034 46.1991 16.3567C45.9329 16.2106 45.7577 16.0107 45.6737 15.7571C45.5747 15.4238 45.5982 15.124 45.7443 14.8577C45.8471 14.6525 45.966 14.5957 46.1011 14.6873C46.108 14.6929 46.1371 14.7303 46.1885 14.7998C46.2522 14.9242 46.3307 15.0127 46.424 15.065C46.5111 15.1181 46.6608 15.1424 46.8731 15.138ZM48.2707 7.40165C48.2457 7.17287 48.3357 6.96593 48.5407 6.78084C48.7512 6.58889 49.0523 6.4809 49.4438 6.45687C49.6486 6.44076 49.8308 6.50531 49.9906 6.65053C50.1504 6.79575 50.1878 6.99501 50.1029 7.24832C50.0366 7.44327 49.9074 7.63571 49.7155 7.82564C49.5166 8.01005 49.2935 8.11578 49.0462 8.14281C48.8607 8.16309 48.6922 8.10955 48.5406 7.98221C48.3884 7.84868 48.2984 7.65516 48.2707 7.40165Z" fill="#01FF5E"/>
<path d="M53.3974 10.1418C53.3566 10.6843 53.1367 11.1338 52.7377 11.4903C52.3565 11.8386 51.8924 12.0864 51.3454 12.2338C51.5893 12.5763 51.9741 12.7188 52.4996 12.6614C52.9077 12.6168 53.234 12.4247 53.4784 12.0851C53.7229 11.7455 53.8699 11.3728 53.9194 10.967C53.9417 10.7706 54.0789 10.6805 54.331 10.6967C54.5713 10.7205 54.7607 10.8218 54.8992 11.0007C54.9807 11.1169 55.01 11.242 54.9871 11.3759C54.8505 12.0728 54.5562 12.6712 54.104 13.1712C53.6621 13.6512 53.098 13.9287 52.4117 14.0037C51.9542 14.0537 51.5229 14.0008 51.1179 13.8448C50.7054 13.6772 50.3679 13.3949 50.1056 12.9981C49.8494 12.6006 49.7194 12.1268 49.7156 11.5766C49.722 10.6624 49.9256 9.94871 50.3263 9.43564C50.7269 8.92256 51.255 8.63021 51.9104 8.55857C52.4435 8.51282 52.8341 8.65158 53.0822 8.97486C53.3426 9.29679 53.4477 9.68576 53.3974 10.1418ZM51.7432 9.86267C51.5701 9.88159 51.4222 10.0166 51.2995 10.2678C51.1823 10.5121 51.1191 10.8507 51.1101 11.2834C51.385 11.2221 51.617 11.1122 51.8062 10.9539C51.9954 10.7956 52.1114 10.6265 52.1543 10.4466C52.1924 10.2797 52.1676 10.1385 52.0799 10.023C51.9915 9.90124 51.8793 9.8478 51.7432 9.86267Z" fill="#01FF5E"/>
<path d="M56.072 7.41532L56.5728 7.36058C56.7954 7.33625 56.9013 7.47485 56.8905 7.77638C56.8796 8.0779 56.7689 8.3528 56.5583 8.60107C56.4357 8.73961 56.3188 8.81495 56.2075 8.82712C55.9479 8.8555 55.7837 8.87032 55.715 8.87157C55.6296 9.35018 55.578 9.76565 55.5602 10.118C55.5384 10.4332 55.5289 10.719 55.5319 10.9752C55.5411 11.2307 55.5582 11.4447 55.5833 11.6172C55.6146 11.7889 55.6521 11.9319 55.6959 12.046C55.7396 12.1601 55.7862 12.2426 55.8356 12.2935C55.8911 12.3438 55.9498 12.3655 56.0116 12.3587C56.2033 12.3378 56.3702 12.1756 56.5122 11.8723C56.6715 11.5545 56.77 11.1965 56.8078 10.7982C56.8356 10.5949 56.9732 10.5079 57.2204 10.5372C57.4676 10.5665 57.6577 10.674 57.7906 10.8597C57.8653 10.9704 57.8908 11.0896 57.8672 11.2174C57.5732 12.7637 56.913 13.593 55.8866 13.7052C55.293 13.77 54.8381 13.5006 54.5218 12.897C54.2056 12.2933 54.055 11.4025 54.0702 10.2245C54.0731 9.73617 54.1066 9.24133 54.1707 8.74001C54.0005 8.67102 53.8246 8.52131 53.643 8.29088C53.449 8.0618 53.3783 7.87243 53.4307 7.72278C53.4763 7.56763 53.6224 7.50161 53.869 7.52471C54.0585 7.54154 54.2313 7.54769 54.3872 7.54316C54.4862 7.13189 54.6001 6.80033 54.729 6.54847C54.8641 6.29594 54.9814 6.16736 55.081 6.16273C55.329 6.14188 55.6167 6.19803 55.9441 6.33119C56.2516 6.45401 56.3809 6.57753 56.3319 6.70177C56.2595 6.84108 56.1729 7.07893 56.072 7.41532Z" fill="#01FF5E"/>
<path d="M63.3806 10.9754C63.0866 12.5218 62.4264 13.351 61.3999 13.4632C60.862 13.522 60.4344 13.331 60.1172 12.8901C59.7604 13.4046 59.3286 13.6896 58.8216 13.745C58.5928 13.77 58.3644 13.7418 58.1365 13.6603C57.908 13.5727 57.6853 13.425 57.4686 13.2171C57.2581 13.0086 57.0993 12.7288 56.9921 12.3776C56.8787 12.0271 56.8317 11.5973 56.8512 11.0884C56.9 10.2759 57.1076 9.6275 57.4739 9.14321C57.8457 8.65207 58.3376 8.37304 58.9498 8.30614C59.3338 8.27042 59.7111 8.3731 60.0816 8.61417C60.2848 8.29788 60.5584 8.1397 60.9026 8.13963C61.1285 8.14622 61.296 8.21864 61.405 8.3569C61.5194 8.4883 61.5443 8.6295 61.4794 8.7805C61.3787 9.00424 61.2699 9.35402 61.153 9.82982C61.0499 10.2603 60.996 10.626 60.9913 10.9268C60.9886 11.3026 61.0337 11.6011 61.1268 11.8224C61.2253 12.0369 61.3487 12.1361 61.4971 12.1198C61.6765 12.1002 61.8464 11.9377 62.007 11.6324C62.1683 11.3332 62.2733 10.9776 62.3221 10.5655C62.35 10.3622 62.4875 10.2753 62.7347 10.3045C62.9806 10.3215 63.1672 10.4262 63.2947 10.6188C63.3762 10.735 63.4048 10.8539 63.3806 10.9754ZM59.6187 10.4762C59.6289 10.1685 59.6544 9.9154 59.6953 9.71697C59.5258 9.59783 59.3298 9.55043 59.1072 9.57476C58.8846 9.59909 58.6955 9.72926 58.5398 9.96527C58.3897 10.1944 58.2933 10.5147 58.2506 10.926C58.2072 11.3876 58.2444 11.7558 58.362 12.0308C58.4797 12.3057 58.6467 12.4314 58.8631 12.4077C59.3454 12.355 59.5962 11.7301 59.6155 10.5328C59.6148 10.5267 59.6138 10.5174 59.6125 10.505C59.6173 10.492 59.6194 10.4824 59.6187 10.4762Z" fill="#01FF5E"/>
</svg>
