<svg width="1511" height="649" viewBox="0 0 1511 649" fill="none" xmlns="http://www.w3.org/2000/svg">
<path fill-rule="evenodd" clip-rule="evenodd" d="M1044.53 157.468C1023.24 110.531 990.821 88.5173 947.28 91.4278C895.935 94.86 849.442 127.681 807.802 189.891C774.052 240.508 751.501 295.089 740.148 353.635C733.561 387.159 731.093 418.082 732.744 446.404L681.828 457.734C690.125 373.688 703.773 281.614 722.771 181.51L632.266 204.686L607.4 439.499C603.649 354.594 605.159 278.575 611.929 211.441L483.455 242.29C471.353 306.944 456.183 373.364 437.945 441.551C433.841 348.304 435.016 245.369 441.47 132.745L304.913 166.232L262.778 375.49L268.332 151.626L126.327 184.868C107.454 329.847 75.6024 473.258 30.7723 615.1L154.599 589.771L217.783 253.049L203.095 629.158L268.573 615.646L327.62 316.348L323.742 583.337L427.533 557.702L491.557 543.357L497.978 504.517L526.242 496.954L523.461 551.7L597.936 528.865L591.91 585.771C657.179 563.196 712.48 547.725 757.812 539.358C779.388 578.068 810.2 596.085 850.248 593.408C901.182 590.003 947.483 557.4 989.15 495.598C1012.97 460.279 1031.26 423.138 1044 384.175C1044.06 385.926 1044.15 387.663 1044.27 389.386C1045.56 408.753 1050.33 426.042 1058.58 441.251C1072.29 467.423 1092.05 479.646 1117.86 477.921C1139.09 476.502 1159.42 465.612 1178.86 445.252C1172.09 468.055 1165.04 491.014 1157.72 514.129L1268.47 489.6L1276.52 441.964L1311.76 432.651L1308.22 499.787L1419.43 466.128C1407.83 319.189 1407.66 191.287 1418.94 82.4224L1258.78 120.424C1240.23 217.358 1215.97 317.536 1185.99 420.957L1175.13 389.503C1162.25 409.326 1149.36 419.669 1136.45 420.531C1131.99 420.83 1127.7 420.131 1123.6 418.435C1111.03 413.119 1104.2 402.248 1103.1 385.822C1102.69 379.693 1103.1 372.771 1104.33 365.055C1106.74 348.887 1113.16 331.22 1123.59 312.053C1136.25 288.798 1149.15 276.731 1162.3 275.852C1169.75 275.354 1176.52 277.857 1182.62 283.359L1221.63 234.948C1207.62 208.057 1187.71 195.475 1161.9 197.2C1132.38 199.174 1106.17 217.301 1083.29 251.583C1075.63 262.98 1069.09 274.761 1063.67 286.924C1065.04 270.004 1065.21 253.873 1064.18 238.532C1062.19 208.747 1055.64 181.726 1044.53 157.468ZM869.919 304.387C890.877 266.1 912.653 246.202 935.245 244.692C954.961 243.374 968.266 257.239 975.159 286.286C981.668 315.769 982.043 346.072 976.284 377.195C971.458 403.747 962.292 427.106 948.786 447.271C931.911 472.58 911.972 486.003 888.969 487.54C872.128 488.666 858.588 483.628 848.35 472.427C839.426 462.368 834.404 448.974 833.286 432.246C832.495 420.413 833.457 407.029 836.172 392.094C841.711 363.854 852.96 334.619 869.919 304.387ZM537.874 272.698L529.19 438.268L508.504 443.579L537.447 272.726L537.874 272.698ZM1326.56 157.638L1315.51 360.683L1289.73 367.223L1326.03 157.674L1326.56 157.638Z" fill="#1F2E98"/>
<path fill-rule="evenodd" clip-rule="evenodd" d="M1104.53 97.4685C1083.24 50.5309 1050.82 28.5173 1007.28 31.4278C955.935 34.86 909.442 67.6811 867.802 129.891C834.052 180.508 811.5 235.089 800.148 293.635C793.56 327.159 791.092 358.082 792.744 386.404L741.828 397.734C750.125 313.688 763.773 221.614 782.771 121.51L692.266 144.686L667.399 379.499C663.649 294.594 665.159 218.575 671.929 151.441L543.455 182.29C531.353 246.944 516.183 313.364 497.944 381.551C493.841 288.304 495.016 185.369 501.47 72.7448L364.912 106.232L322.778 315.49L328.332 91.626L186.326 124.868C167.454 269.847 135.602 413.258 90.7721 555.1L214.599 529.771L277.783 193.049L263.095 569.158L328.573 555.646L387.62 256.348L383.742 523.337L487.533 497.702L551.557 483.357L557.978 444.517L586.242 436.954L583.461 491.7L657.936 468.865L651.91 525.771C717.179 503.196 772.48 487.725 817.812 479.358C839.388 518.068 870.199 536.085 910.248 533.408C961.182 530.003 1007.48 497.4 1049.15 435.598C1072.97 400.279 1091.26 363.138 1104 324.175C1104.06 325.926 1104.15 327.663 1104.27 329.386C1105.56 348.753 1110.33 366.042 1118.58 381.251C1132.29 407.423 1152.05 419.646 1177.86 417.921C1199.09 416.502 1219.42 405.612 1238.86 385.252C1232.09 408.055 1225.04 431.014 1217.72 454.129L1328.47 429.6L1336.52 381.964L1371.76 372.651L1368.22 439.787L1479.43 406.128C1467.83 259.189 1467.66 131.287 1478.94 22.4224L1318.78 60.4237C1300.23 157.358 1275.97 257.536 1245.99 360.957L1235.13 329.503C1222.25 349.326 1209.36 359.669 1196.45 360.531C1191.99 360.83 1187.7 360.131 1183.6 358.435C1171.03 353.119 1164.2 342.248 1163.1 325.822C1162.69 319.693 1163.1 312.771 1164.33 305.055C1166.74 288.887 1173.16 271.22 1183.59 252.053C1196.25 228.798 1209.15 216.731 1222.3 215.852C1229.75 215.354 1236.52 217.857 1242.62 223.359L1281.63 174.948C1267.62 148.057 1247.71 135.475 1221.9 137.2C1192.38 139.174 1166.17 157.301 1143.29 191.583C1135.63 202.98 1129.09 214.761 1123.67 226.924C1125.04 210.004 1125.21 193.873 1124.18 178.532C1122.19 148.747 1115.64 121.726 1104.53 97.4685ZM929.918 244.387C950.877 206.1 972.653 186.202 995.245 184.692C1014.96 183.374 1028.27 197.239 1035.16 226.286C1041.67 255.769 1042.04 286.072 1036.28 317.195C1031.46 343.747 1022.29 367.106 1008.79 387.271C991.911 412.58 971.972 426.003 948.969 427.54C932.128 428.666 918.588 423.628 908.35 412.427C899.425 402.368 894.404 388.974 893.286 372.246C892.495 360.413 893.457 347.029 896.172 332.094C901.711 303.854 912.96 274.619 929.918 244.387ZM597.874 212.698L589.189 378.268L568.504 383.579L597.447 212.726L597.874 212.698ZM1386.56 97.6384L1375.51 300.683L1349.73 307.223L1386.03 97.674L1386.56 97.6384Z" fill="url(#paint0_linear_498_1404)"/>
<defs>
<linearGradient id="paint0_linear_498_1404" x1="412.709" y1="61.273" x2="570.855" y2="793.274" gradientUnits="userSpaceOnUse">
<stop stop-color="#FCFF60"/>
<stop offset="1" stop-color="#A6FF60"/>
</linearGradient>
</defs>
</svg>
